<svg id="Layer_1" data-name="Layer 1" xmlns="http://www.w3.org/2000/svg" viewBox="0 0 1390 1390">
  <rect width="1389" height="1389" fill="#e3e000"/>
  <rect x="494.835" y="293.5" width="216.875" height="742" rx="21.179" fill="#fff"/>
  <g>
    <rect x="533.514" y="608.398" width="29.872" height="34.884" transform="translate(4.811 -4.184) rotate(0.439)" fill="#e3e000"/>
    <rect x="643.159" y="608.398" width="29.872" height="34.884" transform="translate(4.815 -5.024) rotate(0.439)" fill="#e3e000"/>
    <rect x="587.935" y="608.398" width="29.872" height="34.884" transform="translate(4.813 -4.601) rotate(0.439)" fill="#e3e000"/>
    <rect x="533.514" y="660.61" width="29.872" height="34.884" transform="translate(5.211 -4.182) rotate(0.439)" fill="#e3e000"/>
    <rect x="643.159" y="660.61" width="29.872" height="34.884" transform="translate(5.215 -5.023) rotate(0.439)" fill="#e3e000"/>
    <rect x="587.935" y="660.61" width="29.872" height="34.884" transform="translate(5.213 -4.599) rotate(0.439)" fill="#e3e000"/>
    <rect x="533.514" y="712.822" width="29.872" height="34.884" transform="translate(5.612 -4.181) rotate(0.439)" fill="#e3e000"/>
    <rect x="643.159" y="712.822" width="29.872" height="34.884" transform="translate(5.615 -5.021) rotate(0.439)" fill="#e3e000"/>
    <rect x="587.935" y="712.822" width="29.872" height="34.884" transform="translate(5.613 -4.598) rotate(0.439)" fill="#e3e000"/>
    <rect x="533.514" y="765.034" width="29.872" height="34.884" transform="translate(6.012 -4.179) rotate(0.439)" fill="#e3e000"/>
    <rect x="643.159" y="765.034" width="29.872" height="34.884" transform="translate(6.015 -5.019) rotate(0.439)" fill="#e3e000"/>
    <rect x="587.935" y="765.034" width="29.872" height="34.884" transform="translate(6.013 -4.596) rotate(0.439)" fill="#e3e000"/>
  </g>
  <rect x="970.5" y="726.5" width="117" height="251" rx="58.5" fill="#26a5b4"/>
  <rect x="483.71" y="293.5" width="239.125" height="52" fill="#fff"/>
  <path d="M304.087,647.256H547.807a0,0,0,0,1,0,0v353.418a34.15,34.15,0,0,1-34.15,34.15H338.236a34.15,34.15,0,0,1-34.15-34.15V647.256a0,0,0,0,1,0,0Z" transform="translate(6.457 -3.239) rotate(0.439)" fill="none" stroke="#39393a" stroke-miterlimit="10" stroke-width="8"/>
  <path d="M732.077,546.5H943.438a0,0,0,0,1,0,0v454.048a34.15,34.15,0,0,1-34.15,34.15H766.227a34.15,34.15,0,0,1-34.15-34.15V546.5a0,0,0,0,1,0,0Z" transform="translate(6.082 -6.396) rotate(0.439)" fill="none" stroke="#39393a" stroke-miterlimit="10" stroke-width="8"/>
  <rect x="336.938" y="733.898" width="38.377" height="44.817" transform="translate(5.805 -2.707) rotate(0.439)" fill="none" stroke="#39393a" stroke-miterlimit="10" stroke-width="8"/>
  <rect x="477.804" y="733.898" width="38.377" height="44.817" transform="translate(5.81 -3.786) rotate(0.439)" fill="none" stroke="#39393a" stroke-miterlimit="10" stroke-width="8"/>
  <rect x="406.855" y="733.898" width="38.377" height="44.817" transform="translate(5.807 -3.242) rotate(0.439)" fill="none" stroke="#39393a" stroke-miterlimit="10" stroke-width="8"/>
  <rect x="336.938" y="800.978" width="38.377" height="44.817" transform="translate(6.319 -2.705) rotate(0.439)" fill="none" stroke="#39393a" stroke-miterlimit="10" stroke-width="8"/>
  <rect x="477.804" y="800.978" width="38.377" height="44.817" transform="translate(6.324 -3.784) rotate(0.439)" fill="none" stroke="#39393a" stroke-miterlimit="10" stroke-width="8"/>
  <rect x="406.855" y="800.978" width="38.377" height="44.817" transform="translate(6.321 -3.24) rotate(0.439)" fill="none" stroke="#39393a" stroke-miterlimit="10" stroke-width="8"/>
  <rect x="336.938" y="868.057" width="38.377" height="44.817" transform="translate(6.833 -2.703) rotate(0.439)" fill="none" stroke="#39393a" stroke-miterlimit="10" stroke-width="8"/>
  <rect x="477.804" y="868.057" width="38.377" height="44.817" transform="translate(6.838 -3.782) rotate(0.439)" fill="none" stroke="#39393a" stroke-miterlimit="10" stroke-width="8"/>
  <rect x="406.855" y="868.057" width="38.377" height="44.817" transform="translate(6.835 -3.238) rotate(0.439)" fill="none" stroke="#39393a" stroke-miterlimit="10" stroke-width="8"/>
  <rect x="336.938" y="935.136" width="38.377" height="44.817" transform="translate(7.347 -2.701) rotate(0.439)" fill="none" stroke="#39393a" stroke-miterlimit="10" stroke-width="8"/>
  <rect x="477.804" y="935.136" width="38.377" height="44.817" transform="translate(7.351 -3.78) rotate(0.439)" fill="none" stroke="#39393a" stroke-miterlimit="10" stroke-width="8"/>
  <rect x="406.855" y="935.136" width="38.377" height="44.817" transform="translate(7.349 -3.236) rotate(0.439)" fill="none" stroke="#39393a" stroke-miterlimit="10" stroke-width="8"/>
  <g>
    <rect x="533.514" y="388.398" width="29.872" height="34.884" transform="translate(3.126 -4.19) rotate(0.439)" fill="#e3e000"/>
    <rect x="643.159" y="388.398" width="29.872" height="34.884" transform="translate(3.129 -5.031) rotate(0.439)" fill="#e3e000"/>
    <rect x="587.935" y="388.398" width="29.872" height="34.884" transform="translate(3.127 -4.607) rotate(0.439)" fill="#e3e000"/>
    <rect x="533.514" y="440.61" width="29.872" height="34.884" transform="translate(3.526 -4.189) rotate(0.439)" fill="#e3e000"/>
    <rect x="643.159" y="440.61" width="29.872" height="34.884" transform="translate(3.529 -5.029) rotate(0.439)" fill="#e3e000"/>
    <rect x="587.935" y="440.61" width="29.872" height="34.884" transform="translate(3.527 -4.606) rotate(0.439)" fill="#e3e000"/>
    <rect x="533.514" y="492.822" width="29.872" height="34.884" transform="translate(3.926 -4.187) rotate(0.439)" fill="#e3e000"/>
    <rect x="643.159" y="492.822" width="29.872" height="34.884" transform="translate(3.929 -5.027) rotate(0.439)" fill="#e3e000"/>
    <rect x="587.935" y="492.822" width="29.872" height="34.884" transform="translate(3.927 -4.604) rotate(0.439)" fill="#e3e000"/>
    <rect x="533.514" y="545.034" width="29.872" height="34.884" transform="translate(4.326 -4.186) rotate(0.439)" fill="#e3e000"/>
    <rect x="643.159" y="545.034" width="29.872" height="34.884" transform="translate(4.329 -5.026) rotate(0.439)" fill="#e3e000"/>
    <rect x="587.935" y="545.034" width="29.872" height="34.884" transform="translate(4.327 -4.603) rotate(0.439)" fill="#e3e000"/>
  </g>
  <rect x="305.51" y="647.271" width="243.713" height="39.778" transform="translate(5.124 -3.255) rotate(0.439)" fill="none" stroke="#39393a" stroke-miterlimit="10" stroke-width="8"/>
  <rect x="769.888" y="502.5" width="136" height="43" fill="none" stroke="#39393a" stroke-miterlimit="10" stroke-width="8"/>
  <rect x="769.888" y="585.5" width="136" height="21" fill="none" stroke="#39393a" stroke-miterlimit="10" stroke-width="8"/>
  <rect x="769.888" y="645.5" width="136" height="21" fill="none" stroke="#39393a" stroke-miterlimit="10" stroke-width="8"/>
  <rect x="769.888" y="705.5" width="136" height="21" fill="none" stroke="#39393a" stroke-miterlimit="10" stroke-width="8"/>
  <rect x="769.888" y="765.5" width="136" height="21" fill="none" stroke="#39393a" stroke-miterlimit="10" stroke-width="8"/>
  <rect x="769.888" y="825.5" width="136" height="21" fill="none" stroke="#39393a" stroke-miterlimit="10" stroke-width="8"/>
  <rect x="769.888" y="885.5" width="136" height="21" fill="none" stroke="#39393a" stroke-miterlimit="10" stroke-width="8"/>
  <rect x="769.888" y="945.5" width="136" height="21" fill="none" stroke="#39393a" stroke-miterlimit="10" stroke-width="8"/>
  <circle cx="689" cy="919.773" r="58.5" fill="#26a5b4"/>
  <line x1="689" y1="1035.5" x2="689" y2="898.5" fill="#fff" stroke="#39393a" stroke-linecap="round" stroke-linejoin="round" stroke-width="9"/>
  <line x1="713.818" y1="910.909" x2="689" y2="939.998" fill="#fff" stroke="#39393a" stroke-linecap="round" stroke-linejoin="round" stroke-width="9"/>
  <line x1="665.955" y1="910.909" x2="688.773" y2="937.998" fill="#fff" stroke="#39393a" stroke-linecap="round" stroke-linejoin="round" stroke-width="9"/>
  <line x1="1029" y1="1035.5" x2="1029" y2="763.5" fill="#fff" stroke="#39393a" stroke-linecap="round" stroke-linejoin="round" stroke-width="9"/>
  <line x1="1053.818" y1="910.909" x2="1029" y2="939.998" fill="#fff" stroke="#39393a" stroke-linecap="round" stroke-linejoin="round" stroke-width="9"/>
  <line x1="1005.955" y1="910.909" x2="1028.773" y2="937.998" fill="#fff" stroke="#39393a" stroke-linecap="round" stroke-linejoin="round" stroke-width="9"/>
  <line x1="1053.818" y1="850.909" x2="1029" y2="879.998" fill="#fff" stroke="#39393a" stroke-linecap="round" stroke-linejoin="round" stroke-width="9"/>
  <line x1="1005.955" y1="850.909" x2="1028.773" y2="877.998" fill="#fff" stroke="#39393a" stroke-linecap="round" stroke-linejoin="round" stroke-width="9"/>
  <line x1="1053.818" y1="790.909" x2="1029" y2="819.998" fill="#fff" stroke="#39393a" stroke-linecap="round" stroke-linejoin="round" stroke-width="9"/>
  <line x1="1005.955" y1="790.909" x2="1028.773" y2="817.998" fill="#fff" stroke="#39393a" stroke-linecap="round" stroke-linejoin="round" stroke-width="9"/>
  <line x1="169.5" y1="1033.5" x2="1186.5" y2="1038.5" fill="#fff" stroke="#39393a" stroke-linecap="round" stroke-linejoin="round" stroke-width="9"/>
  <line x1="630.5" y1="1068.5" x2="905.5" y2="1068.5" fill="#fff" stroke="#39393a" stroke-linecap="round" stroke-linejoin="round" stroke-width="9"/>
  <line x1="482.5" y1="1068.5" x2="605.5" y2="1068.5" fill="#fff" stroke="#39393a" stroke-linecap="round" stroke-linejoin="round" stroke-width="9"/>
  <line x1="392.5" y1="1068.5" x2="461.5" y2="1068.5" fill="#fff" stroke="#39393a" stroke-linecap="round" stroke-linejoin="round" stroke-width="9"/>
  <path d="M375.72,451.5a5,5,0,0,1-4.487-2.788c-4.243-8.593-11.015-12.6-21.315-12.6s-17.071,4-21.313,12.6a5,5,0,0,1-8.967,0c-4.242-8.594-11.016-12.6-21.315-12.6s-17.072,4-21.314,12.6a5,5,0,0,1-4.483,2.786h0a5,5,0,0,1-4.484-2.787c-4.242-8.593-11.015-12.6-21.313-12.6s-17.073,4-21.315,12.6a5,5,0,0,1-8.967-4.426c5.868-11.887,16.338-18.169,30.282-18.169,10.9,0,19.681,3.842,25.8,11.2,6.116-7.357,14.9-11.2,25.8-11.2s19.682,3.842,25.8,11.2c6.115-7.357,14.9-11.2,25.8-11.2,13.943,0,24.414,6.282,30.281,18.169a5,5,0,0,1-4.479,7.214Z" fill="#39393a"/>
  <g>
    <polyline points="1022.215 281.758 1022.215 397.197 1079.934 297.224" fill="none" stroke="#39393a" stroke-linecap="round" stroke-linejoin="round" stroke-width="10"/>
    <polyline points="1079.934 297.224 1022.215 397.197 1122.188 339.477" fill="none" stroke="#39393a" stroke-linecap="round" stroke-linejoin="round" stroke-width="10"/>
    <polyline points="1122.188 339.477 1022.215 397.197 1137.654 397.197" fill="none" stroke="#39393a" stroke-linecap="round" stroke-linejoin="round" stroke-width="10"/>
    <polyline points="1137.654 397.197 1022.215 397.197 1122.188 454.916" fill="none" stroke="#39393a" stroke-linecap="round" stroke-linejoin="round" stroke-width="10"/>
    <polyline points="1122.188 454.916 1022.215 397.197 1079.934 497.17" fill="none" stroke="#39393a" stroke-linecap="round" stroke-linejoin="round" stroke-width="10"/>
    <polyline points="1079.934 497.17 1022.215 397.197 1022.215 512.636" fill="none" stroke="#39393a" stroke-linecap="round" stroke-linejoin="round" stroke-width="10"/>
    <polyline points="1022.215 512.636 1022.215 397.197 964.495 497.17" fill="none" stroke="#39393a" stroke-linecap="round" stroke-linejoin="round" stroke-width="10"/>
    <polyline points="964.495 497.17 1022.215 397.197 922.242 454.916" fill="none" stroke="#39393a" stroke-linecap="round" stroke-linejoin="round" stroke-width="10"/>
    <polyline points="922.242 454.916 1022.215 397.197 906.776 397.197" fill="none" stroke="#39393a" stroke-linecap="round" stroke-linejoin="round" stroke-width="10"/>
    <polyline points="906.776 397.197 1022.215 397.197 922.242 339.477" fill="none" stroke="#39393a" stroke-linecap="round" stroke-linejoin="round" stroke-width="10"/>
    <polyline points="922.242 339.477 1022.215 397.197 964.495 297.224" fill="none" stroke="#39393a" stroke-linecap="round" stroke-linejoin="round" stroke-width="10"/>
    <polyline points="964.495 297.224 1022.215 397.197 1022.215 281.758" fill="none" stroke="#39393a" stroke-linecap="round" stroke-linejoin="round" stroke-width="10"/>
  </g>
  <circle cx="1022.188" cy="397.112" r="95" fill="#e3e000"/>
  <circle cx="1022.188" cy="397.112" r="72.723" fill="#fff"/>
</svg>
