<svg id="Layer_1" data-name="Layer 1" xmlns="http://www.w3.org/2000/svg" viewBox="0 0 1390 1390">
  <rect x="-0.167" y="3.5" width="1390" height="1390" fill="#f8f7bf"/>
  <rect x="523.059" y="316.5" width="331" height="390" fill="#ea1c0a"/>
  <rect x="573.059" y="357.5" width="90" height="85" fill="#f8f7bf"/>
  <rect x="711.627" y="357.5" width="90" height="84" fill="#f8f7bf"/>
  <rect x="716.059" y="589.5" width="83.568" height="122" fill="#f8f7bf"/>
  <rect x="573.059" y="471.5" width="90" height="85" fill="#f8f7bf"/>
  <rect x="573.059" y="586.5" width="90" height="85" fill="#f8f7bf"/>
  <rect x="711.627" y="471.5" width="90" height="85" fill="#f8f7bf"/>
  <path d="M665.666,209.5a5,5,0,0,1-4.488-2.788c-4.242-8.593-11.014-12.595-21.314-12.595s-17.071,4-21.314,12.6a5,5,0,0,1-8.966,0c-4.243-8.594-11.016-12.6-21.315-12.6s-17.072,4-21.314,12.6a5,5,0,0,1-4.484,2.786h0a5,5,0,0,1-4.483-2.787c-4.242-8.593-11.015-12.595-21.314-12.595s-17.072,4-21.314,12.6a5,5,0,0,1-8.967-4.426c5.867-11.887,16.338-18.169,30.281-18.169,10.9,0,19.682,3.842,25.8,11.2,6.117-7.357,14.9-11.2,25.8-11.2s19.682,3.842,25.8,11.2c6.115-7.357,14.895-11.2,25.8-11.2,13.943,0,24.414,6.282,30.281,18.169a5,5,0,0,1-4.479,7.214Z" fill="#39393a"/>
  <path d="M914.877,711.5h-452a5,5,0,1,1,0-10h452a5,5,0,0,1,0,10Z" fill="#39393a"/>
  <path d="M873.877,262.5v54h-366v-54h366m0-10h-366a10,10,0,0,0-10,10v54a10,10,0,0,0,10,10h366a10,10,0,0,0,10-10v-54a10,10,0,0,0-10-10Z" fill="#39393a"/>
  <path d="M791.877,596.5v105h-69v-105h69m10-10h-89v125h89v-125Z" fill="#39393a"/>
  <rect x="764.877" y="640.5" width="16" height="16" rx="8" fill="#39393a"/>
  <path d="M652.627,596.5v65h-69.75v-65h69.75m10-10h-89.75v85h89.75v-85Z" fill="#39393a"/>
  <path d="M652.627,481.5v65h-69.75v-65h69.75m10-10h-89.75v85h89.75v-85Z" fill="#39393a"/>
  <path d="M791.627,481.5v65h-69.75v-65h69.75m10-10h-89.75v85h89.75v-85Z" fill="#39393a"/>
  <path d="M791.627,366.5v65h-69.75v-65h69.75m10-10h-89.75v85h89.75v-85Z" fill="#39393a"/>
  <path d="M652.627,367.5v65h-69.75v-65h69.75m10-10h-89.75v85h89.75v-85Z" fill="#39393a"/>
  <rect x="612.877" y="472.5" width="10" height="83" fill="#39393a"/>
  <rect x="612.877" y="587.5" width="10" height="83" fill="#39393a"/>
  <rect x="612.877" y="358.5" width="10" height="83" fill="#39393a"/>
  <rect x="751.877" y="358.5" width="10" height="83" fill="#39393a"/>
  <rect x="751.877" y="472.5" width="10" height="83" fill="#39393a"/>
  <path d="M821.877,211.555V252.5h-39V211.555h39m10-10h-59V262.5h59V201.555Z" fill="#39393a"/>
  <path d="M835.877,179.5v22h-67v-22h67m0-10h-67a10,10,0,0,0-10,10v22a10,10,0,0,0,10,10h67a10,10,0,0,0,10-10v-22a10,10,0,0,0-10-10Z" fill="#39393a"/>
  <circle cx="981.377" cy="632.773" r="58.5" fill="#fff"/>
  <line x1="981.377" y1="767.5" x2="981.377" y2="611.5" fill="#fff" stroke="#39393a" stroke-linecap="round" stroke-linejoin="round" stroke-width="9"/>
  <line x1="1006.195" y1="623.909" x2="981.377" y2="652.998" fill="#fff" stroke="#39393a" stroke-linecap="round" stroke-linejoin="round" stroke-width="9"/>
  <line x1="958.331" y1="623.909" x2="983.149" y2="652.998" fill="#fff" stroke="#39393a" stroke-linecap="round" stroke-linejoin="round" stroke-width="9"/>
  <path d="M671.659,1172.5H557.178a11.76,11.76,0,0,1-11.76-11.76v-62.754a11.761,11.761,0,0,1,1.9-6.409l33.622-51.726a11.76,11.76,0,0,1,9.86-5.351h47.237a11.757,11.757,0,0,1,9.859,5.351l33.622,51.726a11.761,11.761,0,0,1,1.9,6.409v62.754A11.76,11.76,0,0,1,671.659,1172.5Z" fill="#ea1c0a"/>
  <path d="M758.877,713.5v12a36,36,0,0,1-36,36h-313a36,36,0,0,0-36,36v12a36,36,0,0,0,36,36h482a36,36,0,0,1,36,36h0a36,36,0,0,1-36,36h-242a36,36,0,0,0-36,36v12" fill="none" stroke="#39393a" stroke-miterlimit="10" stroke-width="10"/>
  <rect x="592.918" y="960.5" width="43" height="74" rx="11.972" fill="none" stroke="#39393a" stroke-miterlimit="10" stroke-width="10"/>
  <rect x="575.877" y="1172.5" width="24" height="71" rx="6.997" fill="none" stroke="#39393a" stroke-miterlimit="10" stroke-width="10"/>
  <rect x="628.877" y="1172.5" width="24" height="71" rx="6.997" fill="none" stroke="#39393a" stroke-miterlimit="10" stroke-width="10"/>
</svg>
