<svg id="Layer_1" data-name="Layer 1" xmlns="http://www.w3.org/2000/svg" viewBox="0 0 1390 1390">
  <path d="M481.969,839.986H587.838c.739-10.012,2.987-23.037,9.292-31.418C636.189,758.261,638.7,710.341,638.7,706.95a103.7,103.7,0,0,0-207.409,0c0,3.391,2.44,51.282,41.548,101.618C479.123,816.949,481.3,829.974,481.969,839.986Z" fill="#fff"/>
  <line x1="469.491" y1="843.5" x2="600.491" y2="843.5" fill="none" stroke="#39393a" stroke-linecap="round" stroke-linejoin="round" stroke-width="10"/>
  <line x1="469.491" y1="873.5" x2="600.491" y2="873.5" fill="none" stroke="#39393a" stroke-linecap="round" stroke-linejoin="round" stroke-width="10"/>
  <line x1="505.866" y1="903.5" x2="564.115" y2="903.5" fill="none" stroke="#39393a" stroke-linecap="round" stroke-linejoin="round" stroke-width="10"/>
  <rect x="816.333" y="673.318" width="24.5" height="81" rx="12" fill="none" stroke="#39393a" stroke-miterlimit="10" stroke-width="8"/>
  <rect x="906.333" y="673.318" width="24.5" height="81" rx="12" fill="none" stroke="#39393a" stroke-miterlimit="10" stroke-width="8"/>
  <rect x="806.333" y="379.318" width="135" height="307" rx="55.039" fill="none" stroke="#39393a" stroke-miterlimit="10" stroke-width="8"/>
  <rect x="828.235" y="506.696" width="91" height="78.078" rx="21.34" fill="none" stroke="#39393a" stroke-miterlimit="10" stroke-width="8"/>
  <rect x="791.333" y="613.318" width="165" height="104" rx="12" fill="#fff" stroke="#39393a" stroke-miterlimit="10" stroke-width="8"/>
  <line x1="850.833" y1="583.396" x2="850.833" y2="613.318" fill="none" stroke="#39393a" stroke-miterlimit="10" stroke-width="8"/>
  <line x1="897.833" y1="583.396" x2="897.833" y2="613.318" fill="none" stroke="#39393a" stroke-miterlimit="10" stroke-width="8"/>
  <path d="M868.783,568.53a1.668,1.668,0,0,1-.684-.156,1.643,1.643,0,0,1-.912-1.931l4.391-15.909H862.2a1.619,1.619,0,0,1-1.439-.78,1.536,1.536,0,0,1,0-1.6l14.96-24.57a1.628,1.628,0,0,1,.4-.372,1.654,1.654,0,0,1,.744-.276h.216a1.644,1.644,0,0,1,1.608,1.656v.431l-2.964,15.909h9.6a1.608,1.608,0,0,1,1.452.816,1.536,1.536,0,0,1-.108,1.584l-16.52,24.474a1.656,1.656,0,0,1-1.356.72" fill="#ea1c0a"/>
  <rect x="489.235" y="699.696" width="91" height="78.078" rx="21.34" stroke-width="10" stroke="#39393a" stroke-linecap="round" stroke-linejoin="round" fill="none"/>
  <line x1="511.833" y1="779.396" x2="511.833" y2="841.5" fill="none" stroke="#39393a" stroke-linecap="round" stroke-linejoin="round" stroke-width="10"/>
  <line x1="558.833" y1="779.396" x2="558.833" y2="841.5" fill="none" stroke="#39393a" stroke-linecap="round" stroke-linejoin="round" stroke-width="10"/>
  <path d="M529.783,761.53a1.668,1.668,0,0,1-.684-.156,1.643,1.643,0,0,1-.912-1.931l4.391-15.909H523.2a1.619,1.619,0,0,1-1.439-.78,1.536,1.536,0,0,1,0-1.6l14.96-24.57a1.628,1.628,0,0,1,.4-.372,1.654,1.654,0,0,1,.744-.276h.216a1.644,1.644,0,0,1,1.608,1.656v.431l-2.964,15.909h9.6a1.608,1.608,0,0,1,1.452.816,1.536,1.536,0,0,1-.108,1.584l-16.52,24.474a1.656,1.656,0,0,1-1.356.72" fill="#ea1c0a"/>
  <rect x="-7.5" y="-0.5" width="1398" height="1398" fill="#fac6c2"/>
  <rect x="785.314" y="527.748" width="19" height="75" rx="9.5" transform="translate(656.154 1530.654) rotate(-117.246)" fill="#39393a"/>
  <path d="M889.325,454.927,841.17,361.41a12.035,12.035,0,0,1,5.174-16.162l58.65-30.2a12.036,12.036,0,0,1,16.163,5.175l48.156,93.516" fill="none" stroke="#39393a" stroke-miterlimit="10" stroke-width="10"/>
  <path d="M1018.755,704.913c0,108.982-67.9,202.106-163.7,239.38" fill="none" stroke="#39393a" stroke-linecap="round" stroke-linejoin="round" stroke-width="10"/>
  <path d="M952.218,925.564a257.439,257.439,0,0,1-22.125,15.85" fill="none" stroke="#39393a" stroke-linecap="round" stroke-linejoin="round" stroke-width="10"/>
  <path d="M1042.845,779.94a255.094,255.094,0,0,1-27.769,72.189" fill="none" stroke="#39393a" stroke-linecap="round" stroke-linejoin="round" stroke-width="10"/>
  <path d="M1015.228,402.425l40.15,77.97c2.76,5.361.217,12.219-5.65,15.24L907.48,568.885c-5.868,3.021-62.434-29.5-62.434-29.5s6.378-64.938,12.246-67.96L999.54,398.173C1005.408,395.151,1012.467,397.065,1015.228,402.425Z" fill="none" stroke="#39393a" stroke-miterlimit="10" stroke-width="10"/>
  <path d="M762.887,513.076A61,61,0,1,1,818.74,621.54Z" fill="#ea1c0a" stroke="#ea1c0a" stroke-miterlimit="10"/>
  <path d="M769.686,806.913l-37.213-13.808A38.124,38.124,0,0,1,709.82,774.22L685.209,726.8a37.838,37.838,0,0,1-.035-34.792l38.512-80.1S794.686,691.913,769.686,806.913Z" fill="#ea1c0a"/>
  <path d="M407.207,973.871,444.3,904.217a31.668,31.668,0,0,0,.068-29.644L425.6,838.933a31.667,31.667,0,0,1,5.787-37.311l23.4-23.066a31.667,31.667,0,0,0,4.32-39.811l-15.549-23.923A31.669,31.669,0,0,0,417,700.413H365.487a31.67,31.67,0,0,1-27.439-15.856l-24.862-43.144s57.5-124.5,215.5-127.5l36.824,74.169a23.056,23.056,0,0,1-5.791,28.407L505.1,661.805a30.275,30.275,0,0,0-7.074,38.11L578.4,839.58a28.006,28.006,0,0,1-4.448,33.327L455.686,994.913S416.686,980.913,407.207,973.871Z" fill="#ea1c0a"/>
  <circle cx="528.686" cy="759.913" r="246" fill="none" stroke="#39393a" stroke-miterlimit="10" stroke-width="10"/>
  <rect x="1005.472" y="551.36" width="17.158" height="89.969" transform="translate(948.113 1770.899) rotate(-117.246)" fill="#fff"/>
  <path d="M1019.5,511.2l48.156,93.517a12.036,12.036,0,0,1-5.175,16.162l-58.65,30.2a12.034,12.034,0,0,1-16.162-5.175l-48.156-93.517" fill="none" stroke="#39393a" stroke-miterlimit="10" stroke-width="10"/>
</svg>
