<svg id="Layer_1" data-name="Layer 1" xmlns="http://www.w3.org/2000/svg" viewBox="0 0 1390 1390">
  <rect x="-0.25" y="-1.454" width="1389" height="1389" fill="#f6f6f7"/>
  <circle cx="749.662" cy="644.32" r="261.825" fill="#fff"/>
  <path d="M1006.165,694.344l-39.607-14.7a40.582,40.582,0,0,1-24.11-20.1l-26.193-50.471a40.271,40.271,0,0,1-.038-37.03L957.206,486.8S1032.774,571.946,1006.165,694.344Z" fill="#ea1c0a" stroke="#ea1c0a" stroke-miterlimit="10"/>
  <path d="M620.368,872.042l39.481-74.134a33.706,33.706,0,0,0,.072-31.552L639.94,728.424a33.706,33.706,0,0,1,6.16-39.712L671,664.163a33.706,33.706,0,0,0,4.6-42.373l-16.55-25.461a33.7,33.7,0,0,0-28.26-15.336H575.964a33.705,33.705,0,0,1-29.2-16.877L520.3,518.2s61.2-132.509,229.363-135.7l39.194,78.941a24.539,24.539,0,0,1-6.165,30.234L724.559,539.9a32.223,32.223,0,0,0-7.53,40.561l85.55,148.65a29.809,29.809,0,0,1-4.735,35.471L671.966,894.438S630.457,879.537,620.368,872.042Z" fill="#ea1c0a" stroke="#ea1c0a" stroke-miterlimit="10"/>
  <path d="M537.6,890.965l26.564-.763,70.862-47.833H817.494s1.572,53.469-52.361,63.052" fill="none" stroke="#39393a" stroke-linecap="round" stroke-linejoin="round" stroke-width="10"/>
  <path d="M672.226,906.146H829.9L962.762,828.2s53.147-40.746,90.35,8.858L888.357,950.435l-248.019,92.121H537.6" fill="none" stroke="#39393a" stroke-linecap="round" stroke-linejoin="round" stroke-width="10"/>
  <rect x="376.375" y="863.628" width="134.639" height="255.105" fill="#e3e000"/>
  <circle cx="443.695" cy="1076.215" r="7.086" fill="#39393a" stroke="#39393a" stroke-linecap="round" stroke-linejoin="round" stroke-width="10"/>
  <path d="M1063.489,630.686a6.579,6.579,0,0,0-5.9,3.668c-5.582,11.306-14.493,16.572-28.045,16.572s-22.462-5.266-28.044-16.572a6.579,6.579,0,0,0-11.8,0c-5.582,11.307-14.494,16.573-28.045,16.573s-22.464-5.266-28.045-16.573a6.579,6.579,0,0,0-5.9-3.666h0a6.577,6.577,0,0,0-5.9,3.667c-5.582,11.306-14.493,16.572-28.044,16.572s-22.464-5.266-28.045-16.572a6.579,6.579,0,0,0-11.8,5.824c7.72,15.64,21.5,23.906,39.844,23.906,14.345,0,25.9-5.055,33.943-14.736,8.048,9.681,19.6,14.736,33.945,14.736s25.9-5.055,33.944-14.736c8.047,9.681,19.6,14.736,33.944,14.736,18.346,0,32.124-8.266,39.844-23.906a6.582,6.582,0,0,0-5.894-9.492Z" fill="#393939"/>
  <path d="M1199.205,630.686a6.577,6.577,0,0,0-5.9,3.668c-5.582,11.306-14.493,16.572-28.045,16.572s-22.463-5.266-28.045-16.572a6.579,6.579,0,0,0-11.8,0c-5.582,11.307-14.494,16.573-28.045,16.573s-22.464-5.266-28.046-16.573a6.579,6.579,0,0,0-5.9-3.666h0a6.577,6.577,0,0,0-5.9,3.667c-5.582,11.306-14.493,16.572-28.044,16.572s-22.464-5.266-28.046-16.572a6.579,6.579,0,0,0-11.8,5.824c7.72,15.64,21.5,23.906,39.844,23.906,14.345,0,25.9-5.055,33.943-14.736,8.048,9.681,19.6,14.736,33.945,14.736s25.9-5.055,33.944-14.736c8.047,9.681,19.6,14.736,33.944,14.736,18.346,0,32.123-8.266,39.843-23.906a6.581,6.581,0,0,0-5.894-9.492Z" fill="#393939"/>
  <path d="M1137.078,696.475a6.58,6.58,0,0,0-5.9,3.669c-5.582,11.306-14.493,16.572-28.045,16.572s-22.462-5.266-28.044-16.572a6.579,6.579,0,0,0-11.8,0c-5.581,11.308-14.494,16.574-28.045,16.574s-22.463-5.266-28.045-16.574a6.581,6.581,0,0,0-5.9-3.666h0a6.578,6.578,0,0,0-5.9,3.668c-5.582,11.306-14.493,16.572-28.044,16.572s-22.463-5.266-28.045-16.572a6.579,6.579,0,0,0-11.8,5.823c7.72,15.641,21.5,23.907,39.844,23.907,14.345,0,25.9-5.055,33.943-14.736,8.048,9.681,19.6,14.736,33.945,14.736s25.9-5.055,33.945-14.736c8.046,9.681,19.6,14.736,33.943,14.736,18.347,0,32.124-8.266,39.844-23.907a6.582,6.582,0,0,0-5.894-9.492Z" fill="#393939"/>
  <circle cx="433.802" cy="617.214" r="77.413" fill="#1ea2b1" stroke="#1ea2b1" stroke-linecap="round" stroke-linejoin="round" stroke-width="4"/>
  <line x1="433.802" y1="785.498" x2="433.802" y2="589.064" fill="none" stroke="#39393a" stroke-linecap="round" stroke-linejoin="round" stroke-width="10"/>
  <line x1="466.644" y1="605.485" x2="433.802" y2="643.978" fill="none" stroke="#39393a" stroke-linecap="round" stroke-linejoin="round" stroke-width="10"/>
  <line x1="403.306" y1="605.485" x2="433.14" y2="640.969" fill="none" stroke="#39393a" stroke-linecap="round" stroke-linejoin="round" stroke-width="10"/>
  <line x1="376.688" y1="785.816" x2="592.82" y2="785.509" fill="none" stroke="#39393a" stroke-linecap="round" stroke-linejoin="round" stroke-width="10"/>
  <line x1="307.599" y1="785.575" x2="344.802" y2="785.522" fill="none" stroke="#39393a" stroke-linecap="round" stroke-linejoin="round" stroke-width="10"/>
  <g>
    <polyline points="493.994 191.919 493.994 300.602 548.335 206.479" fill="none" stroke="#39393a" stroke-linecap="round" stroke-linejoin="round" stroke-width="10"/>
    <polyline points="548.335 206.479 493.994 300.602 588.116 246.26" fill="none" stroke="#39393a" stroke-linecap="round" stroke-linejoin="round" stroke-width="10"/>
    <polyline points="588.116 246.26 493.994 300.602 602.677 300.602" fill="none" stroke="#39393a" stroke-linecap="round" stroke-linejoin="round" stroke-width="10"/>
    <polyline points="602.677 300.602 493.994 300.602 588.116 354.944" fill="none" stroke="#39393a" stroke-linecap="round" stroke-linejoin="round" stroke-width="10"/>
    <polyline points="588.116 354.944 493.994 300.602 548.335 394.724" fill="none" stroke="#39393a" stroke-linecap="round" stroke-linejoin="round" stroke-width="10"/>
    <polyline points="548.335 394.724 493.994 300.602 493.994 409.285" fill="none" stroke="#39393a" stroke-linecap="round" stroke-linejoin="round" stroke-width="10"/>
    <polyline points="493.994 409.285 493.994 300.602 439.652 394.724" fill="none" stroke="#39393a" stroke-linecap="round" stroke-linejoin="round" stroke-width="10"/>
    <polyline points="439.652 394.724 493.994 300.602 399.871 354.944" fill="none" stroke="#39393a" stroke-linecap="round" stroke-linejoin="round" stroke-width="10"/>
    <polyline points="399.871 354.944 493.994 300.602 385.31 300.602" fill="none" stroke="#39393a" stroke-linecap="round" stroke-linejoin="round" stroke-width="10"/>
    <polyline points="385.31 300.602 493.994 300.602 399.871 246.26" fill="none" stroke="#39393a" stroke-linecap="round" stroke-linejoin="round" stroke-width="10"/>
    <polyline points="399.871 246.26 493.994 300.602 439.652 206.479" fill="none" stroke="#39393a" stroke-linecap="round" stroke-linejoin="round" stroke-width="10"/>
    <polyline points="439.652 206.479 493.994 300.602 493.994 191.919" fill="none" stroke="#39393a" stroke-linecap="round" stroke-linejoin="round" stroke-width="10"/>
  </g>
  <circle cx="493.969" cy="301.714" r="82.934" fill="#e8e8e8"/>
  <circle cx="493.969" cy="300.522" r="68.468" fill="#e3e000"/>
  <g id="Pictogram">
    <path id="Water" d="M941.65,343.052a6.537,6.537,0,0,0-11.061,0c-13.749,20.869-48.232,76.132-48.232,99.956a53.74,53.74,0,1,0,107.48,0C989.837,419.184,955.354,363.921,941.65,343.052Zm14.376,136.32-3.448-8.284a31.619,31.619,0,0,0,19.346-29.513h8.957a40.53,40.53,0,0,1-24.9,37.708Z" fill="#26a5b4"/>
  </g>
</svg>
