<svg id="Layer_1" data-name="Layer 1" xmlns="http://www.w3.org/2000/svg" viewBox="0 0 1390 1390">
  <rect x="-7.5" y="-0.5" width="1398" height="1398" fill="#fac6c2"/>
  <rect x="479.835" y="317.5" width="216.875" height="742" rx="21.179" fill="#ea1c0a" stroke="#ea1c0a" stroke-miterlimit="10"/>
  <g>
    <rect x="518.514" y="632.398" width="29.872" height="34.884" transform="translate(4.995 -4.068) rotate(0.439)" fill="#fac6c2"/>
    <rect x="628.159" y="632.398" width="29.872" height="34.884" transform="translate(4.998 -4.908) rotate(0.439)" fill="#fac6c2"/>
    <rect x="572.935" y="632.398" width="29.872" height="34.884" transform="translate(4.996 -4.485) rotate(0.439)" fill="#fac6c2"/>
    <rect x="518.514" y="684.61" width="29.872" height="34.884" transform="translate(5.395 -4.067) rotate(0.439)" fill="#fac6c2"/>
    <rect x="628.159" y="684.61" width="29.872" height="34.884" transform="translate(5.398 -4.907) rotate(0.439)" fill="#fac6c2"/>
    <rect x="572.935" y="684.61" width="29.872" height="34.884" transform="translate(5.397 -4.484) rotate(0.439)" fill="#fac6c2"/>
    <rect x="518.514" y="736.822" width="29.872" height="34.884" transform="translate(5.795 -4.065) rotate(0.439)" fill="#fac6c2"/>
    <rect x="628.159" y="736.822" width="29.872" height="34.884" transform="translate(5.798 -4.905) rotate(0.439)" fill="#fac6c2"/>
    <rect x="572.935" y="736.822" width="29.872" height="34.884" transform="translate(5.797 -4.482) rotate(0.439)" fill="#fac6c2"/>
    <rect x="518.514" y="789.034" width="29.872" height="34.884" transform="translate(6.195 -4.064) rotate(0.439)" fill="#fac6c2"/>
    <rect x="628.159" y="789.034" width="29.872" height="34.884" transform="translate(6.198 -4.904) rotate(0.439)" fill="#fac6c2"/>
    <rect x="572.935" y="789.034" width="29.872" height="34.884" transform="translate(6.197 -4.481) rotate(0.439)" fill="#fac6c2"/>
  </g>
  <rect x="955.5" y="750.5" width="117" height="251" rx="58.5" fill="#ea1c0a" stroke="#ea1c0a" stroke-miterlimit="10"/>
  <rect x="468.71" y="317.5" width="239.125" height="52" fill="#ea1c0a"/>
  <path d="M287.087,671.256H530.807a0,0,0,0,1,0,0v353.418a34.15,34.15,0,0,1-34.15,34.15H321.236a34.15,34.15,0,0,1-34.15-34.15V671.256a0,0,0,0,1,0,0Z" transform="translate(6.64 -3.108) rotate(0.439)" fill="none" stroke="#39393a" stroke-miterlimit="10" stroke-width="8"/>
  <path d="M717.077,570.5H928.438a0,0,0,0,1,0,0v454.048a34.15,34.15,0,0,1-34.15,34.15H751.227a34.15,34.15,0,0,1-34.15-34.15V570.5A0,0,0,0,1,717.077,570.5Z" transform="translate(6.266 -6.28) rotate(0.439)" fill="none" stroke="#39393a" stroke-miterlimit="10" stroke-width="8"/>
  <rect x="319.938" y="757.898" width="38.377" height="44.817" transform="translate(5.989 -2.576) rotate(0.439)" fill="none" stroke="#39393a" stroke-miterlimit="10" stroke-width="8"/>
  <rect x="460.804" y="757.898" width="38.377" height="44.817" transform="translate(5.993 -3.655) rotate(0.439)" fill="none" stroke="#39393a" stroke-miterlimit="10" stroke-width="8"/>
  <rect x="389.855" y="757.898" width="38.377" height="44.817" transform="translate(5.991 -3.111) rotate(0.439)" fill="none" stroke="#39393a" stroke-miterlimit="10" stroke-width="8"/>
  <rect x="319.938" y="824.978" width="38.377" height="44.817" transform="translate(6.503 -2.574) rotate(0.439)" fill="none" stroke="#39393a" stroke-miterlimit="10" stroke-width="8"/>
  <rect x="460.804" y="824.978" width="38.377" height="44.817" transform="translate(6.507 -3.653) rotate(0.439)" fill="none" stroke="#39393a" stroke-miterlimit="10" stroke-width="8"/>
  <rect x="389.855" y="824.978" width="38.377" height="44.817" transform="translate(6.505 -3.109) rotate(0.439)" fill="none" stroke="#39393a" stroke-miterlimit="10" stroke-width="8"/>
  <rect x="319.938" y="892.057" width="38.377" height="44.817" transform="translate(7.017 -2.572) rotate(0.439)" fill="none" stroke="#39393a" stroke-miterlimit="10" stroke-width="8"/>
  <rect x="460.804" y="892.057" width="38.377" height="44.817" transform="translate(7.021 -3.651) rotate(0.439)" fill="none" stroke="#39393a" stroke-miterlimit="10" stroke-width="8"/>
  <rect x="389.855" y="892.057" width="38.377" height="44.817" transform="translate(7.019 -3.107) rotate(0.439)" fill="none" stroke="#39393a" stroke-miterlimit="10" stroke-width="8"/>
  <rect x="319.938" y="959.136" width="38.377" height="44.817" transform="translate(7.531 -2.57) rotate(0.439)" fill="none" stroke="#39393a" stroke-miterlimit="10" stroke-width="8"/>
  <rect x="460.804" y="959.136" width="38.377" height="44.817" transform="translate(7.535 -3.649) rotate(0.439)" fill="none" stroke="#39393a" stroke-miterlimit="10" stroke-width="8"/>
  <rect x="389.855" y="959.136" width="38.377" height="44.817" transform="translate(7.533 -3.105) rotate(0.439)" fill="none" stroke="#39393a" stroke-miterlimit="10" stroke-width="8"/>
  <g>
    <rect x="518.514" y="412.398" width="29.872" height="34.884" transform="translate(3.309 -4.075) rotate(0.439)" fill="#fac6c2"/>
    <rect x="628.159" y="412.398" width="29.872" height="34.884" transform="translate(3.312 -4.915) rotate(0.439)" fill="#fac6c2"/>
    <rect x="572.935" y="412.398" width="29.872" height="34.884" transform="translate(3.311 -4.492) rotate(0.439)" fill="#fac6c2"/>
    <rect x="518.514" y="464.61" width="29.872" height="34.884" transform="translate(3.709 -4.073) rotate(0.439)" fill="#fac6c2"/>
    <rect x="628.159" y="464.61" width="29.872" height="34.884" transform="translate(3.712 -4.913) rotate(0.439)" fill="#fac6c2"/>
    <rect x="572.935" y="464.61" width="29.872" height="34.884" transform="translate(3.711 -4.49) rotate(0.439)" fill="#fac6c2"/>
    <rect x="518.514" y="516.822" width="29.872" height="34.884" transform="translate(4.109 -4.072) rotate(0.439)" fill="#fac6c2"/>
    <rect x="628.159" y="516.822" width="29.872" height="34.884" transform="translate(4.113 -4.912) rotate(0.439)" fill="#fac6c2"/>
    <rect x="572.935" y="516.822" width="29.872" height="34.884" transform="translate(4.111 -4.489) rotate(0.439)" fill="#fac6c2"/>
    <rect x="518.514" y="569.034" width="29.872" height="34.884" transform="translate(4.509 -4.07) rotate(0.439)" fill="#fac6c2"/>
    <rect x="628.159" y="569.034" width="29.872" height="34.884" transform="translate(4.513 -4.91) rotate(0.439)" fill="#fac6c2"/>
    <rect x="572.935" y="569.034" width="29.872" height="34.884" transform="translate(4.511 -4.487) rotate(0.439)" fill="#fac6c2"/>
  </g>
  <rect x="288.51" y="671.271" width="243.713" height="39.778" transform="translate(5.308 -3.124) rotate(0.439)" fill="none" stroke="#39393a" stroke-miterlimit="10" stroke-width="8"/>
  <rect x="754.888" y="526.5" width="136" height="43" fill="none" stroke="#39393a" stroke-miterlimit="10" stroke-width="8"/>
  <rect x="754.888" y="609.5" width="136" height="21" fill="none" stroke="#39393a" stroke-miterlimit="10" stroke-width="8"/>
  <rect x="754.888" y="669.5" width="136" height="21" fill="none" stroke="#39393a" stroke-miterlimit="10" stroke-width="8"/>
  <rect x="754.888" y="729.5" width="136" height="21" fill="none" stroke="#39393a" stroke-miterlimit="10" stroke-width="8"/>
  <rect x="754.888" y="789.5" width="136" height="21" fill="none" stroke="#39393a" stroke-miterlimit="10" stroke-width="8"/>
  <rect x="754.888" y="849.5" width="136" height="21" fill="none" stroke="#39393a" stroke-miterlimit="10" stroke-width="8"/>
  <rect x="754.888" y="909.5" width="136" height="21" fill="none" stroke="#39393a" stroke-miterlimit="10" stroke-width="8"/>
  <rect x="754.888" y="969.5" width="136" height="21" fill="none" stroke="#39393a" stroke-miterlimit="10" stroke-width="8"/>
  <circle cx="674" cy="943.773" r="58.5" fill="#fff"/>
  <line x1="674" y1="1059.5" x2="674" y2="922.5" fill="#fff" stroke="#39393a" stroke-linecap="round" stroke-linejoin="round" stroke-width="9"/>
  <line x1="698.818" y1="934.909" x2="674" y2="963.998" fill="#fff" stroke="#39393a" stroke-linecap="round" stroke-linejoin="round" stroke-width="9"/>
  <line x1="650.955" y1="934.909" x2="673.773" y2="961.998" fill="#fff" stroke="#39393a" stroke-linecap="round" stroke-linejoin="round" stroke-width="9"/>
  <line x1="1014" y1="1059.5" x2="1014" y2="787.5" fill="#fff" stroke="#39393a" stroke-linecap="round" stroke-linejoin="round" stroke-width="9"/>
  <line x1="1038.818" y1="934.909" x2="1014" y2="963.998" fill="#fff" stroke="#39393a" stroke-linecap="round" stroke-linejoin="round" stroke-width="9"/>
  <line x1="990.955" y1="934.909" x2="1013.773" y2="961.998" fill="#fff" stroke="#39393a" stroke-linecap="round" stroke-linejoin="round" stroke-width="9"/>
  <line x1="1038.818" y1="874.909" x2="1014" y2="903.998" fill="#fff" stroke="#39393a" stroke-linecap="round" stroke-linejoin="round" stroke-width="9"/>
  <line x1="990.955" y1="874.909" x2="1013.773" y2="901.998" fill="#fff" stroke="#39393a" stroke-linecap="round" stroke-linejoin="round" stroke-width="9"/>
  <line x1="1038.818" y1="814.909" x2="1014" y2="843.998" fill="#fff" stroke="#39393a" stroke-linecap="round" stroke-linejoin="round" stroke-width="9"/>
  <line x1="990.955" y1="814.909" x2="1013.773" y2="841.998" fill="#fff" stroke="#39393a" stroke-linecap="round" stroke-linejoin="round" stroke-width="9"/>
  <line x1="154.5" y1="1057.5" x2="1171.5" y2="1062.5" fill="#fff" stroke="#39393a" stroke-linecap="round" stroke-linejoin="round" stroke-width="9"/>
  <line x1="615.5" y1="1092.5" x2="890.5" y2="1092.5" fill="#fff" stroke="#39393a" stroke-linecap="round" stroke-linejoin="round" stroke-width="9"/>
  <line x1="467.5" y1="1092.5" x2="590.5" y2="1092.5" fill="#fff" stroke="#39393a" stroke-linecap="round" stroke-linejoin="round" stroke-width="9"/>
  <line x1="377.5" y1="1092.5" x2="446.5" y2="1092.5" fill="#fff" stroke="#39393a" stroke-linecap="round" stroke-linejoin="round" stroke-width="9"/>
</svg>
