<svg id="Layer_1" data-name="Layer 1" xmlns="http://www.w3.org/2000/svg" viewBox="0 0 1390 1390">
  <rect x="-4.5" y="3.5" width="1397" height="1386" fill="#c7e8eb"/>
  <rect x="813.891" y="531.748" width="19" height="75" rx="9.5" transform="translate(694.257 1561.891) rotate(-117.246)" fill="#39393a"/>
  <path d="M917.9,458.927,869.746,365.41a12.034,12.034,0,0,1,5.175-16.162l58.65-30.2a12.034,12.034,0,0,1,16.162,5.175l48.156,93.516" fill="none" stroke="#39393a" stroke-miterlimit="10" stroke-width="10"/>
  <path d="M1047.332,708.913c0,108.982-67.9,202.106-163.7,239.38" fill="none" stroke="#39393a" stroke-linecap="round" stroke-linejoin="round" stroke-width="10"/>
  <path d="M980.794,929.564a257.423,257.423,0,0,1-22.124,15.85" fill="none" stroke="#39393a" stroke-linecap="round" stroke-linejoin="round" stroke-width="10"/>
  <path d="M1071.421,783.94a255.094,255.094,0,0,1-27.769,72.189" fill="none" stroke="#39393a" stroke-linecap="round" stroke-linejoin="round" stroke-width="10"/>
  <path d="M1043.8,406.425l40.15,77.97c2.76,5.361.218,12.219-5.65,15.24l-142.248,73.25c-5.868,3.021-62.434-29.5-62.434-29.5s6.379-64.938,12.247-67.96l142.248-73.249C1033.984,399.151,1041.044,401.065,1043.8,406.425Z" fill="none" stroke="#39393a" stroke-miterlimit="10" stroke-width="10"/>
  <path d="M791.464,517.076A61,61,0,0,1,847.317,625.54Z" fill="#26a5b4"/>
  <path d="M798.262,810.913l-37.213-13.808A38.124,38.124,0,0,1,738.4,778.22l-24.61-47.42a37.838,37.838,0,0,1-.036-34.792l38.512-80.1S823.262,695.913,798.262,810.913Z" fill="#26a5b4"/>
  <path d="M435.783,977.871l37.095-69.654a31.665,31.665,0,0,0,.067-29.644l-18.773-35.64a31.669,31.669,0,0,1,5.787-37.311l23.4-23.066a31.668,31.668,0,0,0,4.32-39.811l-15.55-23.923a31.667,31.667,0,0,0-26.552-14.409H394.063a31.668,31.668,0,0,1-27.438-15.856l-24.863-43.144s57.5-124.5,215.5-127.5l36.825,74.169a23.056,23.056,0,0,1-5.792,28.407l-54.619,45.316a30.277,30.277,0,0,0-7.074,38.11L606.98,843.58a28.006,28.006,0,0,1-4.448,33.327L484.262,998.913S445.262,984.913,435.783,977.871Z" fill="#26a5b4"/>
  <circle cx="557.262" cy="763.913" r="246" fill="none" stroke="#39393a" stroke-miterlimit="10" stroke-width="8"/>
  <rect x="1034.049" y="555.36" width="17.158" height="89.969" transform="translate(986.216 1802.136) rotate(-117.246)" fill="#fff"/>
  <path d="M1048.076,515.2l48.156,93.517a12.035,12.035,0,0,1-5.175,16.162l-58.65,30.2a12.035,12.035,0,0,1-16.162-5.175l-48.156-93.517" fill="none" stroke="#39393a" stroke-miterlimit="10" stroke-width="10"/>
</svg>
