<svg id="Layer_1" data-name="Layer 1" xmlns="http://www.w3.org/2000/svg" viewBox="0 0 1390 1390">
  <rect x="-4.5" y="3.5" width="1397" height="1386" fill="#c7e8eb"/>
  <rect x="512.667" y="283.5" width="216.875" height="742" rx="21.179" fill="#ea1c0a" stroke="#ea1c0a" stroke-miterlimit="10"/>
  <g>
    <rect x="551.346" y="598.398" width="29.872" height="34.884" transform="translate(4.735 -4.321) rotate(0.439)" fill="#c7e8eb"/>
    <rect x="660.991" y="598.398" width="29.872" height="34.884" transform="translate(4.739 -5.161) rotate(0.439)" fill="#c7e8eb"/>
    <rect x="605.768" y="598.398" width="29.872" height="34.884" transform="translate(4.737 -4.738) rotate(0.439)" fill="#c7e8eb"/>
    <rect x="551.346" y="650.61" width="29.872" height="34.884" transform="translate(5.135 -4.319) rotate(0.439)" fill="#c7e8eb"/>
    <rect x="660.991" y="650.61" width="29.872" height="34.884" transform="translate(5.139 -5.159) rotate(0.439)" fill="#c7e8eb"/>
    <rect x="605.768" y="650.61" width="29.872" height="34.884" transform="translate(5.137 -4.736) rotate(0.439)" fill="#c7e8eb"/>
    <rect x="551.346" y="702.822" width="29.872" height="34.884" transform="translate(5.535 -4.318) rotate(0.439)" fill="#c7e8eb"/>
    <rect x="660.991" y="702.822" width="29.872" height="34.884" transform="translate(5.539 -5.158) rotate(0.439)" fill="#c7e8eb"/>
    <rect x="605.768" y="702.822" width="29.872" height="34.884" transform="translate(5.537 -4.735) rotate(0.439)" fill="#c7e8eb"/>
    <rect x="551.346" y="755.034" width="29.872" height="34.884" transform="translate(5.935 -4.316) rotate(0.439)" fill="#c7e8eb"/>
    <rect x="660.991" y="755.034" width="29.872" height="34.884" transform="translate(5.939 -5.156) rotate(0.439)" fill="#c7e8eb"/>
    <rect x="605.768" y="755.034" width="29.872" height="34.884" transform="translate(5.937 -4.733) rotate(0.439)" fill="#c7e8eb"/>
  </g>
  <rect x="988.332" y="716.5" width="117" height="251" rx="58.5" fill="#ea1c0a" stroke="#ea1c0a" stroke-miterlimit="10"/>
  <rect x="501.542" y="283.5" width="239.125" height="52" fill="#ea1c0a"/>
  <path d="M319.919,637.256H563.64a0,0,0,0,1,0,0V990.675a34.15,34.15,0,0,1-34.15,34.15H354.069a34.15,34.15,0,0,1-34.15-34.15V637.256a0,0,0,0,1,0,0Z" transform="translate(6.381 -3.361) rotate(0.439)" fill="none" stroke="#39393a" stroke-miterlimit="10" stroke-width="8"/>
  <path d="M749.91,536.5H961.27a0,0,0,0,1,0,0V990.552a34.15,34.15,0,0,1-34.15,34.15H784.059a34.15,34.15,0,0,1-34.15-34.15V536.5a0,0,0,0,1,0,0Z" transform="translate(6.006 -6.533) rotate(0.439)" fill="none" stroke="#39393a" stroke-miterlimit="10" stroke-width="8"/>
  <rect x="352.77" y="723.898" width="38.377" height="44.817" transform="translate(5.729 -2.828) rotate(0.439)" fill="none" stroke="#39393a" stroke-miterlimit="10" stroke-width="8"/>
  <rect x="493.636" y="723.898" width="38.377" height="44.817" transform="translate(5.733 -3.907) rotate(0.439)" fill="none" stroke="#39393a" stroke-miterlimit="10" stroke-width="8"/>
  <rect x="422.688" y="723.898" width="38.377" height="44.817" transform="translate(5.731 -3.364) rotate(0.439)" fill="none" stroke="#39393a" stroke-miterlimit="10" stroke-width="8"/>
  <rect x="352.77" y="790.978" width="38.377" height="44.817" transform="translate(6.243 -2.826) rotate(0.439)" fill="none" stroke="#39393a" stroke-miterlimit="10" stroke-width="8"/>
  <rect x="493.636" y="790.978" width="38.377" height="44.817" transform="translate(6.247 -3.905) rotate(0.439)" fill="none" stroke="#39393a" stroke-miterlimit="10" stroke-width="8"/>
  <rect x="422.688" y="790.978" width="38.377" height="44.817" transform="translate(6.245 -3.362) rotate(0.439)" fill="none" stroke="#39393a" stroke-miterlimit="10" stroke-width="8"/>
  <rect x="352.77" y="858.057" width="38.377" height="44.817" transform="translate(6.757 -2.824) rotate(0.439)" fill="none" stroke="#39393a" stroke-miterlimit="10" stroke-width="8"/>
  <rect x="493.636" y="858.057" width="38.377" height="44.817" transform="translate(6.761 -3.904) rotate(0.439)" fill="none" stroke="#39393a" stroke-miterlimit="10" stroke-width="8"/>
  <rect x="422.688" y="858.057" width="38.377" height="44.817" transform="translate(6.759 -3.36) rotate(0.439)" fill="none" stroke="#39393a" stroke-miterlimit="10" stroke-width="8"/>
  <rect x="352.77" y="925.136" width="38.377" height="44.817" transform="translate(7.271 -2.822) rotate(0.439)" fill="none" stroke="#39393a" stroke-miterlimit="10" stroke-width="8"/>
  <rect x="493.636" y="925.136" width="38.377" height="44.817" transform="translate(7.275 -3.902) rotate(0.439)" fill="none" stroke="#39393a" stroke-miterlimit="10" stroke-width="8"/>
  <rect x="422.688" y="925.136" width="38.377" height="44.817" transform="translate(7.273 -3.358) rotate(0.439)" fill="none" stroke="#39393a" stroke-miterlimit="10" stroke-width="8"/>
  <g>
    <rect x="551.346" y="378.398" width="29.872" height="34.884" transform="translate(3.05 -4.327) rotate(0.439)" fill="#c7e8eb"/>
    <rect x="660.991" y="378.398" width="29.872" height="34.884" transform="translate(3.053 -5.167) rotate(0.439)" fill="#c7e8eb"/>
    <rect x="605.768" y="378.398" width="29.872" height="34.884" transform="translate(3.051 -4.744) rotate(0.439)" fill="#c7e8eb"/>
    <rect x="551.346" y="430.61" width="29.872" height="34.884" transform="translate(3.45 -4.326) rotate(0.439)" fill="#c7e8eb"/>
    <rect x="660.991" y="430.61" width="29.872" height="34.884" transform="translate(3.453 -5.166) rotate(0.439)" fill="#c7e8eb"/>
    <rect x="605.768" y="430.61" width="29.872" height="34.884" transform="translate(3.451 -4.743) rotate(0.439)" fill="#c7e8eb"/>
    <rect x="551.346" y="482.822" width="29.872" height="34.884" transform="translate(3.85 -4.324) rotate(0.439)" fill="#c7e8eb"/>
    <rect x="660.991" y="482.822" width="29.872" height="34.884" transform="translate(3.853 -5.164) rotate(0.439)" fill="#c7e8eb"/>
    <rect x="605.768" y="482.822" width="29.872" height="34.884" transform="translate(3.851 -4.741) rotate(0.439)" fill="#c7e8eb"/>
    <rect x="551.346" y="535.034" width="29.872" height="34.884" transform="translate(4.25 -4.323) rotate(0.439)" fill="#c7e8eb"/>
    <rect x="660.991" y="535.034" width="29.872" height="34.884" transform="translate(4.253 -5.163) rotate(0.439)" fill="#c7e8eb"/>
    <rect x="605.768" y="535.034" width="29.872" height="34.884" transform="translate(4.251 -4.74) rotate(0.439)" fill="#c7e8eb"/>
  </g>
  <rect x="321.342" y="637.271" width="243.713" height="39.778" transform="translate(5.048 -3.377) rotate(0.439)" fill="none" stroke="#39393a" stroke-miterlimit="10" stroke-width="8"/>
  <rect x="787.72" y="492.5" width="136" height="43" fill="none" stroke="#39393a" stroke-miterlimit="10" stroke-width="8"/>
  <rect x="787.72" y="575.5" width="136" height="21" fill="none" stroke="#39393a" stroke-miterlimit="10" stroke-width="8"/>
  <rect x="787.72" y="635.5" width="136" height="21" fill="none" stroke="#39393a" stroke-miterlimit="10" stroke-width="8"/>
  <rect x="787.72" y="695.5" width="136" height="21" fill="none" stroke="#39393a" stroke-miterlimit="10" stroke-width="8"/>
  <rect x="787.72" y="755.5" width="136" height="21" fill="none" stroke="#39393a" stroke-miterlimit="10" stroke-width="8"/>
  <rect x="787.72" y="815.5" width="136" height="21" fill="none" stroke="#39393a" stroke-miterlimit="10" stroke-width="8"/>
  <rect x="787.72" y="875.5" width="136" height="21" fill="none" stroke="#39393a" stroke-miterlimit="10" stroke-width="8"/>
  <rect x="787.72" y="935.5" width="136" height="21" fill="none" stroke="#39393a" stroke-miterlimit="10" stroke-width="8"/>
  <circle cx="706.832" cy="909.773" r="58.5" fill="#fff"/>
  <line x1="706.832" y1="1025.5" x2="706.832" y2="888.5" fill="#fff" stroke="#39393a" stroke-linecap="round" stroke-linejoin="round" stroke-width="9"/>
  <line x1="731.651" y1="900.909" x2="706.832" y2="929.998" fill="#fff" stroke="#39393a" stroke-linecap="round" stroke-linejoin="round" stroke-width="9"/>
  <line x1="683.787" y1="900.909" x2="706.605" y2="927.998" fill="#fff" stroke="#39393a" stroke-linecap="round" stroke-linejoin="round" stroke-width="9"/>
  <line x1="1046.832" y1="1025.5" x2="1046.832" y2="753.5" fill="#fff" stroke="#39393a" stroke-linecap="round" stroke-linejoin="round" stroke-width="9"/>
  <line x1="1071.651" y1="900.909" x2="1046.832" y2="929.998" fill="#fff" stroke="#39393a" stroke-linecap="round" stroke-linejoin="round" stroke-width="9"/>
  <line x1="1023.787" y1="900.909" x2="1046.605" y2="927.998" fill="#fff" stroke="#39393a" stroke-linecap="round" stroke-linejoin="round" stroke-width="9"/>
  <line x1="1071.651" y1="840.909" x2="1046.832" y2="869.998" fill="#fff" stroke="#39393a" stroke-linecap="round" stroke-linejoin="round" stroke-width="9"/>
  <line x1="1023.787" y1="840.909" x2="1046.605" y2="867.998" fill="#fff" stroke="#39393a" stroke-linecap="round" stroke-linejoin="round" stroke-width="9"/>
  <line x1="1071.651" y1="780.909" x2="1046.832" y2="809.998" fill="#fff" stroke="#39393a" stroke-linecap="round" stroke-linejoin="round" stroke-width="9"/>
  <line x1="1023.787" y1="780.909" x2="1046.605" y2="807.998" fill="#fff" stroke="#39393a" stroke-linecap="round" stroke-linejoin="round" stroke-width="9"/>
  <line x1="187.332" y1="1023.5" x2="1204.332" y2="1028.5" fill="#fff" stroke="#39393a" stroke-linecap="round" stroke-linejoin="round" stroke-width="9"/>
  <line x1="648.332" y1="1058.5" x2="923.332" y2="1058.5" fill="#fff" stroke="#39393a" stroke-linecap="round" stroke-linejoin="round" stroke-width="9"/>
  <line x1="500.332" y1="1058.5" x2="623.332" y2="1058.5" fill="#fff" stroke="#39393a" stroke-linecap="round" stroke-linejoin="round" stroke-width="9"/>
  <line x1="410.332" y1="1058.5" x2="479.332" y2="1058.5" fill="#fff" stroke="#39393a" stroke-linecap="round" stroke-linejoin="round" stroke-width="9"/>
</svg>
