<svg id="Layer_1" data-name="Layer 1" xmlns="http://www.w3.org/2000/svg" viewBox="0 0 1390 1390">
  <rect x="-7.5" y="-0.5" width="1398" height="1398" fill="#fac6c2"/>
  <rect x="538.613" y="328" width="331" height="390" fill="#ea1c0a"/>
  <rect x="588.613" y="369" width="90" height="85" fill="#fac6c2"/>
  <rect x="727.181" y="369" width="90" height="84" fill="#fac6c2"/>
  <rect x="731.613" y="601" width="83.568" height="122" fill="#fac6c2"/>
  <rect x="588.613" y="483" width="90" height="85" fill="#fac6c2"/>
  <rect x="588.613" y="598" width="90" height="85" fill="#fac6c2"/>
  <rect x="727.181" y="483" width="90" height="85" fill="#fac6c2"/>
  <path d="M681.22,221a5,5,0,0,1-4.487-2.788c-4.243-8.593-11.015-12.595-21.315-12.595s-17.071,4-21.313,12.6a5,5,0,0,1-8.967,0c-4.242-8.594-11.016-12.6-21.315-12.6s-17.072,4-21.314,12.6A5,5,0,0,1,578.026,221h0a5,5,0,0,1-4.484-2.787c-4.242-8.593-11.015-12.595-21.313-12.595s-17.073,4-21.315,12.6a5,5,0,0,1-8.967-4.426c5.868-11.887,16.338-18.169,30.282-18.169,10.9,0,19.681,3.842,25.8,11.2,6.116-7.357,14.9-11.2,25.8-11.2s19.682,3.842,25.8,11.2c6.115-7.357,14.895-11.2,25.8-11.2,13.943,0,24.414,6.282,30.281,18.169A5,5,0,0,1,681.22,221Z" fill="#39393a"/>
  <path d="M930.431,723h-452a5,5,0,0,1,0-10h452a5,5,0,0,1,0,10Z" fill="#39393a"/>
  <path d="M889.431,274v54h-366V274h366m0-10h-366a10,10,0,0,0-10,10v54a10,10,0,0,0,10,10h366a10,10,0,0,0,10-10V274a10,10,0,0,0-10-10Z" fill="#39393a"/>
  <path d="M807.431,608V713h-69V608h69m10-10h-89V723h89V598Z" fill="#39393a"/>
  <rect x="780.431" y="652" width="16" height="16" rx="8" fill="#39393a"/>
  <path d="M668.181,608v65h-69.75V608h69.75m10-10h-89.75v85h89.75V598Z" fill="#39393a"/>
  <path d="M668.181,493v65h-69.75V493h69.75m10-10h-89.75v85h89.75V483Z" fill="#39393a"/>
  <path d="M807.181,493v65h-69.75V493h69.75m10-10h-89.75v85h89.75V483Z" fill="#39393a"/>
  <path d="M807.181,378v65h-69.75V378h69.75m10-10h-89.75v85h89.75V368Z" fill="#39393a"/>
  <path d="M668.181,379v65h-69.75V379h69.75m10-10h-89.75v85h89.75V369Z" fill="#39393a"/>
  <rect x="628.431" y="484" width="10" height="83" fill="#39393a"/>
  <rect x="628.431" y="599" width="10" height="83" fill="#39393a"/>
  <rect x="628.431" y="370" width="10" height="83" fill="#39393a"/>
  <rect x="767.431" y="370" width="10" height="83" fill="#39393a"/>
  <rect x="767.431" y="484" width="10" height="83" fill="#39393a"/>
  <path d="M837.431,223.055V264h-39V223.055h39m10-10h-59V274h59V213.055Z" fill="#39393a"/>
  <path d="M851.431,191v22h-67V191h67m0-10h-67a10,10,0,0,0-10,10v22a10,10,0,0,0,10,10h67a10,10,0,0,0,10-10V191a10,10,0,0,0-10-10Z" fill="#39393a"/>
  <circle cx="996.931" cy="644.273" r="58.5" fill="#fff"/>
  <line x1="996.931" y1="779" x2="996.931" y2="623" fill="#fff" stroke="#39393a" stroke-linecap="round" stroke-linejoin="round" stroke-width="9"/>
  <line x1="1021.749" y1="635.409" x2="996.931" y2="664.498" fill="#fff" stroke="#39393a" stroke-linecap="round" stroke-linejoin="round" stroke-width="9"/>
  <line x1="973.885" y1="635.409" x2="998.704" y2="664.498" fill="#fff" stroke="#39393a" stroke-linecap="round" stroke-linejoin="round" stroke-width="9"/>
  <path d="M687.213,1184H572.732a11.76,11.76,0,0,1-11.76-11.76v-62.754a11.761,11.761,0,0,1,1.9-6.409l33.622-51.726a11.76,11.76,0,0,1,9.86-5.351h47.237a11.757,11.757,0,0,1,9.859,5.351l33.623,51.726a11.76,11.76,0,0,1,1.9,6.409v62.754A11.759,11.759,0,0,1,687.213,1184Z" fill="#ea1c0a"/>
  <path d="M774.431,725v12a36,36,0,0,1-36,36h-313a36,36,0,0,0-36,36v12a36,36,0,0,0,36,36h482a36,36,0,0,1,36,36h0a36,36,0,0,1-36,36h-242a36,36,0,0,0-36,36v12" fill="none" stroke="#39393a" stroke-miterlimit="10" stroke-width="10"/>
  <rect x="608.472" y="972" width="43" height="74" rx="11.972" fill="none" stroke="#39393a" stroke-miterlimit="10" stroke-width="10"/>
  <rect x="591.431" y="1184" width="24" height="71" rx="6.997" fill="none" stroke="#39393a" stroke-miterlimit="10" stroke-width="10"/>
  <rect x="644.431" y="1184" width="24" height="71" rx="6.997" fill="none" stroke="#39393a" stroke-miterlimit="10" stroke-width="10"/>
</svg>
