<svg id="Layer_1" data-name="Layer 1" xmlns="http://www.w3.org/2000/svg" viewBox="0 0 1390 1390">
  <rect x="-0.25" y="-1.454" width="1389" height="1389" fill="#f6f6f7"/>
  <path d="M558.428,454.03h652.105a26.186,26.186,0,0,1,26.186,26.186V919.054a0,0,0,0,1,0,0H532.243a0,0,0,0,1,0,0V480.215A26.186,26.186,0,0,1,558.428,454.03Z" fill="none" stroke="#39393a" stroke-linecap="round" stroke-linejoin="round" stroke-width="10"/>
  <rect x="586.217" y="518.623" width="596.527" height="400.431" fill="#26a5b4"/>
  <path d="M448.183,918.728h872.6a0,0,0,0,1,0,0v43.915a22,22,0,0,1-22,22h-828.6a22,22,0,0,1-22-22V918.728a0,0,0,0,1,0,0Z" fill="none" stroke="#39393a" stroke-linecap="round" stroke-linejoin="round" stroke-width="10"/>
  <polygon points="218.538 607.419 55.366 554.729 55.366 485.412 218.538 405.569 218.538 607.419" fill="#fff"/>
  <path d="M628.354,359.1H184.388c-70.963,0-129.022,58.059-129.022,129.022a128.061,128.061,0,0,0,4.751,34.613,128.055,128.055,0,0,0-4.751,34.613c0,70.962,58.059,129.022,129.022,129.022H628.354a128.841,128.841,0,0,0,14.307-.8,63.935,63.935,0,0,0,10.4.8c76.864,0,104.316,41.177,104.316,41.177V488.121C757.376,417.158,699.316,359.1,628.354,359.1Z" fill="#fff"/>
  <g>
    <path d="M151.748,495.1V463.811a34.992,34.992,0,0,1,69.983,0l.1,31.189" fill="none" stroke="#39393a" stroke-linecap="round" stroke-linejoin="round" stroke-width="10"/>
    <path d="M151.119,495.1h71.24a21.149,21.149,0,0,1,21.149,21.149V556.2a52.414,52.414,0,0,1-52.414,52.414h-8.711A52.414,52.414,0,0,1,129.97,556.2V516.253A21.149,21.149,0,0,1,151.119,495.1Z" fill="#e3e000"/>
    <circle cx="186.739" cy="534.257" r="7.873" fill="#39393a" stroke="#39393a" stroke-linecap="round" stroke-linejoin="round" stroke-width="10"/>
    <line x1="186.739" y1="534.257" x2="186.739" y2="565.749" fill="#39393a" stroke="#39393a" stroke-linecap="round" stroke-linejoin="round" stroke-width="10"/>
  </g>
  <rect x="296.895" y="475.115" width="400.744" height="95.312" rx="44" fill="#e8e8e8"/>
  <g>
    <line x1="449.07" y1="496.236" x2="449.07" y2="549.307" fill="none" stroke="#39393a" stroke-linecap="round" stroke-linejoin="round" stroke-width="8"/>
    <line x1="422.534" y1="522.771" x2="475.605" y2="522.771" fill="none" stroke="#39393a" stroke-linecap="round" stroke-linejoin="round" stroke-width="8"/>
    <line x1="430.306" y1="504.008" x2="467.833" y2="541.535" fill="none" stroke="#39393a" stroke-linecap="round" stroke-linejoin="round" stroke-width="8"/>
    <line x1="467.833" y1="504.008" x2="430.306" y2="541.535" fill="none" stroke="#39393a" stroke-linecap="round" stroke-linejoin="round" stroke-width="8"/>
  </g>
  <g>
    <line x1="362.422" y1="496.236" x2="362.422" y2="549.307" fill="none" stroke="#39393a" stroke-linecap="round" stroke-linejoin="round" stroke-width="8"/>
    <line x1="335.886" y1="522.771" x2="388.958" y2="522.771" fill="none" stroke="#39393a" stroke-linecap="round" stroke-linejoin="round" stroke-width="8"/>
    <line x1="343.659" y1="504.008" x2="381.186" y2="541.535" fill="none" stroke="#39393a" stroke-linecap="round" stroke-linejoin="round" stroke-width="8"/>
    <line x1="381.186" y1="504.008" x2="343.659" y2="541.535" fill="none" stroke="#39393a" stroke-linecap="round" stroke-linejoin="round" stroke-width="8"/>
  </g>
  <g>
    <line x1="541.132" y1="496.236" x2="541.132" y2="549.307" fill="none" stroke="#39393a" stroke-linecap="round" stroke-linejoin="round" stroke-width="8"/>
    <line x1="514.597" y1="522.771" x2="567.668" y2="522.771" fill="none" stroke="#39393a" stroke-linecap="round" stroke-linejoin="round" stroke-width="8"/>
    <line x1="522.369" y1="504.008" x2="559.896" y2="541.535" fill="none" stroke="#39393a" stroke-linecap="round" stroke-linejoin="round" stroke-width="8"/>
    <line x1="559.896" y1="504.008" x2="522.369" y2="541.535" fill="none" stroke="#39393a" stroke-linecap="round" stroke-linejoin="round" stroke-width="8"/>
  </g>
  <g>
    <line x1="631.029" y1="496.236" x2="631.029" y2="549.307" fill="none" stroke="#39393a" stroke-linecap="round" stroke-linejoin="round" stroke-width="8"/>
    <line x1="604.493" y1="522.771" x2="657.565" y2="522.771" fill="none" stroke="#39393a" stroke-linecap="round" stroke-linejoin="round" stroke-width="8"/>
    <line x1="612.265" y1="504.008" x2="649.793" y2="541.535" fill="none" stroke="#39393a" stroke-linecap="round" stroke-linejoin="round" stroke-width="8"/>
    <line x1="649.793" y1="504.008" x2="612.265" y2="541.535" fill="none" stroke="#39393a" stroke-linecap="round" stroke-linejoin="round" stroke-width="8"/>
  </g>
  <g>
    <circle cx="884.627" cy="671.5" r="24.84" fill="#fff"/>
    <path d="M898.587,783.627H870.668a7.676,7.676,0,0,1-7.6-8.728l11.676-84.356a7.675,7.675,0,0,1,7.6-6.623h4.567a7.675,7.675,0,0,1,7.6,6.623L906.19,774.9A7.676,7.676,0,0,1,898.587,783.627Z" fill="#fff"/>
  </g>
  <circle cx="946.987" cy="720.297" r="20.442" fill="none" stroke="#39393a" stroke-linecap="round" stroke-linejoin="round" stroke-width="10"/>
  <line x1="925.683" y1="720.125" x2="802.516" y2="720.125" fill="none" stroke="#39393a" stroke-linecap="round" stroke-linejoin="round" stroke-width="10"/>
  <line x1="813.5" y1="720.125" x2="813.5" y2="742.784" fill="none" stroke="#39393a" stroke-linecap="round" stroke-linejoin="round" stroke-width="10"/>
  <line x1="831.912" y1="720.125" x2="831.912" y2="748.199" fill="none" stroke="#39393a" stroke-linecap="round" stroke-linejoin="round" stroke-width="10"/>
</svg>
