<svg id="Layer_1" data-name="Layer 1" xmlns="http://www.w3.org/2000/svg" viewBox="0 0 1390 1390">
  <rect width="1389" height="1389" fill="#26a5b4"/>
  <rect x="439.665" y="708.248" width="19" height="75" rx="9.5" transform="translate(-419.474 803.668) rotate(-62.754)" fill="#39393a"/>
  <path d="M354.654,635.427,402.81,541.91a12.034,12.034,0,0,0-5.175-16.162l-58.65-30.2a12.034,12.034,0,0,0-16.162,5.175l-48.156,93.516" fill="none" stroke="#39393a" stroke-miterlimit="10" stroke-width="10"/>
  <path d="M225.224,885.413c0,108.982,67.9,202.106,163.7,239.38" fill="none" stroke="#fff" stroke-linecap="round" stroke-linejoin="round" stroke-width="8"/>
  <path d="M291.762,1106.064a257.423,257.423,0,0,0,22.124,15.85" fill="none" stroke="#fff" stroke-linecap="round" stroke-linejoin="round" stroke-width="8"/>
  <path d="M201.135,960.44a255.094,255.094,0,0,0,27.769,72.189" fill="none" stroke="#fff" stroke-linecap="round" stroke-linejoin="round" stroke-width="8"/>
  <path d="M228.752,582.925,188.6,660.9c-2.76,5.361-.218,12.219,5.65,15.24L336.5,749.385c5.868,3.021,62.434-29.5,62.434-29.5s-6.379-64.938-12.247-67.96L244.439,578.673C238.572,575.651,231.512,577.565,228.752,582.925Z" fill="none" stroke="#39393a" stroke-miterlimit="10" stroke-width="10"/>
  <path d="M481.092,693.576A61,61,0,0,0,425.239,802.04Z" fill="#e3e000"/>
  <path d="M956.466,987.413l-37.213-13.808A38.124,38.124,0,0,1,896.6,954.72L871.99,907.3a37.838,37.838,0,0,1-.036-34.792l38.512-80.1S981.466,872.413,956.466,987.413Z" fill="#fff"/>
  <path d="M593.988,1154.371l37.094-69.654a31.665,31.665,0,0,0,.067-29.644l-18.773-35.64a31.669,31.669,0,0,1,5.787-37.311l23.4-23.066a31.668,31.668,0,0,0,4.32-39.811l-15.55-23.923a31.667,31.667,0,0,0-26.552-14.409H552.267a31.668,31.668,0,0,1-27.438-15.856l-24.863-43.144s57.5-124.5,215.5-127.5l36.825,74.169a23.056,23.056,0,0,1-5.792,28.407L691.88,842.305a30.277,30.277,0,0,0-7.074,38.11l80.378,139.665a28,28,0,0,1-4.448,33.327l-118.27,122.006S603.466,1161.413,593.988,1154.371Z" fill="#fff"/>
  <circle cx="715.294" cy="940.413" r="246" fill="none" stroke="#39393a" stroke-miterlimit="10" stroke-width="10"/>
  <path d="M1046.457,484.572a189.532,189.532,0,0,0-154.93-80.159c-104.805,0-189.767,84.961-189.767,189.767a189.707,189.707,0,0,0,8.382,55.946" fill="none" stroke="#39393a" stroke-linecap="round" stroke-linejoin="round" stroke-width="10"/>
  <path d="M730.658,694.888a189.636,189.636,0,0,0,160.869,89.059c104.8,0,189.767-84.962,189.767-189.767a189.709,189.709,0,0,0-8.41-56.038" fill="none" stroke="#39393a" stroke-linecap="round" stroke-linejoin="round" stroke-width="10"/>
  <path d="M819.619,390.062A189.913,189.913,0,0,0,681.762,223.41" fill="none" stroke="#fff" stroke-linecap="round" stroke-linejoin="round" stroke-width="8"/>
  <path d="M479.541,521.152A189.8,189.8,0,0,0,786.2,514.729" fill="none" stroke="#fff" stroke-linecap="round" stroke-linejoin="round" stroke-width="8"/>
  <path d="M533.421,243.106A189.673,189.673,0,0,0,440.76,406.18" fill="none" stroke="#fff" stroke-linecap="round" stroke-linejoin="round" stroke-width="8"/>
  <path d="M764.344,319.925a160.81,160.81,0,0,0-82.58-63.189" fill="none" stroke="#fff" stroke-linecap="round" stroke-linejoin="round" stroke-width="8"/>
  <path d="M510.5,513.8c21.788,28.57,45.963,41.6,81.923,50.479" fill="none" stroke="#fff" stroke-linecap="round" stroke-linejoin="round" stroke-width="8"/>
  <path d="M517,296.132a159.666,159.666,0,0,0-45.165,93.928" fill="none" stroke="#fff" stroke-linecap="round" stroke-linejoin="round" stroke-width="8"/>
  <rect x="221.35" y="731.86" width="17.158" height="89.969" transform="translate(-565.989 625.616) rotate(-62.754)" fill="#fff"/>
  <path d="M224.48,691.7l-48.156,93.517A12.035,12.035,0,0,0,181.5,801.38l58.65,30.2a12.035,12.035,0,0,0,16.162-5.175l48.156-93.517" fill="none" stroke="#39393a" stroke-miterlimit="10" stroke-width="10"/>
  <polyline points="625.83 585 625.83 218.105 639.971 212.606 671.397 364.235 628.187 396.446" fill="none" stroke="#39393a" stroke-miterlimit="10" stroke-width="10"/>
  <polyline points="631.175 401.642 464.262 482.007 453.173 471.651 576.158 377.558 623.925 402.517" fill="none" stroke="#39393a" stroke-miterlimit="10" stroke-width="10"/>
  <polyline points="624.282 401.466 802.707 461.941 803.376 477.1 649.684 458.189 633.048 406.926" fill="none" stroke="#39393a" stroke-miterlimit="10" stroke-width="10"/>
  <path d="M1070.971,845.616a5,5,0,0,1,4.487,2.788c4.243,8.593,11.015,12.6,21.315,12.6s17.071-4,21.313-12.6a5,5,0,0,1,8.967,0c4.242,8.594,11.016,12.6,21.315,12.6s17.072-4,21.314-12.6a5,5,0,0,1,4.483-2.786h0a5,5,0,0,1,4.484,2.787c4.242,8.593,11.014,12.6,21.313,12.6s17.073-4,21.315-12.6a5,5,0,0,1,8.967,4.426c-5.868,11.887-16.338,18.169-30.282,18.169-10.9,0-19.681-3.842-25.8-11.2-6.116,7.357-14.9,11.2-25.8,11.2s-19.682-3.842-25.8-11.2c-6.116,7.357-14.895,11.2-25.8,11.2-13.944,0-24.414-6.282-30.281-18.169a5,5,0,0,1,4.479-7.214Z" fill="#39393a"/>
  <path d="M1016.971,845.616a5,5,0,0,1,4.487,2.788c4.243,8.593,11.015,12.6,21.315,12.6s17.071-4,21.313-12.6a5,5,0,0,1,8.967,0c4.242,8.594,11.016,12.6,21.315,12.6s17.072-4,21.314-12.6a5,5,0,0,1,4.483-2.786h0a5,5,0,0,1,4.484,2.787c4.242,8.593,11.014,12.6,21.313,12.6s17.073-4,21.315-12.6a5,5,0,0,1,8.967,4.426c-5.868,11.887-16.338,18.169-30.282,18.169-10.9,0-19.681-3.842-25.8-11.2-6.116,7.357-14.9,11.2-25.8,11.2s-19.682-3.842-25.8-11.2c-6.116,7.357-14.895,11.2-25.8,11.2-13.944,0-24.414-6.282-30.281-18.169a5,5,0,0,1,4.479-7.214Z" fill="#39393a"/>
  <path d="M996.971,895.616a5,5,0,0,1,4.487,2.788c4.243,8.593,11.015,12.6,21.315,12.6s17.071-4,21.313-12.6a5,5,0,0,1,8.967,0c4.242,8.594,11.016,12.6,21.315,12.6s17.072-4,21.314-12.6a5,5,0,0,1,4.483-2.786h0a5,5,0,0,1,4.484,2.787c4.242,8.593,11.014,12.6,21.313,12.6s17.073-4,21.315-12.6a5,5,0,0,1,8.967,4.426c-5.868,11.887-16.338,18.169-30.282,18.169-10.9,0-19.681-3.842-25.8-11.2-6.116,7.357-14.9,11.2-25.8,11.2s-19.682-3.842-25.8-11.2c-6.116,7.357-14.895,11.2-25.8,11.2-13.944,0-24.414-6.282-30.281-18.169a5,5,0,0,1,4.479-7.214Z" fill="#39393a"/>
  <polyline points="735 616 713.159 653.923 672.835 636.317" fill="none" stroke="#39393a" stroke-linecap="round" stroke-linejoin="round" stroke-width="10"/>
  <polyline points="1050.098 573.251 1071.47 533.325 1109.902 554.749" fill="none" stroke="#39393a" stroke-linecap="round" stroke-linejoin="round" stroke-width="10"/>
  <g id="Pictogram">
    <path id="Water" d="M900.214,505.477a6.937,6.937,0,0,0-11.736,0c-14.585,22.14-51.168,80.768-51.168,106.043a57.013,57.013,0,1,0,114.025,0C951.335,586.245,914.752,527.617,900.214,505.477ZM915.464,650.1l-3.658-8.79A33.542,33.542,0,0,0,932.331,610h9.5a43,43,0,0,1-26.416,40Z" fill="#fff"/>
  </g>
  <g>
    <polyline points="958.01 139.258 958.01 254.697 1015.73 154.724" fill="none" stroke="#39393a" stroke-linecap="round" stroke-linejoin="round" stroke-width="10"/>
    <polyline points="1015.73 154.724 958.01 254.697 1057.983 196.977" fill="none" stroke="#39393a" stroke-linecap="round" stroke-linejoin="round" stroke-width="10"/>
    <polyline points="1057.983 196.977 958.01 254.697 1073.449 254.697" fill="none" stroke="#39393a" stroke-linecap="round" stroke-linejoin="round" stroke-width="10"/>
    <polyline points="1073.449 254.697 958.01 254.697 1057.983 312.416" fill="none" stroke="#39393a" stroke-linecap="round" stroke-linejoin="round" stroke-width="10"/>
    <polyline points="1057.983 312.416 958.01 254.697 1015.73 354.67" fill="none" stroke="#39393a" stroke-linecap="round" stroke-linejoin="round" stroke-width="10"/>
    <polyline points="1015.73 354.67 958.01 254.697 958.01 370.136" fill="none" stroke="#39393a" stroke-linecap="round" stroke-linejoin="round" stroke-width="10"/>
    <polyline points="958.01 370.136 958.01 254.697 900.291 354.67" fill="none" stroke="#39393a" stroke-linecap="round" stroke-linejoin="round" stroke-width="10"/>
    <polyline points="900.291 354.67 958.01 254.697 858.037 312.416" fill="none" stroke="#39393a" stroke-linecap="round" stroke-linejoin="round" stroke-width="10"/>
    <polyline points="858.037 312.416 958.01 254.697 842.571 254.697" fill="none" stroke="#39393a" stroke-linecap="round" stroke-linejoin="round" stroke-width="10"/>
    <polyline points="842.571 254.697 958.01 254.697 858.037 196.977" fill="none" stroke="#39393a" stroke-linecap="round" stroke-linejoin="round" stroke-width="10"/>
    <polyline points="858.037 196.977 958.01 254.697 900.291 154.724" fill="none" stroke="#39393a" stroke-linecap="round" stroke-linejoin="round" stroke-width="10"/>
    <polyline points="900.291 154.724 958.01 254.697 958.01 139.258" fill="none" stroke="#39393a" stroke-linecap="round" stroke-linejoin="round" stroke-width="10"/>
  </g>
  <circle cx="958.983" cy="257.223" r="81.723" fill="#26a5b4"/>
  <circle cx="958.983" cy="257.223" r="72.723" fill="#e3e000" stroke="#26a5b4" stroke-miterlimit="10" stroke-width="10"/>
</svg>
