<svg id="Layer_1" data-name="Layer 1" xmlns="http://www.w3.org/2000/svg" viewBox="0 0 1390 1390">
  <rect x="-0.25" y="-1.454" width="1389" height="1389" fill="#f6f6f7"/>
  <path d="M1213.672,517.554l.01-41.4-24.568-5.257a128.836,128.836,0,0,0-4.648-14.992l18.434-16.643L1182.2,403.4l-25.491,8.232a132.856,132.856,0,0,0-10.365-9.841l8.068-24.973-35.844-20.709-18.225,20.173a131.847,131.847,0,0,0-13.6-3.491L1081.2,347h-41.389l-5.527,25.793a131.21,131.21,0,0,0-14.422,3.767L1002.9,357.774,967.054,378.48l7.556,23.371a135.013,135.013,0,0,0-12,11.559l-22.137-7.15-20.7,35.85,16.384,14.8a129.526,129.526,0,0,0-5.23,18.213l-20.28,4.341v41.4l19.308,4.138a130.848,130.848,0,0,0,5.174,20.387l-13.708,12.382,20.7,35.848,17.179-5.546a132.818,132.818,0,0,0,15.869,15.862L969.911,620.2l35.847,20.691,11.717-12.965a131.8,131.8,0,0,0,22.091,5.526l3.545,16.561h41.4l3.828-17.857a131.059,131.059,0,0,0,20.94-6.349l12.137,13.439,35.855-20.7-6.22-19.257a131.647,131.647,0,0,0,13.545-14.756l19.252,6.221,20.7-35.852-16.854-15.229a129.276,129.276,0,0,0,3.821-17.38Zm-83.619-14.9a69.544,69.544,0,1,1-69.539-69.553A69.529,69.529,0,0,1,1130.053,502.657Z" fill="#e3e000"/>
  <path d="M456.9,799.285l-46.685,0H302.882l-8.7,0a64.037,64.037,0,0,1-114.6-3.333h54.6l15.538-26.912-15.538-26.9h-54.6a64.041,64.041,0,0,1,114.6-3.342H410.211l46.69.009a64.031,64.031,0,0,1,114.6,3.333H516.9l-15.529,26.908L516.9,795.952h54.6a64.037,64.037,0,0,1-114.6,3.333Z" fill="#26a5b4"/>
  <g>
    <g>
      <line x1="650.195" y1="467.382" x2="636.545" y2="433.596" fill="none" stroke="#39393a" stroke-linecap="round" stroke-linejoin="round" stroke-width="10"/>
      <line x1="763.675" y1="417.986" x2="758.63" y2="453.884" fill="none" stroke="#39393a" stroke-linecap="round" stroke-linejoin="round" stroke-width="10"/>
    </g>
    <line x1="636.545" y1="433.596" x2="650.378" y2="467.834" fill="none" stroke="#39393a" stroke-linecap="round" stroke-linejoin="round" stroke-width="10"/>
    <line x1="859.453" y1="496.351" x2="881.577" y2="468.033" fill="none" stroke="#39393a" stroke-linecap="round" stroke-linejoin="round" stroke-width="10"/>
  </g>
  <g>
    <g>
      <line x1="703.589" y1="454.129" x2="699.082" y2="417.422" fill="none" stroke="#39393a" stroke-linecap="round" stroke-linejoin="round" stroke-width="10"/>
      <line x1="825.92" y1="435.248" x2="811.504" y2="469.211" fill="none" stroke="#39393a" stroke-linecap="round" stroke-linejoin="round" stroke-width="10"/>
    </g>
    <g>
      <line x1="602.583" y1="494.942" x2="580.324" y2="465.404" fill="none" stroke="#39393a" stroke-linecap="round" stroke-linejoin="round" stroke-width="10"/>
      <line x1="699.082" y1="417.422" x2="703.589" y2="454.129" fill="none" stroke="#39393a" stroke-linecap="round" stroke-linejoin="round" stroke-width="10"/>
    </g>
    <line x1="580.324" y1="465.404" x2="602.74" y2="495.15" fill="none" stroke="#39393a" stroke-linecap="round" stroke-linejoin="round" stroke-width="10"/>
  </g>
  <g>
    <g>
      <line x1="646.565" y1="957.011" x2="632.915" y2="990.797" fill="none" stroke="#39393a" stroke-linecap="round" stroke-linejoin="round" stroke-width="10"/>
      <line x1="760.045" y1="1006.407" x2="755" y2="970.51" fill="none" stroke="#39393a" stroke-linecap="round" stroke-linejoin="round" stroke-width="10"/>
    </g>
    <line x1="632.915" y1="990.797" x2="646.748" y2="956.56" fill="none" stroke="#39393a" stroke-linecap="round" stroke-linejoin="round" stroke-width="10"/>
    <line x1="855.823" y1="928.042" x2="877.947" y2="956.36" fill="none" stroke="#39393a" stroke-linecap="round" stroke-linejoin="round" stroke-width="10"/>
  </g>
  <g>
    <g>
      <line x1="699.959" y1="970.264" x2="695.452" y2="1006.971" fill="none" stroke="#39393a" stroke-linecap="round" stroke-linejoin="round" stroke-width="10"/>
      <line x1="822.29" y1="989.145" x2="807.874" y2="955.182" fill="none" stroke="#39393a" stroke-linecap="round" stroke-linejoin="round" stroke-width="10"/>
    </g>
    <g>
      <line x1="598.953" y1="929.451" x2="576.694" y2="958.989" fill="none" stroke="#39393a" stroke-linecap="round" stroke-linejoin="round" stroke-width="10"/>
      <line x1="695.452" y1="1006.971" x2="699.959" y2="970.264" fill="none" stroke="#39393a" stroke-linecap="round" stroke-linejoin="round" stroke-width="10"/>
    </g>
    <line x1="576.694" y1="958.989" x2="599.11" y2="929.243" fill="none" stroke="#39393a" stroke-linecap="round" stroke-linejoin="round" stroke-width="10"/>
  </g>
  <g>
    <rect x="446.592" y="545.258" width="563.86" height="323.92" rx="4.557" stroke-width="10" stroke="#39393a" stroke-linecap="round" stroke-linejoin="round" fill="none"/>
    <polyline points="446.592 544.948 728.985 781.047 1010.452 544.948" fill="none" stroke="#39393a" stroke-linecap="round" stroke-linejoin="round" stroke-width="10"/>
    <line x1="817.288" y1="706.977" x2="1010.452" y2="869.006" fill="none" stroke="#39393a" stroke-linecap="round" stroke-linejoin="round" stroke-width="10"/>
    <line x1="446.592" y1="869.006" x2="640.391" y2="706.977" fill="none" stroke="#39393a" stroke-linecap="round" stroke-linejoin="round" stroke-width="10"/>
  </g>
  <path d="M117.914,495.428c0,55.209,45.17,100.379,100.379,100.379H563.7a100.357,100.357,0,0,0,11.131-.625,49.689,49.689,0,0,0,8.09.625c59.8,0,81.157,32.036,81.157,32.036V441.571c0-55.208-45.17-100.379-100.378-100.379h-345.4c-55.209,0-100.379,45.171-100.379,100.379" fill="#fff"/>
  <g>
    <path d="M247.346,422.658a27.224,27.224,0,0,0-54.447,0V447" fill="none" stroke="#39393a" stroke-linecap="round" stroke-linejoin="round" stroke-width="10"/>
    <path d="M190.684,447H249.56a14.728,14.728,0,0,1,14.728,14.728v37.081a36.5,36.5,0,0,1-36.5,36.5H212.457a36.5,36.5,0,0,1-36.5-36.5V461.732A14.728,14.728,0,0,1,190.684,447Z" fill="#e3e000"/>
    <circle cx="220.122" cy="477.465" r="6.125" fill="#39393a" stroke="#39393a" stroke-linecap="round" stroke-linejoin="round" stroke-width="10"/>
    <line x1="220.122" y1="477.465" x2="220.122" y2="501.965" fill="#39393a" stroke="#39393a" stroke-linecap="round" stroke-linejoin="round" stroke-width="10"/>
  </g>
  <rect x="305.823" y="431.453" width="311.777" height="74.152" rx="30.641" fill="#e8e8e8"/>
  <g>
    <line x1="424.214" y1="447.884" x2="424.214" y2="489.174" fill="none" stroke="#39393a" stroke-linecap="round" stroke-linejoin="round" stroke-width="8"/>
    <line x1="403.57" y1="468.529" x2="444.859" y2="468.529" fill="none" stroke="#39393a" stroke-linecap="round" stroke-linejoin="round" stroke-width="8"/>
    <line x1="409.616" y1="453.931" x2="438.812" y2="483.127" fill="none" stroke="#39393a" stroke-linecap="round" stroke-linejoin="round" stroke-width="8"/>
    <line x1="438.812" y1="453.931" x2="409.616" y2="483.127" fill="none" stroke="#39393a" stroke-linecap="round" stroke-linejoin="round" stroke-width="8"/>
  </g>
  <g>
    <line x1="356.803" y1="447.884" x2="356.803" y2="489.174" fill="none" stroke="#39393a" stroke-linecap="round" stroke-linejoin="round" stroke-width="8"/>
    <line x1="336.158" y1="468.529" x2="377.448" y2="468.529" fill="none" stroke="#39393a" stroke-linecap="round" stroke-linejoin="round" stroke-width="8"/>
    <line x1="342.205" y1="453.931" x2="371.401" y2="483.127" fill="none" stroke="#39393a" stroke-linecap="round" stroke-linejoin="round" stroke-width="8"/>
    <line x1="371.401" y1="453.931" x2="342.205" y2="483.127" fill="none" stroke="#39393a" stroke-linecap="round" stroke-linejoin="round" stroke-width="8"/>
  </g>
  <g>
    <line x1="495.839" y1="447.884" x2="495.839" y2="489.174" fill="none" stroke="#39393a" stroke-linecap="round" stroke-linejoin="round" stroke-width="8"/>
    <line x1="475.194" y1="468.529" x2="516.484" y2="468.529" fill="none" stroke="#39393a" stroke-linecap="round" stroke-linejoin="round" stroke-width="8"/>
    <line x1="481.241" y1="453.931" x2="510.437" y2="483.127" fill="none" stroke="#39393a" stroke-linecap="round" stroke-linejoin="round" stroke-width="8"/>
    <line x1="510.437" y1="453.931" x2="481.241" y2="483.127" fill="none" stroke="#39393a" stroke-linecap="round" stroke-linejoin="round" stroke-width="8"/>
  </g>
  <g>
    <line x1="565.778" y1="447.884" x2="565.778" y2="489.174" fill="none" stroke="#39393a" stroke-linecap="round" stroke-linejoin="round" stroke-width="8"/>
    <line x1="545.133" y1="468.529" x2="586.423" y2="468.529" fill="none" stroke="#39393a" stroke-linecap="round" stroke-linejoin="round" stroke-width="8"/>
    <line x1="551.18" y1="453.931" x2="580.376" y2="483.127" fill="none" stroke="#39393a" stroke-linecap="round" stroke-linejoin="round" stroke-width="8"/>
    <line x1="580.376" y1="453.931" x2="551.18" y2="483.127" fill="none" stroke="#39393a" stroke-linecap="round" stroke-linejoin="round" stroke-width="8"/>
  </g>
  <g>
    <polygon points="341.787 769.615 353.108 823.845 390.609 798.156 341.787 769.615" fill="none" stroke="#39393a" stroke-linecap="round" stroke-linejoin="round" stroke-width="10"/>
    <line x1="371.858" y1="811.001" x2="387.111" y2="833.267" fill="none" stroke="#39393a" stroke-linecap="round" stroke-linejoin="round" stroke-width="10"/>
  </g>
</svg>
