<svg id="Layer_1" data-name="Layer 1" xmlns="http://www.w3.org/2000/svg" viewBox="0 0 1390 1390">
  <rect width="1389" height="1389" fill="#26a5b4"/>
  <circle cx="979.5" cy="639.773" r="58.5" fill="#fff"/>
  <line x1="979.5" y1="774.5" x2="979.5" y2="618.5" fill="#fff" stroke="#39393a" stroke-linecap="round" stroke-linejoin="round" stroke-width="9"/>
  <line x1="1004.318" y1="630.909" x2="979.5" y2="659.998" fill="#fff" stroke="#39393a" stroke-linecap="round" stroke-linejoin="round" stroke-width="9"/>
  <line x1="956.455" y1="630.909" x2="981.273" y2="659.998" fill="#fff" stroke="#39393a" stroke-linecap="round" stroke-linejoin="round" stroke-width="9"/>
  <path d="M757,710.5v22a36,36,0,0,1-36,36H408a36,36,0,0,0-36,36v12a36,36,0,0,0,36,36H890a36,36,0,0,1,36,36h0a36,36,0,0,1-36,36H648a36,36,0,0,0-36,36v12" fill="none" stroke="#39393a" stroke-miterlimit="10" stroke-width="10"/>
  <rect x="591.042" y="967.5" width="43" height="100" rx="11.972" fill="none" stroke="#39393a" stroke-miterlimit="10" stroke-width="10"/>
  <rect x="600.417" y="1127.5" width="24.25" height="52" rx="6.997" fill="#e3e000"/>
  <rect x="574" y="1115.5" width="24" height="135" rx="6.997" fill="none" stroke="#39393a" stroke-miterlimit="10" stroke-width="10"/>
  <rect x="627" y="1115.5" width="24" height="135" rx="6.997" fill="none" stroke="#39393a" stroke-miterlimit="10" stroke-width="10"/>
  <path d="M669.782,1179.5H555.3a11.76,11.76,0,0,1-11.759-11.76v-62.754a11.768,11.768,0,0,1,1.9-6.409l33.623-51.726a11.757,11.757,0,0,1,9.859-5.351H636.16a11.76,11.76,0,0,1,9.86,5.351l33.622,51.726a11.761,11.761,0,0,1,1.9,6.409v62.754A11.76,11.76,0,0,1,669.782,1179.5Z" fill="#ea1c0a" stroke="#ea1c0a" stroke-miterlimit="10"/>
  <rect x="521.182" y="323.5" width="331" height="390" fill="#e3e000"/>
  <rect x="571.182" y="364.5" width="90" height="85" fill="#26a5b4"/>
  <rect x="709.75" y="364.5" width="90" height="84" fill="#26a5b4"/>
  <rect x="714.182" y="596.5" width="83.568" height="122" fill="#26a5b4"/>
  <rect x="571.182" y="478.5" width="90" height="85" fill="#26a5b4"/>
  <rect x="571.182" y="593.5" width="90" height="85" fill="#26a5b4"/>
  <rect x="709.75" y="478.5" width="90" height="85" fill="#26a5b4"/>
  <path d="M663.789,216.5a5,5,0,0,1-4.487-2.788c-4.242-8.593-11.015-12.595-21.315-12.595s-17.071,4-21.313,12.6a5,5,0,0,1-8.967,0c-4.242-8.594-11.016-12.6-21.314-12.6s-17.073,4-21.315,12.6A5,5,0,0,1,560.6,216.5h0a5,5,0,0,1-4.484-2.787c-4.242-8.593-11.014-12.595-21.313-12.595s-17.072,4-21.315,12.6a5,5,0,0,1-8.966-4.426c5.867-11.887,16.337-18.169,30.281-18.169,10.9,0,19.681,3.842,25.8,11.2,6.116-7.357,14.9-11.2,25.8-11.2s19.681,3.842,25.8,11.2c6.116-7.357,14.895-11.2,25.8-11.2,13.944,0,24.414,6.282,30.282,18.169a5,5,0,0,1-4.48,7.214Z" fill="#39393a"/>
  <path d="M872,269.5v54H506v-54H872m0-10H506a10,10,0,0,0-10,10v54a10,10,0,0,0,10,10H872a10,10,0,0,0,10-10v-54a10,10,0,0,0-10-10Z" fill="#39393a"/>
  <path d="M790,603.5v105H721v-105h69m10-10H711v125h89v-125Z" fill="#39393a"/>
  <rect x="763" y="647.5" width="16" height="16" rx="8" fill="#39393a"/>
  <path d="M650.75,603.5v65H581v-65h69.75m10-10H571v85h89.75v-85Z" fill="#39393a"/>
  <path d="M650.75,488.5v65H581v-65h69.75m10-10H571v85h89.75v-85Z" fill="#39393a"/>
  <path d="M789.75,488.5v65H720v-65h69.75m10-10H710v85h89.75v-85Z" fill="#39393a"/>
  <path d="M789.75,373.5v65H720v-65h69.75m10-10H710v85h89.75v-85Z" fill="#39393a"/>
  <path d="M650.75,374.5v65H581v-65h69.75m10-10H571v85h89.75v-85Z" fill="#39393a"/>
  <rect x="611" y="479.5" width="10" height="83" fill="#39393a"/>
  <rect x="611" y="594.5" width="10" height="83" fill="#39393a"/>
  <rect x="611" y="365.5" width="10" height="83" fill="#39393a"/>
  <rect x="750" y="365.5" width="10" height="83" fill="#39393a"/>
  <rect x="750" y="479.5" width="10" height="83" fill="#39393a"/>
  <path d="M820,218.555V259.5H781V218.555h39m10-10H771V269.5h59V208.555Z" fill="#39393a"/>
  <path d="M834,186.5v22H767v-22h67m0-10H767a10,10,0,0,0-10,10v22a10,10,0,0,0,10,10h67a10,10,0,0,0,10-10v-22a10,10,0,0,0-10-10Z" fill="#39393a"/>
  <path d="M913,718.5H461a5,5,0,0,1,0-10H913a5,5,0,0,1,0,10Z" fill="#39393a"/>
</svg>
