<svg id="Layer_1" data-name="Layer 1" xmlns="http://www.w3.org/2000/svg" viewBox="0 0 1390 1390">
  <rect x="-0.25" y="-1.454" width="1389" height="1389" fill="#f6f6f7"/>
  <path d="M676.188,749.91l-.259-53.31-31.67-6.607a165.649,165.649,0,0,0-6.083-19.273L661.8,649.169,634.91,603.136,602.142,613.9a171.144,171.144,0,0,0-13.411-12.6l10.224-32.209-46.29-26.428-23.333,26.1a170.363,170.363,0,0,0-17.54-4.406L504.5,531.178l-53.292.273L444.258,564.7a169.114,169.114,0,0,0-18.545,4.946l-21.968-24.077-46.021,26.9,9.883,30.044a173.827,173.827,0,0,0-15.368,14.962l-28.551-9.06-26.419,46.3,21.195,18.95a166.678,166.678,0,0,0-6.614,23.486l-26.085,5.722.273,53.311,24.89,5.2a168.344,168.344,0,0,0,6.8,26.217l-17.569,16.033,26.886,46.022,22.082-7.255a170.8,170.8,0,0,0,20.539,20.319L363,883.692l46.294,26.4,15-16.771a169.686,169.686,0,0,0,28.481,6.969l4.674,21.3,53.3-.273,4.812-23.017a168.838,168.838,0,0,0,26.921-8.315L558.2,907.216l46.03-26.885-8.135-24.756a169.453,169.453,0,0,0,17.344-19.089l24.83,7.883,26.418-46.3-21.8-19.5a166.333,166.333,0,0,0,4.806-22.4ZM568.423,731.281a89.546,89.546,0,1,1-90-89.1A89.528,89.528,0,0,1,568.423,731.281Z" fill="#ea1c0a"/>
  <rect x="521.015" y="464.863" width="321.227" height="547.673" fill="#e3e000"/>
  <rect x="485.063" y="366.156" width="393.129" height="764.506" rx="60.557" stroke-width="10" stroke="#39393a" stroke-linecap="round" stroke-linejoin="round" fill="none"/>
  <circle cx="681.628" cy="1067.864" r="8.638" fill="#39393a" stroke="#39393a" stroke-linecap="round" stroke-linejoin="round" stroke-width="10"/>
  <line x1="639.607" y1="420.975" x2="723.649" y2="420.975" fill="none" stroke="#39393a" stroke-linecap="round" stroke-linejoin="round" stroke-width="10"/>
  <g>
    <ellipse cx="960.247" cy="433.2" rx="165.016" ry="149.917" fill="#fff"/>
    <polygon points="817.27 487.713 791.995 576.645 874.306 554.663 883.671 488.205 817.27 487.713" fill="#fff"/>
  </g>
  <path d="M693.3,732.69a15.805,15.805,0,0,1,12.082,18.728l-15.557,72.121A15.806,15.806,0,0,1,671.1,835.621l-27.4-5.911a15.807,15.807,0,0,1-12.083-18.728l15.558-72.121a15.8,15.8,0,0,1,18.728-12.082" fill="none" stroke="#39393a" stroke-linecap="round" stroke-linejoin="round" stroke-width="10"/>
  <path d="M681.979,690.67a15.8,15.8,0,0,1-.47-22.282l51.056-53.261a15.806,15.806,0,0,1,22.282-.471l20.239,19.4a15.8,15.8,0,0,1,.47,22.282L724.5,709.6a15.806,15.806,0,0,1-22.282.471" fill="none" stroke="#39393a" stroke-linecap="round" stroke-linejoin="round" stroke-width="10"/>
  <g>
    <line x1="627.751" y1="611.469" x2="652.532" y2="644.038" fill="none" stroke="#39393a" stroke-linecap="round" stroke-linejoin="round" stroke-width="10"/>
    <line x1="591.019" y1="659.018" x2="626.132" y2="673.789" fill="none" stroke="#39393a" stroke-linecap="round" stroke-linejoin="round" stroke-width="10"/>
    <line x1="583.02" y1="718.655" x2="618.767" y2="714.149" fill="none" stroke="#39393a" stroke-linecap="round" stroke-linejoin="round" stroke-width="10"/>
  </g>
  <g>
    <line x1="1139.915" y1="307.604" x2="1110.136" y2="321.274" fill="none" stroke="#39393a" stroke-linecap="round" stroke-linejoin="round" stroke-width="10"/>
    <line x1="1109.183" y1="270.592" x2="1091.504" y2="295.446" fill="none" stroke="#39393a" stroke-linecap="round" stroke-linejoin="round" stroke-width="10"/>
    <line x1="1063.984" y1="253.918" x2="1061.257" y2="282.636" fill="none" stroke="#39393a" stroke-linecap="round" stroke-linejoin="round" stroke-width="10"/>
  </g>
  <g>
    <path d="M425.144,277.455V237.112a45.112,45.112,0,0,1,90.224,0l.556,40.415" fill="none" stroke="#39393a" stroke-linecap="round" stroke-linejoin="round" stroke-width="10"/>
    <path d="M418.216,277.455H522.3A21.149,21.149,0,0,1,543.445,298.6v72.777A52.414,52.414,0,0,1,491.031,423.8h-41.55a52.414,52.414,0,0,1-52.414-52.414V298.6a21.149,21.149,0,0,1,21.149-21.149Z" fill="#26a5b4"/>
    <circle cx="470.256" cy="327.932" r="10.15" fill="#39393a" stroke="#39393a" stroke-linecap="round" stroke-linejoin="round" stroke-width="10"/>
    <line x1="470.256" y1="327.932" x2="470.256" y2="368.533" fill="#39393a" stroke="#39393a" stroke-linecap="round" stroke-linejoin="round" stroke-width="10"/>
  </g>
  <g>
    <circle cx="959.562" cy="433.147" r="30.728" fill="none" stroke="#39393a" stroke-linecap="round" stroke-linejoin="round" stroke-width="10"/>
    <polygon points="891.797 417.582 867.233 419.801 867.118 445.564 892.629 448.105 899.753 468.469 883.649 487.151 901.488 505.739 921.583 489.818 943.45 499.14 945.885 524.661 971.648 524.654 973.97 500.1 993.603 491.009 1013.161 507.586 1031.605 489.597 1016.128 470.394 1024.507 448.657 1050.039 446.33 1050.14 420.567 1025.595 418.142 1016.71 398.478 1033.433 379.045 1015.584 360.467 996.265 375.799 973.97 366.3 971.648 341.746 945.885 341.739 943.45 367.26 922.733 374.582 903.931 358.62 885.478 376.598 901.549 396.573 891.797 417.582" fill="none" stroke="#39393a" stroke-linecap="round" stroke-linejoin="round" stroke-width="10"/>
  </g>
  <g>
    <rect x="761.449" y="827.346" width="424.602" height="100.986" rx="44" fill="#e8e8e8"/>
    <g>
      <line x1="922.683" y1="849.724" x2="922.683" y2="905.955" fill="none" stroke="#39393a" stroke-linecap="round" stroke-linejoin="round" stroke-width="8"/>
      <line x1="894.567" y1="877.84" x2="950.799" y2="877.84" fill="none" stroke="#39393a" stroke-linecap="round" stroke-linejoin="round" stroke-width="8"/>
      <line x1="902.802" y1="857.959" x2="942.564" y2="897.72" fill="none" stroke="#39393a" stroke-linecap="round" stroke-linejoin="round" stroke-width="8"/>
      <line x1="942.564" y1="857.959" x2="902.802" y2="897.72" fill="none" stroke="#39393a" stroke-linecap="round" stroke-linejoin="round" stroke-width="8"/>
    </g>
    <g>
      <line x1="830.877" y1="849.724" x2="830.877" y2="905.955" fill="none" stroke="#39393a" stroke-linecap="round" stroke-linejoin="round" stroke-width="8"/>
      <line x1="802.762" y1="877.84" x2="858.993" y2="877.84" fill="none" stroke="#39393a" stroke-linecap="round" stroke-linejoin="round" stroke-width="8"/>
      <line x1="810.997" y1="857.959" x2="850.758" y2="897.72" fill="none" stroke="#39393a" stroke-linecap="round" stroke-linejoin="round" stroke-width="8"/>
      <line x1="850.758" y1="857.959" x2="810.997" y2="897.72" fill="none" stroke="#39393a" stroke-linecap="round" stroke-linejoin="round" stroke-width="8"/>
    </g>
    <g>
      <line x1="1020.227" y1="849.724" x2="1020.227" y2="905.955" fill="none" stroke="#39393a" stroke-linecap="round" stroke-linejoin="round" stroke-width="8"/>
      <line x1="992.111" y1="877.84" x2="1048.342" y2="877.84" fill="none" stroke="#39393a" stroke-linecap="round" stroke-linejoin="round" stroke-width="8"/>
      <line x1="1000.346" y1="857.959" x2="1040.107" y2="897.72" fill="none" stroke="#39393a" stroke-linecap="round" stroke-linejoin="round" stroke-width="8"/>
      <line x1="1040.107" y1="857.959" x2="1000.346" y2="897.72" fill="none" stroke="#39393a" stroke-linecap="round" stroke-linejoin="round" stroke-width="8"/>
    </g>
    <g>
      <line x1="1115.475" y1="849.724" x2="1115.475" y2="905.955" fill="none" stroke="#39393a" stroke-linecap="round" stroke-linejoin="round" stroke-width="8"/>
      <line x1="1087.36" y1="877.84" x2="1143.591" y2="877.84" fill="none" stroke="#39393a" stroke-linecap="round" stroke-linejoin="round" stroke-width="8"/>
      <line x1="1095.595" y1="857.959" x2="1135.356" y2="897.72" fill="none" stroke="#39393a" stroke-linecap="round" stroke-linejoin="round" stroke-width="8"/>
      <line x1="1135.356" y1="857.959" x2="1095.595" y2="897.72" fill="none" stroke="#39393a" stroke-linecap="round" stroke-linejoin="round" stroke-width="8"/>
    </g>
  </g>
  <g>
    <line x1="235.354" y1="972.382" x2="229.842" y2="962.834" fill="none" stroke="#39393a" stroke-linecap="round" stroke-linejoin="round" stroke-width="10"/>
    <polyline points="271.253 962.834 268.036 968.405 265.817 972.248" fill="none" stroke="#39393a" stroke-linecap="round" stroke-linejoin="round" stroke-width="10"/>
    <polyline points="291.958 998.697 282.899 998.697 280.872 998.697" fill="none" stroke="#39393a" stroke-linecap="round" stroke-linejoin="round" stroke-width="10"/>
    <polyline points="271.253 1034.559 265.866 1025.23 265.587 1024.747" fill="none" stroke="#39393a" stroke-linecap="round" stroke-linejoin="round" stroke-width="10"/>
    <polyline points="229.842 1034.559 230.662 1033.14 235.652 1024.496" fill="none" stroke="#39393a" stroke-linecap="round" stroke-linejoin="round" stroke-width="10"/>
    <polyline points="220.591 998.697 215.456 998.697 209.137 998.697" fill="none" stroke="#39393a" stroke-linecap="round" stroke-linejoin="round" stroke-width="10"/>
  </g>
</svg>
