<svg id="Layer_1" data-name="Layer 1" xmlns="http://www.w3.org/2000/svg" viewBox="0 0 2769 1816">
  <rect x="178.287" y="423" width="246.258" height="435.5" rx="21.179" fill="#fff"/>
  <rect x="358.726" y="540.048" width="39.146" height="50.889" transform="translate(4.344 -2.882) rotate(0.439)" fill="#e3e000"/>
  <rect x="358.667" y="616.215" width="39.146" height="50.889" transform="translate(4.928 -2.879) rotate(0.439)" fill="#e3e000"/>
  <rect x="358.608" y="692.382" width="39.146" height="50.889" transform="translate(5.511 -2.877) rotate(0.439)" fill="#e3e000"/>
  <rect x="358.548" y="768.549" width="39.146" height="50.889" transform="translate(6.095 -2.874) rotate(0.439)" fill="#e3e000"/>
  <rect x="577.625" y="148" width="246.258" height="842.529" rx="21.179" fill="#ea1c0a" stroke="#ea1c0a" stroke-miterlimit="10"/>
  <g>
    <rect x="621.545" y="505.562" width="33.919" height="39.61" transform="translate(4.044 -4.877) rotate(0.439)" fill="#e3e000"/>
    <rect x="746.045" y="505.562" width="33.919" height="39.61" transform="translate(4.048 -5.831) rotate(0.439)" fill="#e3e000"/>
    <rect x="683.339" y="505.562" width="33.919" height="39.61" transform="translate(4.046 -5.35) rotate(0.439)" fill="#e3e000"/>
    <rect x="621.545" y="564.847" width="33.919" height="39.61" transform="translate(4.498 -4.875) rotate(0.439)" fill="#e3e000"/>
    <rect x="746.045" y="564.847" width="33.919" height="39.61" transform="translate(4.502 -5.829) rotate(0.439)" fill="#e3e000"/>
    <rect x="683.339" y="564.847" width="33.919" height="39.61" transform="translate(4.5 -5.349) rotate(0.439)" fill="#e3e000"/>
    <rect x="621.545" y="624.133" width="33.919" height="39.61" transform="translate(4.953 -4.873) rotate(0.439)" fill="#e3e000"/>
    <rect x="746.045" y="624.133" width="33.919" height="39.61" transform="translate(4.956 -5.827) rotate(0.439)" fill="#e3e000"/>
    <rect x="683.339" y="624.133" width="33.919" height="39.61" transform="translate(4.955 -5.347) rotate(0.439)" fill="#e3e000"/>
    <rect x="621.545" y="683.419" width="33.919" height="39.61" transform="translate(5.407 -4.872) rotate(0.439)" fill="#e3e000"/>
    <rect x="746.045" y="683.419" width="33.919" height="39.61" transform="translate(5.411 -5.826) rotate(0.439)" fill="#e3e000"/>
    <rect x="683.339" y="683.419" width="33.919" height="39.61" transform="translate(5.409 -5.345) rotate(0.439)" fill="#e3e000"/>
  </g>
  <rect x="1117.735" y="639.665" width="132.852" height="285.006" rx="58.5" fill="#26a5b4"/>
  <rect x="564.993" y="148" width="271.523" height="59.045" fill="#ea1c0a"/>
  <path d="M361.034,639.685H637.775a0,0,0,0,1,0,0v405.927a34.15,34.15,0,0,1-34.15,34.15H395.184a34.15,34.15,0,0,1-34.15-34.15V639.685A0,0,0,0,1,361.034,639.685Z" transform="translate(6.602 -3.801) rotate(0.439)" fill="none" stroke="#39393a" stroke-miterlimit="10" stroke-width="8"/>
  <path d="M847.01,435.283h240a0,0,0,0,1,0,0V955.473a34.15,34.15,0,0,1-34.15,34.15H881.16a34.15,34.15,0,0,1-34.15-34.15V435.283a0,0,0,0,1,0,0Z" transform="translate(5.487 -7.388) rotate(0.439)" fill="none" stroke="#39393a" stroke-miterlimit="10" stroke-width="8"/>
  <rect x="398.336" y="738.065" width="43.577" height="50.889" transform="translate(5.863 -3.197) rotate(0.439)" fill="none" stroke="#39393a" stroke-miterlimit="10" stroke-width="8"/>
  <rect x="558.287" y="738.065" width="43.577" height="50.889" transform="translate(5.867 -4.422) rotate(0.439)" fill="none" stroke="#39393a" stroke-miterlimit="10" stroke-width="8"/>
  <rect x="477.726" y="738.065" width="43.577" height="50.889" transform="translate(5.865 -3.805) rotate(0.439)" fill="none" stroke="#39393a" stroke-miterlimit="10" stroke-width="8"/>
  <rect x="398.336" y="814.233" width="43.577" height="50.889" transform="translate(6.446 -3.194) rotate(0.439)" fill="none" stroke="#39393a" stroke-miterlimit="10" stroke-width="8"/>
  <rect x="558.287" y="814.233" width="43.577" height="50.889" transform="translate(6.451 -4.42) rotate(0.439)" fill="none" stroke="#39393a" stroke-miterlimit="10" stroke-width="8"/>
  <rect x="477.726" y="814.233" width="43.577" height="50.889" transform="translate(6.448 -3.803) rotate(0.439)" fill="none" stroke="#39393a" stroke-miterlimit="10" stroke-width="8"/>
  <rect x="398.336" y="890.4" width="43.577" height="50.889" transform="translate(7.03 -3.192) rotate(0.439)" fill="none" stroke="#39393a" stroke-miterlimit="10" stroke-width="8"/>
  <rect x="558.287" y="890.4" width="43.577" height="50.889" transform="translate(7.034 -4.418) rotate(0.439)" fill="none" stroke="#39393a" stroke-miterlimit="10" stroke-width="8"/>
  <rect x="477.726" y="890.4" width="43.577" height="50.889" transform="translate(7.032 -3.8) rotate(0.439)" fill="none" stroke="#39393a" stroke-miterlimit="10" stroke-width="8"/>
  <rect x="398.336" y="966.567" width="43.577" height="50.889" transform="translate(7.613 -3.19) rotate(0.439)" fill="none" stroke="#39393a" stroke-miterlimit="10" stroke-width="8"/>
  <rect x="558.287" y="966.567" width="43.577" height="50.889" transform="translate(7.618 -4.416) rotate(0.439)" fill="none" stroke="#39393a" stroke-miterlimit="10" stroke-width="8"/>
  <rect x="477.726" y="966.567" width="43.577" height="50.889" transform="translate(7.616 -3.798) rotate(0.439)" fill="none" stroke="#39393a" stroke-miterlimit="10" stroke-width="8"/>
  <g>
    <rect x="621.545" y="255.755" width="33.919" height="39.61" transform="translate(2.13 -4.884) rotate(0.439)" fill="#e3e000"/>
    <rect x="746.045" y="255.755" width="33.919" height="39.61" transform="translate(2.134 -5.838) rotate(0.439)" fill="#e3e000"/>
    <rect x="683.339" y="255.755" width="33.919" height="39.61" transform="translate(2.132 -5.358) rotate(0.439)" fill="#e3e000"/>
    <rect x="621.545" y="315.041" width="33.919" height="39.61" transform="translate(2.584 -4.883) rotate(0.439)" fill="#e3e000"/>
    <rect x="746.045" y="315.041" width="33.919" height="39.61" transform="translate(2.588 -5.836) rotate(0.439)" fill="#e3e000"/>
    <rect x="683.339" y="315.041" width="33.919" height="39.61" transform="translate(2.586 -5.356) rotate(0.439)" fill="#e3e000"/>
    <rect x="621.545" y="374.327" width="33.919" height="39.61" transform="translate(3.039 -4.881) rotate(0.439)" fill="#e3e000"/>
    <rect x="746.045" y="374.327" width="33.919" height="39.61" transform="translate(3.042 -5.835) rotate(0.439)" fill="#e3e000"/>
    <rect x="683.339" y="374.327" width="33.919" height="39.61" transform="translate(3.04 -5.354) rotate(0.439)" fill="#e3e000"/>
    <rect x="621.545" y="433.612" width="33.919" height="39.61" transform="translate(3.493 -4.879) rotate(0.439)" fill="#e3e000"/>
    <rect x="746.045" y="433.612" width="33.919" height="39.61" transform="translate(3.497 -5.833) rotate(0.439)" fill="#e3e000"/>
    <rect x="683.339" y="433.612" width="33.919" height="39.61" transform="translate(3.495 -5.353) rotate(0.439)" fill="#e3e000"/>
  </g>
  <rect x="362.65" y="639.702" width="276.733" height="45.167" transform="translate(5.089 -3.819) rotate(0.439)" fill="none" stroke="#39393a" stroke-miterlimit="10" stroke-width="8"/>
  <rect x="889.944" y="385.316" width="154.426" height="48.826" fill="none" stroke="#39393a" stroke-miterlimit="10" stroke-width="8"/>
  <rect x="889.944" y="479.561" width="154.426" height="23.845" fill="none" stroke="#39393a" stroke-miterlimit="10" stroke-width="8"/>
  <rect x="889.944" y="547.69" width="154.426" height="23.845" fill="none" stroke="#39393a" stroke-miterlimit="10" stroke-width="8"/>
  <rect x="889.944" y="615.819" width="154.426" height="23.845" fill="none" stroke="#39393a" stroke-miterlimit="10" stroke-width="8"/>
  <rect x="889.944" y="683.948" width="154.426" height="23.845" fill="none" stroke="#39393a" stroke-miterlimit="10" stroke-width="8"/>
  <rect x="889.944" y="752.077" width="154.426" height="23.845" fill="none" stroke="#39393a" stroke-miterlimit="10" stroke-width="8"/>
  <rect x="889.944" y="820.206" width="154.426" height="23.845" fill="none" stroke="#39393a" stroke-miterlimit="10" stroke-width="8"/>
  <rect x="889.944" y="888.335" width="154.426" height="23.845" fill="none" stroke="#39393a" stroke-miterlimit="10" stroke-width="8"/>
  <circle cx="798.097" cy="899.123" r="66.426" fill="#fff"/>
  <line x1="798.097" y1="1030.529" x2="798.097" y2="874.968" fill="#fff" stroke="#39393a" stroke-linecap="round" stroke-linejoin="round" stroke-width="9"/>
  <line x1="826.277" y1="889.058" x2="798.097" y2="922.088" fill="#fff" stroke="#39393a" stroke-linecap="round" stroke-linejoin="round" stroke-width="9"/>
  <line x1="771.929" y1="889.058" x2="797.839" y2="919.817" fill="#fff" stroke="#39393a" stroke-linecap="round" stroke-linejoin="round" stroke-width="9"/>
  <line x1="1184.161" y1="990.529" x2="1184.161" y2="681.677" fill="#fff" stroke="#39393a" stroke-linecap="round" stroke-linejoin="round" stroke-width="9"/>
  <line x1="1212.342" y1="849.058" x2="1184.161" y2="882.088" fill="#fff" stroke="#39393a" stroke-linecap="round" stroke-linejoin="round" stroke-width="9"/>
  <line x1="1157.994" y1="849.058" x2="1183.903" y2="879.817" fill="#fff" stroke="#39393a" stroke-linecap="round" stroke-linejoin="round" stroke-width="9"/>
  <line x1="1212.342" y1="780.929" x2="1184.161" y2="813.959" fill="#fff" stroke="#39393a" stroke-linecap="round" stroke-linejoin="round" stroke-width="9"/>
  <line x1="1157.994" y1="780.929" x2="1183.903" y2="811.688" fill="#fff" stroke="#39393a" stroke-linecap="round" stroke-linejoin="round" stroke-width="9"/>
  <line x1="1212.342" y1="712.8" x2="1184.161" y2="745.83" fill="#fff" stroke="#39393a" stroke-linecap="round" stroke-linejoin="round" stroke-width="9"/>
  <line x1="1157.994" y1="712.8" x2="1183.903" y2="743.559" fill="#fff" stroke="#39393a" stroke-linecap="round" stroke-linejoin="round" stroke-width="9"/>
  <line x1="208.213" y1="1078.258" x2="1363" y2="1083.935" fill="#fff" stroke="#39393a" stroke-linecap="round" stroke-linejoin="round" stroke-width="9"/>
  <line x1="754.381" y1="1118" x2="1066.639" y2="1118" fill="#fff" stroke="#39393a" stroke-linecap="round" stroke-linejoin="round" stroke-width="9"/>
  <line x1="586.329" y1="1118" x2="725.994" y2="1118" fill="#fff" stroke="#39393a" stroke-linecap="round" stroke-linejoin="round" stroke-width="9"/>
  <line x1="484.135" y1="1118" x2="562.484" y2="1118" fill="#fff" stroke="#39393a" stroke-linecap="round" stroke-linejoin="round" stroke-width="9"/>
  <path d="M442.372,327.4a5.678,5.678,0,0,1-5.1-3.165c-4.817-9.757-12.507-14.3-24.2-14.3s-19.384,4.545-24.2,14.3a5.678,5.678,0,0,1-10.182,0c-4.817-9.758-12.508-14.3-24.2-14.3s-19.386,4.545-24.2,14.3a5.678,5.678,0,0,1-10.182,0c-4.817-9.757-12.507-14.3-24.2-14.3s-19.386,4.545-24.2,14.3a5.677,5.677,0,0,1-10.182-5.026c6.662-13.5,18.551-20.63,34.384-20.63,12.379,0,22.348,4.362,29.292,12.716,6.945-8.354,16.914-12.716,29.293-12.716s22.348,4.362,29.293,12.716c6.944-8.354,16.912-12.716,29.292-12.716,15.832,0,27.722,7.133,34.384,20.63a5.679,5.679,0,0,1-5.087,8.191Z" fill="#39393a"/>
  <rect x="2205.328" y="396.489" width="280.312" height="330.277" fill="#ea1c0a"/>
  <rect x="2245.655" y="431.21" width="76.218" height="71.983" fill="#e3e000"/>
  <rect x="2363.003" y="431.21" width="76.218" height="71.137" fill="#e3e000"/>
  <rect x="2366.757" y="627.683" width="70.77" height="103.317" fill="#e3e000"/>
  <rect x="2245.655" y="527.753" width="76.218" height="71.983" fill="#e3e000"/>
  <rect x="2245.655" y="625.142" width="76.218" height="71.983" fill="#e3e000"/>
  <rect x="2363.003" y="527.753" width="76.218" height="71.983" fill="#e3e000"/>
  <path d="M2320.22,229a5,5,0,0,1-4.487-2.788c-4.243-8.593-11.015-12.595-21.315-12.595s-17.071,4-21.313,12.6a5,5,0,0,1-8.967,0c-4.242-8.594-11.016-12.6-21.315-12.6s-17.072,4-21.314,12.6a5,5,0,0,1-8.967,0c-4.242-8.593-11.015-12.595-21.313-12.595s-17.073,4-21.315,12.6a5,5,0,0,1-8.967-4.426c5.868-11.887,16.338-18.169,30.282-18.169,10.9,0,19.681,3.842,25.8,11.2,6.116-7.357,14.9-11.2,25.8-11.2s19.682,3.842,25.8,11.2c6.115-7.357,14.895-11.2,25.8-11.2,13.943,0,24.414,6.282,30.281,18.169A5,5,0,0,1,2320.22,229Z" fill="#39393a"/>
  <path d="M2569.431,731h-452a5,5,0,0,1,0-10h452a5,5,0,0,1,0,10Z" fill="#39393a"/>
  <path d="M2430.964,633.611v88.92H2372.53v-88.92h58.434m8.469-8.469h-75.371V731h75.371V625.142Z" fill="#39393a"/>
  <circle cx="2414.874" cy="677.648" r="6.775" fill="#39393a"/>
  <path d="M2313.038,633.611v55.046H2253.97V633.611h59.068m8.469-8.469H2245.5v71.983h76.006V625.142Z" fill="#39393a"/>
  <path d="M2313.038,536.221v55.047H2253.97V536.221h59.068m8.469-8.468H2245.5v71.983h76.006V527.753Z" fill="#39393a"/>
  <path d="M2430.752,536.221v55.047h-59.068V536.221h59.068m8.469-8.468h-76.006v71.983h76.006V527.753Z" fill="#39393a"/>
  <path d="M2430.752,438.832v55.046h-59.068V438.832h59.068m8.469-8.469h-76.006v71.984h76.006V430.363Z" fill="#39393a"/>
  <path d="M2313.038,439.679v55.046H2253.97V439.679h59.068m8.469-8.469H2245.5v71.984h76.006V431.21Z" fill="#39393a"/>
  <rect x="2279.375" y="528.6" width="8.469" height="70.29" fill="#39393a"/>
  <rect x="2279.375" y="625.989" width="8.469" height="70.29" fill="#39393a"/>
  <rect x="2279.375" y="432.057" width="8.469" height="70.29" fill="#39393a"/>
  <rect x="2397.089" y="432.057" width="8.469" height="70.29" fill="#39393a"/>
  <rect x="2397.089" y="528.6" width="8.469" height="70.29" fill="#39393a"/>
  <circle cx="2635.931" cy="652.273" r="58.5" fill="#1ea2b1" stroke="#1ea2b1" stroke-linecap="round" stroke-linejoin="round" stroke-width="4"/>
  <line x1="2635.931" y1="787" x2="2635.931" y2="631" fill="#fff" stroke="#39393a" stroke-linecap="round" stroke-linejoin="round" stroke-width="9"/>
  <line x1="2660.749" y1="643.409" x2="2635.931" y2="672.498" fill="#fff" stroke="#39393a" stroke-linecap="round" stroke-linejoin="round" stroke-width="9"/>
  <line x1="2612.885" y1="643.409" x2="2637.704" y2="672.498" fill="#fff" stroke="#39393a" stroke-linecap="round" stroke-linejoin="round" stroke-width="9"/>
  <path d="M1509.5,1028.032v65.945a48.524,48.524,0,0,0,48.523,48.523h801.954a48.524,48.524,0,0,1,48.523,48.523v65.954a48.524,48.524,0,0,1-48.523,48.523H1763.023a48.524,48.524,0,0,0-48.523,48.523v170.954a48.524,48.524,0,0,1-48.523,48.523H885.5" fill="none" stroke="#393939" stroke-linecap="round" stroke-miterlimit="10" stroke-width="10"/>
  <path d="M2403,728.5V844.977c0,26.8-21.472,48.523-47.96,48.523H2039.792c-26.488,0-47.96-21.725-47.96-48.523V703.023c0-26.8-21.472-48.523-47.96-48.523H1814.44c-26.488,0-47.96,21.725-47.96,48.523v21.954c0,26.8-21.472,48.523-47.96,48.523H1557.46c-26.488,0-47.96,21.725-47.96,48.523v74.665" fill="none" stroke="#393939" stroke-linecap="round" stroke-miterlimit="10" stroke-width="10"/>
  <path d="M1963.289,983.116a5,5,0,0,0-4.487,2.788c-4.242,8.593-11.015,12.6-21.315,12.6s-17.071-4-21.313-12.6a5,5,0,0,0-8.967,0c-4.242,8.594-11.016,12.6-21.314,12.6s-17.073-4-21.315-12.6a5,5,0,0,0-8.967,0c-4.242,8.593-11.014,12.6-21.313,12.6s-17.072-4-21.315-12.6a5,5,0,0,0-8.966,4.426c5.867,11.887,16.337,18.169,30.281,18.169,10.9,0,19.681-3.842,25.8-11.2,6.116,7.357,14.9,11.2,25.8,11.2s19.681-3.842,25.8-11.2c6.116,7.357,14.895,11.2,25.8,11.2,13.944,0,24.414-6.282,30.282-18.169a5,5,0,0,0-4.48-7.214Z" fill="#393939" stroke="#2d2d2d" stroke-miterlimit="10"/>
  <path d="M2120.289,983.116a5,5,0,0,0-4.487,2.788c-4.242,8.593-11.015,12.6-21.315,12.6s-17.071-4-21.313-12.6a5,5,0,0,0-8.967,0c-4.242,8.594-11.016,12.6-21.314,12.6s-17.073-4-21.315-12.6a5,5,0,0,0-8.967,0c-4.242,8.593-11.014,12.6-21.313,12.6s-17.072-4-21.315-12.6a5,5,0,0,0-8.966,4.426c5.867,11.887,16.337,18.169,30.281,18.169,10.9,0,19.681-3.842,25.8-11.2,6.116,7.357,14.9,11.2,25.8,11.2s19.681-3.842,25.8-11.2c6.116,7.357,14.895,11.2,25.8,11.2,13.944,0,24.414-6.282,30.282-18.169a5,5,0,0,0-4.48-7.214Z" fill="#393939" stroke="#2d2d2d" stroke-miterlimit="10"/>
  <path d="M1992.289,1033.116a5,5,0,0,0-4.487,2.788c-4.242,8.593-11.015,12.6-21.315,12.6s-17.071-4-21.313-12.6a5,5,0,0,0-8.967,0c-4.242,8.594-11.016,12.6-21.314,12.6s-17.073-4-21.315-12.6a5,5,0,0,0-8.967,0c-4.242,8.593-11.014,12.6-21.313,12.6s-17.072-4-21.315-12.6a5,5,0,0,0-8.966,4.426c5.867,11.887,16.337,18.169,30.281,18.169,10.9,0,19.681-3.842,25.8-11.2,6.116,7.357,14.9,11.2,25.8,11.2s19.681-3.842,25.8-11.2c6.116,7.357,14.895,11.2,25.8,11.2,13.944,0,24.414-6.282,30.282-18.169a5,5,0,0,0-4.48-7.214Z" fill="#393939" stroke="#2d2d2d" stroke-miterlimit="10"/>
  <circle cx="1462.587" cy="962.36" r="79.087" fill="#1ea2b1" stroke="#1ea2b1" stroke-linecap="round" stroke-linejoin="round" stroke-width="4"/>
  <path d="M2595.674,983a79.087,79.087,0,0,0-158.174,0Z" fill="none" stroke="#393939" stroke-linecap="round" stroke-linejoin="round" stroke-width="9"/>
  <line x1="1462.587" y1="1144.5" x2="1462.587" y2="933.601" fill="none" stroke="#393939" stroke-linecap="round" stroke-linejoin="round" stroke-width="9"/>
  <line x1="1496.139" y1="950.377" x2="1462.587" y2="989.702" fill="none" stroke="#393939" stroke-linecap="round" stroke-linejoin="round" stroke-width="9"/>
  <line x1="1431.432" y1="950.377" x2="1461.984" y2="986.702" fill="none" stroke="#393939" stroke-linecap="round" stroke-linejoin="round" stroke-width="9"/>
  <circle cx="1649.968" cy="976.968" r="51.468" fill="#1ea2b1" stroke="#1ea2b1" stroke-linecap="round" stroke-linejoin="round" stroke-width="4"/>
  <line x1="1649.968" y1="1095.5" x2="1649.968" y2="958.252" fill="none" stroke="#393939" stroke-linecap="round" stroke-linejoin="round" stroke-width="9"/>
  <line x1="1671.803" y1="969.17" x2="1649.968" y2="994.762" fill="none" stroke="#393939" stroke-linecap="round" stroke-linejoin="round" stroke-width="9"/>
  <line x1="1629.693" y1="969.17" x2="1649.528" y2="992.762" fill="none" stroke="#393939" stroke-linecap="round" stroke-linejoin="round" stroke-width="9"/>
  <g id="Pictogram">
    <path id="Bike" d="M928.562,1257.033a37.551,37.551,0,0,0-4.878.338l-11.707-49.906a3.752,3.752,0,0,0-3.752-2.964H889.463a3.752,3.752,0,1,0,0,7.5H905.41l2.627,11.257H836.968l-2.589-11.257H848.3a3.752,3.752,0,1,0,0-7.5H821.246a3.752,3.752,0,1,0,0,7.5h5.4l3.752,15.535-15.947,31.97a37.538,37.538,0,1,0,23.865,38.8h11.444a3.75,3.75,0,0,0,2.7-1.126l61.651-47.654,2.251,9.681a37.521,37.521,0,1,0,12.2-2.177Zm-127.579,67.542a30.019,30.019,0,1,1,9.944-58.311l-13.321,26.6a3.753,3.753,0,0,0,3.377,5.441h29.756A30.019,30.019,0,0,1,800.983,1324.575Zm6.079-33.771,10.619-21.2a30.017,30.017,0,0,1,13.058,21.2Zm31.444,0a36.884,36.884,0,0,0-17.3-27.917l11.932-23.865,11.895,51.782Zm13.771-2.777-13.771-57.26h71.3l2.514,10.657Zm76.285,36.548a30.018,30.018,0,0,1-10.469-58.123l6.717,28.968a3.753,3.753,0,0,0,3.752,2.889h.863a3.752,3.752,0,0,0,2.815-4.5v0l-6.829-29.268a30.06,30.06,0,1,1,3.152,60.037Z" fill="#393939" stroke="#2d2d2d" stroke-miterlimit="10"/>
  </g>
  <circle cx="150" cy="981.773" r="58.5" fill="#26a5b4"/>
  <line x1="150" y1="1116.5" x2="150" y2="960.5" fill="none" stroke="#393939" stroke-linecap="round" stroke-linejoin="round" stroke-width="9"/>
  <line x1="174.818" y1="972.909" x2="150" y2="1001.998" fill="none" stroke="#393939" stroke-linecap="round" stroke-linejoin="round" stroke-width="9"/>
  <line x1="126.955" y1="972.909" x2="149.773" y2="999.998" fill="none" stroke="#393939" stroke-linecap="round" stroke-linejoin="round" stroke-width="9"/>
  <path d="M324.5,1169a62.5,62.5,0,0,0-125,0Z" fill="none" stroke="#393939" stroke-linecap="round" stroke-linejoin="round" stroke-width="9"/>
  <path d="M1907.615,556h112.059a79.092,79.092,0,0,0-143.151-46.384" fill="none" stroke="#393939" stroke-linecap="round" stroke-linejoin="round" stroke-width="9"/>
  <path d="M1909.674,574a79.087,79.087,0,0,0-158.174,0Z" fill="none" stroke="#393939" stroke-linecap="round" stroke-linejoin="round" stroke-width="9"/>
  <g>
    <polyline points="1117.715 43.258 1117.715 158.697 1175.434 58.724" fill="none" stroke="#39393a" stroke-linecap="round" stroke-linejoin="round" stroke-width="10"/>
    <polyline points="1175.434 58.724 1117.715 158.697 1217.688 100.977" fill="none" stroke="#39393a" stroke-linecap="round" stroke-linejoin="round" stroke-width="10"/>
    <polyline points="1217.688 100.977 1117.715 158.697 1233.154 158.697" fill="none" stroke="#39393a" stroke-linecap="round" stroke-linejoin="round" stroke-width="10"/>
    <polyline points="1233.154 158.697 1117.715 158.697 1217.688 216.416" fill="none" stroke="#39393a" stroke-linecap="round" stroke-linejoin="round" stroke-width="10"/>
    <polyline points="1217.688 216.416 1117.715 158.697 1175.434 258.67" fill="none" stroke="#39393a" stroke-linecap="round" stroke-linejoin="round" stroke-width="10"/>
    <polyline points="1175.434 258.67 1117.715 158.697 1117.715 274.136" fill="none" stroke="#39393a" stroke-linecap="round" stroke-linejoin="round" stroke-width="10"/>
    <polyline points="1117.715 274.136 1117.715 158.697 1059.995 258.67" fill="none" stroke="#39393a" stroke-linecap="round" stroke-linejoin="round" stroke-width="10"/>
    <polyline points="1059.995 258.67 1117.715 158.697 1017.742 216.416" fill="none" stroke="#39393a" stroke-linecap="round" stroke-linejoin="round" stroke-width="10"/>
    <polyline points="1017.742 216.416 1117.715 158.697 1002.276 158.697" fill="none" stroke="#39393a" stroke-linecap="round" stroke-linejoin="round" stroke-width="10"/>
    <polyline points="1002.276 158.697 1117.715 158.697 1017.742 100.977" fill="none" stroke="#39393a" stroke-linecap="round" stroke-linejoin="round" stroke-width="10"/>
    <polyline points="1017.742 100.977 1117.715 158.697 1059.995 58.724" fill="none" stroke="#39393a" stroke-linecap="round" stroke-linejoin="round" stroke-width="10"/>
    <polyline points="1059.995 58.724 1117.715 158.697 1117.715 43.258" fill="none" stroke="#39393a" stroke-linecap="round" stroke-linejoin="round" stroke-width="10"/>
  </g>
  <circle cx="1117.688" cy="158.612" r="95" fill="#e3e000"/>
  <circle cx="1117.688" cy="158.612" r="72.723" fill="#fff"/>
  <rect x="1919.625" y="1396" width="246.258" height="354.5" rx="21.179" fill="#26a5b4"/>
  <path d="M2403.138,1739.2l-171.693-1.315a34.25,34.25,0,0,1-33.887-34.411l1.579-206.1,119.075-89.087,120.915,90.926-1.579,206.1A34.25,34.25,0,0,1,2403.138,1739.2Z" fill="none" stroke="#39393a" stroke-miterlimit="10" stroke-width="8"/>
  <path d="M1372.289,431.5a5,5,0,0,1-4.487-2.788c-4.242-8.593-11.015-12.6-21.315-12.6s-17.071,4-21.313,12.6a5,5,0,0,1-8.967,0c-4.242-8.594-11.016-12.6-21.314-12.6s-17.073,4-21.315,12.6a5,5,0,0,1-8.967,0c-4.242-8.593-11.014-12.6-21.313-12.6s-17.072,4-21.315,12.6a5,5,0,1,1-8.966-4.426c5.867-11.887,16.337-18.169,30.281-18.169,10.9,0,19.681,3.842,25.8,11.2,6.116-7.357,14.9-11.2,25.8-11.2s19.681,3.842,25.8,11.2c6.116-7.357,14.895-11.2,25.8-11.2,13.944,0,24.414,6.282,30.282,18.169a5,5,0,0,1-4.48,7.214Z" fill="#393939" stroke="#2d2d2d" stroke-miterlimit="10"/>
  <g>
    <rect x="1964" y="1440" width="93" height="36" fill="#e3e000"/>
    <path d="M2053,1444v28h-85v-28h85m8-8H1960v44h101v-44Z" fill="#e3e000"/>
  </g>
  <g>
    <rect x="2029" y="1520" width="93" height="36" fill="#e3e000"/>
    <path d="M2118,1524v28h-85v-28h85m8-8H2025v44h101v-44Z" fill="#e3e000"/>
  </g>
  <rect x="282.842" y="539.986" width="39.146" height="50.889" transform="translate(4.341 -2.301) rotate(0.439)" fill="#e3e000"/>
  <rect x="207.726" y="540.048" width="39.146" height="50.889" transform="translate(4.34 -1.725) rotate(0.439)" fill="#e3e000"/>
  <rect x="358.726" y="465.048" width="39.146" height="50.889" transform="translate(3.769 -2.884) rotate(0.439)" fill="#e3e000"/>
  <rect x="282.842" y="464.986" width="39.146" height="50.889" transform="translate(3.767 -2.303) rotate(0.439)" fill="#e3e000"/>
  <rect x="207.726" y="465.048" width="39.146" height="50.889" transform="translate(3.765 -1.727) rotate(0.439)" fill="#e3e000"/>
  <rect x="282.842" y="616.152" width="39.146" height="50.889" transform="translate(4.925 -2.298) rotate(0.439)" fill="#e3e000"/>
  <rect x="207.667" y="616.215" width="39.146" height="50.889" transform="translate(4.923 -1.722) rotate(0.439)" fill="#e3e000"/>
  <rect x="282.842" y="692.319" width="39.146" height="50.889" transform="translate(5.509 -2.296) rotate(0.439)" fill="#e3e000"/>
  <rect x="207.608" y="692.382" width="39.146" height="50.889" transform="translate(5.507 -1.72) rotate(0.439)" fill="#e3e000"/>
  <rect x="282.842" y="768.486" width="39.146" height="50.889" transform="translate(6.092 -2.294) rotate(0.439)" fill="#e3e000"/>
  <rect x="207.548" y="768.549" width="39.146" height="50.889" transform="translate(6.09 -1.717) rotate(0.439)" fill="#e3e000"/>
  <rect x="2246" y="1634" width="56" height="104" fill="none" stroke="#39393a" stroke-miterlimit="10" stroke-width="8"/>
  <rect x="2288" y="1534" width="109" height="56" fill="none" stroke="#39393a" stroke-miterlimit="10" stroke-width="8"/>
  <rect x="2411.625" y="300" width="45.75" height="51" fill="none" stroke="#39393a" stroke-miterlimit="10" stroke-width="8"/>
  <rect x="2402.375" y="280" width="64.25" height="26" fill="#fff" stroke="#39393a" stroke-miterlimit="10" stroke-width="8"/>
  <rect x="2183.984" y="342" width="323" height="58" fill="#fff" stroke="#39393a" stroke-miterlimit="10" stroke-width="8"/>
</svg>
