<svg id="Layer_1" data-name="Layer 1" xmlns="http://www.w3.org/2000/svg" viewBox="0 0 6064.331 1816">
  <path d="M5263.63,620h113.707a2.131,2.131,0,0,1,2.131,2.131v346.4A38.467,38.467,0,0,1,5341,1007h-41.035a38.467,38.467,0,0,1-38.467-38.467v-346.4A2.131,2.131,0,0,1,5263.63,620Z" fill="#ea1c0a"/>
  <path d="M5284.157,654h174.394a0,0,0,0,1,0,0V970.664A36.336,36.336,0,0,1,5422.215,1007H5320.493a36.336,36.336,0,0,1-36.336-36.336V654A0,0,0,0,1,5284.157,654Z" fill="#ea1c0a"/>
  <g>
    <rect x="5290.633" y="679" width="29.962" height="31" fill="#fff"/>
    <rect x="5344.667" y="679" width="29.962" height="31" fill="#fff"/>
    <rect x="5398.282" y="679" width="29.962" height="31" fill="#fff"/>
  </g>
  <g>
    <rect x="5290.633" y="731" width="29.962" height="31" fill="#fff"/>
    <rect x="5344.667" y="731" width="29.962" height="31" fill="#fff"/>
    <rect x="5398.282" y="731" width="29.962" height="31" fill="#fff"/>
  </g>
  <g>
    <rect x="5290.633" y="782" width="29.962" height="31" fill="#fff"/>
    <rect x="5344.667" y="782" width="29.962" height="31" fill="#fff"/>
    <rect x="5398.282" y="782" width="29.962" height="31" fill="#fff"/>
  </g>
  <rect x="5509.461" y="267" width="312.875" height="771.529" rx="21.179" fill="#e3e000"/>
  <g>
    <rect x="5544.633" y="742" width="38" height="105" fill="#fff"/>
    <rect x="5613.164" y="742" width="38" height="105" fill="#fff"/>
    <rect x="5681.164" y="742" width="38" height="105" fill="#fff"/>
    <rect x="5749.164" y="742" width="38" height="105" fill="#fff"/>
  </g>
  <rect x="5878.735" y="854.665" width="132.852" height="285.006" rx="58.5" fill="#26a5b4"/>
  <line x1="5945.161" y1="1205.529" x2="5945.161" y2="896.677" fill="#fff" stroke="#39393a" stroke-linecap="round" stroke-linejoin="round" stroke-width="9"/>
  <line x1="5973.342" y1="1064.058" x2="5945.161" y2="1097.088" fill="#fff" stroke="#39393a" stroke-linecap="round" stroke-linejoin="round" stroke-width="9"/>
  <line x1="5918.994" y1="1064.058" x2="5944.903" y2="1094.817" fill="#fff" stroke="#39393a" stroke-linecap="round" stroke-linejoin="round" stroke-width="9"/>
  <line x1="5973.342" y1="995.929" x2="5945.161" y2="1028.959" fill="#fff" stroke="#39393a" stroke-linecap="round" stroke-linejoin="round" stroke-width="9"/>
  <line x1="5918.994" y1="995.929" x2="5944.903" y2="1026.688" fill="#fff" stroke="#39393a" stroke-linecap="round" stroke-linejoin="round" stroke-width="9"/>
  <line x1="5973.342" y1="927.8" x2="5945.161" y2="960.83" fill="#fff" stroke="#39393a" stroke-linecap="round" stroke-linejoin="round" stroke-width="9"/>
  <line x1="5918.994" y1="927.8" x2="5944.903" y2="958.559" fill="#fff" stroke="#39393a" stroke-linecap="round" stroke-linejoin="round" stroke-width="9"/>
  <path d="M1873.116,1102H1753.634a49.509,49.509,0,0,1-49.509-49.509V617.673A13.173,13.173,0,0,1,1717.3,604.5h192.154a13.173,13.173,0,0,1,13.173,13.173v434.818A49.509,49.509,0,0,1,1873.116,1102Z" fill="#26a5b4"/>
  <rect x="1730.375" y="652" width="166" height="27" fill="#fff"/>
  <rect x="1730.375" y="792" width="124.625" height="27" fill="#fff"/>
  <rect x="1813" y="720" width="83.375" height="27" fill="#fff"/>
  <rect x="1813" y="869" width="83.375" height="27" fill="#fff"/>
  <path d="M1883,831h275a0,0,0,0,1,0,0v269.391A52.609,52.609,0,0,1,2105.391,1153H1935.609A52.609,52.609,0,0,1,1883,1100.391V831A0,0,0,0,1,1883,831Z" fill="none" stroke="#39393a" stroke-miterlimit="10" stroke-width="8"/>
  <path d="M1446,784.5h309a0,0,0,0,1,0,0v348.391a52.609,52.609,0,0,1-52.609,52.609H1498.609A52.609,52.609,0,0,1,1446,1132.891V784.5A0,0,0,0,1,1446,784.5Z" fill="none" stroke="#39393a" stroke-miterlimit="10" stroke-width="8"/>
  <rect x="176.287" y="542" width="246.258" height="435.5" rx="21.179" fill="#e3e000"/>
  <rect x="356.726" y="659.048" width="39.146" height="50.889" transform="translate(5.256 -2.863) rotate(0.439)" fill="#fff"/>
  <rect x="356.667" y="735.215" width="39.146" height="50.889" transform="translate(5.839 -2.861) rotate(0.439)" fill="#fff"/>
  <rect x="356.608" y="811.382" width="39.146" height="50.889" transform="translate(6.423 -2.858) rotate(0.439)" fill="#fff"/>
  <rect x="356.548" y="887.549" width="39.146" height="50.889" transform="translate(7.007 -2.855) rotate(0.439)" fill="#fff"/>
  <rect x="575.625" y="267" width="246.258" height="842.529" rx="21.179" fill="#ea1c0a" stroke="#ea1c0a" stroke-miterlimit="10"/>
  <g>
    <rect x="619.545" y="624.562" width="33.919" height="39.61" transform="translate(4.956 -4.858) rotate(0.439)" fill="#fff"/>
    <rect x="744.045" y="624.562" width="33.919" height="39.61" transform="translate(4.96 -5.812) rotate(0.439)" fill="#fff"/>
    <rect x="681.339" y="624.562" width="33.919" height="39.61" transform="translate(4.958 -5.332) rotate(0.439)" fill="#fff"/>
    <rect x="619.545" y="683.847" width="33.919" height="39.61" transform="translate(5.41 -4.856) rotate(0.439)" fill="#fff"/>
    <rect x="744.045" y="683.847" width="33.919" height="39.61" transform="translate(5.414 -5.81) rotate(0.439)" fill="#fff"/>
    <rect x="681.339" y="683.847" width="33.919" height="39.61" transform="translate(5.412 -5.33) rotate(0.439)" fill="#fff"/>
    <rect x="619.545" y="743.133" width="33.919" height="39.61" transform="translate(5.864 -4.855) rotate(0.439)" fill="#fff"/>
    <rect x="744.045" y="743.133" width="33.919" height="39.61" transform="translate(5.868 -5.809) rotate(0.439)" fill="#fff"/>
    <rect x="681.339" y="743.133" width="33.919" height="39.61" transform="translate(5.866 -5.328) rotate(0.439)" fill="#fff"/>
    <rect x="619.545" y="802.419" width="33.919" height="39.61" transform="translate(6.319 -4.853) rotate(0.439)" fill="#fff"/>
    <rect x="744.045" y="802.419" width="33.919" height="39.61" transform="translate(6.322 -5.807) rotate(0.439)" fill="#fff"/>
    <rect x="681.339" y="802.419" width="33.919" height="39.61" transform="translate(6.321 -5.326) rotate(0.439)" fill="#fff"/>
  </g>
  <rect x="1115.735" y="758.665" width="132.852" height="285.006" rx="58.5" fill="#26a5b4"/>
  <rect x="562.993" y="267" width="271.523" height="59.045" fill="#ea1c0a"/>
  <path d="M359.034,758.685H635.775a0,0,0,0,1,0,0v405.927a34.15,34.15,0,0,1-34.15,34.15H393.184a34.15,34.15,0,0,1-34.15-34.15V758.685a0,0,0,0,1,0,0Z" transform="translate(7.514 -3.782) rotate(0.439)" fill="none" stroke="#39393a" stroke-miterlimit="10" stroke-width="8"/>
  <path d="M845.01,594.283h240a0,0,0,0,1,0,0v520.191a34.15,34.15,0,0,1-34.15,34.15H879.16a34.15,34.15,0,0,1-34.15-34.15V594.283a0,0,0,0,1,0,0Z" transform="translate(6.706 -7.369) rotate(0.439)" fill="none" stroke="#39393a" stroke-miterlimit="10" stroke-width="8"/>
  <rect x="396.336" y="857.065" width="43.577" height="50.889" transform="translate(6.774 -3.178) rotate(0.439)" fill="none" stroke="#39393a" stroke-miterlimit="10" stroke-width="8"/>
  <rect x="556.287" y="857.065" width="43.577" height="50.889" transform="translate(6.779 -4.403) rotate(0.439)" fill="none" stroke="#39393a" stroke-miterlimit="10" stroke-width="8"/>
  <rect x="475.726" y="857.065" width="43.577" height="50.889" transform="translate(6.777 -3.786) rotate(0.439)" fill="none" stroke="#39393a" stroke-miterlimit="10" stroke-width="8"/>
  <rect x="396.336" y="933.233" width="43.577" height="50.889" transform="translate(7.358 -3.176) rotate(0.439)" fill="none" stroke="#39393a" stroke-miterlimit="10" stroke-width="8"/>
  <rect x="556.287" y="933.233" width="43.577" height="50.889" transform="translate(7.363 -4.401) rotate(0.439)" fill="none" stroke="#39393a" stroke-miterlimit="10" stroke-width="8"/>
  <rect x="475.726" y="933.233" width="43.577" height="50.889" transform="translate(7.36 -3.784) rotate(0.439)" fill="none" stroke="#39393a" stroke-miterlimit="10" stroke-width="8"/>
  <rect x="396.336" y="1009.4" width="43.577" height="50.889" transform="translate(7.941 -3.173) rotate(0.439)" fill="none" stroke="#39393a" stroke-miterlimit="10" stroke-width="8"/>
  <rect x="556.287" y="1009.4" width="43.577" height="50.889" transform="translate(7.946 -4.399) rotate(0.439)" fill="none" stroke="#39393a" stroke-miterlimit="10" stroke-width="8"/>
  <rect x="475.726" y="1009.4" width="43.577" height="50.889" transform="translate(7.944 -3.782) rotate(0.439)" fill="none" stroke="#39393a" stroke-miterlimit="10" stroke-width="8"/>
  <rect x="396.336" y="1085.567" width="43.577" height="50.889" transform="translate(8.525 -3.171) rotate(0.439)" fill="none" stroke="#39393a" stroke-miterlimit="10" stroke-width="8"/>
  <rect x="556.287" y="1085.567" width="43.577" height="50.889" transform="translate(8.53 -4.397) rotate(0.439)" fill="none" stroke="#39393a" stroke-miterlimit="10" stroke-width="8"/>
  <rect x="475.726" y="1085.567" width="43.577" height="50.889" transform="translate(8.527 -3.779) rotate(0.439)" fill="none" stroke="#39393a" stroke-miterlimit="10" stroke-width="8"/>
  <g>
    <rect x="619.545" y="374.755" width="33.919" height="39.61" transform="translate(3.042 -4.865) rotate(0.439)" fill="#fff"/>
    <rect x="744.045" y="374.755" width="33.919" height="39.61" transform="translate(3.046 -5.819) rotate(0.439)" fill="#fff"/>
    <rect x="681.339" y="374.755" width="33.919" height="39.61" transform="translate(3.044 -5.339) rotate(0.439)" fill="#fff"/>
    <rect x="619.545" y="434.041" width="33.919" height="39.61" transform="translate(3.496 -4.864) rotate(0.439)" fill="#fff"/>
    <rect x="744.045" y="434.041" width="33.919" height="39.61" transform="translate(3.5 -5.818) rotate(0.439)" fill="#fff"/>
    <rect x="681.339" y="434.041" width="33.919" height="39.61" transform="translate(3.498 -5.337) rotate(0.439)" fill="#fff"/>
    <rect x="619.545" y="493.327" width="33.919" height="39.61" transform="translate(3.95 -4.862) rotate(0.439)" fill="#fff"/>
    <rect x="744.045" y="493.327" width="33.919" height="39.61" transform="translate(3.954 -5.816) rotate(0.439)" fill="#fff"/>
    <rect x="681.339" y="493.327" width="33.919" height="39.61" transform="translate(3.952 -5.335) rotate(0.439)" fill="#fff"/>
    <rect x="619.545" y="552.612" width="33.919" height="39.61" transform="translate(4.405 -4.86) rotate(0.439)" fill="#fff"/>
    <rect x="744.045" y="552.612" width="33.919" height="39.61" transform="translate(4.408 -5.814) rotate(0.439)" fill="#fff"/>
    <rect x="681.339" y="552.612" width="33.919" height="39.61" transform="translate(4.406 -5.334) rotate(0.439)" fill="#fff"/>
  </g>
  <rect x="360.65" y="758.702" width="276.733" height="45.167" transform="translate(6.001 -3.801) rotate(0.439)" fill="none" stroke="#39393a" stroke-miterlimit="10" stroke-width="8"/>
  <rect x="887.944" y="544.316" width="154.426" height="48.826" fill="none" stroke="#39393a" stroke-miterlimit="10" stroke-width="8"/>
  <rect x="887.944" y="638.561" width="154.426" height="23.845" fill="none" stroke="#39393a" stroke-miterlimit="10" stroke-width="8"/>
  <rect x="887.944" y="706.69" width="154.426" height="23.845" fill="none" stroke="#39393a" stroke-miterlimit="10" stroke-width="8"/>
  <rect x="887.944" y="774.819" width="154.426" height="23.845" fill="none" stroke="#39393a" stroke-miterlimit="10" stroke-width="8"/>
  <rect x="887.944" y="842.948" width="154.426" height="23.845" fill="none" stroke="#39393a" stroke-miterlimit="10" stroke-width="8"/>
  <rect x="887.944" y="911.077" width="154.426" height="23.845" fill="none" stroke="#39393a" stroke-miterlimit="10" stroke-width="8"/>
  <rect x="887.944" y="979.206" width="154.426" height="23.845" fill="none" stroke="#39393a" stroke-miterlimit="10" stroke-width="8"/>
  <rect x="887.944" y="1047.335" width="154.426" height="23.845" fill="none" stroke="#39393a" stroke-miterlimit="10" stroke-width="8"/>
  <circle cx="796.097" cy="1018.123" r="66.426" fill="#26a5b4"/>
  <line x1="796.097" y1="1149.529" x2="796.097" y2="993.968" fill="#fff" stroke="#39393a" stroke-linecap="round" stroke-linejoin="round" stroke-width="9"/>
  <line x1="824.277" y1="1008.058" x2="796.097" y2="1041.088" fill="#fff" stroke="#39393a" stroke-linecap="round" stroke-linejoin="round" stroke-width="9"/>
  <line x1="769.929" y1="1008.058" x2="795.839" y2="1038.817" fill="#fff" stroke="#39393a" stroke-linecap="round" stroke-linejoin="round" stroke-width="9"/>
  <line x1="1182.161" y1="1109.529" x2="1182.161" y2="800.677" fill="#fff" stroke="#39393a" stroke-linecap="round" stroke-linejoin="round" stroke-width="9"/>
  <line x1="1210.342" y1="968.058" x2="1182.161" y2="1001.088" fill="#fff" stroke="#39393a" stroke-linecap="round" stroke-linejoin="round" stroke-width="9"/>
  <line x1="1155.994" y1="968.058" x2="1181.903" y2="998.817" fill="#fff" stroke="#39393a" stroke-linecap="round" stroke-linejoin="round" stroke-width="9"/>
  <line x1="1210.342" y1="899.929" x2="1182.161" y2="932.959" fill="#fff" stroke="#39393a" stroke-linecap="round" stroke-linejoin="round" stroke-width="9"/>
  <line x1="1155.994" y1="899.929" x2="1181.903" y2="930.688" fill="#fff" stroke="#39393a" stroke-linecap="round" stroke-linejoin="round" stroke-width="9"/>
  <line x1="1210.342" y1="831.8" x2="1182.161" y2="864.83" fill="#fff" stroke="#39393a" stroke-linecap="round" stroke-linejoin="round" stroke-width="9"/>
  <line x1="1155.994" y1="831.8" x2="1181.903" y2="862.559" fill="#fff" stroke="#39393a" stroke-linecap="round" stroke-linejoin="round" stroke-width="9"/>
  <line x1="674.381" y1="1187" x2="986.639" y2="1187" fill="#fff" stroke="#39393a" stroke-linecap="round" stroke-linejoin="round" stroke-width="9"/>
  <line x1="584.329" y1="1237" x2="723.994" y2="1237" fill="#fff" stroke="#39393a" stroke-linecap="round" stroke-linejoin="round" stroke-width="9"/>
  <line x1="482.135" y1="1237" x2="560.484" y2="1237" fill="#fff" stroke="#39393a" stroke-linecap="round" stroke-linejoin="round" stroke-width="9"/>
  <path d="M440.372,446.405a5.678,5.678,0,0,1-5.1-3.165c-4.817-9.757-12.507-14.3-24.2-14.3s-19.384,4.545-24.2,14.3a5.678,5.678,0,0,1-10.182,0c-4.817-9.758-12.508-14.3-24.2-14.3s-19.386,4.545-24.2,14.3A5.678,5.678,0,0,1,323.2,446.4h0a5.676,5.676,0,0,1-5.091-3.164c-4.817-9.757-12.507-14.3-24.2-14.3s-19.386,4.545-24.2,14.3a5.677,5.677,0,0,1-10.182-5.026c6.662-13.5,18.551-20.63,34.384-20.63,12.379,0,22.348,4.362,29.292,12.716,6.945-8.354,16.914-12.716,29.293-12.716s22.348,4.362,29.293,12.716c6.944-8.354,16.912-12.716,29.292-12.716,15.832,0,27.722,7.133,34.384,20.63a5.679,5.679,0,0,1-5.087,8.191Z" fill="#39393a"/>
  <path d="M2318.22,348a5,5,0,0,1-4.487-2.788c-4.243-8.593-11.015-12.6-21.315-12.6s-17.071,4-21.313,12.6a5,5,0,0,1-8.967,0c-4.242-8.594-11.016-12.6-21.315-12.6s-17.072,4-21.314,12.6a5,5,0,0,1-4.483,2.786h0a5,5,0,0,1-4.484-2.787c-4.242-8.593-11.015-12.6-21.313-12.6s-17.073,4-21.315,12.6a5,5,0,0,1-8.967-4.426c5.868-11.887,16.338-18.169,30.282-18.169,10.9,0,19.681,3.842,25.8,11.2,6.116-7.357,14.9-11.2,25.8-11.2s19.682,3.842,25.8,11.2c6.115-7.357,14.895-11.2,25.8-11.2,13.943,0,24.414,6.282,30.281,18.169A5,5,0,0,1,2318.22,348Z" fill="#39393a"/>
  <path d="M5536.289,1367.116a5,5,0,0,0-4.487,2.788c-4.242,8.593-11.015,12.6-21.315,12.6s-17.071-4-21.313-12.6a5,5,0,0,0-8.967,0c-4.242,8.594-11.016,12.6-21.314,12.6s-17.073-4-21.315-12.6a5,5,0,0,0-4.483-2.786h0a5,5,0,0,0-4.484,2.787c-4.242,8.593-11.014,12.6-21.313,12.6s-17.072-4-21.315-12.6a5,5,0,0,0-8.966,4.426c5.867,11.887,16.337,18.169,30.281,18.169,10.9,0,19.681-3.842,25.8-11.2,6.116,7.357,14.9,11.2,25.8,11.2s19.681-3.842,25.8-11.2c6.116,7.357,14.9,11.2,25.8,11.2,13.944,0,24.414-6.282,30.282-18.169a5,5,0,0,0-4.48-7.214Z" fill="#393939" stroke="#2d2d2d" stroke-miterlimit="10"/>
  <path d="M5693.289,1367.116a5,5,0,0,0-4.487,2.788c-4.242,8.593-11.015,12.6-21.315,12.6s-17.071-4-21.313-12.6a5,5,0,0,0-8.967,0c-4.242,8.594-11.016,12.6-21.314,12.6s-17.073-4-21.315-12.6a5,5,0,0,0-4.483-2.786h0a5,5,0,0,0-4.484,2.787c-4.242,8.593-11.014,12.6-21.313,12.6s-17.072-4-21.315-12.6a5,5,0,0,0-8.966,4.426c5.867,11.887,16.337,18.169,30.281,18.169,10.9,0,19.681-3.842,25.8-11.2,6.116,7.357,14.9,11.2,25.8,11.2s19.681-3.842,25.8-11.2c6.116,7.357,14.9,11.2,25.8,11.2,13.944,0,24.414-6.282,30.282-18.169a5,5,0,0,0-4.48-7.214Z" fill="#393939" stroke="#2d2d2d" stroke-miterlimit="10"/>
  <path d="M5615.289,1417.116a5,5,0,0,0-4.487,2.788c-4.242,8.593-11.015,12.6-21.315,12.6s-17.071-4-21.313-12.6a5,5,0,0,0-8.967,0c-4.242,8.594-11.016,12.6-21.314,12.6s-17.073-4-21.315-12.6a5,5,0,0,0-4.483-2.786h0a5,5,0,0,0-4.484,2.787c-4.242,8.593-11.014,12.6-21.313,12.6s-17.072-4-21.315-12.6a5,5,0,0,0-8.966,4.426c5.867,11.887,16.337,18.169,30.281,18.169,10.9,0,19.681-3.842,25.8-11.2,6.116,7.357,14.9,11.2,25.8,11.2s19.681-3.842,25.8-11.2c6.116,7.357,14.9,11.2,25.8,11.2,13.944,0,24.414-6.282,30.282-18.169a5,5,0,0,0-4.48-7.214Z" fill="#393939" stroke="#2d2d2d" stroke-miterlimit="10"/>
  <path d="M5742.124,1431.333c.818-1.667,1.821-3.239,2.609-4.993a27.023,27.023,0,0,0,1.712-6.665,4.989,4.989,0,0,0-8.834.229c-4.242,8.593-11.014,12.6-21.313,12.6s-17.072-4-21.315-12.6a5,5,0,0,0-8.966,4.426c5.867,11.887,16.337,18.169,30.281,18.169,10.9,0,19.681-3.842,25.8-11.2Z" fill="#393939" stroke="#2d2d2d" stroke-miterlimit="10"/>
  <path d="M5741.82,1431.333c-.818-1.667-1.821-3.239-2.61-4.993a26.977,26.977,0,0,1-1.711-6.665,4.989,4.989,0,0,1,8.833.229c4.242,8.593,11.015,12.6,21.314,12.6s17.072-4,21.314-12.6a5,5,0,0,1,8.967,4.426c-5.867,11.887-16.338,18.169-30.281,18.169-10.9,0-19.682-3.842-25.8-11.2C5741.839,1431.311,5741.829,1431.321,5741.82,1431.333Z" fill="#393939" stroke="#2d2d2d" stroke-miterlimit="10"/>
  <circle cx="1380.587" cy="1191.36" r="79.087" fill="#e3e000"/>
  <path d="M5784,1260.5a64.25,64.25,0,0,0-128.5,0Z" fill="none" stroke="#393939" stroke-linecap="round" stroke-linejoin="round" stroke-width="9"/>
  <line x1="1380.587" y1="1373.5" x2="1380.587" y2="1162.601" fill="none" stroke="#393939" stroke-linecap="round" stroke-linejoin="round" stroke-width="9"/>
  <line x1="1414.139" y1="1179.377" x2="1380.587" y2="1218.702" fill="none" stroke="#393939" stroke-linecap="round" stroke-linejoin="round" stroke-width="9"/>
  <line x1="1349.432" y1="1179.377" x2="1379.984" y2="1215.702" fill="none" stroke="#393939" stroke-linecap="round" stroke-linejoin="round" stroke-width="9"/>
  <circle cx="1567.968" cy="1205.968" r="51.468" fill="#1ea2b1" stroke="#1ea2b1" stroke-linecap="round" stroke-linejoin="round" stroke-width="4"/>
  <line x1="1567.968" y1="1324.5" x2="1567.968" y2="1187.252" fill="none" stroke="#393939" stroke-linecap="round" stroke-linejoin="round" stroke-width="9"/>
  <line x1="1589.803" y1="1198.17" x2="1567.968" y2="1223.762" fill="none" stroke="#393939" stroke-linecap="round" stroke-linejoin="round" stroke-width="9"/>
  <line x1="1547.693" y1="1198.17" x2="1567.528" y2="1221.762" fill="none" stroke="#393939" stroke-linecap="round" stroke-linejoin="round" stroke-width="9"/>
  <g id="Pictogram">
    <path id="Bike" d="M926.562,1376.033a37.551,37.551,0,0,0-4.878.338l-11.707-49.906a3.752,3.752,0,0,0-3.752-2.964H887.463a3.752,3.752,0,1,0,0,7.5H903.41l2.627,11.257H834.968l-2.589-11.257H846.3a3.752,3.752,0,1,0,0-7.5H819.246a3.752,3.752,0,1,0,0,7.5h5.4l3.752,15.535-15.947,31.97a37.538,37.538,0,1,0,23.865,38.8h11.444a3.75,3.75,0,0,0,2.7-1.126l61.651-47.654,2.251,9.681a37.521,37.521,0,1,0,12.2-2.177Zm-127.579,67.542a30.019,30.019,0,1,1,9.944-58.311l-13.321,26.6a3.753,3.753,0,0,0,3.377,5.441h29.756A30.019,30.019,0,0,1,798.983,1443.575Zm6.079-33.771,10.619-21.2a30.017,30.017,0,0,1,13.058,21.2Zm31.444,0a36.884,36.884,0,0,0-17.3-27.917l11.932-23.865,11.895,51.782Zm13.771-2.777-13.771-57.26h71.3l2.514,10.657Zm76.285,36.548a30.018,30.018,0,0,1-10.469-58.123l6.717,28.968a3.753,3.753,0,0,0,3.752,2.889h.863a3.752,3.752,0,0,0,2.815-4.5v0l-6.829-29.268a30.06,30.06,0,1,1,3.152,60.037Z" fill="#393939" stroke="#2d2d2d" stroke-miterlimit="10"/>
  </g>
  <circle cx="148" cy="1100.773" r="58.5" fill="#26a5b4"/>
  <line x1="148" y1="1235.5" x2="148" y2="1079.5" fill="none" stroke="#393939" stroke-linecap="round" stroke-linejoin="round" stroke-width="9"/>
  <line x1="172.818" y1="1091.909" x2="148" y2="1120.998" fill="none" stroke="#393939" stroke-linecap="round" stroke-linejoin="round" stroke-width="9"/>
  <line x1="124.955" y1="1091.909" x2="147.773" y2="1118.998" fill="none" stroke="#393939" stroke-linecap="round" stroke-linejoin="round" stroke-width="9"/>
  <path d="M322.5,1288a62.5,62.5,0,0,0-125,0Z" fill="none" stroke="#393939" stroke-linecap="round" stroke-linejoin="round" stroke-width="9"/>
  <path d="M5119.671,1294.227H5231c0-41.541-33.7-73.635-75.216-75.216-35.272-1.344-56.77,19.865-70.439,38.71" fill="none" stroke="#39393a" stroke-miterlimit="10" stroke-width="8"/>
  <path d="M5126.384,1330.367a75.216,75.216,0,0,0-150.432,0Z" fill="none" stroke="#39393a" stroke-miterlimit="10" stroke-width="8"/>
  <g>
    <polyline points="1115.715 162.258 1115.715 277.697 1173.434 177.724" fill="none" stroke="#39393a" stroke-linecap="round" stroke-linejoin="round" stroke-width="10"/>
    <polyline points="1173.434 177.724 1115.715 277.697 1215.688 219.977" fill="none" stroke="#39393a" stroke-linecap="round" stroke-linejoin="round" stroke-width="10"/>
    <polyline points="1215.688 219.977 1115.715 277.697 1231.154 277.697" fill="none" stroke="#39393a" stroke-linecap="round" stroke-linejoin="round" stroke-width="10"/>
    <polyline points="1231.154 277.697 1115.715 277.697 1215.688 335.416" fill="none" stroke="#39393a" stroke-linecap="round" stroke-linejoin="round" stroke-width="10"/>
    <polyline points="1215.688 335.416 1115.715 277.697 1173.434 377.67" fill="none" stroke="#39393a" stroke-linecap="round" stroke-linejoin="round" stroke-width="10"/>
    <polyline points="1173.434 377.67 1115.715 277.697 1115.715 393.136" fill="none" stroke="#39393a" stroke-linecap="round" stroke-linejoin="round" stroke-width="10"/>
    <polyline points="1115.715 393.136 1115.715 277.697 1057.995 377.67" fill="none" stroke="#39393a" stroke-linecap="round" stroke-linejoin="round" stroke-width="10"/>
    <polyline points="1057.995 377.67 1115.715 277.697 1015.742 335.416" fill="none" stroke="#39393a" stroke-linecap="round" stroke-linejoin="round" stroke-width="10"/>
    <polyline points="1015.742 335.416 1115.715 277.697 1000.276 277.697" fill="none" stroke="#39393a" stroke-linecap="round" stroke-linejoin="round" stroke-width="10"/>
    <polyline points="1000.276 277.697 1115.715 277.697 1015.742 219.977" fill="none" stroke="#39393a" stroke-linecap="round" stroke-linejoin="round" stroke-width="10"/>
    <polyline points="1015.742 219.977 1115.715 277.697 1057.995 177.724" fill="none" stroke="#39393a" stroke-linecap="round" stroke-linejoin="round" stroke-width="10"/>
    <polyline points="1057.995 177.724 1115.715 277.697 1115.715 162.258" fill="none" stroke="#39393a" stroke-linecap="round" stroke-linejoin="round" stroke-width="10"/>
  </g>
  <circle cx="1115.688" cy="277.612" r="95" fill="#fff"/>
  <circle cx="1115.688" cy="277.612" r="72.723" fill="#e3e000"/>
  <path d="M1370.289,550.5a5,5,0,0,1-4.487-2.788c-4.242-8.593-11.015-12.6-21.315-12.6s-17.071,4-21.313,12.6a5,5,0,0,1-8.967,0c-4.242-8.594-11.016-12.6-21.314-12.6s-17.073,4-21.315,12.6a5,5,0,0,1-4.483,2.786h0a5,5,0,0,1-4.484-2.787c-4.242-8.593-11.014-12.6-21.313-12.6s-17.072,4-21.315,12.6a5,5,0,1,1-8.966-4.426c5.867-11.887,16.337-18.169,30.281-18.169,10.9,0,19.681,3.842,25.8,11.2,6.116-7.357,14.9-11.2,25.8-11.2s19.681,3.842,25.8,11.2c6.116-7.357,14.895-11.2,25.8-11.2,13.944,0,24.414,6.282,30.282,18.169a5,5,0,0,1-4.48,7.214Z" fill="#393939" stroke="#2d2d2d" stroke-miterlimit="10"/>
  <rect x="280.842" y="658.986" width="39.146" height="50.889" transform="translate(5.253 -2.282) rotate(0.439)" fill="#fff"/>
  <rect x="205.726" y="659.048" width="39.146" height="50.889" transform="translate(5.251 -1.706) rotate(0.439)" fill="#fff"/>
  <rect x="356.726" y="584.048" width="39.146" height="50.889" transform="translate(4.681 -2.865) rotate(0.439)" fill="#fff"/>
  <rect x="280.842" y="583.986" width="39.146" height="50.889" transform="translate(4.678 -2.284) rotate(0.439)" fill="#fff"/>
  <rect x="205.726" y="584.048" width="39.146" height="50.889" transform="translate(4.677 -1.708) rotate(0.439)" fill="#fff"/>
  <rect x="280.842" y="735.152" width="39.146" height="50.889" transform="translate(5.837 -2.28) rotate(0.439)" fill="#fff"/>
  <rect x="205.667" y="735.215" width="39.146" height="50.889" transform="translate(5.835 -1.704) rotate(0.439)" fill="#fff"/>
  <rect x="280.842" y="811.319" width="39.146" height="50.889" transform="translate(6.42 -2.277) rotate(0.439)" fill="#fff"/>
  <rect x="205.608" y="811.382" width="39.146" height="50.889" transform="translate(6.419 -1.701) rotate(0.439)" fill="#fff"/>
  <rect x="280.842" y="887.486" width="39.146" height="50.889" transform="translate(7.004 -2.275) rotate(0.439)" fill="#fff"/>
  <rect x="205.548" y="887.549" width="39.146" height="50.889" transform="translate(7.002 -1.698) rotate(0.439)" fill="#fff"/>
  <rect x="1462.5" y="735.316" width="276" height="48.826" fill="none" stroke="#39393a" stroke-miterlimit="10" stroke-width="8"/>
  <path d="M5160.116,1053H5040.634a49.509,49.509,0,0,1-49.509-49.509V482.673A13.173,13.173,0,0,1,5004.3,469.5h192.154a13.173,13.173,0,0,1,13.173,13.173v520.818A49.509,49.509,0,0,1,5160.116,1053Z" fill="#26a5b4"/>
  <rect x="5017.375" y="517" width="166" height="27" fill="#fff"/>
  <rect x="5017.375" y="657" width="124.625" height="27" fill="#fff"/>
  <rect x="5100" y="585" width="83.375" height="27" fill="#fff"/>
  <rect x="5100" y="734" width="83.375" height="27" fill="#fff"/>
  <g>
    <path d="M5316.146,895.334H5576a0,0,0,0,1,0,0V1098.2a52.609,52.609,0,0,1-52.609,52.609H5368.756a52.609,52.609,0,0,1-52.609-52.609V895.334A0,0,0,0,1,5316.146,895.334Z" fill="none" stroke="#39393a" stroke-miterlimit="10" stroke-width="8"/>
    <rect x="5330.022" y="864" width="232.102" height="31.106" fill="none" stroke="#39393a" stroke-miterlimit="10" stroke-width="8"/>
    <rect x="5405" y="934" width="145" height="31.106" fill="none" stroke="#39393a" stroke-miterlimit="10" stroke-width="8"/>
    <rect x="5342" y="998" width="66" height="31.106" fill="none" stroke="#39393a" stroke-miterlimit="10" stroke-width="8"/>
  </g>
  <g>
    <path d="M4866,830h247.25a0,0,0,0,1,0,0v268.391A52.609,52.609,0,0,1,5060.641,1151H4918.609A52.609,52.609,0,0,1,4866,1098.391V830A0,0,0,0,1,4866,830Z" fill="none" stroke="#39393a" stroke-miterlimit="10" stroke-width="8"/>
    <rect x="4890.725" y="867.882" width="197.8" height="18.941" fill="none" stroke="#39393a" stroke-miterlimit="10" stroke-width="8"/>
    <rect x="4890.725" y="907.758" width="197.8" height="18.941" fill="none" stroke="#39393a" stroke-miterlimit="10" stroke-width="8"/>
    <rect x="4890.725" y="947.634" width="197.8" height="18.941" fill="none" stroke="#39393a" stroke-miterlimit="10" stroke-width="8"/>
    <rect x="4890.725" y="987.509" width="197.8" height="18.941" fill="none" stroke="#39393a" stroke-miterlimit="10" stroke-width="8"/>
    <rect x="4890.725" y="1027.385" width="197.8" height="18.941" fill="none" stroke="#39393a" stroke-miterlimit="10" stroke-width="8"/>
    <rect x="4890.725" y="1067.261" width="197.8" height="18.941" fill="none" stroke="#39393a" stroke-miterlimit="10" stroke-width="8"/>
  </g>
  <path d="M4917.289,556.5a5,5,0,0,1-4.487-2.788c-4.242-8.593-11.015-12.6-21.315-12.6s-17.071,4-21.313,12.6a5,5,0,0,1-8.967,0c-4.242-8.594-11.016-12.6-21.314-12.6s-17.073,4-21.315,12.6a5,5,0,0,1-4.483,2.786h0a5,5,0,0,1-4.484-2.787c-4.242-8.593-11.014-12.6-21.313-12.6s-17.072,4-21.315,12.6a5,5,0,1,1-8.966-4.426c5.867-11.887,16.337-18.169,30.281-18.169,10.9,0,19.681,3.842,25.8,11.2,6.116-7.357,14.9-11.2,25.8-11.2s19.681,3.842,25.8,11.2c6.116-7.357,14.9-11.2,25.8-11.2,13.944,0,24.414,6.282,30.282,18.169a5,5,0,0,1-4.48,7.214Z" fill="#393939" stroke="#2d2d2d" stroke-miterlimit="10"/>
  <line x1="5746.529" y1="1074" x2="5840" y2="1074" fill="#fff" stroke="#39393a" stroke-linecap="round" stroke-linejoin="round" stroke-width="9"/>
  <line x1="5669.135" y1="1074" x2="5721.57" y2="1074" fill="#fff" stroke="#39393a" stroke-linecap="round" stroke-linejoin="round" stroke-width="9"/>
  <line x1="5313.529" y1="1200" x2="5407" y2="1200" fill="#fff" stroke="#39393a" stroke-linecap="round" stroke-linejoin="round" stroke-width="9"/>
  <g>
    <rect x="5544.633" y="322" width="38" height="105" fill="#fff"/>
    <rect x="5613.164" y="322" width="38" height="105" fill="#fff"/>
    <rect x="5681.164" y="322" width="38" height="105" fill="#fff"/>
    <rect x="5749.164" y="322" width="38" height="105" fill="#fff"/>
  </g>
  <g>
    <rect x="5544.633" y="462" width="38" height="105" fill="#fff"/>
    <rect x="5613.164" y="462" width="38" height="105" fill="#fff"/>
    <rect x="5681.164" y="462" width="38" height="105" fill="#fff"/>
    <rect x="5749.164" y="462" width="38" height="105" fill="#fff"/>
  </g>
  <g>
    <rect x="5544.633" y="602" width="38" height="105" fill="#fff"/>
    <rect x="5613.164" y="602" width="38" height="105" fill="#fff"/>
    <rect x="5681.164" y="602" width="38" height="105" fill="#fff"/>
    <rect x="5749.164" y="602" width="38" height="105" fill="#fff"/>
  </g>
  <path d="M5411.289,253.5a5,5,0,0,1-4.487-2.788c-4.242-8.593-11.015-12.595-21.315-12.595s-17.071,4-21.313,12.6a5,5,0,0,1-8.967,0c-4.242-8.594-11.016-12.6-21.314-12.6s-17.073,4-21.315,12.6a5,5,0,0,1-4.483,2.786h0a5,5,0,0,1-4.484-2.787c-4.242-8.593-11.014-12.595-21.313-12.595s-17.072,4-21.315,12.6a5,5,0,1,1-8.966-4.426c5.867-11.887,16.337-18.169,30.281-18.169,10.9,0,19.681,3.842,25.8,11.2,6.116-7.357,14.9-11.2,25.8-11.2s19.681,3.842,25.8,11.2c6.116-7.357,14.9-11.2,25.8-11.2,13.944,0,24.414,6.282,30.282,18.169a5,5,0,0,1-4.48,7.214Z" fill="#393939" stroke="#2d2d2d" stroke-miterlimit="10"/>
</svg>
