<svg id="Layer_1" data-name="Layer 1" xmlns="http://www.w3.org/2000/svg" viewBox="0 0 1375.15 1377.538">
  <path d="M1256.466,1025.413l-37.213-13.808A38.124,38.124,0,0,1,1196.6,992.72l-24.61-47.42a37.838,37.838,0,0,1-.036-34.792l38.512-80.1S1281.466,910.413,1256.466,1025.413Z" fill="#ea1c0a" stroke="#ea1c0a" stroke-miterlimit="10"/>
  <path d="M893.988,1192.371l37.094-69.654a31.665,31.665,0,0,0,.067-29.644l-18.773-35.64a31.669,31.669,0,0,1,5.787-37.311l23.4-23.066a31.668,31.668,0,0,0,4.32-39.811l-15.55-23.923a31.667,31.667,0,0,0-26.552-14.409H852.267a31.668,31.668,0,0,1-27.438-15.856l-24.863-43.144s57.5-124.5,215.5-127.5l36.825,74.169a23.056,23.056,0,0,1-5.792,28.407L991.88,880.305a30.277,30.277,0,0,0-7.074,38.11l80.378,139.665a28,28,0,0,1-4.448,33.327l-118.27,122.006S903.466,1199.413,893.988,1192.371Z" fill="#ea1c0a" stroke="#ea1c0a" stroke-miterlimit="10"/>
  <circle cx="1015.466" cy="978.413" r="246" fill="none" stroke="#39393a" stroke-miterlimit="10" stroke-width="8"/>
  <circle cx="800.78" cy="619.716" r="139.5" fill="#e3e000"/>
  <circle cx="840.708" cy="487.086" r="64.125" fill="#26a5b4"/>
  <circle cx="700.965" cy="430.192" r="37.125" fill="#ea1c0a"/>
  <circle cx="552.032" cy="793.188" r="205.25" fill="#26a5b4"/>
  <path d="M109.57,129.639l-.353.393C76.769,263.5,377.663,432.78,377.663,432.78L339.59,475.2s-139.913-73.172-92.718-130.247" fill="none" stroke="#39393a" stroke-linecap="round" stroke-linejoin="round" stroke-width="10"/>
  <path d="M109.885,129.288l.353-.393c129.2-46.633,329.9,234.281,329.9,234.281l38.073-42.42S390.394,189.536,338.734,242.6" fill="none" stroke="#39393a" stroke-linecap="round" stroke-linejoin="round" stroke-width="10"/>
  <circle cx="224.865" cy="232.486" r="46.5" fill="#fff"/>
  <line x1="127.674" y1="211.821" x2="194.162" y2="137.743" fill="none" stroke="#39393a" stroke-linecap="round" stroke-linejoin="round" stroke-width="10"/>
  <line x1="299.298" y1="379.913" x2="378.783" y2="291.352" fill="none" stroke="#39393a" stroke-linecap="round" stroke-linejoin="round" stroke-width="10"/>
  <line x1="324.964" y1="396.231" x2="400.442" y2="312.135" fill="none" stroke="#39393a" stroke-linecap="round" stroke-linejoin="round" stroke-width="10"/>
  <path d="M243.586,258.787a2.324,2.324,0,0,1-.792.56,2.272,2.272,0,0,1-2.828-.845l-12.308-19.2L219,248.95a2.237,2.237,0,0,1-2.131.761,2.123,2.123,0,0,1-1.641-1.473l-11.46-38.065a2.248,2.248,0,0,1-.017-.75,2.289,2.289,0,0,1,.4-1.02l.2-.222a2.272,2.272,0,0,1,3.187-.125l.444.4,13.625,17.731,8.859-9.87a2.223,2.223,0,0,1,2.179-.74,2.119,2.119,0,0,1,1.529,1.572l9.922,39.581a2.289,2.289,0,0,1-.511,2.058" fill="#ea1c0a"/>
  <g>
    <path d="M426.175,379.175a25.3,25.3,0,0,0-33.8,37.653s11.847,12.05,56.119,16.376" fill="none" stroke="#39393a" stroke-linecap="round" stroke-linejoin="round" stroke-width="10"/>
    <path d="M426.959,379.879s13.171,9,22.241,52.545" fill="none" stroke="#39393a" stroke-linecap="round" stroke-linejoin="round" stroke-width="10"/>
  </g>
  <path d="M515.048,721.362a50,50,0,0,0,66.794-74.42l-179.763-161.4" fill="none" stroke="#fff" stroke-linecap="round" stroke-linejoin="round" stroke-width="10"/>
  <path d="M839.162,586.308A44,44,0,0,1,780.383,651.8L488.217,389.572" fill="none" stroke="#39393a" stroke-linecap="round" stroke-linejoin="round" stroke-width="10"/>
  <line x1="424.592" y1="560.307" x2="523.153" y2="648.768" fill="none" stroke="#39393a" stroke-linecap="round" stroke-linejoin="round" stroke-width="10"/>
  <line x1="556.671" y1="511.408" x2="730.232" y2="667.254" fill="none" stroke="#39393a" stroke-linecap="round" stroke-linejoin="round" stroke-width="10"/>
  <path d="M436.682,922.457A174,174,0,0,0,669.128,663.472L503.9,515.176" fill="none" stroke="#39393a" stroke-linecap="round" stroke-linejoin="round" stroke-width="10"/>
  <line x1="543.924" y1="376.757" x2="713.131" y2="528.625" fill="none" stroke="#39393a" stroke-linecap="round" stroke-linejoin="round" stroke-width="10"/>
  <path d="M745.026,560.942A87,87,0,1,1,786.7,702.958" fill="none" stroke="#fff" stroke-linecap="round" stroke-linejoin="round" stroke-width="10"/>
  <path d="M618.282,747.02A85.012,85.012,0,0,1,489.737,855.859" fill="none" stroke="#39393a" stroke-linecap="round" stroke-linejoin="round" stroke-width="10"/>
  <path d="M635.273,692.209a133,133,0,1,1-187.817,10.143" fill="none" stroke="#39393a" stroke-linecap="round" stroke-linejoin="round" stroke-width="10"/>
  <polyline points="195.85 593.432 193.087 529.141 257.969 524.221" fill="none" stroke="#e3e000" stroke-linecap="square" stroke-miterlimit="10" stroke-width="32"/>
  <line x1="207.971" y1="542.5" x2="328.122" y2="649.667" fill="none" stroke="#e3e000" stroke-linecap="square" stroke-linejoin="round" stroke-width="32"/>
  <polyline points="669.563 337.302 636.277 374.411 623.175 247.569 748.92 248.906 715.894 285.703 814.046 373.671" fill="none" stroke="#e3e000" stroke-linecap="square" stroke-miterlimit="10" stroke-width="32"/>
</svg>
