<svg id="Layer_1" data-name="Layer 1" xmlns="http://www.w3.org/2000/svg" viewBox="0 0 1390 1390">
  <rect x="-0.25" y="-1.454" width="1389" height="1389" fill="#f6f6f7"/>
  <path d="M396.277,562.971h626.958a26.186,26.186,0,0,1,26.186,26.186V1011.4a0,0,0,0,1,0,0H370.091a0,0,0,0,1,0,0V589.156A26.186,26.186,0,0,1,396.277,562.971Z" fill="none" stroke="#39393a" stroke-linecap="round" stroke-linejoin="round" stroke-width="10"/>
  <rect x="422.139" y="625.258" width="575.233" height="386.137" fill="#e3e000"/>
  <path d="M289.032,1011.081h841.447a0,0,0,0,1,0,0v41.562a22,22,0,0,1-22,22H311.032a22,22,0,0,1-22-22v-41.562a0,0,0,0,1,0,0Z" fill="none" stroke="#39393a" stroke-linecap="round" stroke-linejoin="round" stroke-width="10"/>
  <g>
    <line x1="288.449" y1="517.209" x2="293.218" y2="515.707" fill="none" stroke="#fff" stroke-linecap="round" stroke-linejoin="round" stroke-width="10"/>
    <line x1="321.795" y1="506.706" x2="802.843" y2="355.182" fill="none" stroke-dasharray="9.987 29.961" stroke-linecap="round" stroke-linejoin="round" stroke-width="10" stroke="#fff"/>
    <line x1="817.132" y1="350.681" x2="821.901" y2="349.179" fill="none" stroke="#fff" stroke-linecap="round" stroke-linejoin="round" stroke-width="10"/>
  </g>
  <line x1="1062.51" y1="414.383" x2="1197.871" y2="755.813" fill="none" stroke-dasharray="10 30" stroke-linecap="round" stroke-linejoin="round" stroke-width="10" stroke="#fff"/>
  <line x1="296.295" y1="718.526" x2="1116.833" y2="869" fill="none" stroke-dasharray="10 30" stroke-linecap="round" stroke-linejoin="round" stroke-width="10" stroke="#fff"/>
  <circle cx="177.76" cy="610.882" r="145.968" fill="#26a5b4"/>
  <circle cx="971.74" cy="312.293" r="125.293" fill="none" stroke="#39393a" stroke-linecap="round" stroke-linejoin="round" stroke-width="10"/>
  <circle cx="1218.197" cy="851.314" r="101.636" fill="none" stroke="#39393a" stroke-linecap="round" stroke-linejoin="round" stroke-width="10"/>
  <path d="M931.484,381V324.372c0-9,7.872-16.372,17.494-16.372H994.5c9.622,0,17.494,7.367,17.494,16.372V381" fill="none" stroke="#39393a" stroke-linecap="round" stroke-linejoin="round" stroke-width="10"/>
  <path d="M971.74,251a15,15,0,1,1-15,15,15.017,15.017,0,0,1,15-15m0-10a25,25,0,1,0,25,25,25,25,0,0,0-25-25Z" fill="#39393a"/>
  <path d="M131.042,687V622.687c0-10.227,8.94-18.594,19.867-18.594h51.7c10.927,0,19.867,8.367,19.867,18.594V687" fill="none" stroke="#fff" stroke-linecap="round" stroke-linejoin="round" stroke-width="10"/>
  <path d="M176.76,538a18.393,18.393,0,1,1-18.392,18.393A18.414,18.414,0,0,1,176.76,538m0-10a28.393,28.393,0,1,0,28.393,28.393A28.392,28.392,0,0,0,176.76,528Z" fill="#fff"/>
  <path d="M1184.693,902V855.484c0-7.4,6.467-13.448,14.37-13.448h37.395c7.9,0,14.369,6.052,14.369,13.448V902" fill="none" stroke="#39393a" stroke-linecap="round" stroke-linejoin="round" stroke-width="10"/>
  <path d="M1217.76,797a10.536,10.536,0,1,1-10.535,10.536A10.547,10.547,0,0,1,1217.76,797m0-10a20.536,20.536,0,1,0,20.536,20.536A20.535,20.535,0,0,0,1217.76,787Z" fill="#39393a"/>
  <path d="M632.171,844.385H791.548c1.112-15.072,4.5-34.68,13.988-47.3,58.8-75.732,62.572-147.871,62.572-152.976a156.118,156.118,0,0,0-312.235,0c0,5.105,3.672,77.2,62.547,152.976C627.887,809.705,631.159,829.313,632.171,844.385Z" fill="#fff"/>
  <line x1="613.386" y1="849.675" x2="810.595" y2="849.675" fill="none" stroke="#39393a" stroke-linecap="round" stroke-linejoin="round" stroke-width="10"/>
  <line x1="613.386" y1="874.838" x2="810.595" y2="874.838" fill="none" stroke="#39393a" stroke-linecap="round" stroke-linejoin="round" stroke-width="10"/>
  <line x1="668.147" y1="900" x2="755.834" y2="900" fill="none" stroke="#39393a" stroke-linecap="round" stroke-linejoin="round" stroke-width="10"/>
  <line x1="668.147" y1="925" x2="755.834" y2="925" fill="none" stroke="#39393a" stroke-linecap="round" stroke-linejoin="round" stroke-width="10"/>
  <rect x="643.11" y="604" width="136.993" height="146.731" rx="21.34" stroke-width="10" stroke="#39393a" stroke-linecap="round" stroke-linejoin="round" fill="none"/>
  <line x1="677.128" y1="753.172" x2="677.128" y2="846.664" fill="none" stroke="#39393a" stroke-linecap="round" stroke-linejoin="round" stroke-width="10"/>
  <line x1="747.883" y1="753.172" x2="747.883" y2="846.664" fill="none" stroke="#39393a" stroke-linecap="round" stroke-linejoin="round" stroke-width="10"/>
  <path d="M701.257,726.277a3.512,3.512,0,0,1-1.429-.326,3.435,3.435,0,0,1-1.906-4.037l9.177-33.247H687.492a3.385,3.385,0,0,1-3.009-1.629,3.209,3.209,0,0,1,0-3.335l31.266-51.349a3.375,3.375,0,0,1,.827-.777,3.448,3.448,0,0,1,1.555-.577h.451a3.435,3.435,0,0,1,3.36,3.46v.9l-6.193,33.246h20.058a3.362,3.362,0,0,1,3.034,1.7,3.209,3.209,0,0,1-.226,3.31L704.09,724.772a3.459,3.459,0,0,1-2.833,1.5" fill="#ea1c0a"/>
</svg>
