<svg id="Layer_1" data-name="Layer 1" xmlns="http://www.w3.org/2000/svg" viewBox="0 0 1390 1390">
  <rect width="1389" height="1389" fill="#f6f6f7"/>
  <path d="M497.5,974.5v108.977a55.186,55.186,0,0,1-55.023,55.023H324.523a55.186,55.186,0,0,1-55.023-55.023V711.523A55.186,55.186,0,0,1,324.523,656.5" fill="none" stroke="#39393a" stroke-linecap="round" stroke-linejoin="round" stroke-width="10"/>
  <path d="M972.5,603.5h42c6.6,0,12,4.939,12,10.975v449.05c0,6.036-5.4,10.975-12,10.975H548.9" fill="none" stroke="#39393a" stroke-linecap="round" stroke-linejoin="round" stroke-width="10"/>
  <path d="M448.9,1074.5H339.5a12.035,12.035,0,0,1-12-12v-491a12.035,12.035,0,0,1,12-12h25.408" fill="none" stroke="#39393a" stroke-linecap="round" stroke-linejoin="round" stroke-width="10"/>
  <rect x="401.5" y="506.5" width="183" height="468" rx="55.023" fill="#ea1c0a"/>
  <path d="M622.4,559.5H960.5a12.035,12.035,0,0,1,12,12v171a12.035,12.035,0,0,1-12,12H623.9" fill="none" stroke="#39393a" stroke-linecap="round" stroke-linejoin="round" stroke-width="10"/>
  <rect x="628.5" y="603.5" width="258" height="68.5" rx="8.698" fill="#26a5b4"/>
  <g>
    <g>
      <ellipse cx="337.072" cy="303" rx="156.853" ry="142.5" fill="#fff"/>
      <polygon points="472.975 354.816 497 439.349 418.761 418.454 409.86 355.284 472.975 354.816" fill="#fff"/>
    </g>
    <g>
      <circle cx="375.516" cy="303" r="7.176" fill="#39393a"/>
      <circle cx="338.61" cy="303" r="7.176" fill="#39393a"/>
      <circle cx="301.703" cy="303" r="7.176" fill="#39393a"/>
    </g>
  </g>
  <g>
    <path d="M1128.262,238.686H815.891c-56.865,0-103.391,46.526-103.391,103.391h0V478.465s22-33,83.592-33a51.2,51.2,0,0,0,8.333-.644,103.419,103.419,0,0,0,11.466.644h312.371c56.865,0,103.391-46.526,103.391-103.391h0C1231.653,285.212,1185.127,238.686,1128.262,238.686Z" fill="#fff"/>
    <line x1="807.347" y1="310.499" x2="1072.917" y2="310.499" fill="none" stroke="#39393a" stroke-linecap="round" stroke-linejoin="round" stroke-width="10"/>
    <line x1="807.347" y1="366.729" x2="956.391" y2="366.729" fill="none" stroke="#39393a" stroke-linecap="round" stroke-linejoin="round" stroke-width="10"/>
  </g>
  <g>
    <polyline points="818.915 1096.837 787.299 1166.366 859.451 1141.31" fill="none" stroke="#39393a" stroke-linecap="round" stroke-linejoin="round" stroke-width="10"/>
    <path d="M1115.451,828.771h0m-1.394,1.271,38.323,42.045-38.339,34.945-38.323-42.045,38.339-34.945m.12-10.779a8.082,8.082,0,0,0-5.462,2.117l-41.129,37.488a8.113,8.113,0,0,0-.53,11.461l40.866,44.835a8.112,8.112,0,0,0,11.46.53l41.129-37.488a8.113,8.113,0,0,0,.531-11.461l-40.866-44.834a8.094,8.094,0,0,0-6-2.648Z" fill="#39393a"/>
    <rect x="934.774" y="812.199" width="76.89" height="369.406" transform="translate(1054.386 -393.918) rotate(47.651)" fill="#e3e000"/>
  </g>
  <rect x="622.5" y="806.5" width="61.895" height="27.789" rx="8.698" fill="#26a5b4"/>
  <rect x="723.553" y="806.5" width="61.895" height="27.789" rx="8.698" fill="#26a5b4"/>
  <rect x="824.605" y="806.5" width="61.895" height="27.789" rx="8.698" fill="#26a5b4"/>
  <rect x="622.5" y="864.658" width="61.895" height="27.789" rx="8.698" fill="#26a5b4"/>
  <rect x="723.553" y="864.658" width="61.895" height="27.789" rx="8.698" fill="#26a5b4"/>
  <rect x="824.605" y="864.658" width="61.895" height="27.789" rx="8.698" fill="#26a5b4"/>
  <rect x="622.5" y="922.816" width="61.895" height="27.789" rx="8.698" fill="#26a5b4"/>
  <rect x="723.553" y="922.816" width="61.895" height="27.789" rx="8.698" fill="#26a5b4"/>
  <rect x="824.605" y="922.816" width="61.895" height="27.789" rx="8.698" fill="#26a5b4"/>
  <g>
    <line x1="663.495" y1="495.246" x2="621.492" y2="514.021" fill="none" stroke="#39393a" stroke-linecap="round" stroke-linejoin="round" stroke-width="10"/>
    <line x1="620.778" y1="442.653" x2="595.636" y2="477.364" fill="none" stroke="#39393a" stroke-linecap="round" stroke-linejoin="round" stroke-width="10"/>
    <line x1="557.488" y1="421.464" x2="553.302" y2="461.852" fill="none" stroke="#39393a" stroke-linecap="round" stroke-linejoin="round" stroke-width="10"/>
  </g>
  <path d="M84.5,710.5s-2-37,32-38h24s34-1,34,38c0,0,3,26-15,39l-30,23s-17,11-17,28v10" fill="none" stroke="#39393a" stroke-linecap="round" stroke-linejoin="round" stroke-width="10"/>
  <line x1="113.5" y1="845.5" x2="113.5" y2="857.5" fill="none" stroke="#39393a" stroke-linecap="round" stroke-linejoin="round" stroke-width="10"/>
  <path d="M1196.5,549.5s-2-37,32-38h24s34-1,34,38c0,0,3,26-15,39l-30,23s-17,11-17,28v10" fill="none" stroke="#39393a" stroke-linecap="round" stroke-linejoin="round" stroke-width="10"/>
  <line x1="1225.5" y1="684.5" x2="1225.5" y2="696.5" fill="none" stroke="#39393a" stroke-linecap="round" stroke-linejoin="round" stroke-width="10"/>
</svg>
