<svg id="Layer_1" data-name="Layer 1" xmlns="http://www.w3.org/2000/svg" viewBox="0 0 1390 1390">
  <rect x="-3.167" y="3.5" width="1390" height="1390" fill="#f6f6f7"/>
  <rect x="835.928" y="515.748" width="19" height="75" rx="9.5" transform="translate(740.607 1558.158) rotate(-117.246)" fill="#39393a"/>
  <path d="M939.939,442.927,891.783,349.41a12.034,12.034,0,0,1,5.175-16.162l58.65-30.2a12.035,12.035,0,0,1,16.162,5.175l48.156,93.516" fill="none" stroke="#39393a" stroke-miterlimit="10" stroke-width="10"/>
  <path d="M1069.368,692.913c0,108.982-67.9,202.106-163.7,239.38" fill="none" stroke="#39393a" stroke-linecap="round" stroke-linejoin="round" stroke-width="10"/>
  <path d="M1002.831,913.564a257.439,257.439,0,0,1-22.125,15.85" fill="none" stroke="#39393a" stroke-linecap="round" stroke-linejoin="round" stroke-width="10"/>
  <path d="M1093.458,767.94a255.094,255.094,0,0,1-27.769,72.189" fill="none" stroke="#39393a" stroke-linecap="round" stroke-linejoin="round" stroke-width="10"/>
  <path d="M1065.841,390.425l40.15,77.97c2.76,5.361.218,12.219-5.65,15.24l-142.248,73.25c-5.868,3.021-62.434-29.5-62.434-29.5s6.379-64.938,12.246-67.96l142.248-73.249C1056.021,383.151,1063.081,385.065,1065.841,390.425Z" fill="none" stroke="#39393a" stroke-miterlimit="10" stroke-width="10"/>
  <path d="M813.5,501.076A61,61,0,0,1,869.353,609.54Z" fill="#ea1c0a" stroke="#ea1c0a" stroke-miterlimit="10"/>
  <path d="M820.3,794.913l-37.213-13.808a38.124,38.124,0,0,1-22.653-18.885L735.822,714.8a37.838,37.838,0,0,1-.035-34.792l38.512-80.1S845.3,679.913,820.3,794.913Z" fill="#ea1c0a" stroke="#ea1c0a" stroke-miterlimit="10"/>
  <path d="M457.82,961.871l37.1-69.654a31.668,31.668,0,0,0,.067-29.644l-18.773-35.64A31.667,31.667,0,0,1,482,789.622l23.4-23.066a31.667,31.667,0,0,0,4.32-39.811l-15.549-23.923a31.669,31.669,0,0,0-26.552-14.409H416.1a31.671,31.671,0,0,1-27.439-15.856L363.8,629.413s57.5-124.5,215.5-127.5l36.825,74.169a23.058,23.058,0,0,1-5.792,28.407L555.713,649.8a30.276,30.276,0,0,0-7.074,38.11L629.017,827.58a28.006,28.006,0,0,1-4.448,33.327L506.3,982.913S467.3,968.913,457.82,961.871Z" fill="#ea1c0a" stroke="#ea1c0a" stroke-miterlimit="10"/>
  <circle cx="579.299" cy="747.913" r="246" fill="none" stroke="#39393a" stroke-miterlimit="10" stroke-width="8"/>
  <rect x="1056.086" y="539.36" width="17.158" height="89.969" transform="translate(1032.566 1798.403) rotate(-117.246)" fill="#fff"/>
  <path d="M1070.113,499.2l48.156,93.517a12.036,12.036,0,0,1-5.175,16.162l-58.65,30.2a12.034,12.034,0,0,1-16.162-5.175l-48.156-93.517" fill="none" stroke="#39393a" stroke-miterlimit="10" stroke-width="10"/>
</svg>
