<svg id="Layer_1" data-name="Layer 1" xmlns="http://www.w3.org/2000/svg" viewBox="0 0 1390 1390">
  <g>
    <circle cx="1049" cy="519" r="138" fill="#ea1c0a"/>
    <path d="M999.717,542.887a13.921,13.921,0,0,1-13.792,13.969l-10.262.066a13.923,13.923,0,0,1-13.97-13.793l-.316-49.644a13.922,13.922,0,0,1,13.793-13.969l10.262-.065A13.922,13.922,0,0,1,999.4,493.243" fill="none" stroke="#fff" stroke-linecap="round" stroke-linejoin="round" stroke-width="10"/>
    <line x1="952.741" y1="507.247" x2="980.58" y2="507.247" fill="none" stroke="#fff" stroke-linecap="round" stroke-linejoin="round" stroke-width="10"/>
    <line x1="952.741" y1="524.235" x2="980.58" y2="524.235" fill="none" stroke="#fff" stroke-linecap="round" stroke-linejoin="round" stroke-width="10"/>
    <path d="M1067.864,542.453a13.921,13.921,0,0,1-13.793,13.969l-10.262.066A13.923,13.923,0,0,1,1029.84,542.7l-.316-49.644a13.922,13.922,0,0,1,13.792-13.969l10.262-.065a13.922,13.922,0,0,1,13.97,13.792" fill="none" stroke="#fff" stroke-linecap="round" stroke-linejoin="round" stroke-width="10"/>
    <line x1="1020.889" y1="507.247" x2="1048.728" y2="507.247" fill="none" stroke="#fff" stroke-linecap="round" stroke-linejoin="round" stroke-width="10"/>
    <line x1="1020.889" y1="524.235" x2="1048.728" y2="524.235" fill="none" stroke="#fff" stroke-linecap="round" stroke-linejoin="round" stroke-width="10"/>
    <path d="M1136.011,542.019a13.922,13.922,0,0,1-13.793,13.969l-10.262.066a13.922,13.922,0,0,1-13.969-13.793l-.316-49.644a13.922,13.922,0,0,1,13.792-13.969l10.262-.065a13.922,13.922,0,0,1,13.97,13.792" fill="none" stroke="#fff" stroke-linecap="round" stroke-linejoin="round" stroke-width="10"/>
    <line x1="1089.037" y1="507.247" x2="1116.877" y2="507.247" fill="none" stroke="#fff" stroke-linecap="round" stroke-linejoin="round" stroke-width="10"/>
    <line x1="1089.037" y1="524.235" x2="1116.877" y2="524.235" fill="none" stroke="#fff" stroke-linecap="round" stroke-linejoin="round" stroke-width="10"/>
  </g>
  <path d="M171.249,480.114a18.886,18.886,0,0,0-12.891-12.563V410.115a18.944,18.944,0,0,0,12.8-12.3h156.1a18.953,18.953,0,0,0,12.8,12.3v57.443a18.852,18.852,0,0,0-12.888,12.556Z" fill="#26a5b4"/>
  <rect x="136.5" y="376.75" width="222.5" height="124.096" stroke-width="10" stroke="#39393a" stroke-linecap="round" stroke-linejoin="round" fill="none"/>
  <circle cx="247.75" cy="438.798" r="17.693" fill="none" stroke="#39393a" stroke-linecap="round" stroke-linejoin="round" stroke-width="10"/>
  <line x1="185.46" y1="438.798" x2="210.182" y2="438.798" fill="none" stroke="#39393a" stroke-linecap="round" stroke-linejoin="round" stroke-width="10"/>
  <line x1="288.227" y1="438.798" x2="312.949" y2="438.798" fill="none" stroke="#39393a" stroke-linecap="round" stroke-linejoin="round" stroke-width="10"/>
  <line x1="136.5" y1="537.538" x2="359" y2="537.538" fill="none" stroke="#39393a" stroke-linecap="round" stroke-linejoin="round" stroke-width="10"/>
  <line x1="136.5" y1="575.013" x2="359" y2="575.013" fill="none" stroke="#39393a" stroke-linecap="round" stroke-linejoin="round" stroke-width="10"/>
  <line x1="136.5" y1="613.013" x2="359" y2="613.013" fill="none" stroke="#39393a" stroke-linecap="round" stroke-linejoin="round" stroke-width="10"/>
  <line x1="638.83" y1="579.75" x2="598.099" y2="579.75" fill="none" stroke="#39393a" stroke-linecap="round" stroke-linejoin="round" stroke-width="10"/>
  <path d="M520.6,588.557a151.8,151.8,0,0,0-96.009,107.267l-25.386.055H388.961a10.277,10.277,0,0,0-10.247,10.246v79.412a10.277,10.277,0,0,0,10.247,10.247h16.224l-4.269,23.909h31.593l.532,2.275c23.28,53.3,76.577,90.8,138.206,90.8H715.594c82.88,0,150.692-67.812,150.692-150.692V730.442a150.677,150.677,0,0,0-59.058-119.423" fill="none" stroke="#39393a" stroke-linecap="round" stroke-linejoin="round" stroke-width="10"/>
  <path d="M452.149,731.742a26.471,26.471,0,1,1,52.941,0" fill="none" stroke="#39393a" stroke-linecap="round" stroke-linejoin="round" stroke-width="10"/>
  <path d="M520.1,533.729l.356,130.556h66.21a7.215,7.215,0,0,0,6.65-4.422C602.241,638.675,633.4,547.961,520.1,533.729Z" fill="none" stroke="#39393a" stroke-linecap="round" stroke-linejoin="round" stroke-width="10"/>
  <path d="M519.97,556.462c-12.872-10.837-31.314-19.175-59.639-22.733l.26,94.98" fill="none" stroke="#39393a" stroke-linecap="round" stroke-linejoin="round" stroke-width="10"/>
  <path d="M602.434,912.733v41.02A10.277,10.277,0,0,1,592.187,964H542.661a10.277,10.277,0,0,1-10.246-10.247V907.661" fill="none" stroke="#39393a" stroke-linecap="round" stroke-linejoin="round" stroke-width="10"/>
  <path d="M783.458,899.924v53.829A10.277,10.277,0,0,1,773.212,964H723.686a10.277,10.277,0,0,1-10.247-10.247V913.638" fill="none" stroke="#39393a" stroke-linecap="round" stroke-linejoin="round" stroke-width="10"/>
  <circle cx="726.248" cy="575.053" r="61.053" fill="#fff"/>
  <path d="M719.194,606.663a2.447,2.447,0,0,1-1-.227,2.4,2.4,0,0,1-1.331-2.821l6.412-23.231h-13.7a2.366,2.366,0,0,1-2.1-1.139,2.243,2.243,0,0,1,0-2.33l21.847-35.881a2.388,2.388,0,0,1,.578-.543,2.431,2.431,0,0,1,1.086-.4h.316a2.4,2.4,0,0,1,2.347,2.418v.631l-4.327,23.231h14.016a2.35,2.35,0,0,1,2.12,1.191,2.242,2.242,0,0,1-.158,2.313l-24.125,35.74a2.415,2.415,0,0,1-1.979,1.051" fill="#ea1c0a"/>
  <g>
    <g>
      <line x1="554.956" y1="445.235" x2="540.336" y2="409.047" fill="none" stroke="#39393a" stroke-linecap="round" stroke-linejoin="round" stroke-width="10"/>
      <line x1="676.501" y1="392.328" x2="671.098" y2="430.777" fill="none" stroke="#39393a" stroke-linecap="round" stroke-linejoin="round" stroke-width="10"/>
    </g>
    <line x1="540.336" y1="409.047" x2="555.152" y2="445.718" fill="none" stroke="#39393a" stroke-linecap="round" stroke-linejoin="round" stroke-width="10"/>
    <line x1="779.087" y1="476.262" x2="802.784" y2="445.932" fill="none" stroke="#39393a" stroke-linecap="round" stroke-linejoin="round" stroke-width="10"/>
  </g>
  <g>
    <g>
      <line x1="612.145" y1="431.04" x2="607.318" y2="391.724" fill="none" stroke="#39393a" stroke-linecap="round" stroke-linejoin="round" stroke-width="10"/>
      <line x1="743.171" y1="410.817" x2="727.73" y2="447.194" fill="none" stroke="#39393a" stroke-linecap="round" stroke-linejoin="round" stroke-width="10"/>
    </g>
    <g>
      <line x1="503.96" y1="474.754" x2="480.119" y2="443.116" fill="none" stroke="#39393a" stroke-linecap="round" stroke-linejoin="round" stroke-width="10"/>
      <line x1="607.318" y1="391.724" x2="612.145" y2="431.04" fill="none" stroke="#39393a" stroke-linecap="round" stroke-linejoin="round" stroke-width="10"/>
    </g>
    <line x1="480.119" y1="443.116" x2="504.128" y2="474.977" fill="none" stroke="#39393a" stroke-linecap="round" stroke-linejoin="round" stroke-width="10"/>
  </g>
  <g>
    <g>
      <line x1="551.068" y1="1069.664" x2="536.448" y2="1105.852" fill="none" stroke="#39393a" stroke-linecap="round" stroke-linejoin="round" stroke-width="10"/>
      <line x1="672.613" y1="1122.571" x2="667.21" y2="1084.122" fill="none" stroke="#39393a" stroke-linecap="round" stroke-linejoin="round" stroke-width="10"/>
    </g>
    <line x1="536.448" y1="1105.852" x2="551.264" y2="1069.18" fill="none" stroke="#39393a" stroke-linecap="round" stroke-linejoin="round" stroke-width="10"/>
    <line x1="775.199" y1="1038.636" x2="798.896" y2="1068.967" fill="none" stroke="#39393a" stroke-linecap="round" stroke-linejoin="round" stroke-width="10"/>
  </g>
  <g>
    <g>
      <line x1="608.257" y1="1083.859" x2="603.43" y2="1123.174" fill="none" stroke="#39393a" stroke-linecap="round" stroke-linejoin="round" stroke-width="10"/>
      <line x1="739.283" y1="1104.081" x2="723.842" y2="1067.705" fill="none" stroke="#39393a" stroke-linecap="round" stroke-linejoin="round" stroke-width="10"/>
    </g>
    <g>
      <line x1="500.072" y1="1040.145" x2="476.231" y2="1071.783" fill="none" stroke="#39393a" stroke-linecap="round" stroke-linejoin="round" stroke-width="10"/>
      <line x1="603.43" y1="1123.174" x2="608.257" y2="1083.859" fill="none" stroke="#39393a" stroke-linecap="round" stroke-linejoin="round" stroke-width="10"/>
    </g>
    <line x1="476.231" y1="1071.783" x2="500.24" y2="1039.922" fill="none" stroke="#39393a" stroke-linecap="round" stroke-linejoin="round" stroke-width="10"/>
  </g>
  <g>
    <polyline points="322.42 1048.834 317.697 1057.015 316.831 1058.515" fill="none" stroke="#39393a" stroke-linecap="round" stroke-linejoin="round" stroke-width="10"/>
    <line x1="316.953" y1="1111.09" x2="322.42" y2="1120.559" fill="none" stroke="#39393a" stroke-linecap="round" stroke-linejoin="round" stroke-width="10"/>
    <line x1="286.614" y1="1110.852" x2="281.01" y2="1120.559" fill="none" stroke="#39393a" stroke-linecap="round" stroke-linejoin="round" stroke-width="10"/>
    <line x1="286.7" y1="1058.69" x2="281.01" y2="1048.834" fill="none" stroke="#39393a" stroke-linecap="round" stroke-linejoin="round" stroke-width="10"/>
  </g>
  <g>
    <line x1="286.522" y1="1058.382" x2="281.01" y2="1048.834" fill="none" stroke="#39393a" stroke-linecap="round" stroke-linejoin="round" stroke-width="10"/>
    <polyline points="322.42 1048.834 319.204 1054.405 316.985 1058.248" fill="none" stroke="#39393a" stroke-linecap="round" stroke-linejoin="round" stroke-width="10"/>
    <polyline points="343.125 1084.697 334.066 1084.697 332.039 1084.697" fill="none" stroke="#39393a" stroke-linecap="round" stroke-linejoin="round" stroke-width="10"/>
    <polyline points="322.42 1120.559 317.034 1111.23 316.755 1110.747" fill="none" stroke="#39393a" stroke-linecap="round" stroke-linejoin="round" stroke-width="10"/>
    <polyline points="281.01 1120.559 281.829 1119.14 286.82 1110.496" fill="none" stroke="#39393a" stroke-linecap="round" stroke-linejoin="round" stroke-width="10"/>
    <polyline points="271.759 1084.697 266.624 1084.697 260.304 1084.697" fill="none" stroke="#39393a" stroke-linecap="round" stroke-linejoin="round" stroke-width="10"/>
  </g>
  <g>
    <path d="M939.053,889.269a24.926,24.926,0,0,0,.716,5.95" fill="none" stroke="#e3e000" stroke-linecap="round" stroke-linejoin="round" stroke-width="10"/>
    <path d="M954.514,912.3a24.8,24.8,0,0,0,9.408,1.841h224.46" fill="none" stroke="#e3e000" stroke-linecap="round" stroke-linejoin="round" stroke-width="10" stroke-dasharray="11.705 23.41"/>
    <line x1="1200.086" y1="914.138" x2="1206.086" y2="914.138" fill="none" stroke="#e3e000" stroke-linecap="round" stroke-linejoin="round" stroke-width="10"/>
  </g>
  <g>
    <path d="M939.053,989.427a24.924,24.924,0,0,0,.716,5.949" fill="none" stroke="#e3e000" stroke-linecap="round" stroke-linejoin="round" stroke-width="10"/>
    <path d="M954.514,1012.455a24.819,24.819,0,0,0,9.408,1.841h224.46" fill="none" stroke="#e3e000" stroke-linecap="round" stroke-linejoin="round" stroke-width="10" stroke-dasharray="11.705 23.41"/>
    <line x1="1200.086" y1="1014.296" x2="1206.086" y2="1014.296" fill="none" stroke="#e3e000" stroke-linecap="round" stroke-linejoin="round" stroke-width="10"/>
  </g>
  <path d="M1217.166,986.133h-54.345a21.462,21.462,0,1,1,0-42.924h54.39Z" fill="none" stroke="#39393a" stroke-linecap="round" stroke-linejoin="round" stroke-width="10"/>
  <circle cx="1157.029" cy="964.671" r="3.407" fill="#39393a"/>
  <path d="M1206.767,999.1v39.727c0,4.5-4.316,8.176-9.591,8.176H948.592c-5.276,0-9.592-3.679-9.592-8.176V857.587" fill="none" stroke="#39393a" stroke-linecap="round" stroke-linejoin="round" stroke-width="10"/>
  <path d="M991.463,832.377H963.869a24.869,24.869,0,0,0,0,49.738h233.307c5.275,0,9.591,3.68,9.591,8.176v39.418" fill="none" stroke="#39393a" stroke-linecap="round" stroke-linejoin="round" stroke-width="10"/>
  <path d="M1004.636,849.189l149.255-37.645c3.263-.823,6.545,1.237,6.545,4.109V853.3c0,2.369-2.278,4.289-5.087,4.289H1006.094C1000.231,857.587,999.019,850.605,1004.636,849.189Z" fill="#e3e000"/>
</svg>
