<svg id="Layer_1" data-name="Layer 1" xmlns="http://www.w3.org/2000/svg" viewBox="0 0 1390 1390">
  <rect x="-0.25" y="-1.454" width="1389" height="1389" fill="#f6f6f7"/>
  <rect x="505.806" y="425.5" width="344" height="586.5" fill="#e3e000"/>
  <rect x="467.306" y="319.795" width="421" height="818.705" rx="60.557" stroke-width="10" stroke="#39393a" stroke-linecap="round" stroke-linejoin="round" fill="none"/>
  <path d="M567.235,471.511H400.265c-30.4,0-55.265,26.572-55.265,59.049h0v77.894s11.758-18.846,44.682-18.846a25.672,25.672,0,0,0,4.454-.367,51.763,51.763,0,0,0,6.129.367h166.97c30.4,0,55.265-26.571,55.265-59.048h0C622.5,498.083,597.631,471.511,567.235,471.511Z" fill="#ea1c0a"/>
  <g>
    <circle cx="678.018" cy="644.019" r="40.094" fill="#fff"/>
    <path d="M713.389,825H642.647a1.2,1.2,0,0,1-1.192-1.369L663.4,665.105a1.2,1.2,0,0,1,1.193-1.039h26.859a1.2,1.2,0,0,1,1.192,1.039l21.942,158.526A1.2,1.2,0,0,1,713.389,825Z" fill="#fff"/>
  </g>
  <circle cx="778.671" cy="722.815" r="32.994" fill="none" stroke="#39393a" stroke-linecap="round" stroke-linejoin="round" stroke-width="10"/>
  <line x1="744.285" y1="722.537" x2="545.484" y2="722.537" fill="none" stroke="#39393a" stroke-linecap="round" stroke-linejoin="round" stroke-width="10"/>
  <path d="M552.724,722.537v45.572a1.171,1.171,0,0,0,1.133,1.2h14.509a1.172,1.172,0,0,0,1.134-1.2v-23.3" fill="none" stroke="#39393a" stroke-linecap="round" stroke-linejoin="round" stroke-width="10"/>
  <path d="M605.5,722.537v45.572a1.132,1.132,0,0,1-1.04,1.2H589.425a1.132,1.132,0,0,1-1.04-1.2V737.6" fill="none" stroke="#39393a" stroke-linecap="round" stroke-linejoin="round" stroke-width="10"/>
  <line x1="570.112" y1="753.721" x2="588.385" y2="753.721" fill="none" stroke="#393939" stroke-linecap="round" stroke-miterlimit="10" stroke-width="10"/>
  <circle cx="677.806" cy="1071.25" r="9.25" fill="#39393a" stroke="#39393a" stroke-linecap="round" stroke-linejoin="round" stroke-width="10"/>
  <line x1="632.806" y1="378.5" x2="722.806" y2="378.5" fill="none" stroke="#39393a" stroke-linecap="round" stroke-linejoin="round" stroke-width="10"/>
  <line x1="399.169" y1="512.525" x2="550.842" y2="512.525" fill="none" stroke="#39393a" stroke-linecap="round" stroke-linejoin="round" stroke-width="10"/>
  <line x1="399.169" y1="544.639" x2="484.292" y2="544.639" fill="none" stroke="#39393a" stroke-linecap="round" stroke-linejoin="round" stroke-width="10"/>
  <path d="M786.164,879.247H930.171a47.8,47.8,0,0,1,47.664,47.665h0v62.876s-10.141-15.212-38.537-15.212a23.623,23.623,0,0,1-3.841-.3,47.6,47.6,0,0,1-5.286.3H786.164A47.8,47.8,0,0,1,738.5,926.912h0A47.8,47.8,0,0,1,786.164,879.247Z" fill="#26a5b4"/>
  <line x1="806.584" y1="912.39" x2="922.681" y2="912.39" fill="none" stroke="#39393a" stroke-linecap="round" stroke-linejoin="round" stroke-width="10"/>
  <line x1="847.653" y1="941.612" x2="922.681" y2="941.612" fill="none" stroke="#39393a" stroke-linecap="round" stroke-linejoin="round" stroke-width="10"/>
</svg>
