<svg id="Layer_1" data-name="Layer 1" xmlns="http://www.w3.org/2000/svg" viewBox="0 0 1390 1390">
  <rect width="1389" height="1389" fill="#e3e000"/>
  <g>
    <polyline points="855.42 1015.834 850.697 1024.015 849.831 1025.515" fill="none" stroke="#39393a" stroke-linecap="round" stroke-linejoin="round" stroke-width="10"/>
    <line x1="849.953" y1="1078.09" x2="855.42" y2="1087.559" fill="none" stroke="#39393a" stroke-linecap="round" stroke-linejoin="round" stroke-width="10"/>
    <line x1="819.614" y1="1077.852" x2="814.01" y2="1087.559" fill="none" stroke="#39393a" stroke-linecap="round" stroke-linejoin="round" stroke-width="10"/>
    <line x1="819.7" y1="1025.69" x2="814.01" y2="1015.834" fill="none" stroke="#39393a" stroke-linecap="round" stroke-linejoin="round" stroke-width="10"/>
  </g>
  <g>
    <line x1="819.522" y1="1025.382" x2="814.01" y2="1015.834" fill="none" stroke="#39393a" stroke-linecap="round" stroke-linejoin="round" stroke-width="10"/>
    <polyline points="855.42 1015.834 852.204 1021.405 849.985 1025.248" fill="none" stroke="#39393a" stroke-linecap="round" stroke-linejoin="round" stroke-width="10"/>
    <polyline points="876.125 1051.697 867.066 1051.697 865.039 1051.697" fill="none" stroke="#39393a" stroke-linecap="round" stroke-linejoin="round" stroke-width="10"/>
    <polyline points="855.42 1087.559 850.034 1078.23 849.755 1077.747" fill="none" stroke="#39393a" stroke-linecap="round" stroke-linejoin="round" stroke-width="10"/>
    <polyline points="814.01 1087.559 814.829 1086.14 819.82 1077.496" fill="none" stroke="#39393a" stroke-linecap="round" stroke-linejoin="round" stroke-width="10"/>
    <polyline points="804.759 1051.697 799.624 1051.697 793.304 1051.697" fill="none" stroke="#39393a" stroke-linecap="round" stroke-linejoin="round" stroke-width="10"/>
  </g>
  <g>
    <ellipse cx="1017.993" cy="836.908" rx="172.711" ry="156.908" fill="#ea1c0a"/>
    <polygon points="868.349 779.853 841.895 686.773 928.045 709.781 937.845 779.337 868.349 779.853" fill="#ea1c0a"/>
  </g>
  <g>
    <g>
      <polygon points="479.403 283.021 312.281 283.021 312.281 614.987 533.592 614.987 533.592 337.224 479.403 283.021" fill="#26a5b4"/>
      <polygon points="479.376 339.462 535.823 339.462 479.376 283 479.376 339.462" fill="#fff"/>
    </g>
    <line x1="288.842" y1="340.117" x2="348" y2="340.117" fill="none" stroke="#39393a" stroke-linecap="round" stroke-linejoin="round" stroke-width="10"/>
    <line x1="288.842" y1="466.117" x2="378" y2="466.117" fill="none" stroke="#39393a" stroke-linecap="round" stroke-linejoin="round" stroke-width="10"/>
    <line x1="288.842" y1="371.117" x2="432" y2="371.117" fill="none" stroke="#39393a" stroke-linecap="round" stroke-linejoin="round" stroke-width="10"/>
    <line x1="288.842" y1="403.117" x2="432" y2="403.117" fill="none" stroke="#39393a" stroke-linecap="round" stroke-linejoin="round" stroke-width="10"/>
    <line x1="288.842" y1="434.117" x2="432" y2="434.117" fill="none" stroke="#39393a" stroke-linecap="round" stroke-linejoin="round" stroke-width="10"/>
  </g>
  <g>
    <g>
      <line x1="635.267" y1="495.123" x2="623.986" y2="467.201" fill="none" stroke="#39393a" stroke-linecap="round" stroke-linejoin="round" stroke-width="10"/>
      <line x1="729.052" y1="454.3" x2="724.883" y2="483.968" fill="none" stroke="#39393a" stroke-linecap="round" stroke-linejoin="round" stroke-width="10"/>
    </g>
    <line x1="623.986" y1="467.201" x2="635.418" y2="495.496" fill="none" stroke="#39393a" stroke-linecap="round" stroke-linejoin="round" stroke-width="10"/>
    <line x1="808.208" y1="519.064" x2="826.492" y2="495.661" fill="none" stroke="#39393a" stroke-linecap="round" stroke-linejoin="round" stroke-width="10"/>
  </g>
  <g>
    <g>
      <line x1="679.395" y1="484.17" x2="675.67" y2="453.834" fill="none" stroke="#39393a" stroke-linecap="round" stroke-linejoin="round" stroke-width="10"/>
      <line x1="780.495" y1="468.567" x2="768.581" y2="496.635" fill="none" stroke="#39393a" stroke-linecap="round" stroke-linejoin="round" stroke-width="10"/>
    </g>
    <g>
      <line x1="595.918" y1="517.9" x2="577.523" y2="493.488" fill="none" stroke="#39393a" stroke-linecap="round" stroke-linejoin="round" stroke-width="10"/>
      <line x1="675.67" y1="453.834" x2="679.395" y2="484.17" fill="none" stroke="#39393a" stroke-linecap="round" stroke-linejoin="round" stroke-width="10"/>
    </g>
    <line x1="577.523" y1="493.488" x2="596.048" y2="518.072" fill="none" stroke="#39393a" stroke-linecap="round" stroke-linejoin="round" stroke-width="10"/>
  </g>
  <g>
    <g>
      <line x1="632.267" y1="899.775" x2="620.986" y2="927.698" fill="none" stroke="#39393a" stroke-linecap="round" stroke-linejoin="round" stroke-width="10"/>
      <line x1="726.052" y1="940.598" x2="721.883" y2="910.931" fill="none" stroke="#39393a" stroke-linecap="round" stroke-linejoin="round" stroke-width="10"/>
    </g>
    <line x1="620.986" y1="927.698" x2="632.418" y2="899.402" fill="none" stroke="#39393a" stroke-linecap="round" stroke-linejoin="round" stroke-width="10"/>
    <line x1="805.208" y1="875.834" x2="823.492" y2="899.238" fill="none" stroke="#39393a" stroke-linecap="round" stroke-linejoin="round" stroke-width="10"/>
  </g>
  <g>
    <g>
      <line x1="676.395" y1="910.728" x2="672.67" y2="941.064" fill="none" stroke="#39393a" stroke-linecap="round" stroke-linejoin="round" stroke-width="10"/>
      <line x1="777.495" y1="926.332" x2="765.581" y2="898.264" fill="none" stroke="#39393a" stroke-linecap="round" stroke-linejoin="round" stroke-width="10"/>
    </g>
    <g>
      <line x1="592.918" y1="876.998" x2="574.523" y2="901.41" fill="none" stroke="#39393a" stroke-linecap="round" stroke-linejoin="round" stroke-width="10"/>
      <line x1="672.67" y1="941.064" x2="676.395" y2="910.728" fill="none" stroke="#39393a" stroke-linecap="round" stroke-linejoin="round" stroke-width="10"/>
    </g>
    <line x1="574.523" y1="901.41" x2="593.048" y2="876.826" fill="none" stroke="#39393a" stroke-linecap="round" stroke-linejoin="round" stroke-width="10"/>
  </g>
  <g>
    <rect x="467" y="559.484" width="466" height="267.702" rx="4.557" stroke-width="10" stroke="#39393a" stroke-linecap="round" stroke-linejoin="round" fill="none"/>
    <polyline points="467 559.228 700.383 754.351 933 559.228" fill="none" stroke="#39393a" stroke-linecap="round" stroke-linejoin="round" stroke-width="10"/>
    <line x1="773.361" y1="693.136" x2="933" y2="827.044" fill="none" stroke="#39393a" stroke-linecap="round" stroke-linejoin="round" stroke-width="10"/>
    <line x1="467" y1="827.044" x2="627.165" y2="693.136" fill="none" stroke="#39393a" stroke-linecap="round" stroke-linejoin="round" stroke-width="10"/>
  </g>
  <path d="M1092.231,250.107H927.269A78,78,0,0,0,849.5,327.876h0V430.465s16.547-24.82,62.877-24.82a38.474,38.474,0,0,0,6.268-.485,77.535,77.535,0,0,0,8.624.485h164.962A78,78,0,0,0,1170,327.876h0A78,78,0,0,0,1092.231,250.107Z" fill="#fff"/>
  <line x1="920.842" y1="304.123" x2="1087" y2="304.123" fill="none" stroke="#39393a" stroke-linecap="round" stroke-linejoin="round" stroke-width="10"/>
  <line x1="920.842" y1="346.419" x2="1014.094" y2="346.419" fill="none" stroke="#39393a" stroke-linecap="round" stroke-linejoin="round" stroke-width="10"/>
  <g>
    <ellipse cx="348.048" cy="795.28" rx="146.088" ry="132.72" fill="#fff"/>
    <polygon points="474.624 747.02 497 668.289 424.13 687.75 415.84 746.584 474.624 747.02" fill="#fff"/>
  </g>
  <g>
    <circle cx="383.854" cy="795.28" r="6.684" fill="#39393a"/>
    <circle cx="349.48" cy="795.28" r="6.684" fill="#39393a"/>
    <circle cx="315.107" cy="795.28" r="6.684" fill="#39393a"/>
  </g>
  <g>
    <path d="M1027.309,774.188h-16.023a26.015,26.015,0,0,0-25.98,25.992v6.349h12.066V800.18a13.936,13.936,0,0,1,13.914-13.925h16.023a13.937,13.937,0,0,1,13.917,13.925v13.582c0,4.2-4.615,8.009-8.486,10.467l-1.921,1.566-.079-.1L1016.8,837.129c-9.135,5.889-13.768,12.765-13.768,20.445v13.581H1015.1V857.574c0-4.195,4.615-8,8.486-10.462l1.926-1.571.076.093,13.934-11.422c9.137-5.889,13.77-12.768,13.77-20.45V800.18A26.017,26.017,0,0,0,1027.309,774.188Z" fill="#fff" stroke="#ea1c0a" stroke-linecap="round" stroke-linejoin="round" stroke-width="2"/>
    <rect x="1003.034" y="884.076" width="12.067" height="15.528" stroke-width="2" stroke="#ea1c0a" stroke-linecap="round" stroke-linejoin="round" fill="#fff"/>
  </g>
  <line x1="566.953" y1="1062.769" x2="537.682" y2="1073.171" fill="none" stroke="#39393a" stroke-linecap="round" stroke-linejoin="round" stroke-width="10"/>
  <line x1="480.42" y1="1003.201" x2="495.685" y2="977.036" fill="none" stroke="#39393a" stroke-linecap="round" stroke-linejoin="round" stroke-width="10"/>
  <line x1="536.699" y1="1015.474" x2="513.156" y2="1034.851" fill="none" stroke="#39393a" stroke-linecap="round" stroke-linejoin="round" stroke-width="10"/>
  <path d="M544.545,1137.605c1.355-3.441-1.267-10.328-3.339-11.258-14.414-6.54-25.38-9.857-42.241-13.607-2.146-.49-8.2.541-9.408,2.414-2.987,4.7-5.963,9.421-8.956,14.123-2.708,4.389-10.133,4.735-16.242.244a202.145,202.145,0,0,1-22.885-19.495A205.9,205.9,0,0,1,421.9,1087.1c-4.47-6.121-4.127-13.55.268-16.267q7.058-4.476,14.121-8.964c1.867-1.172,2.989-7.259,2.429-9.4-3.628-13.7-8.609-28.32-13.626-42.246-.773-2.136-7.811-4.673-11.255-3.334a89.483,89.483,0,0,0-31.034,20.2,93.218,93.218,0,0,0-7.1,8.066c-.784,32.576,13.761,68.824,42.475,97.561.094.076.17.136.251.211.1.114.2.23.311.347,28.713,28.713,64.977,43.256,97.557,42.477a88.233,88.233,0,0,0,28.25-38.135Z" fill="#26a5b4"/>
  <polyline points="1009 528.172 1036.148 500.202 1063.296 527.35" fill="none" stroke="#39393a" stroke-linecap="round" stroke-linejoin="round" stroke-width="10"/>
  <polyline points="1064.118 528.172 1091.266 500.202 1118.414 527.35" fill="none" stroke="#39393a" stroke-linecap="round" stroke-linejoin="round" stroke-width="10"/>
  <polyline points="1066.586 580 1093.734 552.03 1120.882 579.177" fill="none" stroke="#39393a" stroke-linecap="round" stroke-linejoin="round" stroke-width="10"/>
  <polyline points="1121.704 580 1148.852 552.03 1176 579.177" fill="none" stroke="#39393a" stroke-linecap="round" stroke-linejoin="round" stroke-width="10"/>
  <polyline points="1119.236 528.172 1146.384 500.202 1173.532 527.35" fill="none" stroke="#39393a" stroke-linecap="round" stroke-linejoin="round" stroke-width="10"/>
</svg>
