<svg id="Layer_1" data-name="Layer 1" xmlns="http://www.w3.org/2000/svg" viewBox="0 0 1390 1390">
  <path d="M487.022,348.1a10.739,10.739,0,0,0,.919,4.736q1.705,3.454,6.2,3.454a6.863,6.863,0,0,0,4.807-1.891A7.037,7.037,0,0,0,501,348.957q0-4.7-3.8-6.283a19.278,19.278,0,0,0-6.82-.887v-6.71a17.616,17.616,0,0,0,6.359-.889q3.114-1.381,3.114-5.591a6.259,6.259,0,0,0-1.591-4.44,5.813,5.813,0,0,0-4.478-1.711,5.662,5.662,0,0,0-4.872,2.1,8.948,8.948,0,0,0-1.492,5.624h-8.749a23.517,23.517,0,0,1,1.215-6.742,15.156,15.156,0,0,1,3.614-5.164,12.587,12.587,0,0,1,4.37-2.566,18.9,18.9,0,0,1,6.21-.888q6.836,0,11.024,3.536a11.783,11.783,0,0,1,4.189,9.489,10.493,10.493,0,0,1-2.5,7.105,8.546,8.546,0,0,1-3.289,2.467q1.283,0,3.684,2.2a11.771,11.771,0,0,1,3.586,9.078,15.3,15.3,0,0,1-4.191,10.64q-4.19,4.588-12.4,4.589-10.121,0-14.064-6.611a19.648,19.648,0,0,1-2.3-9.21Z" fill="#ea1c0a"/>
  <path d="M510.264,429.476h-5.395v10.263h-9.177V429.476h-18.88v-8.189l17.532-28.946h10.525v29.8h5.395Zm-14.572-7.335V401.6l-11.9,20.542Z" fill="#ea1c0a"/>
  <rect x="428.5" y="450.693" width="101.625" height="71.125" rx="12" fill="#fff" stroke="#39393a" stroke-miterlimit="10" stroke-width="8"/>
  <rect x="714.5" y="976.464" width="492" height="82" rx="36.742" fill="#ea1c0a" stroke="#ea1c0a" stroke-miterlimit="10" stroke-width="8"/>
  <line x1="1131.75" y1="1008.373" x2="1174.5" y2="1008.818" fill="none" stroke="#fff" stroke-linecap="round" stroke-linejoin="round" stroke-width="8"/>
  <line x1="1131.75" y1="1028.373" x2="1174.5" y2="1028.818" fill="none" stroke="#fff" stroke-linecap="round" stroke-linejoin="round" stroke-width="8"/>
  <line x1="1156.75" y1="1008.818" x2="1156.5" y2="1028.818" fill="none" stroke="#fff" stroke-linecap="round" stroke-linejoin="round" stroke-width="8"/>
  <rect x="714.5" y="739.818" width="492" height="82" rx="36.742" fill="#fff" stroke="#39393a" stroke-miterlimit="10" stroke-width="8"/>
  <rect x="714.5" y="855.248" width="492" height="82" rx="36.742" fill="#fff" stroke="#39393a" stroke-miterlimit="10" stroke-width="8"/>
  <line x1="1131.75" y1="769.373" x2="1174.5" y2="769.818" fill="#fff" stroke="#39393a" stroke-linecap="round" stroke-linejoin="round" stroke-width="8"/>
  <line x1="1131.75" y1="789.373" x2="1174.5" y2="789.818" fill="#fff" stroke="#39393a" stroke-linecap="round" stroke-linejoin="round" stroke-width="8"/>
  <line x1="1131.75" y1="885.373" x2="1174.5" y2="885.818" fill="#fff" stroke="#39393a" stroke-linecap="round" stroke-linejoin="round" stroke-width="8"/>
  <line x1="1131.75" y1="905.373" x2="1174.5" y2="905.818" fill="#fff" stroke="#39393a" stroke-linecap="round" stroke-linejoin="round" stroke-width="8"/>
  <rect x="594.5" y="855.818" width="502.5" height="82" rx="12" fill="#fff" stroke="#39393a" stroke-miterlimit="10" stroke-width="8"/>
  <rect x="594.5" y="970.818" width="502.5" height="82" rx="12" fill="#fff" stroke="#39393a" stroke-miterlimit="10" stroke-width="8"/>
  <rect x="572.5" y="741.248" width="524.5" height="82" rx="12" fill="#fff" stroke="#39393a" stroke-miterlimit="10" stroke-width="8"/>
  <rect x="612.25" y="703.401" width="524.5" height="388.125" rx="12" fill="#e8e8e8"/>
  <circle cx="694.5" cy="780.818" r="24" fill="#ea1c0a" stroke="#ea1c0a" stroke-miterlimit="10" stroke-width="8"/>
  <circle cx="694.5" cy="896.248" r="24" fill="none" stroke="#fff" stroke-miterlimit="10" stroke-width="8"/>
  <circle cx="694.5" cy="1013.318" r="24" fill="none" stroke="#fff" stroke-miterlimit="10" stroke-width="8"/>
  <circle cx="1054.5" cy="780.818" r="24" fill="none" stroke="#fff" stroke-miterlimit="10" stroke-width="8"/>
  <circle cx="1054.5" cy="896.248" r="24" fill="none" stroke="#fff" stroke-miterlimit="10" stroke-width="8"/>
  <circle cx="1054.5" cy="1013.318" r="24" fill="#ea1c0a" stroke="#ea1c0a" stroke-miterlimit="10" stroke-width="8"/>
  <polyline points="1030.5 900.818 959.5 900.818 959.5 961.818 886.5 961.818 886.5 997.818 828.5 998.818 828.5 895.818 718.5 895.818" fill="none" stroke="#fff" stroke-miterlimit="10" stroke-width="8"/>
  <polyline points="718.5 1012.818 755.5 1012.818 755.5 841.818 874.5 841.818 874.5 881.818 912.5 881.818 912.5 780.818 1030.5 780.818" fill="none" stroke="#fff" stroke-miterlimit="10" stroke-width="8"/>
  <polyline points="718.5 780.818 796.5 780.818 796.5 951.818 862.5 951.818 862.5 1017.818 1030.5 1017.818" fill="none" stroke="#ea1c0a" stroke-miterlimit="10" stroke-width="8"/>
  <rect x="215" y="875.818" width="24.5" height="81" rx="12" fill="none" stroke="#39393a" stroke-miterlimit="10" stroke-width="8"/>
  <rect x="305" y="875.818" width="24.5" height="81" rx="12" fill="none" stroke="#39393a" stroke-miterlimit="10" stroke-width="8"/>
  <rect x="205" y="581.818" width="135" height="307" rx="55.039" fill="none" stroke="#39393a" stroke-miterlimit="10" stroke-width="8"/>
  <rect x="226.902" y="709.196" width="91" height="78.078" rx="21.34" fill="none" stroke="#39393a" stroke-miterlimit="10" stroke-width="8"/>
  <rect x="190" y="815.818" width="165" height="104" rx="12" fill="#fff" stroke="#39393a" stroke-miterlimit="10" stroke-width="8"/>
  <path d="M645.375,294.693h-379.5a12.035,12.035,0,0,0-12,12v162a12.035,12.035,0,0,0,12,12h379.5a12.035,12.035,0,0,0,12-12v-162A12.035,12.035,0,0,0,645.375,294.693ZM347.137,426.943a12.035,12.035,0,0,1-12,12H305a12.035,12.035,0,0,1-12-12v-78.5a12.035,12.035,0,0,1,12-12h30.137a12.035,12.035,0,0,1,12,12Zm86.411,0a12.035,12.035,0,0,1-12,12H391.411a12.035,12.035,0,0,1-12-12v-78.5a12.035,12.035,0,0,1,12-12h30.137a12.035,12.035,0,0,1,12,12Zm87.452,0a12.035,12.035,0,0,1-12,12H478.863a12.035,12.035,0,0,1-12-12v-78.5a12.035,12.035,0,0,1,12-12H509a12.035,12.035,0,0,1,12,12Z" fill="#e8e8e8"/>
  <line x1="249.5" y1="785.896" x2="249.5" y2="815.818" fill="none" stroke="#39393a" stroke-miterlimit="10" stroke-width="8"/>
  <line x1="296.5" y1="785.896" x2="296.5" y2="815.818" fill="none" stroke="#39393a" stroke-miterlimit="10" stroke-width="8"/>
  <path d="M648.4,545.408a11.875,11.875,0,0,1-4.833-1.1,11.614,11.614,0,0,1-6.443-13.65l31.03-112.423h-66.3a11.449,11.449,0,0,1-10.175-5.511,10.854,10.854,0,0,1,0-11.277L697.408,227.808a11.444,11.444,0,0,1,2.8-2.628,11.7,11.7,0,0,1,5.256-1.95h1.526a11.615,11.615,0,0,1,11.361,11.7v3.052L697.408,350.406h67.827a11.362,11.362,0,0,1,10.259,5.765,10.851,10.851,0,0,1-.764,11.191L657.983,540.321a11.7,11.7,0,0,1-9.58,5.087" fill="#fff" stroke="#fff" stroke-miterlimit="10" stroke-width="40"/>
  <path d="M648.4,545.408a11.875,11.875,0,0,1-4.833-1.1,11.614,11.614,0,0,1-6.443-13.65l31.03-112.423h-66.3a11.449,11.449,0,0,1-10.175-5.511,10.854,10.854,0,0,1,0-11.277L697.408,227.808a11.444,11.444,0,0,1,2.8-2.628,11.7,11.7,0,0,1,5.256-1.95h1.526a11.615,11.615,0,0,1,11.361,11.7v3.052L697.408,350.406h67.827a11.362,11.362,0,0,1,10.259,5.765,10.851,10.851,0,0,1-.764,11.191L657.983,540.321a11.7,11.7,0,0,1-9.58,5.087" fill="#ea1c0a"/>
  <path d="M267.45,771.03a1.672,1.672,0,0,1-.684-.156,1.644,1.644,0,0,1-.911-1.931l4.391-15.909h-9.382a1.619,1.619,0,0,1-1.44-.78,1.536,1.536,0,0,1,0-1.6l14.961-24.57a1.61,1.61,0,0,1,.4-.372,1.65,1.65,0,0,1,.744-.276h.215a1.644,1.644,0,0,1,1.608,1.656v.431l-2.963,15.909h9.6a1.607,1.607,0,0,1,1.451.816,1.534,1.534,0,0,1-.108,1.584l-16.52,24.474a1.654,1.654,0,0,1-1.356.72" fill="#ea1c0a"/>
  <line x1="1156.75" y1="769.818" x2="1156.5" y2="789.818" fill="#fff" stroke="#39393a" stroke-linecap="round" stroke-linejoin="round" stroke-width="8"/>
  <line x1="1156.75" y1="885.818" x2="1156.5" y2="905.818" fill="#fff" stroke="#39393a" stroke-linecap="round" stroke-linejoin="round" stroke-width="8"/>
  <path d="M392.345,402.365q2.007-4.77,9.473-10.1a69.552,69.552,0,0,0,8.387-6.644,9.819,9.819,0,0,0,2.928-6.842,7.579,7.579,0,0,0-1.678-5.032,5.909,5.909,0,0,0-4.8-2.007q-4.276,0-5.822,3.19a15.839,15.839,0,0,0-1.053,5.856h-9.11a23,23,0,0,1,2.2-9.835q3.754-7.137,13.335-7.138,7.573,0,12.052,4.193a14.5,14.5,0,0,1,4.477,11.1,15.005,15.005,0,0,1-3.164,9.407,31.465,31.465,0,0,1-6.821,6.085L409,397.266q-3.525,2.5-4.825,3.618a10.611,10.611,0,0,0-2.188,2.6H422.8v8.256H390.142A22.4,22.4,0,0,1,392.345,402.365Z" fill="#ea1c0a"/>
  <path d="M312.022,396.781a10.739,10.739,0,0,0,.919,4.736q1.705,3.454,6.2,3.453a6.866,6.866,0,0,0,4.807-1.89A7.04,7.04,0,0,0,326,397.635q0-4.7-3.8-6.282a19.25,19.25,0,0,0-6.82-.888v-6.71a17.621,17.621,0,0,0,6.359-.888q3.114-1.382,3.114-5.591a6.263,6.263,0,0,0-1.591-4.441,5.816,5.816,0,0,0-4.478-1.71,5.662,5.662,0,0,0-4.872,2.105,8.944,8.944,0,0,0-1.492,5.624h-8.749a23.517,23.517,0,0,1,1.215-6.742,15.156,15.156,0,0,1,3.614-5.164,12.605,12.605,0,0,1,4.37-2.567,18.926,18.926,0,0,1,6.21-.887q6.836,0,11.024,3.536a11.781,11.781,0,0,1,4.189,9.489,10.493,10.493,0,0,1-2.5,7.105,8.533,8.533,0,0,1-3.289,2.466q1.283,0,3.684,2.2a11.773,11.773,0,0,1,3.586,9.079,15.3,15.3,0,0,1-4.191,10.64q-4.19,4.589-12.4,4.589-10.121,0-14.064-6.611a19.648,19.648,0,0,1-2.3-9.21Z" fill="#ea1c0a"/>
  <rect x="293" y="336.443" width="54.137" height="102.5" rx="12" fill="none" stroke="#39393a" stroke-miterlimit="10" stroke-width="8"/>
  <rect x="379.411" y="336.443" width="54.137" height="102.5" rx="12" fill="none" stroke="#39393a" stroke-miterlimit="10" stroke-width="8"/>
  <rect x="466.863" y="336.443" width="54.137" height="102.5" rx="12" fill="none" stroke="#39393a" stroke-miterlimit="10" stroke-width="8"/>
  <path d="M479.312,521.818l.16,211.486a36.542,36.542,0,0,0,36.542,36.514H572.5" fill="none" stroke="#39393a" stroke-miterlimit="10" stroke-width="8"/>
  <path d="M573.5,794.818H516.014a36.542,36.542,0,0,0-36.542,36.514l-.16,61.486-1.587,156.965a39.261,39.261,0,0,1-39.261,39.035H307.492a34.993,34.993,0,0,1-34.992-34.992v-57.5" fill="none" stroke="#39393a" stroke-miterlimit="10" stroke-width="8"/>
  <path d="M317.5,956.818V984c0,4.849-5.4,8.816-12,8.816h-67c-6.6,0-12-3.967-12-8.816V957.553" fill="none" stroke="#39393a" stroke-miterlimit="10" stroke-width="8"/>
  <rect x="920.792" y="254.818" width="80" height="51" rx="8.453" fill="#fff" stroke="#39393a" stroke-miterlimit="10" stroke-width="8"/>
  <path d="M890.292,288.818h141a12,12,0,0,1,12,12V577.462a46.355,46.355,0,0,1-46.355,46.355H927.542a49.25,49.25,0,0,1-49.25-49.25V300.818A12,12,0,0,1,890.292,288.818Z" fill="#fff" stroke="#39393a" stroke-miterlimit="10" stroke-width="8"/>
  <rect x="898.292" y="314.818" width="125" height="51" rx="8.453" fill="#fff" stroke="#39393a" stroke-miterlimit="10" stroke-width="8"/>
  <rect x="898.292" y="385.818" width="125" height="51" rx="8.453" fill="#ea1c0a"/>
  <rect x="898.292" y="456.818" width="125" height="51" rx="8.453" fill="#ea1c0a"/>
  <rect x="898.292" y="527.818" width="125" height="51" rx="8.453" fill="#ea1c0a"/>
</svg>
