<svg id="Layer_1" data-name="Layer 1" xmlns="http://www.w3.org/2000/svg" viewBox="0 0 1390 1390">
  <rect x="767.982" y="508.248" width="19" height="75" rx="9.5" transform="translate(648.223 1486.817) rotate(-117.246)" fill="#39393a"/>
  <rect x="765.08" y="418.579" width="344" height="89.969" rx="12" transform="translate(953.952 1508.899) rotate(-117.246)" fill="#fff"/>
  <rect x="980.14" y="518.86" width="17.158" height="89.969" transform="translate(940.077 1700.998) rotate(-117.246)" fill="#fff"/>
  <rect x="765.08" y="418.579" width="344" height="89.969" rx="12" transform="translate(953.952 1508.899) rotate(-117.246)" fill="none" stroke="#39393a" stroke-miterlimit="10" stroke-width="10"/>
  <path d="M1001.422,685.413c0,108.982-67.895,202.106-163.7,239.38" fill="none" stroke="#39393a" stroke-linecap="round" stroke-linejoin="round" stroke-width="10"/>
  <path d="M997.9,382.925l40.15,77.97c2.76,5.361.218,12.219-5.65,15.24l-142.248,73.25c-5.868,3.021-12.927,1.108-15.687-4.253l-46.747-25.25,6.6-52.72c-2.761-5.36-.218-12.218,5.65-15.24l142.248-73.249C988.075,375.651,995.135,377.565,997.9,382.925Z" fill="#fff"/>
  <path d="M997.9,382.925l40.15,77.97c2.76,5.361.218,12.219-5.65,15.24l-142.248,73.25c-5.868,3.021-62.434-29.5-62.434-29.5s6.379-64.938,12.247-67.96l142.248-73.249C988.075,375.651,995.135,377.565,997.9,382.925Z" fill="none" stroke="#39393a" stroke-miterlimit="10" stroke-width="10"/>
  <path d="M745.555,493.576A61,61,0,0,1,801.407,602.04Z" fill="#ea1c0a" stroke="#ea1c0a" stroke-miterlimit="10"/>
  <path d="M752.353,787.413,715.14,773.605a38.124,38.124,0,0,1-22.653-18.885l-24.61-47.42a37.838,37.838,0,0,1-.036-34.792l38.512-80.1S777.353,672.413,752.353,787.413Z" fill="#26a5b4"/>
  <path d="M389.874,954.371l37.095-69.654a31.668,31.668,0,0,0,.067-29.644l-18.773-35.64a31.667,31.667,0,0,1,5.787-37.311l23.4-23.066a31.668,31.668,0,0,0,4.32-39.811l-15.55-23.923a31.667,31.667,0,0,0-26.552-14.409H348.154a31.668,31.668,0,0,1-27.438-15.856l-24.863-43.144s57.5-124.5,215.5-127.5l36.825,74.169a23.056,23.056,0,0,1-5.792,28.407L487.767,642.3a30.276,30.276,0,0,0-7.074,38.11L561.071,820.08a28.006,28.006,0,0,1-4.448,33.327L438.353,975.413S399.353,961.413,389.874,954.371Z" fill="#26a5b4"/>
  <circle cx="511.353" cy="740.413" r="246" fill="none" stroke="#39393a" stroke-miterlimit="10" stroke-width="10"/>
</svg>
