<svg id="background-colors" xmlns="http://www.w3.org/2000/svg" viewBox="0 0 1224 1224"><rect width="1224" height="1224" fill="#1ea2b1"/><path d="M102.672,70.869v7.749H91.885v34.16h-9.61V78.618H71.488V70.869Z" fill="#fff"/><path d="M106.58,70h8.8V86.988a10.617,10.617,0,0,1,8.121-3.1c6.075,0,9.548,3.968,9.548,11.408v17.482h-8.8V96.349c0-2.914-1.24-4.4-4.464-4.4a9.031,9.031,0,0,0-4.4,1.487v19.343h-8.8Z" fill="#fff"/><path d="M158.534,103.665l4.03,5.641a15.382,15.382,0,0,1-10.6,4.155c-10.044,0-14.445-6.2-14.445-14.818,0-7.874,4.649-14.755,13.453-14.755,9.051,0,12.275,6.324,12.275,12.461a24.9,24.9,0,0,1-.5,5.146H146.383c.186,2.914,2.17,4.588,5.58,4.588A11.179,11.179,0,0,0,158.534,103.665Zm-3.409-8.308a4.23,4.23,0,0,0,.062-.744c0-2.852-2.232-3.781-4.216-3.781-2.976,0-4.4,2.046-4.588,4.525Z" fill="#fff"/><path d="M196.353,111.043c-1.117,1.115-2.791,2.418-6.448,2.418-7.75,0-11.779-5.332-11.779-14.694,0-8.928,4.339-14.879,11.779-14.879,4.4,0,6.944,1.55,8.369,2.852l2.79-2.233h4.092V126.17h-8.8ZM192.2,105.4a7.431,7.431,0,0,0,4.155-1.116V93.559a6.448,6.448,0,0,0-4.155-1.611c-4.153,0-5.145,2.975-5.145,6.819S188.169,105.4,192.2,105.4Z" fill="#fff"/><path d="M237.209,112.778h-8.494v-3.161c-1.363,2.046-3.781,3.781-8.432,3.781-6.075,0-9.547-3.968-9.547-11.407V84.507h8.8v16.43c0,2.914,1.239,4.4,4.463,4.4a9.045,9.045,0,0,0,4.4-1.487V84.507h8.8Z" fill="#fff"/><path d="M242.294,75.085c0-3.411,2.17-4.96,5.084-4.96a4.721,4.721,0,0,1,5.021,4.96c0,3.533-2.479,4.836-5.021,4.836C244.464,79.921,242.294,78.618,242.294,75.085Zm.806,9.422h8.8v28.271h-8.8Z" fill="#fff"/><path d="M270.007,83.888c5.393,0,9.733,2.169,11.779,6.572L275.711,94.8c-1.054-1.8-2.542-3.223-4.96-3.223-3.72,0-5.146,2.975-5.146,7.067s1.426,7.13,5.146,7.13c2.418,0,3.968-1.488,5.021-3.286l6.014,4.4c-2.046,4.4-6.386,6.573-11.779,6.573-9.61,0-13.329-7.006-13.329-14.818S260.4,83.888,270.007,83.888Z" fill="#fff"/><path d="M304.044,112.778,297.6,101l-3.224,3.162v8.617h-8.8V70h8.8V93.993l9.175-9.486h10.6L303.61,94.861l10.106,17.917Z" fill="#fff"/><path d="M336.223,86.305c1.115-1.115,2.851-2.417,6.632-2.417,7.874,0,11.966,5.331,11.966,14.693,0,8.927-4.4,14.88-11.966,14.88-4.525,0-7.128-1.551-8.554-2.853l-2.79,2.17h-4.092V70h8.8Zm4.339,5.643a7.843,7.843,0,0,0-4.339,1.115v10.726a6.7,6.7,0,0,0,4.339,1.612c4.278,0,5.332-2.977,5.332-6.82S344.716,91.948,340.562,91.948Z" fill="#fff"/><path d="M368.09,88.91c1.364-2.481,3.472-5.022,7.378-5.022a12.179,12.179,0,0,1,3.1.371l-.557,9.3a21.2,21.2,0,0,0-4.9-.62,5.437,5.437,0,0,0-4.711,2.418v17.421h-8.8V84.507h8.431v4.4Z" fill="#fff"/><path d="M408.14,98.581c0,8.679-4.4,14.88-13.826,14.88-8.927,0-13.453-6.325-13.453-14.694,0-8.742,4.278-14.879,13.764-14.879C403.614,83.888,408.14,90.025,408.14,98.581Zm-8.928.186c0-4.9-1.611-7.006-4.835-7.006-3.038,0-4.588,2.109-4.588,6.82,0,4.96,1.611,7.006,4.712,7.006S399.212,103.355,399.212,98.767Z" fill="#fff"/><path d="M437.4,84.507l5.395,19.1,5.083-19.1h8.99l-8.432,28.271h-9.547l-5.58-17.11-5.58,17.11h-9.547l-8.432-28.271h8.928l5.145,19.1,5.394-19.1Z" fill="#fff"/><path d="M460.22,84.507h8.493V87.67c1.364-2.046,3.782-3.782,8.432-3.782,6.075,0,9.547,3.968,9.547,11.408v17.482h-8.8V96.349c0-2.914-1.241-4.4-4.464-4.4a9.038,9.038,0,0,0-4.4,1.487v19.343h-8.8Z" fill="#fff"/><path d="M520.606,77.44h-3.782c-2.046,0-2.666,1.116-2.666,3.1v3.967h6.821v7.441h-6.821v20.83h-8.8V91.948h-4.278v-6.82l4.278-.621V80.478c0-7.067,3.782-10.477,10.912-10.477h4.339Z" fill="#fff"/><path d="M550.552,98.581c0,8.679-4.4,14.88-13.825,14.88-8.928,0-13.454-6.325-13.454-14.694,0-8.742,4.278-14.879,13.764-14.879C546.026,83.888,550.552,90.025,550.552,98.581Zm-8.928.186c0-4.9-1.611-7.006-4.835-7.006-3.038,0-4.588,2.109-4.588,6.82,0,4.96,1.611,7.006,4.712,7.006S541.624,103.355,541.624,98.767Z" fill="#fff"/><path d="M581.18,112.778H571.136l-4.835-8.369-4.96,8.369H551.3l9.424-14.2L551.3,84.507h10.044l4.9,8.371,4.9-8.371H581.18l-9.362,14.136Z" fill="#fff"/><path d="M590.976,121.334c3.223-2.542,4.9-5.084,4.9-7.873V84.507h8.866v27.032a17.325,17.325,0,0,1-8.37,15.251Zm4.153-46.249c0-3.411,2.232-4.96,5.146-4.96a4.722,4.722,0,0,1,5.022,4.96c0,3.533-2.48,4.836-5.022,4.836C597.361,79.921,595.129,78.618,595.129,75.085Z" fill="#fff"/><path d="M636.854,112.778H628.36v-3.161c-1.363,2.046-3.781,3.781-8.431,3.781-6.075,0-9.547-3.968-9.547-11.407V84.507h8.8v16.43c0,2.914,1.239,4.4,4.462,4.4a9.049,9.049,0,0,0,4.4-1.487V84.507h8.8Z" fill="#fff"/><path d="M642.684,84.507h8.493V87.67a9.205,9.205,0,0,1,7.687-3.782c4.527,0,6.758,1.8,8.432,4.092,1.364-1.8,4.525-4.092,9.857-4.092,7.13,0,10.106,3.72,10.106,10.6v18.289h-8.865V95.3c0-2.046-1.054-3.348-4.031-3.348a8.5,8.5,0,0,0-4.9,1.487v19.343h-8.8v-18.6a5.013,5.013,0,0,0-4.464-2.231,8.515,8.515,0,0,0-4.711,1.487v19.343h-8.8Z" fill="#fff"/><path d="M701.645,126.17h-8.8V84.507h8.369v2.17a11.224,11.224,0,0,1,7.687-2.789c7.254,0,11.656,5.27,11.656,14.879,0,9.362-4.278,14.694-11.717,14.694a11.072,11.072,0,0,1-7.191-2.418Zm4.586-34.222a8.489,8.489,0,0,0-4.586,1.178v11.159a9.17,9.17,0,0,0,4.586,1.116c4.092,0,5.395-2.79,5.395-6.634S710.386,91.948,706.231,91.948Z" fill="#fff"/><path d="M742.936,93.25a9.5,9.5,0,0,0-6.634-2.914c-1.984,0-3.038.868-3.038,1.983,0,1.055.744,1.86,2.108,2.17l4.712,1.055c5.827,1.3,8.121,4.525,8.121,8.617,0,4.34-2.79,9.3-12.709,9.3-6.138,0-10.044-2.542-11.9-4.775l4.9-5.207a10.544,10.544,0,0,0,7.378,3.6c1.984,0,3.409-.683,3.409-2.046,0-.868-.557-1.736-2.17-2.108l-4.835-1.178c-5.146-1.24-7.75-4.216-7.75-8.493,0-4.155,3.1-9.362,12.152-9.362,5.827,0,9.052,2.169,10.973,4.215Z" fill="#fff"/><path d="M790.054,98.581c0,8.679-4.4,14.88-13.825,14.88-8.928,0-13.454-6.325-13.454-14.694,0-8.742,4.278-14.879,13.764-14.879C785.528,83.888,790.054,90.025,790.054,98.581Zm-8.928.186c0-4.9-1.611-7.006-4.835-7.006-3.038,0-4.588,2.109-4.588,6.82,0,4.96,1.611,7.006,4.712,7.006S781.126,103.355,781.126,98.767Z" fill="#fff"/><path d="M821.922,84.507l-9.982,28.271h-10.6L791.171,84.507H800.6l6.013,19.715,5.953-19.715Z" fill="#fff"/><path d="M844.181,103.665l4.03,5.641a15.386,15.386,0,0,1-10.6,4.155c-10.044,0-14.445-6.2-14.445-14.818,0-7.874,4.649-14.755,13.453-14.755,9.052,0,12.276,6.324,12.276,12.461a24.894,24.894,0,0,1-.5,5.146H832.029c.187,2.914,2.17,4.588,5.58,4.588A11.182,11.182,0,0,0,844.181,103.665Zm-3.41-8.308a4.23,4.23,0,0,0,.062-.744c0-2.852-2.231-3.781-4.216-3.781-2.975,0-4.4,2.046-4.588,4.525Z" fill="#fff"/><path d="M862.036,88.91c1.364-2.481,3.472-5.022,7.378-5.022a12.192,12.192,0,0,1,3.1.371l-.558,9.3a21.193,21.193,0,0,0-4.9-.62,5.434,5.434,0,0,0-4.711,2.418v17.421h-8.8V84.507h8.432v4.4Z" fill="#fff"/><path d="M902.147,112.778v-3.161a11,11,0,0,1-8.741,3.844c-4.836,0-8.246-3.225-8.246-8.371,0-6.385,5.456-9.174,14.073-9.67l2.294-.124v-1.3c0-1.86-.805-3.285-3.906-3.285-2.417,0-3.6,1.053-3.6,2.294v.868h-7.563c-.062-.559-.124-1.365-.124-1.861,0-4.9,4.712-8.121,11.9-8.121,7.006,0,12.09,2.852,12.09,10.1v18.785Zm-5.208-5.89a7.18,7.18,0,0,0,4.588-1.859v-4.588l-2.294.31c-3.471.5-5.145,1.736-5.145,3.719C894.088,106.144,895.266,106.888,896.939,106.888Z" fill="#fff"/><path d="M935.812,70v32.982c0,1.55.558,2.046,2.233,2.046h1.239v8.121h-4.34c-6.137,0-7.935-3.968-7.935-8.741V70Z" fill="#fff"/><path d="M959.186,112.778v-3.161a11,11,0,0,1-8.742,3.844c-4.836,0-8.246-3.225-8.246-8.371,0-6.385,5.456-9.174,14.073-9.67l2.294-.124v-1.3c0-1.86-.805-3.285-3.906-3.285-2.417,0-3.6,1.053-3.6,2.294v.868H943.5c-.062-.559-.124-1.365-.124-1.861,0-4.9,4.712-8.121,11.9-8.121,7.006,0,12.09,2.852,12.09,10.1v18.785Zm-5.208-5.89a7.18,7.18,0,0,0,4.587-1.859v-4.588l-2.294.31c-3.471.5-5.145,1.736-5.145,3.719C951.126,106.144,952.3,106.888,953.978,106.888Z" fill="#fff"/><path d="M994.091,90.088l-11.1,15.25h10.974v7.44H971.958V107.2l11.283-15.251H972.454V84.507h21.637Z" fill="#fff"/><path d="M1011.823,101.805l5.518-17.3h9.424l-16.244,41.663h-8.865l5.89-14.322-11.47-27.341h9.858Z" fill="#fff"/><path d="M1057.33,70h8.8v42.777h-8.37v-2.107a11.011,11.011,0,0,1-7.564,2.79c-7.191,0-11.531-5.271-11.531-14.88,0-9.362,4.216-14.693,11.594-14.693a10.822,10.822,0,0,1,7.067,2.417Zm-4.464,35.4a8.19,8.19,0,0,0,4.464-1.179V93.063a8.827,8.827,0,0,0-4.464-1.115c-3.968,0-5.269,2.789-5.269,6.633S1048.836,105.4,1052.866,105.4Z" fill="#fff"/><path d="M1098.125,98.581c0,8.679-4.4,14.88-13.825,14.88-8.928,0-13.453-6.325-13.453-14.694,0-8.742,4.277-14.879,13.763-14.879C1093.6,83.888,1098.125,90.025,1098.125,98.581Zm-8.928.186c0-4.9-1.611-7.006-4.835-7.006-3.038,0-4.588,2.109-4.588,6.82,0,4.96,1.612,7.006,4.712,7.006S1089.2,103.355,1089.2,98.767Z" fill="#fff"/><path d="M1129.248,84.507v29.759c0,6.82-5.021,11.407-13.329,11.407-8,0-12.027-3.906-12.027-9.733h7.5c0,1.426,1.425,2.914,4.525,2.914,2.976,0,4.525-1.364,4.525-3.968v-4.154a10.259,10.259,0,0,1-6.632,2.729c-7.565,0-11.966-4.96-11.966-14.88,0-9.671,4.464-14.693,11.9-14.693A10.136,10.136,0,0,1,1121,86.553V84.507ZM1115.98,105.4a8.788,8.788,0,0,0,4.464-1.179V92.939a9.228,9.228,0,0,0-4.464-.991c-4.091,0-5.269,2.789-5.269,6.633S1111.827,105.4,1115.98,105.4Z" fill="#fff"/><path d="M1134.147,107.571a5.931,5.931,0,1,1,6.013,5.579C1136.627,113.15,1134.147,110.732,1134.147,107.571Z" fill="#fff"/><path d="M96.473,178.436H82.337l-2.6,8.741H69.566l14.383-41.909H94.86l14.446,41.909H99.139Zm-11.78-7.75h9.486l-4.712-15.623Z" fill="#fff"/><path d="M112.531,145.268h15.127c10.54,0,14.321,4.588,14.321,11.221a8.376,8.376,0,0,1-5.7,8.494,10.109,10.109,0,0,1,7.873,10.167c0,8.99-6.509,12.027-16.428,12.027h-15.19ZM126.6,161.7c4.154,0,5.518-1.611,5.518-4.34,0-2.542-1.364-4.34-5.579-4.34h-4.4v8.68Zm1.054,17.731c4.96,0,6.572-1.922,6.572-5.022,0-2.976-1.612-4.959-6.572-4.959h-5.517v9.981Z" fill="#fff"/><path d="M167.214,179.738c3.472,0,5.828-2.418,7.191-4.836l7.254,4.588c-2.851,4.96-7.439,8.307-14.817,8.307-12.4,0-18.785-7.935-18.785-21.574,0-13.7,6.385-21.575,18.785-21.575,7.378,0,11.966,3.348,14.817,8.308l-7.254,4.588c-1.363-2.418-3.719-4.836-7.191-4.836-6.2,0-9.237,4.649-9.237,13.577C157.977,175.026,161.015,179.738,167.214,179.738Z" fill="#fff"/><path d="M186.373,145.268H200.2c14.322,0,21.079,6.51,21.079,20.955s-6.757,20.954-21.079,20.954H186.373Zm13.205,34.16c8.68,0,11.779-3.162,11.779-13.2,0-9.734-3.1-13.206-11.779-13.206h-3.6v26.411Z" fill="#fff"/><path d="M255.314,179.428v7.749H227.106V145.268h28.023v7.749H236.716v9.363h15.623v7.749H236.716v9.3Z" fill="#fff"/><path d="M261.082,145.268h26.782v7.749H270.691v10.416h14.322v7.749H270.691v16h-9.609Z" fill="#fff"/><path d="M310.309,164.115h17.483c.186,1.674.372,3.782.372,4.588,0,10.229-5.393,19.094-17.669,19.094-11.9,0-19.22-6.943-19.22-21.636,0-15.127,7.626-21.513,20.087-21.513,6.449,0,11.9,3.038,14.322,7.936l-7.129,4.587a8.412,8.412,0,0,0-7.626-4.463c-6.262,0-9.734,3.843-9.734,13.453,0,10.477,3.286,13.577,9.3,13.577,5.394,0,7.936-3.533,7.936-7.873h-8.122Z" fill="#fff"/><path d="M358.854,145.268H368.4v41.909h-9.547V169.508H342.921v17.669h-9.609V145.268h9.609v16.491h15.933Z" fill="#fff"/><path d="M375.843,145.268h9.609v41.909h-9.609Z" fill="#fff"/><path d="M396.427,176.266a5.012,5.012,0,0,0,4.959,3.472c3.6,0,5.146-2.046,5.146-6.819V145.268h9.051v28.4c0,8.926-5.145,14.134-14.2,14.134-6.075,0-9.919-3.1-11.717-7.253Z" fill="#fff"/><path d="M432.386,174.406v12.771h-9.61V145.268h9.61V162.38l14.2-17.112h11.222l-14.384,17.3,14.321,24.612H446.77l-9.8-17.793Z" fill="#fff"/><path d="M486.944,179.428v7.749H461.4V145.268h9.61v34.16Z" fill="#fff"/><path d="M521.911,145.268H534.5l3.968,41.909H529.6l-2.356-30.811-8,30.811H508.83L501.515,156.8,498.6,187.177H489.61l4.651-41.909H506.97l7.254,30.317Z" fill="#fff"/><path d="M569.465,145.268h9.548v41.909h-9.734l-15.313-26.658.062,26.658h-9.733l.061-41.909h10.106l15,26.162Z" fill="#fff"/><path d="M603.068,187.8c-13.391,0-18.227-9.361-18.227-21.512,0-12.213,4.712-21.637,18.351-21.637,13.454,0,18.165,9.424,18.165,21.637C621.357,178.436,616.336,187.8,603.068,187.8Zm0-8.059c6.7,0,8.432-5.518,8.432-13.453,0-8.06-1.8-13.577-8.308-13.577-6.572,0-8.431,5.517-8.431,13.577C594.761,174.22,596.187,179.738,603.068,179.738Z" fill="#fff"/><path d="M636.8,172.484v14.693h-9.609V145.268H642.5c9.919,0,15.561,4.712,15.561,13.639,0,8.866-5.642,13.577-15.561,13.577Zm0-7.749h4.96c4.712,0,6.386-2.232,6.386-5.828,0-3.533-1.674-5.89-6.386-5.89H636.8Z" fill="#fff"/><path d="M696.005,178.5l4.092,3.658-5.084,5.7-3.72-3.41A18.236,18.236,0,0,1,680.01,187.8c-13.392,0-18.228-9.361-18.228-21.512,0-12.213,4.712-21.637,18.352-21.637,13.453,0,18.165,9.424,18.165,21.637A30.019,30.019,0,0,1,696.005,178.5Zm-16,1.24a8.063,8.063,0,0,0,4.773-1.364l-8.741-8.121,4.836-5.394,7.191,6.51a32.077,32.077,0,0,0,.372-5.084c0-8.06-1.8-13.577-8.307-13.577-6.572,0-8.432,5.517-8.432,13.577C671.7,174.22,673.128,179.738,680.01,179.738Z" fill="#fff"/><path d="M704.128,145.268h16.491c10.106,0,15.5,4.836,15.5,12.709,0,5.518-3.162,10.044-9.176,11.9l9.858,17.3H726.137L717.4,170.81h-3.659l.063,16.367h-9.672Zm15.437,7.749h-5.828v10.044h5.828c5.27,0,6.633-1.86,6.633-5.084C726.2,155,724.835,153.017,719.565,153.017Z" fill="#fff"/><path d="M763.15,156.179a8.629,8.629,0,0,0-7.439-3.471c-3.1,0-4.9,1.8-4.9,4.339,0,1.922.869,3.41,3.534,4.278l5.146,1.612c8.121,2.542,10.353,6.819,10.353,11.779,0,8.618-6.82,13.144-15.437,13.144-9.176,0-13.577-4.278-15.375-7.564l6.386-5.456c1.611,2.79,3.781,4.96,8.989,4.96,3.472,0,5.518-1.673,5.518-4.278,0-2.046-1.054-3.409-3.906-4.34l-5.083-1.611c-7.875-2.481-10.044-6.882-10.044-11.9,0-6.634,3.967-13.02,14.817-13.02,7.5,0,11.47,2.976,13.825,6.262Z" fill="#fff"/><path d="M804.38,145.268v7.749H793.593v34.16h-9.61v-34.16H773.2v-7.749Z" fill="#fff"/><path d="M809.218,171V145.268h9.609v25.418c0,5.89,1.861,9.052,6.944,9.052s6.881-3.162,6.881-9.052V145.268h9.61V171c0,11.655-6.757,16.8-16.491,16.8C815.913,187.8,809.218,182.652,809.218,171Z" fill="#fff"/><path d="M883.429,145.268,870.6,187.177H858.32l-12.709-41.909h9.919l8.991,32.114,8.865-32.114Z" fill="#fff"/><path d="M918.831,145.268l7.626,31.308,6.819-31.308h9.8l-10.352,41.909H921l-7.563-28.952-7.626,28.952H894.156l-10.415-41.909h9.795l6.882,31.308,7.563-31.308Z" fill="#fff"/><path d="M954.421,145.268l7.687,14.2,7.749-14.2h10.664L968.432,165.6l12.275,21.574H969.981l-7.873-14.755L954.3,187.177H943.571L955.847,165.6l-12.09-20.335Z" fill="#fff"/><path d="M994.6,187.177V171.121l-14.074-25.853H991l8.494,17.3,8.245-17.3h10.54l-14.073,25.853v16.056Z" fill="#fff"/><path d="M1048.039,152.088l-17.111,27.34h17.855v7.749h-29.076v-6.633l17.234-27.527h-16.428v-7.749h27.526Z" fill="#fff"/><path d="M88.537,261.577v-3.162a11,11,0,0,1-8.741,3.843c-4.836,0-8.246-3.223-8.246-8.369,0-6.385,5.456-9.176,14.073-9.672l2.294-.124v-1.3c0-1.86-.806-3.286-3.906-3.286-2.417,0-3.6,1.054-3.6,2.293v.869H72.852c-.062-.558-.124-1.364-.124-1.86,0-4.9,4.711-8.122,11.9-8.122,7.006,0,12.09,2.853,12.09,10.106v18.785Zm-5.208-5.89a7.178,7.178,0,0,0,4.588-1.86V249.24l-2.294.309c-3.472.5-5.145,1.737-5.145,3.72C80.478,254.943,81.655,255.687,83.329,255.687Z" fill="#fff"/><path d="M111.105,235.1c1.116-1.116,2.852-2.418,6.633-2.418,7.874,0,11.966,5.332,11.966,14.694,0,8.927-4.4,14.878-11.966,14.878-4.525,0-7.129-1.549-8.554-2.851l-2.79,2.17H102.3V218.8h8.8Zm4.339,5.642a7.835,7.835,0,0,0-4.339,1.116v10.726a6.7,6.7,0,0,0,4.339,1.611c4.279,0,5.332-2.976,5.332-6.819S119.6,240.746,115.444,240.746Z" fill="#fff"/><path d="M146.692,232.686c5.394,0,9.734,2.17,11.78,6.572L152.4,243.6c-1.053-1.8-2.542-3.224-4.959-3.224-3.72,0-5.146,2.976-5.146,7.068s1.426,7.129,5.146,7.129c2.417,0,3.967-1.487,5.021-3.285l6.014,4.4c-2.046,4.4-6.386,6.571-11.78,6.571-9.609,0-13.329-7-13.329-14.816S137.083,232.686,146.692,232.686Z" fill="#fff"/><path d="M179.924,218.8h8.8v42.778h-8.371v-2.108a11,11,0,0,1-7.563,2.789c-7.191,0-11.531-5.269-11.531-14.878,0-9.362,4.216-14.694,11.593-14.694a10.817,10.817,0,0,1,7.068,2.418Zm-4.464,35.4a8.191,8.191,0,0,0,4.464-1.178V241.862a8.826,8.826,0,0,0-4.464-1.116c-3.968,0-5.27,2.79-5.27,6.634S171.43,254.2,175.46,254.2Z" fill="#fff"/><path d="M214.457,252.463l4.03,5.642a15.385,15.385,0,0,1-10.6,4.153c-10.044,0-14.446-6.2-14.446-14.816,0-7.874,4.65-14.756,13.454-14.756,9.051,0,12.275,6.324,12.275,12.462a24.969,24.969,0,0,1-.5,5.146H202.306c.186,2.914,2.17,4.587,5.58,4.587A11.173,11.173,0,0,0,214.457,252.463Zm-3.409-8.307a4.3,4.3,0,0,0,.061-.744c0-2.852-2.231-3.782-4.215-3.782-2.976,0-4.4,2.046-4.588,4.526Z" fill="#fff"/><path d="M241.488,226.239h-3.782c-2.046,0-2.666,1.116-2.666,3.1v3.968h6.82v7.44h-6.82v20.831h-8.8V240.746h-4.278v-6.82l4.278-.62v-4.029c0-7.068,3.782-10.478,10.911-10.478h4.34Z" fill="#fff"/><path d="M271.682,233.306v29.759c0,6.819-5.022,11.407-13.329,11.407-8,0-12.028-3.906-12.028-9.733h7.5c0,1.426,1.426,2.913,4.526,2.913,2.975,0,4.525-1.363,4.525-3.968v-4.153a10.257,10.257,0,0,1-6.633,2.727c-7.564,0-11.966-4.959-11.966-14.878,0-9.671,4.464-14.694,11.9-14.694a10.132,10.132,0,0,1,7.254,2.666v-2.046ZM258.414,254.2a8.8,8.8,0,0,0,4.464-1.178V241.738a9.225,9.225,0,0,0-4.464-.992c-4.092,0-5.269,2.79-5.269,6.634S254.261,254.2,258.414,254.2Z" fill="#fff"/><path d="M277.511,218.8h8.8v16.987a10.62,10.62,0,0,1,8.122-3.1c6.075,0,9.547,3.968,9.547,11.407v17.484h-8.8V245.148c0-2.914-1.241-4.4-4.464-4.4a9.038,9.038,0,0,0-4.4,1.488v19.343h-8.8Z" fill="#fff"/><path d="M308.82,223.883c0-3.41,2.17-4.96,5.084-4.96a4.722,4.722,0,0,1,5.022,4.96c0,3.534-2.48,4.835-5.022,4.835C310.99,228.718,308.82,227.417,308.82,223.883Zm.806,9.423h8.8v28.271h-8.8Z" fill="#fff"/><path d="M319.484,270.132c3.224-2.542,4.9-5.084,4.9-7.874V233.306h8.866v27.031a17.324,17.324,0,0,1-8.37,15.251Zm4.154-46.249c0-3.41,2.232-4.96,5.146-4.96a4.723,4.723,0,0,1,5.022,4.96c0,3.534-2.481,4.835-5.022,4.835C325.87,228.718,323.638,227.417,323.638,223.883Z" fill="#fff"/><path d="M357.613,261.577l-6.447-11.78-3.224,3.163v8.617h-8.8V218.8h8.8v23.993l9.175-9.486h10.6L357.18,243.66l10.105,17.917Z" fill="#fff"/><path d="M378.941,218.8v32.982c0,1.551.558,2.046,2.233,2.046h1.239v8.122h-4.34c-6.137,0-7.935-3.968-7.935-8.741V218.8Z" fill="#fff"/><path d="M386.691,233.306h8.494v3.162a9.205,9.205,0,0,1,7.687-3.782c4.526,0,6.758,1.8,8.432,4.092,1.364-1.8,4.525-4.092,9.857-4.092,7.13,0,10.106,3.72,10.106,10.6v18.289H422.4V244.093c0-2.046-1.053-3.347-4.03-3.347a8.5,8.5,0,0,0-4.9,1.488v19.343h-8.8v-18.6a5.01,5.01,0,0,0-4.464-2.232,8.508,8.508,0,0,0-4.711,1.488v19.343h-8.8Z" fill="#fff"/><path d="M436.849,233.306h8.493v3.162c1.364-2.046,3.782-3.782,8.431-3.782,6.076,0,9.548,3.968,9.548,11.407v17.484h-8.8V245.148c0-2.914-1.241-4.4-4.464-4.4a9.038,9.038,0,0,0-4.4,1.488v19.343h-8.8Z" fill="#fff"/><path d="M495.064,247.38c0,8.679-4.4,14.878-13.825,14.878-8.927,0-13.453-6.323-13.453-14.692,0-8.742,4.277-14.88,13.764-14.88C490.539,232.686,495.064,238.824,495.064,247.38Zm-8.927.186c0-4.9-1.612-7.006-4.835-7.006-3.038,0-4.588,2.108-4.588,6.82,0,4.959,1.611,7,4.712,7S486.137,252.153,486.137,247.566Z" fill="#fff"/><path d="M508.581,274.968h-8.8V233.306h8.369v2.17a11.225,11.225,0,0,1,7.688-2.79c7.254,0,11.655,5.27,11.655,14.88,0,9.361-4.277,14.692-11.717,14.692a11.065,11.065,0,0,1-7.191-2.418Zm4.587-34.222a8.512,8.512,0,0,0-4.587,1.177v11.161a9.175,9.175,0,0,0,4.587,1.115c4.092,0,5.394-2.789,5.394-6.633S517.322,240.746,513.168,240.746Z" fill="#fff"/><path d="M549.5,259.84c-1.116,1.117-2.79,2.418-6.447,2.418-7.75,0-11.78-5.331-11.78-14.692,0-8.928,4.339-14.88,11.78-14.88,4.4,0,6.943,1.55,8.369,2.853l2.79-2.233H558.3v41.662h-8.8Zm-4.154-5.641a7.428,7.428,0,0,0,4.154-1.115V242.358a6.448,6.448,0,0,0-4.154-1.612c-4.154,0-5.146,2.975-5.146,6.82S541.316,254.2,545.346,254.2Z" fill="#fff"/><path d="M572.625,237.709c1.364-2.481,3.472-5.023,7.378-5.023a12.146,12.146,0,0,1,3.1.372l-.558,9.3a21.2,21.2,0,0,0-4.9-.62,5.431,5.431,0,0,0-4.71,2.418v17.421h-8.8V233.306h8.431v4.4Z" fill="#fff"/><path d="M604.307,242.047a9.509,9.509,0,0,0-6.634-2.913c-1.984,0-3.038.868-3.038,1.984,0,1.053.744,1.86,2.108,2.17l4.712,1.053c5.827,1.3,8.121,4.527,8.121,8.619,0,4.339-2.79,9.3-12.709,9.3-6.138,0-10.044-2.542-11.9-4.773l4.9-5.208a10.54,10.54,0,0,0,7.378,3.6c1.984,0,3.409-.682,3.409-2.046,0-.867-.557-1.736-2.169-2.108l-4.835-1.177c-5.147-1.241-7.75-4.216-7.75-8.5,0-4.153,3.1-9.361,12.151-9.361,5.827,0,9.052,2.17,10.974,4.216Z" fill="#fff"/><path d="M625.759,251.719c0,1.861,1.116,2.48,2.79,2.48a18.681,18.681,0,0,0,3.037-.31v7.626a25.986,25.986,0,0,1-6.138.743c-6.2,0-8.493-4.029-8.493-9.237V240.684h-5.021v-6.758l5.021-.62v-6.758l8.8-1.3v8.059h5.7v7.378h-5.7Z" fill="#fff"/><path d="M662.4,261.577h-8.494v-3.162c-1.363,2.046-3.781,3.782-8.431,3.782-6.076,0-9.547-3.968-9.547-11.407V233.306h8.8v16.429c0,2.914,1.24,4.4,4.463,4.4a9.039,9.039,0,0,0,4.4-1.488V233.306h8.8Z" fill="#fff"/><path d="M696.251,233.306l-9.981,28.271h-10.6L665.5,233.306h9.424l6.014,19.715,5.952-19.715Z" fill="#fff"/><path d="M724.584,233.306l5.4,19.1,5.083-19.095h8.99l-8.432,28.271h-9.548l-5.58-17.112-5.579,17.112h-9.548l-8.431-28.271h8.927l5.146,19.1,5.393-19.095Z" fill="#fff"/><path d="M774.8,261.577H764.76l-4.835-8.369-4.96,8.369H744.921l9.424-14.2-9.424-14.074h10.044l4.9,8.37,4.9-8.37H774.8l-9.362,14.136Z" fill="#fff"/><path d="M790.861,250.6l5.518-17.3H805.8L789.56,274.968h-8.866l5.89-14.321-11.47-27.341h9.858Z" fill="#fff"/><path d="M829.858,238.886l-11.1,15.251h10.973v7.44H807.726V256l11.283-15.251H808.222v-7.44h21.636Z" fill="#fff"/><path d="M72.418,331.14A5.527,5.527,0,1,1,78,336.348,5.266,5.266,0,0,1,72.418,331.14Zm1.859-9.547-1.549-27.526h10.54l-1.613,27.526Z" fill="#fff"/><path d="M88.413,294.067h8.122l-.806,15.127H89.157Zm11.655,0H108l-.743,15.127h-6.573Z" fill="#fff"/><path d="M139.313,325.437a7.824,7.824,0,0,1,3.287,6.695c0,5.208-3.6,10.912-15.19,10.912-6.695,0-12.461-2.17-15-5.89l4.9-5.455c2.232,2.479,5.084,4.525,10.664,4.525,3.409,0,5.021-.805,5.021-2.542,0-1.922-3.038-2.851-4.588-3.286l-5.393-1.735c-6.51-2.17-9.61-5.27-9.61-10.106a9.626,9.626,0,0,1,3.286-7.5,7.621,7.621,0,0,1-3.348-6.633c0-4.711,3.968-10.973,14.756-10.973,7.315,0,11.283,2.479,13.886,5.207l-5.332,5.518a12.476,12.476,0,0,0-9.422-3.72c-2.418,0-4.4,1.054-4.4,2.542,0,1.55,1.3,2.108,4.588,3.162l5.27,1.674c6.82,2.17,9.92,5.641,9.92,10.539A8.7,8.7,0,0,1,139.313,325.437Zm-16.8-8.866c0,2.17,1.736,3.225,6.075,4.65l3.968,1.3a4.043,4.043,0,0,0,.806-2.418c0-2.231-1.425-3.6-4.96-4.649l-4.96-1.426A4.264,4.264,0,0,0,122.513,316.571Z" fill="#fff"/><path d="M160.084,342.362V336.6c-8-.5-11.965-4.4-13.639-7.5l6.386-5.455a8.64,8.64,0,0,0,7.253,4.9v-9.61l-1.735-.558c-7.874-2.48-10.044-6.881-10.044-11.9,0-5.951,3.223-11.779,11.779-12.894v-4.65h5.145v4.587c6.138.5,9.548,3.163,11.718,6.138l-6.385,5.27a8.2,8.2,0,0,0-5.333-3.286v9.61l1.674.5c8.122,2.541,10.354,6.819,10.354,11.779,0,7.44-5.083,11.841-12.028,12.9v5.952Zm0-32.858v-7.316a4,4,0,0,0-2.046,3.658A3.843,3.843,0,0,0,160.084,309.5Zm5.145,11.159v7.316a3.753,3.753,0,0,0,2.294-3.658A3.853,3.853,0,0,0,165.229,320.663Z" fill="#fff"/><path d="M200.756,305.6c0,7.129-2.853,11.9-10.044,11.9-7.316,0-10.106-4.775-10.106-11.9s2.915-11.9,10.106-11.9C198.027,293.7,200.756,298.468,200.756,305.6Zm-6.51,0c0-4.774-.744-6.944-3.534-6.944-2.728,0-3.534,2.17-3.534,6.944s.806,6.944,3.534,6.944C193.5,312.542,194.246,310.372,194.246,305.6Zm2.48,30.378h-6.758l24.675-41.909h6.943Zm34.284-11.531c0,7.13-2.852,11.9-10.044,11.9-7.316,0-10.106-4.773-10.106-11.9s2.914-11.9,10.106-11.9C228.282,312.542,231.01,317.315,231.01,324.445Zm-6.51,0c0-4.774-.744-6.943-3.534-6.943-2.728,0-3.533,2.169-3.533,6.943s.805,6.943,3.533,6.943C223.756,331.388,224.5,329.218,224.5,324.445Z" fill="#fff"/><path d="M269.947,317.874l-4.836,6.508c-.372.559-.805,1.117-1.24,1.675l8.556,9.3v.62h-9.672l-3.844-4.277a18.1,18.1,0,0,1-12.585,4.959c-7.5,0-12.151-4.153-12.151-10.415,0-5.952,4.773-9.548,8.617-12.213l.248-.187-.248-.309c-1.859-1.985-5.27-5.271-5.27-9.424,0-5.828,4.588-10.726,12.4-10.726,7.13,0,11.966,4.9,11.966,10.726,0,4.153-3.1,7.563-7.874,11.1l4.588,5.083.557-.744,4.651-6.2ZM253.828,326l-5.766-6.51-.744.5c-2.851,2.17-4.836,3.41-4.836,5.952a3.553,3.553,0,0,0,3.844,3.409A10.678,10.678,0,0,0,253.828,326Zm-4.96-16.429.124.186.248-.186c2.79-2.046,4.4-3.534,4.4-5.456a3.689,3.689,0,0,0-3.72-3.472c-2.542,0-4.092,1.736-4.092,3.472C245.83,305.97,247.008,307.706,248.868,309.566Z" fill="#fff"/><path d="M283.154,335.976H274.1L287,294.067h9.237Z" fill="#fff"/><path d="M308.821,349.74a47.826,47.826,0,0,1-9.423-28.7c0-11.655,3.782-19.963,9.423-28.7l6.634,2.6c-4.092,8.494-6.819,17.732-6.819,26.1,0,9.3,2.046,17.049,6.695,26.1Z" fill="#fff"/><path d="M323.64,321.035c0-8.369-2.729-17.607-6.821-26.1l6.573-2.6c5.641,8.741,9.422,17.049,9.422,28.7a47.826,47.826,0,0,1-9.422,28.7l-6.449-2.605C321.594,338.084,323.64,330.335,323.64,321.035Z" fill="#fff"/><path d="M365.736,308.14v7.44H338.271v-7.44Zm0,14.755v7.44H338.271V322.9Z" fill="#fff"/><path d="M395.992,304.606c0,8.68-9.113,10.539-9.113,16.987h-8.928c0-9.175,9.237-11.407,9.237-16.8,0-1.922-1.3-3.348-3.782-3.348-3.037,0-4.029,1.8-4.029,3.224l-8.432-.93c0-5.332,3.348-10.291,11.9-10.291S395.992,298.406,395.992,304.606ZM376.959,331.14a5.527,5.527,0,1,1,5.518,5.208A5.214,5.214,0,0,1,376.959,331.14Z" fill="#fff"/><path d="M432.447,335.419c-5.518,0-8.742-3.535-8.742-10.478,0-8.308,5.27-16.367,12.09-16.367a8.67,8.67,0,0,1,6.571,2.418l.372-1.861h7.316l-2.6,15.066c-.62,3.6-.558,5.89,1.736,5.89,3.534,0,7.192-4.526,7.192-14.57,0-8.307-4.588-14.259-16.243-14.259-15.19,0-22.629,11.656-22.629,23.187,0,10.787,5.393,16.429,16.305,16.429a27.542,27.542,0,0,0,11.159-2.108l1.3,5.827a31.488,31.488,0,0,1-12.4,2.6c-15.934,0-23.186-9.052-23.186-22.816,0-15.623,10.972-29.448,29.448-29.448,15.808,0,23.062,9.114,23.062,20.583,0,12.338-6.758,20.769-14.941,20.769-4.526,0-6.447-1.922-7.192-4.526C438.708,333.621,436.6,335.419,432.447,335.419Zm4.65-20.274c-3.783,0-5.89,4.651-5.89,9.052,0,3.286,1.3,4.4,3.348,4.4a8.676,8.676,0,0,0,4.96-1.55l2.046-10.725A9.424,9.424,0,0,0,437.1,315.145Z" fill="#fff"/><path d="M470.577,308.263c1.487-9.113,6.447-14.816,16.925-14.816a26.439,26.439,0,0,1,11.035,2.355l-2.79,7.688a22.317,22.317,0,0,0-8.493-1.86c-4.34,0-6.262,2.542-7.13,6.633h14.445l-1.859,5.519H479.628V314.9a15.666,15.666,0,0,0,.062,1.736H491.9l-1.8,5.518h-9.546c1.3,3.906,3.9,6.323,7.439,6.323a16.354,16.354,0,0,0,8-2.17l2.17,7.936a23.533,23.533,0,0,1-10.663,2.418c-9.3,0-15.065-4.959-16.863-14.507h-3.472v-5.518h2.852v-2.851h-2.852v-5.519Z" fill="#fff"/><path d="M526,292.021c13.764,0,23.745,9.919,23.745,23.311,0,13.142-9.981,23.248-23.745,23.248-13.639,0-23.744-10.106-23.744-23.248C502.259,301.94,512.364,292.021,526,292.021Zm0,40.421c10.292,0,17.422-6.943,17.422-17.11,0-10.292-7.13-17.236-17.422-17.236-10.229,0-17.358,6.944-17.358,17.236C508.645,325.5,515.774,332.442,526,332.442Zm.248-11.531a6.36,6.36,0,0,0,5.146-2.728l4.711,4.9a13.392,13.392,0,0,1-10.228,4.278c-6.262,0-12.151-4.278-12.151-12.151,0-7.564,5.827-11.842,12.027-11.842,5.331,0,8.059,2.232,10.415,4.526l-4.712,4.587c-1.426-1.178-2.6-2.665-5.27-2.665-3.038,0-4.96,1.983-4.96,5.455C521.229,318.989,522.966,320.911,526.251,320.911Z" fill="#fff"/><path d="M577.587,292.021c13.763,0,23.744,9.919,23.744,23.311,0,13.142-9.981,23.248-23.744,23.248-13.64,0-23.745-10.106-23.745-23.248C553.842,301.94,563.947,292.021,577.587,292.021Zm0,40.421c10.291,0,17.421-6.943,17.421-17.11,0-10.292-7.13-17.236-17.421-17.236-10.23,0-17.359,6.944-17.359,17.236C560.228,325.5,567.357,332.442,577.587,332.442Zm-9.672-28.766h9.548c7,0,9.8,2.418,9.8,6.944,0,2.975-1.922,5.393-5.146,6.447l5.455,10.168h-6.632l-4.712-9.361H573.99v9.361h-6.075Zm9.857,4.65H573.99v4.96h3.534c2.728,0,3.659-1.365,3.659-2.418C581.183,309.752,580.314,308.326,577.772,308.326Z" fill="#fff"/><path d="M619.126,298.344v3.038H614.29v11.656h-3.968V301.382h-4.649v-3.038Zm12.957,0h5.456l1.3,14.694H635l-.558-10.478-2.418,10.478h-4.4l-2.107-10.292-.744,10.292h-3.844l1.3-14.694h5.58l2.107,10.478Z" fill="#fff"/><path d="M650.188,342.671H643.74l1.55-16.8h9.3Zm11.964,0h-6.447l1.55-16.8h9.3Z" fill="#fff"/><path d="M669.593,294.067h6.51l-1.55,16.8h-9.3Zm11.966,0h6.509l-1.549,16.8h-9.3Z" fill="#fff"/><path d="M693.587,319.3c0-5.146,3.906-8.927,9.424-8.927,5.393,0,9.361,3.781,9.361,8.927,0,5.083-3.968,8.866-9.361,8.866C697.493,328.165,693.587,324.382,693.587,319.3Z" fill="#fff"/><path d="M749.757,315.456V322.9H718.635v-7.439Z" fill="#fff"/><path d="M795.388,315.456V322.9h-39.8v-7.439Z" fill="#fff"/><path d="M812.19,304.482l5.519,3.844L809.587,319.3l8.184,10.973-5.581,3.782-12.957-14.817Zm14.446,0,5.517,3.844L824.032,319.3l8.184,10.973-5.58,3.782-12.957-14.817Z" fill="#fff"/><path d="M854.6,319.237l-12.957,14.817-5.58-3.782,8.183-10.973-8.122-10.973,5.519-3.844Zm14.445,0-12.958,14.817-5.579-3.782,8.183-10.973-8.122-10.973,5.518-3.844Z" fill="#fff"/><path d="M872.329,328.909l9.3-9.424-9.609-9.671,5.7-5.828,9.733,9.733L897,304.234l5.332,5.394-9.548,9.485,9.8,9.733-5.766,5.828-9.733-9.795-9.424,9.423Z" fill="#fff"/><path d="M906.43,315.517h31.183v7.44H906.43Zm10.228-7.935c0-3.1,2.294-5.208,5.519-5.208a5.148,5.148,0,0,1,5.455,5.208,5.492,5.492,0,0,1-10.974,0Zm0,23.249a5.494,5.494,0,0,1,10.974,0,5.495,5.495,0,0,1-10.974,0Z" fill="#fff"/><path d="M949.7,316.571V293.2h5.58v23.372h8.928V321.9h-8.928v27.465H949.7V321.9h-8.865v-5.332Z" fill="#fff"/><path d="M968.862,349.368V293.2h5.58v56.169Z" fill="#fff"/><path d="M82.337,410.376V377.332l-10.23,4.029-2.231-7.191,13.825-5.7h8v41.91Z" fill="#fff"/><path d="M125.673,380.865c0,5.765-4.092,10.664-8.555,15.376l-6.2,6.571H125.8v7.564H98.457V403.99l12.461-13.329c3.162-3.348,5.145-6.386,5.145-9.8,0-3.037-1.425-5.27-4.4-5.27-3.348,0-4.773,2.418-4.773,6.262h-9.3c0-8.369,4.464-14.073,14.073-14.073C120.094,367.784,125.673,373.24,125.673,380.865Z" fill="#fff"/><path d="M159.835,399.092c0,7.13-6.014,11.965-15,11.965-10.168,0-14.569-4.959-14.569-12.089h9.3c0,2.79,1.984,4.278,5.27,4.278,3.038,0,5.394-1.674,5.394-4.712,0-3.472-2.109-5.642-6.944-5.642H139.19v-7.563h4.092c4.154,0,6.323-1.612,6.323-5.146,0-2.851-1.8-4.588-4.773-4.588-3.038,0-4.712,1.55-4.712,4.092h-9.361c0-6.695,4.216-11.9,14.073-11.9,8.865,0,14.445,4.9,14.445,11.9a9.531,9.531,0,0,1-7.006,9.424A9.981,9.981,0,0,1,159.835,399.092Z" fill="#fff"/><path d="M195.732,402.564h-4.339v7.812h-9.3v-7.812h-18.66V395.93l18.1-27.464h9.858V395h4.339ZM182.093,395V380.618L173.042,395Z" fill="#fff"/><path d="M213.527,411.057c-9.919,0-14.445-5.083-14.445-12.151h9.3c0,2.852,2.046,4.34,5.084,4.34,3.905,0,5.579-2.48,5.579-6.386,0-3.409-1.922-5.89-5.579-5.89a7.911,7.911,0,0,0-5.147,1.861l-7.315-1.3,2.727-23.063H226.8v7.564H211.233l-.929,8.245a13,13,0,0,1,5.207-1.116c6.572,0,13.206,3.658,13.206,13.763C228.717,404.92,223.385,411.057,213.527,411.057Z" fill="#fff"/><path d="M249.115,375.6c-4.959,0-6.7,4.527-6.7,10.6a13.85,13.85,0,0,1,8.741-2.852c7.688,0,12.586,5.146,12.586,13.453,0,7.688-4.96,14.259-15.252,14.259-11.1,0-15.684-8.865-15.684-20.087,0-13.205,4.4-23.186,16.3-23.186,9.8,0,13.825,5.332,13.825,11.9h-9.3C253.642,377.145,251.968,375.6,249.115,375.6Zm-.62,27.651c3.782,0,5.643-2.48,5.643-6.324,0-3.719-1.861-6.137-5.643-6.137a6.859,6.859,0,0,0-6.075,3.595C242.42,399.464,244.342,403.246,248.5,403.246Z" fill="#fff"/><path d="M284.7,376.03H267.221v-7.564h27.96v6.448L279.93,410.376H269.886Z" fill="#fff"/><path d="M298.406,398.844a9.926,9.926,0,0,1,7.44-9.92,9.357,9.357,0,0,1-6.634-9.113c0-7.439,5.456-12.027,14.879-12.027,9.362,0,14.756,4.588,14.756,12.027a9.3,9.3,0,0,1-6.573,9.113,9.888,9.888,0,0,1,7.378,9.92c0,7.812-6.137,12.213-15.623,12.213C304.605,411.057,298.406,406.656,298.406,398.844Zm21.637-.744c0-3.72-2.6-5.393-6.014-5.393-3.347,0-6.013,1.673-6.013,5.393,0,3.286,2.355,5.146,6.013,5.146C317.749,403.246,320.043,401.386,320.043,398.1Zm-11.222-17.793c0,3.41,2.294,4.9,5.208,4.9,2.976,0,5.208-1.488,5.208-4.9,0-3.038-1.984-4.712-5.208-4.712C310.867,375.6,308.821,377.269,308.821,380.307Z" fill="#fff"/><path d="M344.16,399.154c0,2.542,1.612,4.092,4.464,4.092,4.96,0,6.7-4.526,6.7-10.6a13.837,13.837,0,0,1-8.742,2.914c-7.625,0-12.585-5.207-12.585-13.514,0-7.688,5.022-14.26,15.314-14.26,11.1,0,15.623,8.928,15.623,20.087,0,13.205-4.34,23.186-16.306,23.186-9.8,0-13.825-5.331-13.825-11.9Zm5.147-23.559c-3.844,0-5.7,2.481-5.7,6.325,0,3.719,1.921,6.137,5.7,6.137a6.827,6.827,0,0,0,6.013-3.534C355.32,379.378,353.4,375.6,349.307,375.6Z" fill="#fff"/><path d="M402.314,389.421c0,13.019-4.711,21.636-16.367,21.636-11.841,0-16.428-8.617-16.428-21.636s4.773-21.637,16.428-21.637C397.727,367.784,402.314,376.4,402.314,389.421Zm-9.609,0c0-9.238-1.612-13.826-6.758-13.826s-6.819,4.588-6.819,13.826,1.674,13.825,6.819,13.825S392.705,398.658,392.705,389.421Z" fill="#fff"/><path d="M247.267,899.18h-91.2l-16.8,56.4h-65.6l92.8-270.4h70.4l93.2,270.4h-65.6Zm-76-50h61.2l-30.4-100.8Z" fill="#fff"/><path d="M446.464,955.58v-20.4c-12,14-30,24.8-56.4,24.8-31.2,0-53.2-20.8-53.2-54,0-41.2,35.2-59.2,90.8-62.4l14.8-.8v-8.4c0-12-5.2-21.2-25.2-21.2-15.6,0-23.2,6.8-23.2,14.8v5.6h-48.8c-.4-3.6-.8-8.8-.8-12,0-31.6,30.4-52.4,76.8-52.4,45.2,0,78,18.4,78,65.2v121.2Zm-33.6-38c10.4,0,21.6-4.8,29.6-12v-29.6l-14.8,2c-22.4,3.2-33.2,11.2-33.2,24C394.464,912.78,402.064,917.581,412.864,917.581Z" fill="#fff"/><path d="M123.562,1085.371v13H76.24v-70.307h47.01v13H92.361v15.7H118.57v13H92.361v15.6Z" fill="#fff"/><path d="M130.319,1089.634c0-5.616,4.16-9.671,10.089-9.671a9.519,9.519,0,1,1,0,19.032C134.479,1098.995,130.319,1094.939,130.319,1089.634Z" fill="#fff"/><path d="M186.168,1099.411c-22.465,0-30.577-15.7-30.577-36.089,0-20.489,7.9-36.3,30.785-36.3,22.569,0,30.474,15.809,30.474,36.3C216.85,1083.707,208.425,1099.411,186.168,1099.411Zm0-13.521c11.232,0,14.144-9.256,14.144-22.568,0-13.522-3.015-22.777-13.936-22.777-11.024,0-14.145,9.255-14.145,22.777C172.231,1076.634,174.623,1085.89,186.168,1085.89Z" fill="#fff"/><path d="M268.744,1028.064h16.018v70.307H268.433l-25.689-44.722.1,44.722H226.52l.1-70.307h16.953l25.168,43.89Z" fill="#fff"/><path d="M316.164,1028.064h25.377c17.681,0,24.025,7.7,24.025,18.824,0,7.385-3.537,11.858-9.568,14.249a16.962,16.962,0,0,1,13.208,17.057c0,15.081-10.921,20.177-27.561,20.177H316.164Zm23.609,27.561c6.968,0,9.256-2.7,9.256-7.28,0-4.264-2.288-7.281-9.36-7.281h-7.384v14.561Zm1.768,29.746c8.32,0,11.024-3.225,11.024-8.425,0-4.992-2.7-8.32-11.024-8.32h-9.256v16.745Z" fill="#fff"/><path d="M391.356,1058.33c2.289-4.16,5.825-8.425,12.376-8.425a20.381,20.381,0,0,1,5.2.624l-.937,15.6a35.5,35.5,0,0,0-8.216-1.041,9.116,9.116,0,0,0-7.9,4.057v29.225h-14.77v-47.426h14.145v7.385Z" fill="#fff"/><path d="M413.818,1035.136c0-5.72,3.641-8.32,8.53-8.32,4.263,0,8.423,2.6,8.423,8.32,0,5.928-4.16,8.113-8.423,8.113C417.459,1043.249,413.818,1041.064,413.818,1035.136Zm1.353,15.809h14.768v47.426H415.171Z" fill="#fff"/><path d="M485.787,1098.371H468.939l-8.113-14.041-8.32,14.041H435.658l15.809-23.817-15.809-23.609h16.848l8.217,14.041,8.216-14.041h16.848l-15.7,23.713Z" fill="#fff"/><path d="M547.561,1046.369c-2.5-3.432-6.448-5.824-12.481-5.824-5.2,0-8.216,3.015-8.216,7.28,0,3.223,1.456,5.72,5.929,7.177l8.632,2.7c13.624,4.264,17.368,11.441,17.368,19.761,0,14.456-11.439,22.049-25.9,22.049-15.392,0-22.777-7.177-25.792-12.689l10.712-9.153c2.7,4.681,6.344,8.321,15.08,8.321,5.825,0,9.256-2.808,9.256-7.176,0-3.432-1.767-5.721-6.551-7.28l-8.529-2.7c-13.209-4.161-16.848-11.545-16.848-19.969,0-11.129,6.656-21.841,24.856-21.841,12.585,0,19.241,4.992,23.193,10.505Z" fill="#fff"/><path d="M593.008,1098.371v-5.305a18.445,18.445,0,0,1-14.664,6.449c-8.113,0-13.832-5.408-13.832-14.041,0-10.713,9.152-15.392,23.608-16.224l3.849-.208v-2.185c0-3.119-1.353-5.512-6.553-5.512-4.057,0-6.032,1.768-6.032,3.848v1.457H566.7c-.1-.937-.208-2.289-.208-3.121,0-8.216,7.905-13.624,19.969-13.624,11.753,0,20.28,4.784,20.28,16.952v31.514Zm-8.737-9.881a12.046,12.046,0,0,0,7.7-3.119v-7.7l-3.849.521c-5.824.832-8.632,2.912-8.632,6.24C579.488,1087.242,581.464,1088.49,584.271,1088.49Z" fill="#fff"/><path d="M616.1,1050.945h14.248v5.305c2.288-3.433,6.344-6.345,14.144-6.345,10.193,0,16.017,6.656,16.017,19.137v29.329H645.736V1070.81c0-4.889-2.08-7.385-7.488-7.385a15.169,15.169,0,0,0-7.385,2.5v32.45H616.1Z" fill="#fff"/><path d="M699.3,1065.609a15.942,15.942,0,0,0-11.128-4.888c-3.328,0-5.1,1.456-5.1,3.328,0,1.769,1.248,3.121,3.536,3.64l7.9,1.769c9.776,2.184,13.625,7.592,13.625,14.456,0,7.281-4.681,15.6-21.322,15.6-10.3,0-16.848-4.264-19.968-8.009l8.215-8.736c2.706,2.912,7.177,6.032,12.377,6.032,3.329,0,5.721-1.144,5.721-3.431,0-1.457-.936-2.912-3.64-3.537l-8.113-1.976c-8.632-2.08-13-7.072-13-14.249,0-6.968,5.2-15.7,20.385-15.7,9.777,0,15.186,3.64,18.409,7.072Z" fill="#fff"/></svg>