<svg xmlns="http://www.w3.org/2000/svg" viewBox="0 0 600 199.007"><g id="Layer_2" data-name="Layer 2"><g id="d_lab_" data-name="d lab_"><path d="M76.787,67.092q-3.578-3.312-10.97-6.632T47.705,57.143q-22.96,0-35.332,15.689T0,117.6q0,29.847,12.5,45.535t34.95,15.689a47.444,47.444,0,0,0,17.857-3.188,41.419,41.419,0,0,0,13.265-8.291v8.673h34.439V0H76.787Zm0,73.725a29.358,29.358,0,0,1-7.526,3.444,36.455,36.455,0,0,1-10.842,1.4A22.353,22.353,0,0,1,48.087,143.5a17.69,17.69,0,0,1-6.76-6,24.515,24.515,0,0,1-3.571-8.929A55.752,55.752,0,0,1,36.735,117.6q0-11.988,4.72-19.643t16.964-7.653a36.586,36.586,0,0,1,10.842,1.4A37.319,37.319,0,0,1,76.787,94.9Z" fill="#fff"/><path d="M211.607,142.348q-2.046-1.782-2.041-6.633V0H173.342V141.583a60.589,60.589,0,0,0,1.53,13.9,29.758,29.758,0,0,0,5.357,11.479,25.7,25.7,0,0,0,10.077,7.781q6.247,2.8,15.689,2.806h17.857V144.133h-5.1Q213.644,144.133,211.607,142.348Z" fill="#fff"/><path d="M332.653,66.71a43.708,43.708,0,0,0-15.816-7.271,81.936,81.936,0,0,0-19.9-2.3q-22.452,0-35.715,9.056T247.959,90.562c0,1.02.039,2.256.127,3.7s.211,2.766.383,3.954h31.122V94.644q0-3.827,3.7-6.633t11.1-2.806q9.692,0,12.882,3.826a14.638,14.638,0,0,1,3.189,9.694v5.357l-9.439.511a129.991,129.991,0,0,0-23.98,3.444,62.854,62.854,0,0,0-18.24,7.4,32.017,32.017,0,0,0-15.688,28.953q0,16.073,9.438,25.256t24.49,9.183q12.753,0,21.429-4.591a51.113,51.113,0,0,0,14.541-11.225v13.01h33.673v-77.3q0-11.223-3.7-19.133A33.627,33.627,0,0,0,332.653,66.71ZM310.2,144.133a28.713,28.713,0,0,1-8.8,5.613,26.3,26.3,0,0,1-10.077,2.04,13.871,13.871,0,0,1-8.418-2.423q-3.32-2.421-3.316-7.525,0-12.246,21.173-15.306l9.439-1.276Z" fill="#fff"/><path d="M429.464,57.143q-11.736,0-17.73,3.189a40.2,40.2,0,0,0-9.566,6.76V0H365.944V176.021H382.78l11.48-8.928q4.335,4.083,12.755,7.908t22.449,3.826a47.609,47.609,0,0,0,20.791-4.336,43.482,43.482,0,0,0,15.434-12.373,56.162,56.162,0,0,0,9.694-19.387A89.514,89.514,0,0,0,478.7,117.6q0-29.082-12.373-44.771T429.464,57.143Zm11.607,71.429a23.1,23.1,0,0,1-3.444,8.929,17.712,17.712,0,0,1-6.76,6,23.627,23.627,0,0,1-10.842,2.168,27.538,27.538,0,0,1-10.2-1.913,22.14,22.14,0,0,1-7.653-4.72V94.9a39.46,39.46,0,0,1,6.377-2.934,32.834,32.834,0,0,1,11.48-1.658,24.236,24.236,0,0,1,10.587,2.041,17.166,17.166,0,0,1,6.76,5.739,23.415,23.415,0,0,1,3.571,8.674,54.085,54.085,0,0,1,1.021,10.842A63.659,63.659,0,0,1,441.071,128.572Z" fill="#fff"/><rect x="497.959" y="176.048" width="102.041" height="22.959" fill="#fff"/></g></g></svg>