<svg xmlns="http://www.w3.org/2000/svg" viewBox="0 0 1920 1080"><g id="golden_ratio-rectangles" data-name="golden ratio-rectangles"><rect x="1487.943" y="615" width="75" height="75" transform="translate(872.943 2177.943) rotate(-90)" fill="none" stroke="#000" stroke-miterlimit="10" stroke-width="0.25"/><rect x="1562.943" y="615" width="75" height="75" transform="translate(947.943 2252.943) rotate(-90)" fill="none" stroke="#000" stroke-miterlimit="10" stroke-width="0.25"/><rect x="1487.943" y="690" width="150" height="150" transform="translate(797.943 2327.943) rotate(-90)" fill="none" stroke="#000" stroke-miterlimit="10" stroke-width="0.25"/><rect x="1637.943" y="615" width="225" height="225" transform="translate(3500.886 1455) rotate(180)" fill="none" stroke="#000" stroke-miterlimit="10" stroke-width="0.25"/><rect x="1487.943" y="240" width="375" height="375" transform="translate(2102.943 -1247.943) rotate(90)" fill="none" stroke="#000" stroke-miterlimit="10" stroke-width="0.25"/><rect x="887.943" y="240" width="600" height="600" fill="none" stroke="#000" stroke-miterlimit="10" stroke-width="0.25"/></g><g id="circles"><circle cx="1187.943" cy="540" r="300" fill="none" stroke="#000" stroke-miterlimit="10" stroke-width="0.25"/><circle cx="454.189" cy="540" r="300" fill="none" stroke="#000" stroke-miterlimit="10" stroke-width="0.25"/><circle cx="1675.443" cy="427.5" r="187.5" fill="none" stroke="#000" stroke-miterlimit="10" stroke-width="0.25"/><circle cx="454.189" cy="540" r="187.5" fill="none" stroke="#000" stroke-miterlimit="10" stroke-width="0.25"/><circle cx="1750.443" cy="727.5" r="112.5" fill="none" stroke="#000" stroke-miterlimit="10" stroke-width="0.25"/><circle cx="454.189" cy="540" r="112.5" fill="none" stroke="#000" stroke-miterlimit="10" stroke-width="0.25"/><circle cx="1562.943" cy="765" r="75" fill="none" stroke="#000" stroke-miterlimit="10" stroke-width="0.25"/><circle cx="454.189" cy="540" r="75" fill="none" stroke="#000" stroke-miterlimit="10" stroke-width="0.25"/><circle cx="1525.443" cy="652.5" r="37.5" fill="none" stroke="#000" stroke-miterlimit="10" stroke-width="0.25"/><circle cx="454.189" cy="540" r="37.5" fill="none" stroke="#000" stroke-miterlimit="10" stroke-width="0.25"/></g></svg>