<svg xmlns="http://www.w3.org/2000/svg" viewBox="0 0 1920 1181.538"><g id="background-colors"><rect x="1.902" y="0.35" width="1184.643" height="1184.643" fill="#ea1b0a"/><rect x="1181.643" y="-1.552" width="738.357" height="738.357" fill="#b00402"/><rect x="1180.565" y="736.909" width="739.435" height="443.077" fill="#a00311"/></g><g id="d_lab_" data-name="d lab_"><path d="M394.086,548.794q-3.576-3.312-10.97-6.632T365,538.845q-22.961,0-35.332,15.689T317.3,599.3q0,29.848,12.5,45.536t34.949,15.689a47.44,47.44,0,0,0,17.857-3.188,41.408,41.408,0,0,0,13.265-8.291v8.673H430.31V481.7H394.086Zm0,73.725a29.342,29.342,0,0,1-7.526,3.444,36.45,36.45,0,0,1-10.842,1.4,22.34,22.34,0,0,1-10.332-2.169,17.687,17.687,0,0,1-6.76-5.994,24.551,24.551,0,0,1-3.571-8.929,55.755,55.755,0,0,1-1.021-10.97q0-11.986,4.72-19.643t16.964-7.653a36.614,36.614,0,0,1,10.842,1.4,37.351,37.351,0,0,1,7.526,3.189Z" fill="#fff"/><path d="M528.906,624.05q-2.044-1.782-2.041-6.633V481.7H490.641V623.284a60.576,60.576,0,0,0,1.53,13.9,29.755,29.755,0,0,0,5.357,11.48,25.72,25.72,0,0,0,10.077,7.781q6.249,2.8,15.689,2.806h17.857V625.835h-5.1Q530.945,625.835,528.906,624.05Z" fill="#fff"/><path d="M649.952,548.412a43.7,43.7,0,0,0-15.816-7.271,81.936,81.936,0,0,0-19.9-2.3q-22.452,0-35.715,9.056t-13.265,24.362c0,1.021.04,2.257.127,3.7s.212,2.767.383,3.955H596.89v-3.572q0-3.827,3.7-6.632t11.1-2.807q9.692,0,12.882,3.827a14.638,14.638,0,0,1,3.189,9.694v5.357l-9.439.51a129.991,129.991,0,0,0-23.98,3.444,62.921,62.921,0,0,0-18.24,7.4,32.017,32.017,0,0,0-15.688,28.954q0,16.072,9.438,25.256t24.49,9.183q12.754,0,21.429-4.591a51.085,51.085,0,0,0,14.541-11.225v13.01h33.674v-77.3q0-11.223-3.7-19.133A33.627,33.627,0,0,0,649.952,548.412ZM627.5,625.835a28.713,28.713,0,0,1-8.8,5.613,26.3,26.3,0,0,1-10.077,2.04,13.875,13.875,0,0,1-8.418-2.423q-3.319-2.421-3.316-7.526,0-12.245,21.173-15.306l9.439-1.275Z" fill="#fff"/><path d="M746.764,538.845q-11.738,0-17.73,3.189a40.13,40.13,0,0,0-9.566,6.76V481.7H683.243V657.723H700.08l11.479-8.928q4.335,4.083,12.756,7.908t22.449,3.826a47.63,47.63,0,0,0,20.791-4.336,43.5,43.5,0,0,0,15.434-12.373,56.174,56.174,0,0,0,9.693-19.388A89.508,89.508,0,0,0,796,599.3q0-29.08-12.373-44.77T746.764,538.845Zm11.607,71.429a23.126,23.126,0,0,1-3.444,8.929,17.709,17.709,0,0,1-6.76,5.994,23.616,23.616,0,0,1-10.842,2.169,27.534,27.534,0,0,1-10.2-1.913,22.121,22.121,0,0,1-7.653-4.72V576.6a39.551,39.551,0,0,1,6.377-2.934,32.85,32.85,0,0,1,11.48-1.658,24.253,24.253,0,0,1,10.587,2.041,17.169,17.169,0,0,1,6.76,5.74,23.425,23.425,0,0,1,3.571,8.674,54.155,54.155,0,0,1,1.021,10.841A63.763,63.763,0,0,1,758.371,610.274Z" fill="#fff"/><rect x="815.259" y="657.749" width="102.041" height="22.959" fill="#fff"/><path d="M1451.336,352.973a20.618,20.618,0,0,0-5.485-3.316A22.1,22.1,0,0,0,1436.8,348q-11.479,0-17.665,7.845t-6.187,22.385q0,14.924,6.25,22.768t17.475,7.845a23.715,23.715,0,0,0,8.928-1.6,20.7,20.7,0,0,0,6.633-4.145v4.337h17.219V319.427h-18.112Zm0,36.862a14.63,14.63,0,0,1-3.763,1.722,18.2,18.2,0,0,1-5.421.7,11.183,11.183,0,0,1-5.166-1.084,8.854,8.854,0,0,1-3.38-3,12.277,12.277,0,0,1-1.785-4.464,27.88,27.88,0,0,1-.511-5.485,18.451,18.451,0,0,1,2.36-9.821q2.359-3.826,8.482-3.827a18.268,18.268,0,0,1,5.421.7,18.636,18.636,0,0,1,3.763,1.594Z" fill="#fff"/><path d="M1518.746,390.6q-1.022-.891-1.02-3.317V319.427h-18.112v70.791a30.3,30.3,0,0,0,.765,6.952,14.89,14.89,0,0,0,2.678,5.739,12.85,12.85,0,0,0,5.039,3.891,19.206,19.206,0,0,0,7.844,1.4h8.929V391.494h-2.551A5.472,5.472,0,0,1,1518.746,390.6Z" fill="#fff"/><path d="M1579.269,352.782a21.851,21.851,0,0,0-7.908-3.636,40.965,40.965,0,0,0-9.949-1.148q-11.226,0-17.857,4.528a14.054,14.054,0,0,0-6.633,12.182c0,.51.02,1.128.064,1.849s.106,1.383.191,1.977h15.561v-1.785a4.092,4.092,0,0,1,1.85-3.317,9.124,9.124,0,0,1,5.549-1.4q4.845,0,6.441,1.913a7.322,7.322,0,0,1,1.594,4.847v2.679l-4.719.255a65,65,0,0,0-11.99,1.722,31.441,31.441,0,0,0-9.12,3.7,16.006,16.006,0,0,0-7.844,14.477q0,8.036,4.719,12.628t12.245,4.592a22.7,22.7,0,0,0,10.714-2.3,25.529,25.529,0,0,0,7.271-5.613v6.506h16.837V368.789a22.473,22.473,0,0,0-1.85-9.566A16.81,16.81,0,0,0,1579.269,352.782Zm-11.224,38.712a14.391,14.391,0,0,1-4.4,2.806,13.157,13.157,0,0,1-5.038,1.02,6.929,6.929,0,0,1-4.209-1.212,4.341,4.341,0,0,1-1.658-3.762q0-6.123,10.586-7.653l4.72-.638Z" fill="#fff"/><path d="M1627.675,348q-5.868,0-8.865,1.6a20.061,20.061,0,0,0-4.783,3.38V319.427h-18.112v88.011h8.418l5.74-4.465a23.6,23.6,0,0,0,6.378,3.954q4.209,1.914,11.224,1.914a23.812,23.812,0,0,0,10.4-2.169,21.743,21.743,0,0,0,7.717-6.186,28.11,28.11,0,0,0,4.847-9.694,44.794,44.794,0,0,0,1.658-12.564q0-14.541-6.187-22.385T1627.675,348Zm5.8,35.715a11.558,11.558,0,0,1-1.722,4.464,8.861,8.861,0,0,1-3.38,3,11.821,11.821,0,0,1-5.421,1.084,13.757,13.757,0,0,1-5.1-.957,11.062,11.062,0,0,1-3.827-2.359V366.876a19.806,19.806,0,0,1,3.189-1.467,16.413,16.413,0,0,1,5.74-.829,12.118,12.118,0,0,1,5.293,1.021,8.582,8.582,0,0,1,3.38,2.869,11.725,11.725,0,0,1,1.786,4.337,27.084,27.084,0,0,1,.51,5.421A31.887,31.887,0,0,1,1633.479,383.713Z" fill="#fff"/><rect x="1661.923" y="407.451" width="51.02" height="11.48" fill="#fff"/><path d="M1451.336,943.794a20.618,20.618,0,0,0-5.485-3.316,22.116,22.116,0,0,0-9.056-1.658q-11.479,0-17.665,7.844t-6.187,22.386q0,14.924,6.25,22.767t17.475,7.845a23.716,23.716,0,0,0,8.928-1.594,20.722,20.722,0,0,0,6.633-4.146v4.337h17.219V910.248h-18.112Zm0,36.863a14.7,14.7,0,0,1-3.763,1.722,18.238,18.238,0,0,1-5.421.7,11.17,11.17,0,0,1-5.166-1.084,8.851,8.851,0,0,1-3.38-3,12.29,12.29,0,0,1-1.785-4.465,27.87,27.87,0,0,1-.511-5.484,18.455,18.455,0,0,1,2.36-9.822q2.359-3.826,8.482-3.826a18.3,18.3,0,0,1,5.421.7,18.634,18.634,0,0,1,3.763,1.6Z" fill="#fff"/><path d="M1518.746,981.422q-1.022-.891-1.02-3.316V910.248h-18.112V981.04a30.287,30.287,0,0,0,.765,6.951,14.9,14.9,0,0,0,2.678,5.74,12.848,12.848,0,0,0,5.039,3.89,19.189,19.189,0,0,0,7.844,1.4h8.929V982.315h-2.551A5.472,5.472,0,0,1,1518.746,981.422Z" fill="#fff"/><path d="M1579.269,943.6a21.849,21.849,0,0,0-7.908-3.635,40.965,40.965,0,0,0-9.949-1.148q-11.226,0-17.857,4.528a14.051,14.051,0,0,0-6.633,12.181c0,.51.02,1.128.064,1.85s.106,1.383.191,1.977h15.561V957.57a4.09,4.09,0,0,1,1.85-3.316,9.117,9.117,0,0,1,5.549-1.4q4.845,0,6.441,1.913a7.321,7.321,0,0,1,1.594,4.847v2.678l-4.719.256a65,65,0,0,0-11.99,1.722,31.413,31.413,0,0,0-9.12,3.7,16.006,16.006,0,0,0-7.844,14.477q0,8.035,4.719,12.627t12.245,4.592a22.688,22.688,0,0,0,10.714-2.3,25.544,25.544,0,0,0,7.271-5.612v6.5h16.837V959.611a22.474,22.474,0,0,0-1.85-9.567A16.817,16.817,0,0,0,1579.269,943.6Zm-11.224,38.712a14.354,14.354,0,0,1-4.4,2.806,13.138,13.138,0,0,1-5.038,1.02,6.935,6.935,0,0,1-4.209-1.211,4.343,4.343,0,0,1-1.658-3.763q0-6.123,10.586-7.653l4.72-.638Z" fill="#fff"/><path d="M1627.675,938.82q-5.868,0-8.865,1.594a20.118,20.118,0,0,0-4.783,3.38V910.248h-18.112v88.011h8.418l5.74-4.464a23.622,23.622,0,0,0,6.378,3.954q4.209,1.912,11.224,1.913a23.812,23.812,0,0,0,10.4-2.168,21.746,21.746,0,0,0,7.717-6.187,28.1,28.1,0,0,0,4.847-9.693,44.794,44.794,0,0,0,1.658-12.564q0-14.541-6.187-22.386T1627.675,938.82Zm5.8,35.714a11.569,11.569,0,0,1-1.722,4.465,8.858,8.858,0,0,1-3.38,3,11.808,11.808,0,0,1-5.421,1.084,13.777,13.777,0,0,1-5.1-.956,11.063,11.063,0,0,1-3.827-2.36V957.7a19.719,19.719,0,0,1,3.189-1.467,16.413,16.413,0,0,1,5.74-.829,12.119,12.119,0,0,1,5.293,1.02,8.584,8.584,0,0,1,3.38,2.87,11.725,11.725,0,0,1,1.786,4.337,27.077,27.077,0,0,1,.51,5.421A31.875,31.875,0,0,1,1633.479,974.534Z" fill="#fff"/><rect x="1661.923" y="998.272" width="51.02" height="11.48" fill="#fff"/></g></svg>