<svg xmlns="http://www.w3.org/2000/svg" width="1719.376" height="990.284" viewBox="0 0 1719.376 990.284">
  <g data-fragment-index="6" class="fragment">
    <g id="Layer_2" data-name="Layer 2">
      <g>
        <rect x="0.333" y="820.284" width="241.717" height="170" fill="#39393a"/>
        <path d="M31.767,875.85h5.461c5.657,0,8.327,2.731,8.327,8.789s-2.67,8.788-8.327,8.788H31.767Zm5.217,14.327c3.428,0,4.652-1.326,4.652-5.538,0-4.082-1.224-5.538-4.652-5.538H35.563v11.076Z" fill="#fff"/>
        <path d="M53.587,893.427V892.1a4.246,4.246,0,0,1-3.453,1.613,3.2,3.2,0,0,1-3.272-3.126,3.286,3.286,0,0,1,.014-.384c0-2.679,2.155-3.849,5.56-4.057l.906-.052v-.546c0-.78-.318-1.378-1.543-1.378-.955,0-1.421.442-1.421.962v.364H47.391c-.025-.234-.049-.572-.049-.78,0-2.054,1.861-3.406,4.7-3.406,2.768,0,4.775,1.2,4.775,4.238v7.878Zm-2.058-2.469a2.75,2.75,0,0,0,1.813-.781v-1.923l-.906.129c-1.371.208-2.034.728-2.034,1.56C50.4,890.645,50.868,890.958,51.529,890.958Z" fill="#fff"/>
        <path d="M62.378,883.417a3.274,3.274,0,0,1,2.914-2.106,4.52,4.52,0,0,1,1.225.156l-.221,3.9a7.953,7.953,0,0,0-1.935-.26,2.114,2.114,0,0,0-1.861,1.014v7.306H59.023V881.571h3.331v1.846Z" fill="#fff"/>
        <path d="M75.259,893.427l-2.547-4.94-1.273,1.326v3.614H67.96v-17.94h3.479v10.062l3.624-3.978H79.25l-4.163,4.342,3.992,7.514Z" fill="#fff"/>
        <path d="M91.69,883.755H98.6c.074.7.147,1.586.147,1.924,0,4.29-2.131,8.008-6.979,8.008-4.7,0-7.593-2.912-7.593-9.074,0-6.344,3.013-9.023,7.936-9.023a6.049,6.049,0,0,1,5.657,3.329l-2.817,1.923a3.3,3.3,0,0,0-3.012-1.871c-2.474,0-3.845,1.612-3.845,5.642,0,4.394,1.3,5.694,3.674,5.694a2.993,2.993,0,0,0,3.147-2.831,3.063,3.063,0,0,0-.012-.469H91.69Z" fill="#fff"/>
        <path d="M103.812,883.417a3.274,3.274,0,0,1,2.914-2.106,4.517,4.517,0,0,1,1.224.156l-.22,3.9a7.953,7.953,0,0,0-1.935-.26,2.114,2.114,0,0,0-1.861,1.014v7.306h-3.478V881.571h3.331v1.846Z" fill="#fff"/>
        <path d="M117.157,889.6l1.592,2.366a5.9,5.9,0,0,1-4.187,1.743c-3.968,0-5.706-2.6-5.706-6.215,0-3.3,1.836-6.188,5.313-6.188,3.576,0,4.85,2.653,4.85,5.226a11.084,11.084,0,0,1-.2,2.158h-6.464a1.951,1.951,0,0,0,2.2,1.925A4.251,4.251,0,0,0,117.157,889.6Zm-1.346-3.484a1.92,1.92,0,0,0,.024-.312,1.512,1.512,0,0,0-1.428-1.592,1.577,1.577,0,0,0-.238.006,1.8,1.8,0,0,0-1.814,1.786q0,.057,0,.114Z" fill="#fff"/>
        <path d="M125.63,888.825l2.18-7.254h3.722l-6.417,17.473h-3.5l2.328-6.006-4.532-11.467H123.3Z" fill="#fff"/>
        <path d="M31.023,934.364l.269-1.958h2.093l.434-3.08h-2.03l.228-1.981h2.094l.538-3.762h2.009l-.558,3.762h2.424l.559-3.762h1.989l-.517,3.762h2.134l-.27,1.981H40.243l-.434,3.08h2.134l-.249,1.958H39.5l-.58,4.093H36.91l.6-4.093H35.084l-.58,4.093H32.473l.6-4.093Zm4.351-1.958h2.445l.435-3.08H35.809Z" fill="#fff"/>
        <path d="M53.775,934.5c0,2.486-1.886,4.2-4.788,4.2-3.232,0-4.662-1.761-4.662-4.026h2.2c0,1.209.912,2.023,2.465,2.023a2.272,2.272,0,0,0,2.5-2.02,2.325,2.325,0,0,0,.011-.312c0-1.563-1.1-2.552-2.922-2.552H47.247v-1.936h1.326c1.637,0,2.694-.792,2.694-2.311a2.086,2.086,0,0,0-1.959-2.206,2.151,2.151,0,0,0-.321.006,1.982,1.982,0,0,0-2.239,1.686,1.94,1.94,0,0,0-.019.314H44.512c0-2.156,1.367-4.027,4.475-4.027,2.819,0,4.559,1.739,4.559,4.115a3.36,3.36,0,0,1-2.486,3.388A3.589,3.589,0,0,1,53.775,934.5Z" fill="#fff"/>
        <path d="M58.188,934.673a1.935,1.935,0,0,0,1.856,2.011,1.989,1.989,0,0,0,.3-.011c2.03,0,2.9-2.089,2.9-5.1a4.418,4.418,0,0,1-3.253,1.518c-2.694,0-4.31-1.892-4.31-4.752,0-2.685,1.575-5,4.849-5,3.5,0,4.973,3.059,4.973,7.173,0,4.841-1.533,8.186-5.159,8.186-2.984,0-4.373-1.8-4.373-4.026Zm2.341-9.331c-1.72,0-2.59,1.189-2.59,2.971,0,1.738.891,2.839,2.59,2.839A3.09,3.09,0,0,0,63.2,929.37C63.2,927.214,62.394,925.342,60.529,925.342Z" fill="#fff"/>
        <path d="M76.878,934.5c0,2.486-1.886,4.2-4.787,4.2-3.232,0-4.662-1.761-4.662-4.026h2.2c0,1.209.912,2.023,2.466,2.023a2.271,2.271,0,0,0,2.508-2.332c0-1.563-1.1-2.552-2.922-2.552h-1.33v-1.936h1.326c1.637,0,2.693-.792,2.693-2.311a2.085,2.085,0,0,0-1.957-2.206,2.164,2.164,0,0,0-.322.006,1.983,1.983,0,0,0-2.24,1.687,1.928,1.928,0,0,0-.019.313H67.615c0-2.156,1.368-4.027,4.476-4.027,2.818,0,4.559,1.739,4.559,4.115a3.36,3.36,0,0,1-2.487,3.388A3.589,3.589,0,0,1,76.878,934.5Z" fill="#fff"/>
        <path d="M81.291,934.673a1.935,1.935,0,0,0,1.856,2.011,1.989,1.989,0,0,0,.3-.011c2.031,0,2.9-2.089,2.9-5.1a4.418,4.418,0,0,1-3.253,1.518c-2.694,0-4.311-1.892-4.311-4.752,0-2.685,1.576-5,4.85-5,3.5,0,4.973,3.059,4.973,7.173,0,4.841-1.534,8.186-5.16,8.186-2.984,0-4.373-1.8-4.373-4.026Zm2.342-9.331c-1.721,0-2.591,1.189-2.591,2.971,0,1.738.892,2.839,2.591,2.839a3.09,3.09,0,0,0,2.673-1.782C86.306,927.214,85.5,925.342,83.633,925.342Z" fill="#fff"/>
        <path d="M99.982,934.5c0,2.486-1.886,4.2-4.788,4.2-3.232,0-4.662-1.761-4.662-4.026h2.2c0,1.209.912,2.023,2.465,2.023a2.272,2.272,0,0,0,2.5-2.02,2.325,2.325,0,0,0,.011-.312c0-1.563-1.1-2.552-2.922-2.552H93.454v-1.936H94.78c1.637,0,2.694-.792,2.694-2.311a2.086,2.086,0,0,0-1.959-2.206,2.151,2.151,0,0,0-.321.006,1.982,1.982,0,0,0-2.239,1.686,1.94,1.94,0,0,0-.019.314H90.719c0-2.156,1.367-4.027,4.475-4.027,2.819,0,4.559,1.739,4.559,4.115a3.36,3.36,0,0,1-2.486,3.388A3.589,3.589,0,0,1,99.982,934.5Z" fill="#fff"/>
        <path d="M110.072,934.826h-5.45l-1.139,3.631h-2.4l4.952-14.874h2.632l4.973,14.874h-2.424Zm-4.848-2h4.268l-2.134-6.777Z" fill="#fff"/>
        <rect x="242.05" y="820.284" width="241.717" height="170" fill="#404040"/>
        <path d="M272.048,875.85h5.461c5.657,0,8.327,2.731,8.327,8.789s-2.67,8.788-8.327,8.788h-5.461Zm5.217,14.327c3.429,0,4.652-1.326,4.652-5.538,0-4.082-1.223-5.538-4.652-5.538h-1.421v11.076Z" fill="#fff"/>
        <path d="M293.868,893.427V892.1a4.246,4.246,0,0,1-3.453,1.613,3.2,3.2,0,0,1-3.272-3.126,3.286,3.286,0,0,1,.014-.384c0-2.679,2.156-3.849,5.56-4.057l.906-.052v-.546c0-.78-.318-1.378-1.543-1.378-.955,0-1.421.442-1.421.962v.364h-2.987c-.024-.234-.049-.572-.049-.78,0-2.054,1.862-3.406,4.7-3.406,2.768,0,4.776,1.2,4.776,4.238v7.878Zm-2.057-2.469a2.752,2.752,0,0,0,1.812-.781v-1.923l-.906.129c-1.371.208-2.033.728-2.033,1.56C290.684,890.645,291.15,890.958,291.811,890.958Z" fill="#fff"/>
        <path d="M302.659,883.417a3.275,3.275,0,0,1,2.914-2.106,4.52,4.52,0,0,1,1.225.156l-.221,3.9a7.944,7.944,0,0,0-1.934-.26,2.114,2.114,0,0,0-1.862,1.014v7.306H299.3V881.571h3.331v1.846Z" fill="#fff"/>
        <path d="M315.54,893.427l-2.547-4.94-1.273,1.326v3.614h-3.479v-17.94h3.479v10.062l3.624-3.978h4.187l-4.163,4.342,3.993,7.514Z" fill="#fff"/>
        <path d="M331.971,883.755h6.906c.074.7.148,1.586.148,1.924,0,4.29-2.131,8.008-6.98,8.008-4.7,0-7.593-2.912-7.593-9.074,0-6.344,3.013-9.023,7.936-9.023a6.049,6.049,0,0,1,5.657,3.329l-2.816,1.923a3.3,3.3,0,0,0-3.013-1.871c-2.474,0-3.845,1.612-3.845,5.642,0,4.394,1.3,5.694,3.674,5.694a2.993,2.993,0,0,0,3.147-2.831,3.063,3.063,0,0,0-.012-.469h-3.209Z" fill="#fff"/>
        <path d="M344.093,883.417a3.274,3.274,0,0,1,2.914-2.106,4.52,4.52,0,0,1,1.225.156l-.221,3.9a7.953,7.953,0,0,0-1.935-.26,2.114,2.114,0,0,0-1.861,1.014v7.306h-3.478V881.571h3.332v1.846Z" fill="#fff"/>
        <path d="M357.439,889.6l1.591,2.366a5.9,5.9,0,0,1-4.187,1.743c-3.968,0-5.706-2.6-5.706-6.215,0-3.3,1.836-6.188,5.313-6.188,3.577,0,4.85,2.653,4.85,5.226a11.084,11.084,0,0,1-.2,2.158h-6.465a1.951,1.951,0,0,0,2.2,1.925A4.256,4.256,0,0,0,357.439,889.6Zm-1.347-3.484a1.92,1.92,0,0,0,.024-.312,1.511,1.511,0,0,0-1.426-1.592,1.6,1.6,0,0,0-.24.006,1.8,1.8,0,0,0-1.814,1.786q0,.057,0,.114Z" fill="#fff"/>
        <path d="M365.911,888.825l2.18-7.254h3.723L365.4,899.044h-3.5l2.327-6.006-4.531-11.467h3.894Z" fill="#fff"/>
        <path d="M383.249,879.023h-6.906V875.85h11.045v2.7l-6.025,14.872H377.4Z" fill="#fff"/>
        <path d="M394.024,893.714c-3.919,0-5.706-2.132-5.706-5.1h3.672a1.765,1.765,0,0,0,1.689,1.836,1.8,1.8,0,0,0,.32-.016c1.543,0,2.2-1.04,2.2-2.678a2.178,2.178,0,0,0-2.2-2.47,3.028,3.028,0,0,0-2.033.78l-2.89-.546,1.077-9.673h9.111v3.173h-6.147l-.367,3.458a4.877,4.877,0,0,1,2.057-.468c2.6,0,5.217,1.535,5.217,5.772a5.59,5.59,0,0,1-6,5.932Z" fill="#fff"/>
        <path d="M271.3,934.364l.269-1.958h2.093l.435-3.08H272.07l.228-1.981h2.094l.538-3.762h2.01l-.559,3.762h2.424l.559-3.762h1.99l-.518,3.762h2.134l-.27,1.981h-2.175l-.435,3.08h2.134l-.248,1.958h-2.2l-.58,4.093h-2.009l.6-4.093h-2.424l-.58,4.093h-2.031l.6-4.093Zm4.351-1.958H278.1l.434-3.08H276.09Z" fill="#fff"/>
        <path d="M294.863,935.377H293.04v3.08h-2.2v-3.08h-6.569v-1.739l6.465-10.055h2.3v9.857h1.823Zm-4.019-1.937v-6.689l-4.228,6.689Z" fill="#fff"/>
        <path d="M307.006,931.019c0,4.665-1.533,7.68-5.181,7.68-3.688,0-5.2-3.015-5.2-7.68s1.555-7.679,5.2-7.679C305.493,923.34,307.006,926.355,307.006,931.019Zm-2.259,0c0-3.674-.807-5.654-2.922-5.654-2.133,0-2.942,1.98-2.942,5.654s.809,5.655,2.942,5.655C303.94,936.674,304.747,934.694,304.747,931.019Z" fill="#fff"/>
        <path d="M319.19,935.377h-1.824v3.08h-2.2v-3.08H308.6v-1.739l6.466-10.055h2.3v9.857h1.824Zm-4.02-1.937v-6.689l-4.227,6.689Z" fill="#fff"/>
        <path d="M331.332,931.019c0,4.665-1.533,7.68-5.18,7.68-3.689,0-5.2-3.015-5.2-7.68s1.555-7.679,5.2-7.679C329.819,923.34,331.332,926.355,331.332,931.019Zm-2.259,0c0-3.674-.807-5.654-2.921-5.654-2.134,0-2.943,1.98-2.943,5.654s.809,5.655,2.943,5.655C328.266,936.674,329.073,934.694,329.073,931.019Z" fill="#fff"/>
        <path d="M343.516,935.377h-1.823v3.08h-2.2v-3.08h-6.569v-1.739l6.466-10.055h2.3v9.857h1.823Zm-4.02-1.937v-6.689l-4.227,6.689Z" fill="#fff"/>
        <path d="M355.658,931.019c0,4.665-1.533,7.68-5.18,7.68-3.689,0-5.2-3.015-5.2-7.68s1.554-7.679,5.2-7.679C354.146,923.34,355.658,926.355,355.658,931.019Zm-2.258,0c0-3.674-.808-5.654-2.922-5.654-2.134,0-2.943,1.98-2.943,5.654s.809,5.655,2.943,5.655C352.592,936.674,353.4,934.694,353.4,931.019Z" fill="#fff"/>
        <rect x="483.766" y="820.284" width="241.717" height="170" fill="#8f9192"/>
        <path d="M525.328,875.85H530.3l1.567,17.577h-3.5l-.93-12.922-3.159,12.922H520.16l-2.889-12.74-1.151,12.74h-3.551l1.836-17.577h5.021l2.865,12.715Z" fill="#fff"/>
        <path d="M533.579,897.619a1.87,1.87,0,0,1,1.639-2.074,2.16,2.16,0,0,1,2.358,1.841,1.813,1.813,0,0,1,0,.233,1.849,1.849,0,0,1-1.655,2.024,1.891,1.891,0,0,1-.328,0,1.8,1.8,0,0,1-2.011-1.572A1.784,1.784,0,0,1,533.579,897.619Zm.32-16.048h3.477v11.856H533.9Z" fill="#fff"/>
        <path d="M546.682,875.487h3.477v17.94h-3.306v-.883a4.211,4.211,0,0,1-2.988,1.17c-2.84,0-4.555-2.21-4.555-6.241,0-3.925,1.665-6.162,4.58-6.162a4.129,4.129,0,0,1,2.792,1.014Zm-1.764,14.847a3.112,3.112,0,0,0,1.764-.494v-4.681a3.335,3.335,0,0,0-1.764-.468c-1.567,0-2.082,1.17-2.082,2.782S543.326,890.334,544.918,890.334Z" fill="#fff"/>
        <path d="M559.44,875.487h3.477v17.94h-3.306v-.883a4.211,4.211,0,0,1-2.988,1.17c-2.841,0-4.554-2.21-4.554-6.241,0-3.925,1.665-6.162,4.579-6.162a4.129,4.129,0,0,1,2.792,1.014Zm-1.763,14.847a3.1,3.1,0,0,0,1.763-.494v-4.681a3.332,3.332,0,0,0-1.763-.468c-1.567,0-2.082,1.17-2.082,2.782S556.084,890.334,557.677,890.334Z" fill="#fff"/>
        <path d="M568.622,875.487v13.832c0,.65.221.858.882.858h.49v3.407h-1.715c-2.424,0-3.134-1.664-3.134-3.666V875.487Z" fill="#fff"/>
        <path d="M579.545,889.6l1.592,2.366a5.9,5.9,0,0,1-4.189,1.743c-3.966,0-5.706-2.6-5.706-6.215,0-3.3,1.837-6.188,5.315-6.188,3.575,0,4.848,2.653,4.848,5.226a11.157,11.157,0,0,1-.195,2.158h-6.466a1.952,1.952,0,0,0,1.963,1.941,2.1,2.1,0,0,0,.237-.016A4.256,4.256,0,0,0,579.545,889.6Zm-1.348-3.484a1.807,1.807,0,0,0,.025-.312,1.511,1.511,0,0,0-1.426-1.592,1.594,1.594,0,0,0-.239.006A1.8,1.8,0,0,0,574.741,886c0,.039,0,.077,0,.116Z" fill="#fff"/>
        <path d="M594.9,883.755h6.9c.074.7.147,1.586.147,1.924,0,4.29-2.131,8.008-6.979,8.008-4.7,0-7.593-2.912-7.593-9.074,0-6.344,3.013-9.023,7.936-9.023a6.049,6.049,0,0,1,5.657,3.329l-2.817,1.923a3.3,3.3,0,0,0-3.012-1.871c-2.474,0-3.845,1.612-3.845,5.642,0,4.394,1.3,5.694,3.674,5.694a2.993,2.993,0,0,0,3.147-2.831,3.063,3.063,0,0,0-.012-.469h-3.2Z" fill="#fff"/>
        <path d="M607.02,883.417a3.274,3.274,0,0,1,2.914-2.106,4.517,4.517,0,0,1,1.224.156l-.22,3.9a7.953,7.953,0,0,0-1.935-.26,2.114,2.114,0,0,0-1.861,1.014v7.306h-3.478V881.571H607v1.846Z" fill="#fff"/>
        <path d="M620.366,889.6l1.592,2.366a5.9,5.9,0,0,1-4.188,1.743c-3.967,0-5.706-2.6-5.706-6.215,0-3.3,1.837-6.188,5.314-6.188,3.575,0,4.849,2.653,4.849,5.226a11.084,11.084,0,0,1-.2,2.158h-6.465a1.951,1.951,0,0,0,1.961,1.941,1.906,1.906,0,0,0,.239-.016A4.256,4.256,0,0,0,620.366,889.6Zm-1.347-3.484a1.814,1.814,0,0,0,.024-.312,1.511,1.511,0,0,0-1.426-1.592,1.594,1.594,0,0,0-.239.006,1.8,1.8,0,0,0-1.815,1.785c0,.038,0,.077,0,.115Z" fill="#fff"/>
        <path d="M628.838,888.825l2.18-7.254h3.722l-6.417,17.473h-3.5l2.328-6.006-4.532-11.467h3.895Z" fill="#fff"/>
        <path d="M512.51,934.364l.269-1.958h2.093l.436-3.08h-2.031l.228-1.981h2.1l.539-3.762h2.01l-.56,3.762h2.425l.559-3.762h1.99l-.519,3.762h2.135l-.27,1.981h-2.175l-.436,3.08h2.135l-.249,1.958h-2.2l-.581,4.093h-2l.6-4.093h-2.425l-.58,4.093h-2.03l.6-4.093Zm4.351-1.958h2.446l.435-3.08H517.3Z" fill="#fff"/>
        <path d="M525.9,934.43a3.57,3.57,0,0,1,2.673-3.631,3.285,3.285,0,0,1-2.383-3.3c0-2.531,1.782-4.159,4.683-4.159,2.922,0,4.683,1.628,4.683,4.159a3.292,3.292,0,0,1-2.362,3.3,3.58,3.58,0,0,1,2.631,3.631c0,2.75-1.989,4.269-4.952,4.269S525.9,937.18,525.9,934.43Zm7.667-.2a2.707,2.707,0,0,0-5.388,0,2.373,2.373,0,0,0,2.674,2.464c1.653,0,2.71-.878,2.71-2.462Zm-5.119-6.623a2.432,2.432,0,1,0,2.234-2.234A2.435,2.435,0,0,0,528.448,927.607Z" fill="#fff"/>
        <path d="M538.369,923.583h8.5v1.98h-6.237v4.775h5.3v1.98h-5.3v6.139h-2.259Z" fill="#fff"/>
        <path d="M551.029,934.673a1.936,1.936,0,0,0,1.858,2.011,1.98,1.98,0,0,0,.3-.011c2.031,0,2.9-2.089,2.9-5.1a4.419,4.419,0,0,1-3.254,1.518c-2.693,0-4.309-1.892-4.309-4.752,0-2.685,1.575-5,4.848-5,3.5,0,4.974,3.059,4.974,7.173,0,4.841-1.534,8.186-5.16,8.186-2.984,0-4.372-1.8-4.372-4.026Zm2.342-9.331c-1.719,0-2.59,1.189-2.59,2.971,0,1.738.891,2.839,2.59,2.839a3.092,3.092,0,0,0,2.673-1.782C556.044,927.214,555.236,925.342,553.371,925.342Z" fill="#fff"/>
        <path d="M563.794,938.457v-12.63l-3.71,1.584-.558-1.826,4.537-2h1.927v14.874Z" fill="#fff"/>
        <path d="M571,934.673a1.935,1.935,0,0,0,1.856,2.011,1.989,1.989,0,0,0,.3-.011c2.032,0,2.9-2.089,2.9-5.1a4.419,4.419,0,0,1-3.254,1.518c-2.694,0-4.31-1.892-4.31-4.752,0-2.685,1.575-5,4.849-5,3.5,0,4.973,3.059,4.973,7.173,0,4.841-1.534,8.186-5.16,8.186-2.983,0-4.372-1.8-4.372-4.026Zm2.342-9.331c-1.72,0-2.59,1.189-2.59,2.971,0,1.738.891,2.839,2.59,2.839a3.092,3.092,0,0,0,2.673-1.782c0-2.156-.8-4.028-2.669-4.028Z" fill="#fff"/>
        <path d="M589.011,927.785c0,2.091-1.264,3.719-2.8,5.435l-2.9,3.3h5.9v1.937H580.37v-1.672l4.352-4.973c1.264-1.431,2.01-2.619,2.01-4.027s-.726-2.42-2.135-2.42c-1.45,0-2.154,1.056-2.154,2.641h-2.2c0-2.751,1.451-4.666,4.352-4.666a4.2,4.2,0,0,1,4.418,3.971A4.409,4.409,0,0,1,589.011,927.785Z" fill="#fff"/>
        <rect x="725.483" y="820.284" width="241.717" height="170" fill="#bfbfbf"/>
        <path d="M756.349,875.85h5.461c5.657,0,8.327,2.731,8.327,8.789s-2.67,8.788-8.327,8.788h-5.461Zm5.217,14.327c3.428,0,4.652-1.326,4.652-5.538,0-4.082-1.224-5.538-4.652-5.538h-1.421v11.076Z" fill="#fff"/>
        <path d="M778.169,893.427V892.1a4.246,4.246,0,0,1-3.453,1.613,3.2,3.2,0,0,1-3.272-3.126,3.286,3.286,0,0,1,.014-.384c0-2.679,2.155-3.849,5.56-4.057l.906-.052v-.546c0-.78-.318-1.378-1.543-1.378-.955,0-1.421.442-1.421.962v.364h-2.987c-.025-.234-.049-.572-.049-.78,0-2.054,1.861-3.406,4.7-3.406,2.768,0,4.776,1.2,4.776,4.238v7.878Zm-2.058-2.469a2.75,2.75,0,0,0,1.813-.781v-1.923l-.906.129c-1.371.208-2.033.728-2.033,1.56C774.985,890.645,775.45,890.958,776.111,890.958Z" fill="#fff"/>
        <path d="M786.96,883.417a3.274,3.274,0,0,1,2.914-2.106,4.52,4.52,0,0,1,1.225.156l-.221,3.9a7.944,7.944,0,0,0-1.934-.26,2.114,2.114,0,0,0-1.862,1.014v7.306h-3.477V881.571h3.331v1.846Z" fill="#fff"/>
        <path d="M799.841,893.427l-2.547-4.94-1.273,1.326v3.614h-3.479v-17.94h3.479v10.062l3.624-3.978h4.187l-4.163,4.342,3.992,7.514Z" fill="#fff"/>
        <path d="M816.272,883.755h6.906c.074.7.147,1.586.147,1.924,0,4.29-2.131,8.008-6.979,8.008-4.7,0-7.593-2.912-7.593-9.074,0-6.344,3.013-9.023,7.936-9.023a6.049,6.049,0,0,1,5.657,3.329l-2.817,1.923a3.3,3.3,0,0,0-3.012-1.871c-2.474,0-3.845,1.612-3.845,5.642,0,4.394,1.3,5.694,3.674,5.694a2.993,2.993,0,0,0,3.147-2.831,3.063,3.063,0,0,0-.012-.469h-3.209Z" fill="#fff"/>
        <path d="M828.394,883.417a3.274,3.274,0,0,1,2.914-2.106,4.517,4.517,0,0,1,1.224.156l-.22,3.9a7.953,7.953,0,0,0-1.935-.26,2.114,2.114,0,0,0-1.861,1.014v7.306h-3.478V881.571h3.331v1.846Z" fill="#fff"/>
        <path d="M841.739,889.6l1.592,2.366a5.9,5.9,0,0,1-4.187,1.743c-3.968,0-5.706-2.6-5.706-6.215,0-3.3,1.836-6.188,5.313-6.188,3.576,0,4.85,2.653,4.85,5.226a11.084,11.084,0,0,1-.2,2.158H836.94a1.951,1.951,0,0,0,2.2,1.925A4.251,4.251,0,0,0,841.739,889.6Zm-1.346-3.484a2.039,2.039,0,0,0,.024-.312,1.512,1.512,0,0,0-1.428-1.592,1.577,1.577,0,0,0-.238.006,1.8,1.8,0,0,0-1.814,1.786q0,.057,0,.114Z" fill="#fff"/>
        <path d="M850.212,888.825l2.18-7.254h3.722L849.7,899.044h-3.5l2.328-6.006-4.532-11.467h3.895Z" fill="#fff"/>
        <path d="M871.909,881.051c0,2.418-1.617,4.472-3.38,6.448l-2.449,2.757h5.878v3.171h-10.8V890.75l4.923-5.591c1.249-1.4,2.032-2.678,2.032-4.108,0-1.274-.562-2.211-1.738-2.211-1.322,0-1.886,1.015-1.886,2.627h-3.673c0-3.51,1.763-5.9,5.559-5.9a5.252,5.252,0,0,1,5.532,4.955C871.916,880.7,871.917,880.875,871.909,881.051Z" fill="#fff"/>
        <path d="M879.182,893.714c-3.919,0-5.706-2.132-5.706-5.1h3.673a1.765,1.765,0,0,0,1.689,1.836,1.791,1.791,0,0,0,.319-.016c1.543,0,2.2-1.04,2.2-2.678a2.178,2.178,0,0,0-2.2-2.47,3.028,3.028,0,0,0-2.033.78l-2.889-.546,1.077-9.673h9.11v3.173h-6.146l-.368,3.458a4.877,4.877,0,0,1,2.057-.468c2.6,0,5.217,1.535,5.217,5.772a5.59,5.59,0,0,1-6,5.932Z" fill="#fff"/>
        <path d="M755.605,934.364l.269-1.958h2.093l.435-3.08h-2.031l.228-1.981h2.094l.538-3.762h2.009l-.558,3.762h2.424l.559-3.762h1.989l-.517,3.762h2.134l-.27,1.981h-2.176l-.434,3.08h2.134l-.248,1.958h-2.2l-.58,4.093h-2.01l.6-4.093h-2.424l-.58,4.093h-2.031l.6-4.093Zm4.351-1.958H762.4l.434-3.08h-2.445Z" fill="#fff"/>
        <path d="M769.528,923.583h4.622c3.17,0,4.475,1.54,4.475,3.85a3.031,3.031,0,0,1-2.071,3.191,3.5,3.5,0,0,1,2.776,3.674c0,3.037-1.948,4.159-5.077,4.159h-4.725Zm4.332,6.2c1.823,0,2.424-.859,2.424-2.179,0-1.254-.622-2.046-2.445-2.046h-2.052v4.225Zm.269,6.688c2.052,0,2.88-.748,2.88-2.332,0-1.452-.808-2.376-2.88-2.376h-2.342v4.708Z" fill="#fff"/>
        <path d="M781.713,923.583h8.5v1.98h-6.237v4.775h5.3v1.98h-5.3v6.139h-2.259Z" fill="#fff"/>
        <path d="M792.487,923.583h4.622c3.169,0,4.475,1.54,4.475,3.85a3.031,3.031,0,0,1-2.072,3.191,3.5,3.5,0,0,1,2.776,3.674c0,3.037-1.947,4.159-5.076,4.159h-4.725Zm4.332,6.2c1.823,0,2.423-.859,2.423-2.179,0-1.254-.621-2.046-2.445-2.046h-2.051v4.225Zm.269,6.688c2.051,0,2.88-.748,2.88-2.332,0-1.452-.809-2.376-2.88-2.376h-2.342v4.708Z" fill="#fff"/>
        <path d="M804.671,923.583h8.5v1.98H806.93v4.775h5.305v1.98H806.93v6.139h-2.259Z" fill="#fff"/>
        <path d="M815.445,923.583h4.622c3.169,0,4.475,1.54,4.475,3.85a3.031,3.031,0,0,1-2.072,3.191,3.5,3.5,0,0,1,2.776,3.674c0,3.037-1.947,4.159-5.076,4.159h-4.725Zm4.332,6.2c1.823,0,2.423-.859,2.423-2.179,0-1.254-.621-2.046-2.445-2.046H817.7v4.225Zm.269,6.688c2.051,0,2.88-.748,2.88-2.332,0-1.452-.809-2.376-2.88-2.376H817.7v4.708Z" fill="#fff"/>
        <path d="M827.629,923.583h8.5v1.98h-6.237v4.775h5.3v1.98h-5.3v6.139h-2.259Z" fill="#fff"/>
        <rect x="967.2" y="820.284" width="241.717" height="170" fill="#e8e8e8"/>
        <path d="M1008.155,890.177v3.25h-10.09V875.85h3.8v14.327Z" fill="#39393a"/>
        <path d="M1009.28,897.619a1.868,1.868,0,0,1,1.637-2.074,2.163,2.163,0,0,1,2.361,1.841,1.813,1.813,0,0,1,0,.233,1.85,1.85,0,0,1-1.657,2.024,2.254,2.254,0,0,1-2.338-1.558A1.773,1.773,0,0,1,1009.28,897.619Zm.319-16.048h3.477v11.856H1009.6Z" fill="#39393a"/>
        <path d="M1025.835,881.571v12.48c0,2.861-1.983,4.785-5.266,4.785-3.159,0-4.75-1.638-4.75-4.082h2.963c0,.6.564,1.221,1.787,1.221,1.176,0,1.789-.572,1.789-1.664v-1.742a3.933,3.933,0,0,1-2.621,1.145c-2.988,0-4.726-2.081-4.726-6.241,0-4.056,1.763-6.162,4.7-6.162a3.877,3.877,0,0,1,2.865,1.118v-.858Zm-5.241,8.763a3.318,3.318,0,0,0,1.764-.494v-4.733a3.477,3.477,0,0,0-1.764-.416c-1.616,0-2.081,1.17-2.081,2.782s.44,2.861,2.081,2.861Z" fill="#39393a"/>
        <path d="M1028.136,875.487h3.478v7.124a4.08,4.08,0,0,1,3.208-1.3c2.4,0,3.772,1.664,3.772,4.784v7.332h-3.478v-6.89c0-1.222-.49-1.846-1.763-1.846a3.432,3.432,0,0,0-1.739.624v8.112h-3.478Z" fill="#39393a"/>
        <path d="M1045.45,889.294c0,.779.441,1.04,1.1,1.04a7.015,7.015,0,0,0,1.2-.13v3.2a9.637,9.637,0,0,1-2.425.313c-2.448,0-3.354-1.691-3.354-3.874v-5.175h-1.985v-2.834l1.985-.26V878.74l3.477-.546v3.38h2.253v3.094h-2.253Z" fill="#39393a"/>
        <path d="M1061.22,883.755h6.906c.074.7.148,1.586.148,1.924,0,4.29-2.131,8.008-6.98,8.008-4.7,0-7.593-2.912-7.593-9.074,0-6.344,3.013-9.023,7.936-9.023a6.049,6.049,0,0,1,5.657,3.329l-2.816,1.923a3.3,3.3,0,0,0-3.013-1.871c-2.474,0-3.845,1.612-3.845,5.642,0,4.394,1.3,5.694,3.674,5.694a2.993,2.993,0,0,0,3.147-2.831,3.063,3.063,0,0,0-.012-.469h-3.209Z" fill="#39393a"/>
        <path d="M1073.342,883.417a3.275,3.275,0,0,1,2.914-2.106,4.559,4.559,0,0,1,1.225.156l-.221,3.9a7.953,7.953,0,0,0-1.935-.26,2.114,2.114,0,0,0-1.861,1.014v7.306h-3.478V881.571h3.332v1.846Z" fill="#39393a"/>
        <path d="M1086.689,889.6l1.591,2.366a5.9,5.9,0,0,1-4.188,1.743c-3.967,0-5.706-2.6-5.706-6.215,0-3.3,1.837-6.188,5.314-6.188,3.576,0,4.849,2.653,4.849,5.226a11.157,11.157,0,0,1-.195,2.158h-6.466a1.95,1.95,0,0,0,1.961,1.941,1.906,1.906,0,0,0,.239-.016A4.256,4.256,0,0,0,1086.689,889.6Zm-1.348-3.484a2.039,2.039,0,0,0,.024-.312,1.511,1.511,0,0,0-1.426-1.592,1.59,1.59,0,0,0-.239.006,1.8,1.8,0,0,0-1.815,1.785c0,.038,0,.077,0,.115Z" fill="#39393a"/>
        <path d="M1095.16,888.825l2.18-7.254h3.723l-6.417,17.473h-3.5l2.327-6.006-4.531-11.467h3.894Z" fill="#39393a"/>
        <path d="M997.32,934.364l.27-1.958h2.093l.435-3.08h-2.03l.228-1.981h2.092l.539-3.762h2.01l-.559,3.762h2.424l.56-3.762h1.989l-.518,3.762h2.134l-.269,1.981h-2.176l-.435,3.08h2.134l-.249,1.958h-2.2l-.58,4.093h-2.01l.6-4.093h-2.425l-.58,4.093h-2.03l.6-4.093Zm4.352-1.958h2.445l.436-3.08h-2.445Z" fill="#39393a"/>
        <path d="M1020.052,936.476v1.981h-8.807V923.583h8.744v1.98H1013.5v4.357h5.678V931.9H1013.5v4.576Z" fill="#39393a"/>
        <path d="M1021.937,934.43a3.57,3.57,0,0,1,2.673-3.631,3.285,3.285,0,0,1-2.383-3.3c0-2.531,1.782-4.159,4.683-4.159,2.922,0,4.683,1.628,4.683,4.159a3.292,3.292,0,0,1-2.362,3.3,3.58,3.58,0,0,1,2.631,3.631c0,2.75-1.989,4.269-4.952,4.269S1021.937,937.18,1021.937,934.43Zm7.667-.2a2.707,2.707,0,0,0-5.388,0,2.373,2.373,0,0,0,2.674,2.464c1.657,0,2.71-.878,2.71-2.462Zm-5.118-6.623a2.431,2.431,0,1,0,2.24-2.24A2.433,2.433,0,0,0,1024.486,927.607Z" fill="#39393a"/>
        <path d="M1043.217,936.476v1.981h-8.807V923.583h8.745v1.98h-6.486v4.357h5.678V931.9h-5.678v4.576Z" fill="#39393a"/>
        <path d="M1045.1,934.43a3.568,3.568,0,0,1,2.673-3.631,3.285,3.285,0,0,1-2.383-3.3c0-2.531,1.782-4.159,4.682-4.159,2.922,0,4.684,1.628,4.684,4.159a3.292,3.292,0,0,1-2.362,3.3,3.58,3.58,0,0,1,2.631,3.631c0,2.75-1.989,4.269-4.953,4.269S1045.1,937.18,1045.1,934.43Zm7.667-.2a2.419,2.419,0,0,0-2.377-2.46,2.385,2.385,0,0,0-.338.018,2.462,2.462,0,1,0,0,4.906c1.661,0,2.718-.878,2.718-2.462Zm-5.118-6.623a2.431,2.431,0,1,0,2.24-2.24A2.433,2.433,0,0,0,1047.649,927.607Z" fill="#39393a"/>
        <path d="M1066.383,936.476v1.981h-8.807V923.583h8.744v1.98h-6.485v4.357h5.678V931.9h-5.678v4.576Z" fill="#39393a"/>
        <path d="M1068.268,934.43a3.569,3.569,0,0,1,2.673-3.631,3.285,3.285,0,0,1-2.383-3.3c0-2.531,1.782-4.159,4.683-4.159,2.922,0,4.683,1.628,4.683,4.159a3.292,3.292,0,0,1-2.362,3.3,3.581,3.581,0,0,1,2.632,3.631c0,2.75-1.99,4.269-4.953,4.269S1068.268,937.18,1068.268,934.43Zm7.667-.2a2.707,2.707,0,0,0-5.388,0,2.373,2.373,0,0,0,2.674,2.464c1.657,0,2.714-.878,2.714-2.462Zm-5.118-6.623a2.431,2.431,0,1,0,2.24-2.24A2.433,2.433,0,0,0,1070.817,927.607Z" fill="#39393a"/>
        <rect x="1208.916" y="820.284" width="241.717" height="170" fill="#f2f2f2"/>
        <path d="M1239.635,886.641V875.85h3.8v10.661c0,2.47.734,3.8,2.743,3.8s2.719-1.326,2.719-3.8V875.85h3.8v10.791c0,4.888-2.67,7.046-6.515,7.046C1242.279,893.687,1239.635,891.529,1239.635,886.641Z" fill="#39393a"/>
        <path d="M1258.565,875.487v13.832c0,.65.219.858.881.858h.49v3.407h-1.714c-2.425,0-3.135-1.664-3.135-3.666V875.487Z" fill="#39393a"/>
        <path d="M1266.131,889.294c0,.779.441,1.04,1.1,1.04a7.117,7.117,0,0,0,1.2-.13v3.2a9.637,9.637,0,0,1-2.425.313c-2.449,0-3.356-1.691-3.356-3.874v-5.175h-1.983v-2.834l1.983-.26V878.74l3.478-.546v3.38h2.253v3.094h-2.253Z" fill="#39393a"/>
        <path d="M1273.6,883.417a3.277,3.277,0,0,1,2.914-2.106,4.517,4.517,0,0,1,1.224.156l-.219,3.9a7.961,7.961,0,0,0-1.936-.26,2.111,2.111,0,0,0-1.86,1.014v7.306h-3.479V881.571h3.331v1.846Z" fill="#39393a"/>
        <path d="M1285.257,893.427V892.1a4.246,4.246,0,0,1-3.453,1.613,3.2,3.2,0,0,1-3.272-3.126,3.081,3.081,0,0,1,.014-.384c0-2.679,2.155-3.849,5.56-4.057l.906-.052v-.546c0-.78-.318-1.378-1.543-1.378-.955,0-1.421.442-1.421.962v.364h-2.987c-.025-.234-.049-.572-.049-.78,0-2.054,1.861-3.406,4.7-3.406,2.768,0,4.775,1.2,4.775,4.238v7.878Zm-2.058-2.469a2.75,2.75,0,0,0,1.813-.781v-1.923l-.906.129c-1.371.208-2.034.728-2.034,1.56,0,.7.466,1.015,1.128,1.015Z" fill="#39393a"/>
        <path d="M1305.558,890.177v3.25h-10.091V875.85h3.8v14.327Z" fill="#39393a"/>
        <path d="M1306.683,897.619a1.868,1.868,0,0,1,1.637-2.074,2.163,2.163,0,0,1,2.361,1.842,2,2,0,0,1-.006.232,1.85,1.85,0,0,1-1.657,2.024,1.88,1.88,0,0,1-.327,0,1.8,1.8,0,0,1-2.01-1.562A1.773,1.773,0,0,1,1306.683,897.619Zm.318-16.048h3.478v11.856H1307Z" fill="#39393a"/>
        <path d="M1323.237,881.571v12.48c0,2.861-1.983,4.785-5.265,4.785-3.159,0-4.751-1.638-4.751-4.082h2.964c0,.6.563,1.221,1.787,1.221,1.176,0,1.788-.572,1.788-1.664v-1.742a3.929,3.929,0,0,1-2.62,1.145c-2.988,0-4.727-2.081-4.727-6.241,0-4.056,1.763-6.162,4.7-6.162a3.881,3.881,0,0,1,2.866,1.118v-.858ZM1318,890.334a3.318,3.318,0,0,0,1.764-.494v-4.733a3.475,3.475,0,0,0-1.764-.416c-1.616,0-2.081,1.17-2.081,2.782S1316.356,890.334,1318,890.334Z" fill="#39393a"/>
        <path d="M1325.538,875.487h3.479v7.124a4.074,4.074,0,0,1,3.208-1.3c2.4,0,3.771,1.664,3.771,4.784v7.332h-3.477v-6.89c0-1.222-.491-1.846-1.764-1.846a3.425,3.425,0,0,0-1.738.624v8.112h-3.479Z" fill="#39393a"/>
        <path d="M1342.853,889.294c0,.779.44,1.04,1.1,1.04a7.015,7.015,0,0,0,1.2-.13v3.2a9.623,9.623,0,0,1-2.424.313c-2.449,0-3.355-1.691-3.355-3.874v-5.175h-1.984v-2.834l1.984-.26V878.74l3.478-.546v3.38h2.253v3.094h-2.253Z" fill="#39393a"/>
        <path d="M1358.622,883.755h6.906c.075.7.148,1.586.148,1.924,0,4.29-2.131,8.008-6.98,8.008-4.7,0-7.592-2.912-7.592-9.074,0-6.344,3.012-9.023,7.935-9.023a6.049,6.049,0,0,1,5.657,3.329l-2.816,1.923a3.3,3.3,0,0,0-3.013-1.871c-2.473,0-3.844,1.612-3.844,5.642,0,4.394,1.3,5.694,3.673,5.694a2.993,2.993,0,0,0,3.147-2.831,3.063,3.063,0,0,0-.012-.469h-3.209Z" fill="#39393a"/>
        <path d="M1370.744,883.417a3.274,3.274,0,0,1,2.914-2.106,4.52,4.52,0,0,1,1.225.156l-.221,3.9a7.944,7.944,0,0,0-1.934-.26,2.114,2.114,0,0,0-1.862,1.014v7.306h-3.477V881.571h3.331v1.846Z" fill="#39393a"/>
        <path d="M1384.09,889.6l1.592,2.366a5.9,5.9,0,0,1-4.188,1.743c-3.967,0-5.706-2.6-5.706-6.215,0-3.3,1.836-6.188,5.314-6.188,3.576,0,4.849,2.653,4.849,5.226a11.084,11.084,0,0,1-.2,2.158h-6.465a1.951,1.951,0,0,0,1.961,1.941,1.906,1.906,0,0,0,.239-.016A4.259,4.259,0,0,0,1384.09,889.6Zm-1.347-3.484a1.912,1.912,0,0,0,.025-.312,1.512,1.512,0,0,0-1.428-1.592,1.577,1.577,0,0,0-.238.006,1.8,1.8,0,0,0-1.815,1.785c0,.038,0,.077,0,.115Z" fill="#39393a"/>
        <path d="M1392.563,888.825l2.179-7.254h3.723l-6.417,17.473h-3.5l2.327-6.006-4.531-11.467h3.894Z" fill="#39393a"/>
        <path d="M1239.037,934.364l.27-1.958h2.093l.435-3.08h-2.03l.227-1.981h2.093l.539-3.762h2.01l-.56,3.762h2.425l.56-3.762h1.989l-.519,3.762h2.135l-.269,1.981h-2.176l-.436,3.08h2.135l-.249,1.958h-2.2l-.58,4.093h-2.01l.6-4.093H1243.1l-.58,4.093h-2.031l.6-4.093Zm4.352-1.958h2.445l.436-3.08h-2.446Z" fill="#39393a"/>
        <path d="M1252.962,923.583h8.5v1.98h-6.237v4.775h5.305v1.98h-5.305v6.139h-2.259Z" fill="#39393a"/>
        <path d="M1271.88,927.785c0,2.091-1.264,3.719-2.8,5.435l-2.9,3.3h5.9v1.937h-8.848v-1.672l4.352-4.973c1.264-1.431,2.01-2.619,2.01-4.027s-.726-2.42-2.135-2.42c-1.45,0-2.154,1.056-2.154,2.641h-2.2c0-2.751,1.452-4.666,4.352-4.666a4.2,4.2,0,0,1,4.424,3.963A4.079,4.079,0,0,1,1271.88,927.785Z" fill="#39393a"/>
        <path d="M1274.552,923.583h8.5v1.98h-6.237v4.775h5.3v1.98h-5.3v6.139h-2.259Z" fill="#39393a"/>
        <path d="M1293.47,927.785c0,2.091-1.264,3.719-2.8,5.435l-2.9,3.3h5.906v1.937h-8.849v-1.672l4.352-4.973c1.263-1.431,2.01-2.619,2.01-4.027s-.725-2.42-2.134-2.42c-1.45,0-2.155,1.056-2.155,2.641h-2.2c0-2.751,1.45-4.666,4.352-4.666a4.2,4.2,0,0,1,4.418,4.445Z" fill="#39393a"/>
        <path d="M1296.143,923.583h8.5v1.98H1298.4v4.775h5.3v1.98h-5.3v6.139h-2.259Z" fill="#39393a"/>
        <path d="M1315.061,927.785c0,2.091-1.264,3.719-2.8,5.435l-2.9,3.3h5.906v1.937h-8.848v-1.672l4.352-4.973c1.263-1.431,2.009-2.619,2.009-4.027s-.725-2.42-2.134-2.42c-1.451,0-2.155,1.056-2.155,2.641h-2.2c0-2.751,1.451-4.666,4.352-4.666a4.2,4.2,0,0,1,4.419,3.969A3.979,3.979,0,0,1,1315.061,927.785Z" fill="#39393a"/>
        <rect x="1450.633" y="820.284" width="241.717" height="170" fill="#f6f6f7" stroke="#000" stroke-miterlimit="10" stroke-width="0.5"/>
        <path d="M1481.351,886.641V875.85h3.8v10.661c0,2.47.734,3.8,2.742,3.8s2.719-1.326,2.719-3.8V875.85h3.8v10.791c0,4.888-2.668,7.046-6.514,7.046C1484,893.687,1481.351,891.529,1481.351,886.641Z" fill="#39393a"/>
        <path d="M1500.28,875.487v13.832c0,.65.221.858.882.858h.49v3.407h-1.714c-2.425,0-3.135-1.664-3.135-3.666V875.487Z" fill="#39393a"/>
        <path d="M1507.848,889.294c0,.779.44,1.04,1.1,1.04a7.117,7.117,0,0,0,1.2-.13v3.2a9.637,9.637,0,0,1-2.425.313c-2.448,0-3.355-1.691-3.355-3.874v-5.175h-1.984v-2.834l1.984-.26V878.74l3.478-.546v3.38h2.253v3.094h-2.253Z" fill="#39393a"/>
        <path d="M1515.317,883.417a3.274,3.274,0,0,1,2.914-2.106,4.517,4.517,0,0,1,1.224.156l-.22,3.9a7.953,7.953,0,0,0-1.935-.26,2.114,2.114,0,0,0-1.861,1.014v7.306h-3.478V881.571h3.331v1.846Z" fill="#39393a"/>
        <path d="M1526.973,893.427V892.1a4.246,4.246,0,0,1-3.453,1.613,3.2,3.2,0,0,1-3.271-3.127,3.261,3.261,0,0,1,.014-.383c0-2.679,2.155-3.849,5.558-4.057l.907-.052v-.546c0-.78-.319-1.378-1.543-1.378-.955,0-1.42.442-1.42.962v.364h-2.988c-.025-.234-.049-.572-.049-.78,0-2.054,1.861-3.406,4.7-3.406,2.767,0,4.775,1.2,4.775,4.238v7.878Zm-2.057-2.469a2.747,2.747,0,0,0,1.812-.781v-1.923l-.907.129c-1.371.208-2.032.728-2.032,1.56C1523.789,890.645,1524.254,890.958,1524.916,890.958Z" fill="#39393a"/>
        <path d="M1547.274,890.177v3.25h-10.09V875.85h3.8v14.327Z" fill="#39393a"/>
        <path d="M1548.4,897.619a1.868,1.868,0,0,1,1.637-2.074,2.163,2.163,0,0,1,2.361,1.842,2,2,0,0,1-.006.232,1.85,1.85,0,0,1-1.657,2.024,1.88,1.88,0,0,1-.327,0,1.8,1.8,0,0,1-2.01-1.562A1.773,1.773,0,0,1,1548.4,897.619Zm.319-16.048h3.477v11.856h-3.477Z" fill="#39393a"/>
        <path d="M1564.954,881.571v12.48c0,2.861-1.984,4.785-5.265,4.785-3.16,0-4.751-1.638-4.751-4.082h2.963c0,.6.563,1.221,1.788,1.221,1.175,0,1.788-.572,1.788-1.664v-1.742a3.933,3.933,0,0,1-2.621,1.145c-2.988,0-4.727-2.081-4.727-6.241,0-4.056,1.764-6.162,4.7-6.162a3.873,3.873,0,0,1,2.865,1.118v-.858Zm-5.241,8.763a3.327,3.327,0,0,0,1.764-.494v-4.733a3.477,3.477,0,0,0-1.764-.416c-1.616,0-2.082,1.17-2.082,2.782S1558.072,890.334,1559.713,890.334Z" fill="#39393a"/>
        <path d="M1567.255,875.487h3.478v7.124a4.077,4.077,0,0,1,3.208-1.3c2.4,0,3.771,1.664,3.771,4.784v7.332h-3.477v-6.89c0-1.222-.49-1.846-1.763-1.846a3.432,3.432,0,0,0-1.739.624v8.112h-3.478Z" fill="#39393a"/>
        <path d="M1584.569,889.294c0,.779.441,1.04,1.1,1.04a7.117,7.117,0,0,0,1.2-.13v3.2a9.637,9.637,0,0,1-2.425.313c-2.449,0-3.355-1.691-3.355-3.874v-5.175h-1.983v-2.834l1.983-.26V878.74l3.478-.546v3.38h2.252v3.094h-2.252Z" fill="#39393a"/>
        <path d="M1600.339,883.755h6.906c.074.7.147,1.586.147,1.924,0,4.29-2.13,8.008-6.98,8.008-4.7,0-7.592-2.912-7.592-9.074,0-6.344,3.013-9.023,7.935-9.023a6.049,6.049,0,0,1,5.657,3.329l-2.816,1.923a3.3,3.3,0,0,0-3.012-1.871c-2.473,0-3.846,1.612-3.846,5.642,0,4.394,1.3,5.694,3.674,5.694a2.993,2.993,0,0,0,3.147-2.831,3.063,3.063,0,0,0-.012-.469h-3.208Z" fill="#39393a"/>
        <path d="M1612.46,883.417a3.277,3.277,0,0,1,2.914-2.106,4.525,4.525,0,0,1,1.225.156l-.22,3.9a7.953,7.953,0,0,0-1.935-.26,2.114,2.114,0,0,0-1.861,1.014v7.306h-3.478V881.571h3.331v1.846Z" fill="#39393a"/>
        <path d="M1625.807,889.6l1.592,2.366a5.9,5.9,0,0,1-4.189,1.743c-3.967,0-5.706-2.6-5.706-6.215,0-3.3,1.837-6.188,5.315-6.188,3.575,0,4.848,2.653,4.848,5.226a11.157,11.157,0,0,1-.195,2.158h-6.466a1.951,1.951,0,0,0,1.961,1.941,1.906,1.906,0,0,0,.239-.016A4.256,4.256,0,0,0,1625.807,889.6Zm-1.348-3.484a1.912,1.912,0,0,0,.025-.312,1.511,1.511,0,0,0-1.426-1.592,1.594,1.594,0,0,0-.239.006A1.8,1.8,0,0,0,1621,886c0,.039,0,.077,0,.116Z" fill="#39393a"/>
        <path d="M1634.278,888.825l2.18-7.254h3.723l-6.416,17.473h-3.5l2.326-6.006-4.53-11.467h3.893Z" fill="#39393a"/>
        <path d="M1655.976,881.051c0,2.418-1.616,4.472-3.38,6.448l-2.449,2.757h5.878v3.171h-10.8V890.75l4.922-5.591c1.249-1.4,2.033-2.678,2.033-4.108,0-1.274-.564-2.211-1.739-2.211-1.323,0-1.886,1.015-1.886,2.627h-3.673c0-3.51,1.763-5.9,5.559-5.9a5.251,5.251,0,0,1,5.533,4.953C1655.983,880.7,1655.984,880.874,1655.976,881.051Z" fill="#39393a"/>
        <path d="M1663.248,893.714c-3.918,0-5.706-2.132-5.706-5.1h3.674a1.765,1.765,0,0,0,1.689,1.836,1.791,1.791,0,0,0,.319-.016c1.543,0,2.2-1.04,2.2-2.678a2.178,2.178,0,0,0-2.2-2.47,3.016,3.016,0,0,0-2.032.78l-2.891-.546,1.078-9.673h9.11v3.173h-6.147l-.367,3.458a4.884,4.884,0,0,1,2.057-.468c2.6,0,5.216,1.535,5.216,5.772a5.583,5.583,0,0,1-6,5.932Z" fill="#39393a"/>
        <path d="M1480.754,934.364l.27-1.958h2.092l.435-3.08h-2.03l.227-1.981h2.094l.538-3.762h2.01l-.559,3.762h2.424l.56-3.762h1.989l-.518,3.762h2.134l-.269,1.981h-2.176l-.435,3.08h2.134l-.248,1.958h-2.2l-.58,4.093h-2.01l.6-4.093h-2.423l-.58,4.093H1482.2l.6-4.093Zm4.352-1.958h2.445l.435-3.08h-2.446Z" fill="#39393a"/>
        <path d="M1494.678,923.583h8.5v1.98h-6.237v4.775h5.3v1.98h-5.3v6.139h-2.259Z" fill="#39393a"/>
        <path d="M1510.073,925.365c-1.989,0-2.879,2.09-2.879,5.1a4.375,4.375,0,0,1,3.252-1.5c2.7,0,4.311,1.87,4.311,4.731,0,2.684-1.575,5-4.828,5-3.5,0-4.994-3.036-4.994-7.173,0-4.841,1.553-8.186,5.138-8.186,3,0,4.394,1.8,4.394,4.027h-2.218a1.942,1.942,0,0,0-2.176-2Zm-.144,11.331c1.7,0,2.569-1.188,2.569-2.97,0-1.738-.891-2.839-2.569-2.839a3.1,3.1,0,0,0-2.694,1.783c0,2.156.808,4.026,2.694,4.026Z" fill="#39393a"/>
        <path d="M1517.181,923.583h8.5v1.98h-6.237v4.775h5.3v1.98h-5.3v6.139h-2.259Z" fill="#39393a"/>
        <path d="M1532.576,925.365c-1.989,0-2.881,2.09-2.881,5.1a4.379,4.379,0,0,1,3.254-1.5c2.694,0,4.31,1.87,4.31,4.731,0,2.684-1.574,5-4.828,5-3.5,0-4.994-3.036-4.994-7.173,0-4.841,1.554-8.186,5.139-8.186,3,0,4.393,1.8,4.393,4.027h-2.217a1.942,1.942,0,0,0-1.869-2.012A1.967,1.967,0,0,0,1532.576,925.365Zm-.145,11.331c1.7,0,2.569-1.188,2.569-2.97,0-1.738-.89-2.839-2.569-2.839a3.1,3.1,0,0,0-2.694,1.783c0,2.156.808,4.026,2.694,4.026Z" fill="#39393a"/>
        <path d="M1539.683,923.583h8.5v1.98h-6.237v4.775h5.3v1.98h-5.3v6.139h-2.259Z" fill="#39393a"/>
        <path d="M1555.928,925.519h-6.382v-1.936h8.848v1.694l-5.139,13.18h-2.4Z" fill="#39393a"/>
      </g>
    </g>
  </g>
  <g data-fragment-index="1" class="fragment">
    <g>
      <rect y="400" width="300" height="300" fill="#222223"/>
      <rect y="400" width="300" height="150" fill="#333"/>
      <rect width="300" height="400" fill="#39393a"/>
      <path d="M50.044,303.28v3.876H35.937V286.2H49.951v3.876H40.742v4.682h7.814v3.876H40.742v4.65Z" fill="#fff"/>
      <path d="M52.056,304.551a2.967,2.967,0,1,1,3.137,2.786c-.043,0-.086,0-.129,0a2.835,2.835,0,0,1-3-2.656C52.058,304.641,52.057,304.6,52.056,304.551Z" fill="#fff"/>
      <path d="M68.705,307.465c-6.7,0-9.116-4.681-9.116-10.758,0-6.109,2.357-10.822,9.178-10.822,6.728,0,9.085,4.713,9.085,10.822C77.852,302.784,75.341,307.465,68.705,307.465Zm0-4.03c3.349,0,4.217-2.76,4.217-6.728,0-4.031-.9-6.79-4.155-6.79-3.286,0-4.217,2.759-4.217,6.79C64.55,300.675,65.264,303.435,68.705,303.435Z" fill="#fff"/>
      <path d="M93.319,286.2H98.1v20.96H93.227l-7.658-13.333.03,13.333H80.732l.031-20.96h5.054l7.5,13.084Z" fill="#fff"/>
      <path d="M107.452,286.2h6.914c7.162,0,10.542,3.256,10.542,10.48s-3.38,10.48-10.542,10.48h-6.914Zm6.605,17.084c4.341,0,5.89-1.581,5.89-6.6,0-4.868-1.549-6.6-5.89-6.6h-1.8v13.208Z" fill="#fff"/>
      <path d="M135.074,307.156v-1.581A5.5,5.5,0,0,1,130.7,307.5a3.922,3.922,0,0,1-4.127-3.706,4.046,4.046,0,0,1,0-.48c0-3.193,2.729-4.589,7.038-4.837l1.148-.061v-.652c0-.93-.4-1.643-1.953-1.643-1.21,0-1.8.527-1.8,1.147v.434h-3.78c-.031-.278-.062-.682-.062-.93,0-2.45,2.357-4.061,5.953-4.061,3.5,0,6.046,1.425,6.046,5.053v9.4Zm-2.6-2.945a3.587,3.587,0,0,0,2.3-.931v-2.294l-1.148.155c-1.736.248-2.573.867-2.573,1.86,0,.838.585,1.21,1.422,1.21Z" fill="#fff"/>
      <path d="M146.2,295.218a4.132,4.132,0,0,1,3.691-2.51,6.094,6.094,0,0,1,1.55.185l-.28,4.651a10.635,10.635,0,0,0-2.449-.31,2.717,2.717,0,0,0-2.356,1.209v8.713h-4.4V293.017h4.217v2.2Z" fill="#fff"/>
      <path d="M162.509,307.156l-3.225-5.892-1.612,1.582v4.31h-4.4V285.762h4.4v12l4.589-4.744h5.3l-5.272,5.178,5.054,8.961Z" fill="#fff"/>
      <path d="M183.31,295.622h8.743c.093.837.186,1.891.186,2.295,0,5.115-2.7,9.548-8.837,9.548-5.953,0-9.612-3.472-9.612-10.82,0-7.565,3.815-10.76,10.047-10.76A7.733,7.733,0,0,1,191,289.854l-3.566,2.3a4.206,4.206,0,0,0-3.814-2.232c-3.132,0-4.868,1.922-4.868,6.728,0,5.24,1.644,6.79,4.651,6.79a3.669,3.669,0,0,0,3.967-3.343,3.8,3.8,0,0,0,0-.594H183.31Z" fill="#fff"/>
      <path d="M198.653,295.218a4.131,4.131,0,0,1,3.69-2.51,6.1,6.1,0,0,1,1.551.185l-.28,4.651a10.635,10.635,0,0,0-2.449-.31,2.717,2.717,0,0,0-2.356,1.209v8.713h-4.4V293.017h4.217v2.2Z" fill="#fff"/>
      <path d="M215.55,302.6l2.015,2.822a7.7,7.7,0,0,1-5.3,2.077c-5.024,0-7.225-3.1-7.225-7.41,0-3.938,2.326-7.379,6.729-7.379,4.527,0,6.138,3.162,6.138,6.231a12.421,12.421,0,0,1-.248,2.573h-8.185c.094,1.458,1.086,2.295,2.791,2.295A5.585,5.585,0,0,0,215.55,302.6Zm-1.706-4.155a2.107,2.107,0,0,0,.031-.372,1.872,1.872,0,0,0-1.836-1.906,1.9,1.9,0,0,0-.272.015,2.207,2.207,0,0,0-2.294,2.116c0,.049,0,.1,0,.147Z" fill="#fff"/>
      <path d="M226.275,301.668l2.758-8.651h4.713l-8.123,20.836h-4.434l2.946-7.162L218.4,293.017h4.929Z" fill="#fff"/>
      <path d="M32.724,349.55l.338-2.314h2.626l.546-3.64H33.686l.286-2.34H36.6l.676-4.446H39.8l-.7,4.446h3.042l.7-4.446h2.5l-.65,4.446H47.37l-.338,2.34H44.3l-.546,3.64h2.678l-.312,2.314H43.358l-.728,4.836H40.108l.753-4.836H37.819l-.727,4.836H34.543l.755-4.836Zm5.46-2.314h3.068l.546-3.64H38.73Z" fill="#fff"/>
      <path d="M61.272,349.707c0,2.937-2.367,4.966-6.006,4.966-4.057,0-5.851-2.081-5.851-4.759h2.757c0,1.43,1.144,2.392,3.094,2.392,1.924,0,3.146-1.092,3.146-2.756,0-1.846-1.379-3.016-3.667-3.016H53.081v-2.288h1.664c2.055,0,3.381-.936,3.381-2.73A2.548,2.548,0,0,0,55.65,338.9a2.464,2.464,0,0,0-.384.018c-1.872,0-2.834,1.013-2.834,2.366H49.65c0-2.548,1.715-4.758,5.616-4.758,3.536,0,5.72,2.054,5.72,4.862a4.013,4.013,0,0,1-3.121,4A4.292,4.292,0,0,1,61.272,349.707Z" fill="#fff"/>
      <path d="M66.809,349.914c0,1.457,1.04,2.366,2.7,2.366,2.549,0,3.64-2.47,3.64-6.032a5.678,5.678,0,0,1-4.082,1.8c-3.379,0-5.408-2.237-5.408-5.618,0-3.171,1.976-5.9,6.084-5.9,4.4,0,6.24,3.614,6.24,8.476,0,5.72-1.923,9.673-6.474,9.673-3.744,0-5.486-2.132-5.486-4.759Zm2.938-11.024c-2.158,0-3.25,1.4-3.25,3.51a3.013,3.013,0,0,0,3.25,3.354,3.887,3.887,0,0,0,3.355-2.106C73.1,341.1,72.087,338.89,69.747,338.89Z" fill="#fff"/>
      <path d="M90.261,349.707c0,2.937-2.366,4.966-6.006,4.966-4.057,0-5.851-2.081-5.851-4.759h2.757c0,1.43,1.144,2.392,3.094,2.392,1.924,0,3.147-1.092,3.147-2.756,0-1.846-1.379-3.016-3.667-3.016H82.07v-2.288h1.665c2.054,0,3.38-.936,3.38-2.73a2.548,2.548,0,0,0-2.476-2.618,2.464,2.464,0,0,0-.384.018c-1.872,0-2.834,1.013-2.834,2.366H78.639c0-2.548,1.716-4.758,5.616-4.758,3.536,0,5.72,2.054,5.72,4.862a4.012,4.012,0,0,1-3.12,4A4.294,4.294,0,0,1,90.261,349.707Z" fill="#fff"/>
      <path d="M95.8,349.914c0,1.457,1.04,2.366,2.7,2.366,2.549,0,3.641-2.47,3.641-6.032a5.678,5.678,0,0,1-4.082,1.8c-3.38,0-5.409-2.237-5.409-5.618,0-3.171,1.976-5.9,6.084-5.9,4.4,0,6.241,3.614,6.241,8.476,0,5.72-1.924,9.673-6.475,9.673-3.744,0-5.485-2.132-5.485-4.759Zm2.938-11.024c-2.158,0-3.25,1.4-3.25,3.51a3.013,3.013,0,0,0,3.25,3.354,3.887,3.887,0,0,0,3.355-2.106c0-2.546-1.017-4.758-3.357-4.758Z" fill="#fff"/>
      <path d="M119.25,349.707c0,2.937-2.366,4.966-6.006,4.966-4.056,0-5.85-2.081-5.85-4.759h2.757c0,1.43,1.143,2.392,3.093,2.392,1.924,0,3.147-1.092,3.147-2.756,0-1.846-1.379-3.016-3.667-3.016H111.06v-2.288h1.664c2.054,0,3.381-.936,3.381-2.73a2.549,2.549,0,0,0-2.478-2.618,2.451,2.451,0,0,0-.383.018c-1.872,0-2.834,1.013-2.834,2.366h-2.782c0-2.548,1.716-4.758,5.616-4.758,3.536,0,5.72,2.054,5.72,4.862a4.012,4.012,0,0,1-3.12,4A4.294,4.294,0,0,1,119.25,349.707Z" fill="#fff"/>
      <path d="M131.912,350.1h-6.839l-1.429,4.29h-3.017l6.215-17.576h3.3l6.24,17.576H133.34Zm-6.085-2.366h5.357l-2.678-8.008Z" fill="#fff"/>
      <path d="M32.724,477.079l.338-2.315h2.626l.546-3.639H33.686l.286-2.341H36.6l.676-4.445H39.8l-.7,4.445h3.042l.7-4.445h2.5l-.65,4.445H47.37l-.338,2.341H44.3l-.546,3.639h2.678l-.312,2.315H43.358l-.728,4.836H40.108l.753-4.836H37.819l-.727,4.836H34.543l.755-4.836Zm5.46-2.315h3.068l.546-3.639H38.73Z" fill="#fff"/>
      <path d="M61.272,477.235c0,2.938-2.367,4.966-6.006,4.966-4.057,0-5.851-2.08-5.851-4.759h2.757c0,1.431,1.144,2.393,3.094,2.393,1.924,0,3.146-1.092,3.146-2.756,0-1.847-1.379-3.017-3.667-3.017H53.081v-2.288h1.664c2.055,0,3.381-.935,3.381-2.729a2.548,2.548,0,0,0-2.476-2.618,2.464,2.464,0,0,0-.384.018c-1.872,0-2.834,1.014-2.834,2.366H49.65c0-2.548,1.715-4.758,5.616-4.758,3.536,0,5.72,2.054,5.72,4.863a4.013,4.013,0,0,1-3.121,4A4.292,4.292,0,0,1,61.272,477.235Z" fill="#fff"/>
      <path d="M75.52,477.235c0,2.938-2.367,4.966-6.007,4.966-4.056,0-5.85-2.08-5.85-4.759h2.756c0,1.431,1.145,2.393,3.094,2.393,1.925,0,3.146-1.092,3.146-2.756,0-1.847-1.378-3.017-3.666-3.017H67.329v-2.288h1.664c2.054,0,3.38-.935,3.38-2.729a2.548,2.548,0,0,0-2.476-2.618,2.464,2.464,0,0,0-.384.018c-1.872,0-2.834,1.014-2.834,2.366H63.9c0-2.548,1.716-4.758,5.616-4.758,3.536,0,5.721,2.054,5.721,4.863a4.014,4.014,0,0,1-3.121,4A4.292,4.292,0,0,1,75.52,477.235Z" fill="#fff"/>
      <path d="M89.767,477.235c0,2.938-2.366,4.966-6.006,4.966-4.057,0-5.851-2.08-5.851-4.759h2.757c0,1.431,1.144,2.393,3.094,2.393,1.924,0,3.146-1.092,3.146-2.756,0-1.847-1.379-3.017-3.667-3.017H81.576v-2.288H83.24c2.055,0,3.381-.935,3.381-2.729a2.548,2.548,0,0,0-2.476-2.618,2.464,2.464,0,0,0-.384.018c-1.872,0-2.834,1.014-2.834,2.366H78.145c0-2.548,1.716-4.758,5.616-4.758,3.536,0,5.72,2.054,5.72,4.863a4.012,4.012,0,0,1-3.12,4A4.291,4.291,0,0,1,89.767,477.235Z" fill="#fff"/>
      <path d="M104.015,477.235c0,2.938-2.366,4.966-6.007,4.966-4.056,0-5.85-2.08-5.85-4.759h2.756c0,1.431,1.145,2.393,3.094,2.393,1.925,0,3.146-1.092,3.146-2.756,0-1.847-1.377-3.017-3.666-3.017H95.824v-2.288h1.664c2.054,0,3.38-.935,3.38-2.729a2.548,2.548,0,0,0-2.476-2.618,2.464,2.464,0,0,0-.384.018c-1.872,0-2.834,1.014-2.834,2.366H92.392c0-2.548,1.717-4.758,5.616-4.758,3.536,0,5.721,2.054,5.721,4.863a4.013,4.013,0,0,1-3.12,4A4.291,4.291,0,0,1,104.015,477.235Z" fill="#fff"/>
      <path d="M118.262,477.235c0,2.938-2.366,4.966-6.006,4.966-4.057,0-5.851-2.08-5.851-4.759h2.757c0,1.431,1.144,2.393,3.094,2.393,1.924,0,3.146-1.092,3.146-2.756,0-1.847-1.378-3.017-3.666-3.017h-1.665v-2.288h1.665c2.054,0,3.38-.935,3.38-2.729a2.548,2.548,0,0,0-2.476-2.618,2.464,2.464,0,0,0-.384.018c-1.872,0-2.834,1.014-2.834,2.366H106.64c0-2.548,1.716-4.758,5.616-4.758,3.536,0,5.72,2.054,5.72,4.863a4.012,4.012,0,0,1-3.12,4A4.291,4.291,0,0,1,118.262,477.235Z" fill="#fff"/>
      <path d="M132.51,477.235c0,2.938-2.366,4.966-6.007,4.966-4.056,0-5.85-2.08-5.85-4.759h2.756c0,1.431,1.145,2.393,3.094,2.393,1.925,0,3.147-1.092,3.147-2.756,0-1.847-1.378-3.017-3.666-3.017h-1.665v-2.288h1.665c2.053,0,3.379-.935,3.379-2.729a2.548,2.548,0,0,0-2.476-2.618,2.464,2.464,0,0,0-.384.018c-1.872,0-2.834,1.014-2.834,2.366h-2.782c0-2.548,1.717-4.758,5.616-4.758,3.536,0,5.721,2.054,5.721,4.863a4.014,4.014,0,0,1-3.12,4A4.291,4.291,0,0,1,132.51,477.235Z" fill="#fff"/>
      <path d="M32.724,633.077l.338-2.315h2.626l.546-3.64H33.686l.286-2.34H36.6l.676-4.445H39.8l-.7,4.445h3.042l.7-4.445h2.5l-.65,4.445H47.37l-.338,2.34H44.3l-.546,3.64h2.678l-.312,2.315H43.358l-.728,4.836H40.108l.753-4.836H37.819l-.727,4.836H34.543l.755-4.836Zm5.46-2.315h3.068l.546-3.64H38.73Z" fill="#fff"/>
      <path d="M60.414,625.3c0,2.471-1.586,4.395-3.511,6.422l-3.639,3.9h7.41v2.289h-11.1v-1.977l5.46-5.877c1.586-1.689,2.523-3.094,2.523-4.758a2.563,2.563,0,0,0-2.244-2.845,2.517,2.517,0,0,0-.434-.014c-1.82,0-2.7,1.248-2.7,3.119H49.415c0-3.25,1.821-5.512,5.461-5.512C58.281,620.049,60.414,622.26,60.414,625.3Z" fill="#fff"/>
      <path d="M73.986,625.3c0,2.471-1.586,4.395-3.51,6.422l-3.641,3.9h7.41v2.289h-11.1v-1.977l5.46-5.877c1.586-1.689,2.521-3.094,2.521-4.758a2.563,2.563,0,0,0-2.244-2.845,2.517,2.517,0,0,0-.434-.014c-1.82,0-2.7,1.248-2.7,3.119H62.987c0-3.25,1.821-5.512,5.46-5.512C71.854,620.049,73.986,622.26,73.986,625.3Z" fill="#fff"/>
      <path d="M87.558,625.3c0,2.471-1.586,4.395-3.511,6.422l-3.64,3.9h7.411v2.289h-11.1v-1.977l5.46-5.877c1.586-1.689,2.522-3.094,2.522-4.758a2.563,2.563,0,0,0-2.244-2.845,2.609,2.609,0,0,0-.433-.014c-1.821,0-2.7,1.248-2.7,3.119H76.559c0-3.25,1.82-5.512,5.461-5.512C85.425,620.049,87.558,622.26,87.558,625.3Z" fill="#fff"/>
      <path d="M101.129,625.3c0,2.471-1.586,4.395-3.51,6.422l-3.64,3.9h7.41v2.289h-11.1v-1.977l5.46-5.877c1.586-1.689,2.522-3.094,2.522-4.758a2.563,2.563,0,0,0-2.244-2.845,2.517,2.517,0,0,0-.434-.014c-1.82,0-2.7,1.248-2.7,3.119H90.131c0-3.25,1.82-5.512,5.46-5.512C99,620.049,101.129,622.26,101.129,625.3Z" fill="#fff"/>
      <path d="M114.7,625.3c0,2.471-1.586,4.395-3.51,6.422l-3.64,3.9h7.41v2.289h-11.1v-1.977l5.46-5.877c1.585-1.689,2.522-3.094,2.522-4.758a2.563,2.563,0,0,0-2.244-2.845,2.517,2.517,0,0,0-.434-.014c-1.82,0-2.7,1.248-2.7,3.119H103.7c0-3.25,1.821-5.512,5.461-5.512C112.569,620.049,114.7,622.26,114.7,625.3Z" fill="#fff"/>
      <path d="M129.131,633.233c0,2.938-2.366,4.965-6.007,4.965-4.055,0-5.849-2.08-5.849-4.758h2.755c0,1.43,1.145,2.393,3.094,2.393,1.925,0,3.147-1.092,3.147-2.756,0-1.848-1.378-3.018-3.666-3.018h-1.664v-2.287h1.664c2.053,0,3.38-.935,3.38-2.73a2.548,2.548,0,0,0-2.476-2.618,2.482,2.482,0,0,0-.385.018c-1.872,0-2.834,1.014-2.834,2.365h-2.782c0-2.547,1.717-4.758,5.616-4.758,3.536,0,5.721,2.055,5.721,4.864a4.013,4.013,0,0,1-3.12,4A4.293,4.293,0,0,1,129.131,633.233Z" fill="#fff"/>
    </g>
  </g>
  <g data-fragment-index="2" class="fragment">
    <g>
      <rect x="355" y="400" width="300" height="300" fill="#ccca00"/>
      <rect x="355" y="400" width="300" height="150" fill="#dad600"/>
      <path d="M387.724,477.079l.338-2.315h2.626l.546-3.639h-2.548l.286-2.341H391.6l.676-4.445H394.8l-.7,4.445h3.042l.7-4.445h2.5l-.65,4.445h2.678l-.338,2.341H399.3l-.546,3.639h2.678l-.312,2.315h-2.756l-.728,4.836h-2.522l.753-4.836h-3.042l-.727,4.836h-2.549l.755-4.836Zm5.46-2.315h3.068l.546-3.639H393.73Z" fill="#39393a"/>
      <path d="M405.2,464.339h5.252c6.033,0,8.555,2.625,8.555,8.788,0,6.11-2.5,8.788-8.555,8.788H405.2Zm5.1,15.236c4.42,0,5.8-1.691,5.8-6.448,0-4.655-1.378-6.449-5.8-6.449h-2.263v12.9Z" fill="#39393a"/>
      <path d="M431.274,477.625h-6.838l-1.431,4.29h-3.016l6.214-17.576h3.3l6.24,17.576H432.7Zm-6.084-2.367h5.356l-2.679-8.007Z" fill="#39393a"/>
      <path d="M437.8,464.339h5.252c6.032,0,8.554,2.625,8.554,8.788,0,6.11-2.5,8.788-8.554,8.788H437.8Zm5.1,15.236c4.42,0,5.8-1.691,5.8-6.448,0-4.655-1.378-6.449-5.8-6.449h-2.262v12.9Z" fill="#39393a"/>
      <path d="M460.549,466.444c-2.5,0-3.613,2.471-3.613,6.032a5.615,5.615,0,0,1,4.082-1.767c3.38,0,5.408,2.21,5.408,5.589,0,3.172-1.977,5.9-6.059,5.9-4.394,0-6.266-3.588-6.266-8.477,0-5.719,1.95-9.672,6.448-9.672,3.77,0,5.513,2.132,5.513,4.758h-2.783C463.279,467.354,462.239,466.444,460.549,466.444Zm-.182,13.391c2.132,0,3.225-1.4,3.225-3.51,0-2.055-1.118-3.355-3.225-3.355a3.9,3.9,0,0,0-3.38,2.107C456.987,477.625,458,479.835,460.367,479.835Z" fill="#39393a"/>
      <path d="M481.844,473.127c0,5.511-1.925,9.074-6.5,9.074-4.628,0-6.526-3.563-6.526-9.074s1.95-9.075,6.526-9.075C479.945,464.052,481.844,467.614,481.844,473.127Zm-2.835,0c0-4.343-1.014-6.683-3.666-6.683-2.678,0-3.691,2.34-3.691,6.683s1.013,6.681,3.691,6.681C478,479.808,479.009,477.468,479.009,473.127Z" fill="#39393a"/>
      <path d="M497.417,473.127c0,5.511-1.924,9.074-6.5,9.074-4.628,0-6.526-3.563-6.526-9.074s1.95-9.075,6.526-9.075C495.519,464.052,497.417,467.614,497.417,473.127Zm-2.834,0c0-4.343-1.014-6.683-3.666-6.683-2.679,0-3.692,2.34-3.692,6.683s1.013,6.681,3.692,6.681c2.652,0,3.666-2.34,3.666-6.681Z" fill="#39393a"/>
      <path d="M387.724,633.077l.338-2.315h2.626l.546-3.64h-2.548l.286-2.34H391.6l.676-4.445H394.8l-.7,4.445h3.042l.7-4.445h2.5l-.65,4.445h2.678l-.338,2.34H399.3l-.546,3.64h2.678l-.312,2.315h-2.756l-.728,4.836h-2.522l.753-4.836h-3.042l-.727,4.836h-2.549l.755-4.836Zm5.46-2.315h3.068l.546-3.64H393.73Z" fill="#39393a"/>
      <path d="M412.033,635.729a4.024,4.024,0,0,0,3.589-2.158l2.184,1.4a6.382,6.382,0,0,1-5.876,3.2c-5.019,0-7.462-3.407-7.462-9.049s2.443-9.049,7.462-9.049a6.382,6.382,0,0,1,5.876,3.2l-2.184,1.4a4.024,4.024,0,0,0-3.589-2.158c-3.275,0-4.628,2.625-4.628,6.629C407.405,633.1,408.758,635.729,412.033,635.729Z" fill="#39393a"/>
      <path d="M427.166,635.729a4.022,4.022,0,0,0,3.588-2.158l2.185,1.4a6.384,6.384,0,0,1-5.877,3.2c-5.018,0-7.462-3.407-7.462-9.049s2.444-9.049,7.462-9.049a6.385,6.385,0,0,1,5.877,3.2l-2.185,1.4a4.022,4.022,0,0,0-3.588-2.158c-3.276,0-4.628,2.625-4.628,6.629C422.538,633.1,423.89,635.729,427.166,635.729Z" fill="#39393a"/>
      <path d="M442.3,635.729a4.022,4.022,0,0,0,3.588-2.158l2.184,1.4a6.382,6.382,0,0,1-5.876,3.2c-5.018,0-7.462-3.407-7.462-9.049s2.444-9.049,7.462-9.049a6.382,6.382,0,0,1,5.876,3.2l-2.184,1.4a4.022,4.022,0,0,0-3.588-2.158c-3.276,0-4.628,2.625-4.628,6.629C437.67,633.1,439.022,635.729,442.3,635.729Z" fill="#39393a"/>
      <path d="M460.238,633.622H453.4l-1.43,4.291h-3.017l6.215-17.576h3.3l6.24,17.576h-3.042Zm-6.085-2.366h5.357l-2.678-8.007Z" fill="#39393a"/>
      <path d="M479.141,629.124c0,5.511-1.925,9.074-6.5,9.074-4.628,0-6.527-3.563-6.527-9.074s1.951-9.075,6.527-9.075C477.242,620.049,479.141,623.612,479.141,629.124Zm-2.835,0c0-4.342-1.014-6.682-3.666-6.682-2.678,0-3.692,2.34-3.692,6.682s1.014,6.681,3.692,6.681C475.292,635.8,476.306,633.465,476.306,629.124Z" fill="#39393a"/>
      <path d="M494.714,629.124c0,5.511-1.924,9.074-6.5,9.074-4.628,0-6.526-3.563-6.526-9.074s1.95-9.075,6.526-9.075C492.816,620.049,494.714,623.612,494.714,629.124Zm-2.834,0c0-4.342-1.014-6.682-3.666-6.682-2.679,0-3.692,2.34-3.692,6.682s1.013,6.681,3.692,6.681c2.652,0,3.666-2.34,3.666-6.681Z" fill="#39393a"/>
      <rect x="355" width="300" height="400" fill="#e3e000"/>
      <path d="M402.558,303.28v3.876H388.45V286.2h14.014v3.876h-9.208v4.682h7.813v3.876h-7.813v4.65Z" fill="#39393a"/>
      <path d="M404.569,304.551a2.966,2.966,0,1,1,3.135,2.786c-.042,0-.084,0-.127,0a2.836,2.836,0,0,1-3-2.659C404.571,304.639,404.57,304.6,404.569,304.551Z" fill="#39393a"/>
      <path d="M421.218,307.465c-6.7,0-9.115-4.681-9.115-10.758,0-6.109,2.356-10.822,9.177-10.822,6.729,0,9.085,4.713,9.085,10.822C430.365,302.784,427.854,307.465,421.218,307.465Zm0-4.03c3.35,0,4.217-2.76,4.217-6.728,0-4.031-.9-6.79-4.155-6.79-3.287,0-4.216,2.759-4.216,6.79C417.064,300.675,417.777,303.435,421.218,303.435Z" fill="#39393a"/>
      <path d="M445.833,286.2h4.775v20.96h-4.869l-7.658-13.333.031,13.333h-4.868l.032-20.96h5.053l7.5,13.084Z" fill="#39393a"/>
      <path d="M472.739,303.28v3.876H459.966V286.2h4.806V303.28Z" fill="#39393a"/>
      <path d="M474.163,288.3a2.3,2.3,0,0,1,2.1-2.485,2.271,2.271,0,0,1,.444,0,2.363,2.363,0,0,1,2.512,2.48,2.279,2.279,0,0,1-2.121,2.426,2.3,2.3,0,0,1-2.933-2.426Zm.4,4.713h4.4v14.139h-4.4Z" fill="#39393a"/>
      <path d="M481.913,293.017h4.248V294.6a4.6,4.6,0,0,1,3.844-1.89,4.672,4.672,0,0,1,4.217,2.046,6.03,6.03,0,0,1,4.93-2.046c3.566,0,5.054,1.859,5.054,5.3v9.147h-4.433v-8.743c0-1.024-.528-1.675-2.016-1.675a4.245,4.245,0,0,0-2.449.744v9.674h-4.4v-9.3a2.508,2.508,0,0,0-2.232-1.116,4.245,4.245,0,0,0-2.356.744v9.674h-4.4Z" fill="#39393a"/>
      <path d="M516.944,302.6l2.016,2.822a7.7,7.7,0,0,1-5.3,2.077c-5.022,0-7.223-3.1-7.223-7.41,0-3.938,2.325-7.379,6.727-7.379,4.528,0,6.14,3.162,6.14,6.231a12.49,12.49,0,0,1-.248,2.573H510.87c.093,1.458,1.085,2.295,2.79,2.295A5.576,5.576,0,0,0,516.944,302.6Zm-1.7-4.155a2.017,2.017,0,0,0,.032-.372,1.872,1.872,0,0,0-1.838-1.906,1.765,1.765,0,0,0-.272.015,2.207,2.207,0,0,0-2.293,2.118c0,.048,0,.1,0,.145Z" fill="#39393a"/>
      <path d="M531.761,307.156v-8.03l-7.039-12.93h5.24l4.248,8.65,4.123-8.65h5.272l-7.038,12.93v8.03Z" fill="#39393a"/>
      <path d="M551.446,302.6l2.016,2.822a7.7,7.7,0,0,1-5.3,2.077c-5.022,0-7.223-3.1-7.223-7.41,0-3.938,2.325-7.379,6.727-7.379,4.528,0,6.14,3.162,6.14,6.231a12.49,12.49,0,0,1-.248,2.573h-8.186c.093,1.458,1.085,2.295,2.79,2.295A5.576,5.576,0,0,0,551.446,302.6Zm-1.705-4.155a2.017,2.017,0,0,0,.032-.372,1.872,1.872,0,0,0-1.838-1.906,1.765,1.765,0,0,0-.272.015,2.207,2.207,0,0,0-2.293,2.118c0,.048,0,.1,0,.145Z" fill="#39393a"/>
      <path d="M560.435,285.762v16.494c0,.776.279,1.024,1.116,1.024h.62v4.062H560c-3.07,0-3.969-1.984-3.969-4.372V285.762Z" fill="#39393a"/>
      <path d="M568.618,285.762v16.494c0,.776.28,1.024,1.117,1.024h.62v4.062h-2.17c-3.071,0-3.969-1.984-3.969-4.372V285.762Z" fill="#39393a"/>
      <path d="M585.576,300.055c0,4.341-2.2,7.442-6.914,7.442-4.465,0-6.728-3.162-6.728-7.348,0-4.372,2.139-7.441,6.884-7.441C583.314,292.708,585.576,295.777,585.576,300.055Zm-4.465.094c0-2.45-.8-3.5-2.417-3.5-1.52,0-2.295,1.054-2.295,3.41,0,2.481.806,3.5,2.356,3.5s2.356-1.116,2.356-3.41Z" fill="#39393a"/>
      <path d="M600.208,293.017l2.7,9.55,2.543-9.55h4.5l-4.216,14.139h-4.776l-2.79-8.558-2.791,8.558H590.6l-4.217-14.139h4.465l2.573,9.55,2.7-9.55Z" fill="#39393a"/>
      <path d="M381.858,349.55l.337-2.314h2.626l.546-3.64h-2.548l.287-2.34h2.626l.675-4.446h2.523l-.7,4.446h3.042l.7-4.446h2.5l-.65,4.446H396.5l-.339,2.34h-2.729l-.546,3.64h2.678l-.312,2.314H392.5l-.727,4.836h-2.523L390,349.55h-3.041l-.728,4.836h-2.549l.755-4.836Zm5.46-2.314h3.068l.546-3.64h-3.069Z" fill="#39393a"/>
      <path d="M410.38,352.047v2.339H399.329V336.81H410.3v2.34h-8.139V344.3h7.125v2.34h-7.125v5.409Z" fill="#39393a"/>
      <path d="M424.5,349.707c0,2.937-2.365,4.966-6.006,4.966-4.056,0-5.849-2.081-5.849-4.759H415.4c0,1.43,1.143,2.392,3.093,2.392,1.924,0,3.147-1.092,3.147-2.756,0-1.846-1.379-3.016-3.666-3.016H416.31v-2.288h1.664c2.054,0,3.38-.936,3.38-2.73a2.548,2.548,0,0,0-2.478-2.618,2.451,2.451,0,0,0-.383.018c-1.872,0-2.834,1.013-2.834,2.366h-2.782c0-2.548,1.716-4.758,5.616-4.758,3.536,0,5.721,2.054,5.721,4.862a4.013,4.013,0,0,1-3.121,4A4.292,4.292,0,0,1,424.5,349.707Z" fill="#39393a"/>
      <path d="M438.72,352.047v2.339H427.669V336.81h10.973v2.34H430.5V344.3h7.124v2.34H430.5v5.409Z" fill="#39393a"/>
      <path d="M454.137,345.6c0,5.512-1.924,9.075-6.5,9.075-4.628,0-6.526-3.563-6.526-9.075s1.95-9.074,6.526-9.074C452.239,336.524,454.137,340.086,454.137,345.6Zm-2.834,0c0-4.342-1.014-6.682-3.666-6.682-2.679,0-3.693,2.34-3.693,6.682s1.014,6.682,3.693,6.682c2.652,0,3.663-2.344,3.663-6.682Z" fill="#39393a"/>
      <path d="M469.711,345.6c0,5.512-1.925,9.075-6.5,9.075-4.628,0-6.525-3.563-6.525-9.075s1.949-9.074,6.525-9.074C467.813,336.524,469.711,340.086,469.711,345.6Zm-2.835,0c0-4.342-1.014-6.682-3.666-6.682-2.678,0-3.691,2.34-3.691,6.682s1.013,6.682,3.691,6.682C465.862,352.28,466.876,349.94,466.876,345.6Z" fill="#39393a"/>
      <path d="M485.285,345.6c0,5.512-1.924,9.075-6.5,9.075-4.628,0-6.525-3.563-6.525-9.075s1.949-9.074,6.525-9.074C483.387,336.524,485.285,340.086,485.285,345.6Zm-2.835,0c0-4.342-1.013-6.682-3.666-6.682-2.677,0-3.691,2.34-3.691,6.682s1.014,6.682,3.691,6.682C481.437,352.28,482.45,349.94,482.45,345.6Z" fill="#39393a"/>
    </g>
  </g>
  <g data-fragment-index="3" class="fragment">
    <g>
      <rect x="710" y="400" width="300" height="300" fill="#00738b"/>
      <rect x="710" y="400" width="300" height="150" fill="#2b91a3"/>
      <path d="M742.724,477.079l.338-2.315h2.626l.546-3.639h-2.548l.286-2.341H746.6l.676-4.445H749.8l-.7,4.445h3.042l.7-4.445h2.5l-.65,4.445h2.678l-.338,2.341H754.3l-.546,3.639h2.678l-.312,2.315h-2.756l-.728,4.836h-2.522l.753-4.836h-3.042l-.727,4.836h-2.549l.755-4.836Zm5.46-2.315h3.068l.546-3.639H748.73Z" fill="#fff"/>
      <path d="M770.414,469.3c0,2.47-1.586,4.394-3.511,6.422l-3.639,3.9h7.41v2.288h-11.1v-1.977l5.46-5.876c1.586-1.689,2.523-3.094,2.523-4.758a2.563,2.563,0,0,0-2.245-2.846,2.609,2.609,0,0,0-.433-.014c-1.82,0-2.7,1.248-2.7,3.12h-2.757c0-3.25,1.821-5.512,5.461-5.512C768.281,464.052,770.414,466.262,770.414,469.3Z" fill="#fff"/>
      <path d="M773.768,464.339h5.8c3.978,0,5.616,1.819,5.616,4.549a3.592,3.592,0,0,1-2.6,3.771A4.2,4.2,0,0,1,786.069,477c0,3.588-2.445,4.914-6.371,4.914h-5.927Zm5.433,7.332c2.288,0,3.042-1.015,3.042-2.575,0-1.482-.779-2.418-3.067-2.418H776.6v4.993Zm.338,7.9c2.574,0,3.614-.885,3.614-2.756,0-1.717-1.013-2.809-3.614-2.809H776.6v5.565Z" fill="#fff"/>
      <path d="M791.421,477.442c0,1.457,1.04,2.366,2.7,2.366,2.549,0,3.641-2.469,3.641-6.032a5.675,5.675,0,0,1-4.082,1.8c-3.38,0-5.408-2.236-5.408-5.617,0-3.172,1.975-5.9,6.084-5.9,4.394,0,6.24,3.615,6.24,8.476,0,5.721-1.924,9.673-6.475,9.673-3.744,0-5.485-2.132-5.485-4.759Zm2.939-11.023c-2.159,0-3.25,1.4-3.25,3.509a3.013,3.013,0,0,0,3.25,3.354,3.886,3.886,0,0,0,3.354-2.106c0-2.547-1.014-4.757-3.354-4.757Z" fill="#fff"/>
      <path d="M807.438,481.915V466.99l-4.655,1.872-.7-2.158,5.7-2.365H810.2v17.576Z" fill="#fff"/>
      <path d="M823.61,477.625h-6.839l-1.43,4.29h-3.017l6.215-17.576h3.3l6.24,17.576h-3.042Zm-6.085-2.367h5.356l-2.678-8.007Z" fill="#fff"/>
      <path d="M841.211,477.235c0,2.938-2.366,4.966-6.006,4.966-4.056,0-5.85-2.08-5.85-4.759h2.756c0,1.431,1.144,2.393,3.094,2.393,1.924,0,3.147-1.092,3.147-2.756,0-1.847-1.379-3.017-3.667-3.017h-1.664v-2.288h1.664c2.054,0,3.381-.935,3.381-2.729a2.549,2.549,0,0,0-2.478-2.618,2.451,2.451,0,0,0-.383.018c-1.872,0-2.834,1.014-2.834,2.366h-2.782c0-2.548,1.716-4.758,5.616-4.758,3.536,0,5.72,2.054,5.72,4.863a4.012,4.012,0,0,1-3.12,4A4.291,4.291,0,0,1,841.211,477.235Z" fill="#fff"/>
      <path d="M742.724,633.077l.338-2.315h2.626l.546-3.64h-2.548l.286-2.34H746.6l.676-4.445H749.8l-.7,4.445h3.042l.7-4.445h2.5l-.65,4.445h2.678l-.338,2.34H754.3l-.546,3.64h2.678l-.312,2.315h-2.756l-.728,4.836h-2.522l.753-4.836h-3.042l-.727,4.836h-2.549l.755-4.836Zm5.46-2.315h3.068l.546-3.64H748.73Z" fill="#fff"/>
      <path d="M772.572,629.124c0,5.511-1.924,9.074-6.5,9.074-4.627,0-6.526-3.563-6.526-9.074s1.95-9.075,6.526-9.075C770.674,620.049,772.572,623.612,772.572,629.124Zm-2.835,0c0-4.342-1.013-6.682-3.666-6.682-2.677,0-3.691,2.34-3.691,6.682s1.014,6.681,3.691,6.681C768.724,635.8,769.737,633.465,769.737,629.124Z" fill="#fff"/>
      <path d="M788.147,629.124c0,5.511-1.925,9.074-6.5,9.074-4.628,0-6.527-3.563-6.527-9.074s1.95-9.075,6.527-9.075C786.248,620.049,788.147,623.612,788.147,629.124Zm-2.835,0c0-4.342-1.014-6.682-3.666-6.682-2.678,0-3.692,2.34-3.692,6.682s1.014,6.681,3.692,6.681c2.654,0,3.666-2.34,3.666-6.681Z" fill="#fff"/>
      <path d="M798.053,622.624h-8.009v-2.287h11.1v2L794.7,637.913h-3.016Z" fill="#fff"/>
      <path d="M814.718,633.233c0,2.938-2.366,4.965-6.006,4.965-4.057,0-5.851-2.08-5.851-4.758h2.757c0,1.43,1.144,2.393,3.094,2.393,1.924,0,3.147-1.092,3.147-2.756,0-1.848-1.379-3.018-3.667-3.018h-1.665v-2.287h1.665c2.054,0,3.38-.935,3.38-2.73a2.547,2.547,0,0,0-2.474-2.618,2.489,2.489,0,0,0-.386.018c-1.872,0-2.834,1.014-2.834,2.365H803.1c0-2.547,1.716-4.758,5.616-4.758,3.536,0,5.72,2.055,5.72,4.864a4.014,4.014,0,0,1-3.12,4A4.291,4.291,0,0,1,814.718,633.233Z" fill="#fff"/>
      <path d="M817.213,633.155a4.266,4.266,0,0,1,3.355-4.291,3.921,3.921,0,0,1-2.991-3.9c0-2.991,2.237-4.915,5.876-4.915,3.666,0,5.877,1.924,5.877,4.915a3.928,3.928,0,0,1-2.965,3.9,4.275,4.275,0,0,1,3.3,4.291c0,3.25-2.5,5.043-6.215,5.043S817.213,636.4,817.213,633.155Zm9.621-.234c0-1.9-1.482-2.887-3.406-2.887-1.9,0-3.355.988-3.355,2.887,0,1.871,1.327,2.912,3.355,2.912C825.508,635.833,826.834,634.792,826.834,632.921Zm-6.423-7.827c0,1.743,1.326,2.625,3.042,2.625s3.042-.882,3.042-2.625-1.2-2.652-3.042-2.652-3.042.91-3.042,2.652Z" fill="#fff"/>
      <path d="M832.865,620.337h5.8c3.979,0,5.616,1.818,5.616,4.548a3.592,3.592,0,0,1-2.6,3.772A4.194,4.194,0,0,1,845.165,633c0,3.588-2.444,4.914-6.37,4.914h-5.928Zm5.434,7.332c2.288,0,3.042-1.016,3.042-2.575,0-1.482-.779-2.418-3.067-2.418H835.7v4.993Zm.338,7.9c2.574,0,3.614-.885,3.614-2.756,0-1.717-1.014-2.809-3.614-2.809H835.7v5.565Z" fill="#fff"/>
      <rect x="710" width="300" height="400" fill="#1ea2b1"/>
      <path d="M759.026,303.28v3.876H744.917V286.2h14.016v3.876h-9.209v4.682h7.813v3.876h-7.813v4.65Z" fill="#fff"/>
      <path d="M761.037,304.551a2.966,2.966,0,1,1,3.135,2.786c-.042,0-.084,0-.127,0a2.835,2.835,0,0,1-3-2.656C761.039,304.641,761.038,304.6,761.037,304.551Z" fill="#fff"/>
      <path d="M777.687,307.465c-6.7,0-9.117-4.681-9.117-10.758,0-6.109,2.357-10.822,9.178-10.822,6.729,0,9.085,4.713,9.085,10.822C786.833,302.784,784.321,307.465,777.687,307.465Zm0-4.03c3.347,0,4.216-2.76,4.216-6.728,0-4.031-.9-6.79-4.155-6.79-3.286,0-4.217,2.759-4.217,6.79C773.531,300.675,774.244,303.435,777.687,303.435Z" fill="#fff"/>
      <path d="M802.3,286.2h4.774v20.96h-4.867l-7.659-13.333.031,13.333h-4.868l.031-20.96H794.8l7.5,13.084Z" fill="#fff"/>
      <path d="M830.324,286.2v3.876h-5.395v17.084h-4.806V290.072h-5.4V286.2Z" fill="#fff"/>
      <path d="M842.631,307.156h-4.248v-1.581c-.682,1.023-1.892,1.89-4.217,1.89-3.038,0-4.774-1.984-4.774-5.7v-8.743h4.4v8.217c0,1.457.62,2.2,2.233,2.2a4.521,4.521,0,0,0,2.2-.744v-9.674h4.4Z" fill="#fff"/>
      <path d="M849.79,295.218a4.131,4.131,0,0,1,3.69-2.51,6.094,6.094,0,0,1,1.55.185l-.279,4.651a10.635,10.635,0,0,0-2.449-.31,2.72,2.72,0,0,0-2.357,1.209v8.713h-4.4V293.017h4.217v2.2Z" fill="#fff"/>
      <path d="M865.445,306.288a4.086,4.086,0,0,1-3.224,1.209c-3.876,0-5.892-2.666-5.892-7.348,0-4.465,2.171-7.441,5.892-7.441a5.919,5.919,0,0,1,4.185,1.425l1.4-1.116h2.047v20.836h-4.4Zm-2.077-2.822a3.7,3.7,0,0,0,2.077-.558v-5.364a3.221,3.221,0,0,0-2.077-.806c-2.078,0-2.574,1.488-2.574,3.411S861.353,303.466,863.368,303.466Z" fill="#fff"/>
      <path d="M885.874,307.156h-4.247v-1.581c-.683,1.023-1.891,1.89-4.217,1.89-3.039,0-4.775-1.984-4.775-5.7v-8.743h4.4v8.217c0,1.457.62,2.2,2.233,2.2a4.521,4.521,0,0,0,2.2-.744v-9.674h4.4Z" fill="#fff"/>
      <path d="M901.87,300.055c0,4.341-2.2,7.442-6.914,7.442-4.465,0-6.728-3.162-6.728-7.348,0-4.372,2.139-7.441,6.883-7.441C899.607,292.708,901.87,295.777,901.87,300.055Zm-4.465.094c0-2.45-.8-3.5-2.418-3.5-1.519,0-2.294,1.054-2.294,3.41,0,2.481.806,3.5,2.356,3.5s2.356-1.116,2.356-3.41Z" fill="#fff"/>
      <path d="M903.852,288.3a2.3,2.3,0,0,1,2.1-2.485,2.271,2.271,0,0,1,.444,0,2.361,2.361,0,0,1,2.509,2.2,2.327,2.327,0,0,1,0,.277,2.279,2.279,0,0,1-2.122,2.426,2.2,2.2,0,0,1-.389-.007,2.224,2.224,0,0,1-2.542-2.419Zm.4,4.713h4.4v14.139h-4.4Z" fill="#fff"/>
      <path d="M920.376,297.389a4.756,4.756,0,0,0-3.317-1.457c-.992,0-1.52.434-1.52.992,0,.527.372.93,1.054,1.085l2.357.527c2.914.651,4.062,2.263,4.062,4.31,0,2.17-1.4,4.651-6.357,4.651a7.6,7.6,0,0,1-5.953-2.387l2.45-2.605a5.264,5.264,0,0,0,3.689,1.8c.992,0,1.706-.34,1.706-1.023,0-.434-.279-.868-1.085-1.054l-2.419-.589c-2.573-.621-3.876-2.109-3.876-4.248,0-2.078,1.551-4.681,6.077-4.681a7.057,7.057,0,0,1,5.489,2.107Z" fill="#fff"/>
      <path d="M935.163,302.6l2.016,2.822a7.7,7.7,0,0,1-5.3,2.077c-5.022,0-7.224-3.1-7.224-7.41,0-3.938,2.326-7.379,6.728-7.379,4.527,0,6.14,3.162,6.14,6.231a12.421,12.421,0,0,1-.248,2.573h-8.186c.093,1.458,1.085,2.295,2.79,2.295A5.583,5.583,0,0,0,935.163,302.6Zm-1.705-4.155a2.107,2.107,0,0,0,.031-.372,1.872,1.872,0,0,0-1.835-1.906,1.791,1.791,0,0,0-.274.015,2.207,2.207,0,0,0-2.293,2.118c0,.048,0,.1,0,.145Z" fill="#fff"/>
      <path d="M738.325,349.55l.338-2.314h2.626l.546-3.64h-2.548l.286-2.34H742.2l.676-4.446H745.4l-.7,4.446h3.042l.7-4.446h2.5l-.65,4.446h2.678l-.338,2.34H749.9l-.546,3.64h2.677l-.311,2.314h-2.76l-.728,4.836H745.71l.754-4.836h-3.043l-.727,4.836h-2.548l.754-4.836Zm5.46-2.314h3.069l.546-3.64h-3.069Z" fill="#fff"/>
      <path d="M759.438,354.386V339.462l-4.655,1.872-.7-2.159,5.7-2.365H762.2v17.576Z" fill="#fff"/>
      <path d="M777.169,352.047v2.339h-11.05V336.81h10.972v2.34h-8.138V344.3h7.124v2.34h-7.124v5.409Z" fill="#fff"/>
      <path d="M789.7,350.1h-6.839l-1.429,4.29h-3.016l6.214-17.576h3.3l6.24,17.576h-3.042Zm-6.085-2.366h5.358l-2.673-8.008Z" fill="#fff"/>
      <path d="M806.445,341.776c0,2.47-1.585,4.394-3.51,6.422l-3.64,3.9h7.41v2.288H795.6V352.41l5.461-5.876c1.586-1.69,2.521-3.094,2.521-4.758a2.563,2.563,0,0,0-2.245-2.846,2.613,2.613,0,0,0-.433-.014c-1.82,0-2.7,1.248-2.7,3.12h-2.757c0-3.25,1.821-5.512,5.461-5.512C804.314,336.524,806.445,338.734,806.445,341.776Z" fill="#fff"/>
      <path d="M809.8,336.81h5.8c3.978,0,5.616,1.82,5.616,4.55a3.593,3.593,0,0,1-2.6,3.771,4.2,4.2,0,0,1,3.485,4.341c0,3.588-2.444,4.914-6.37,4.914H809.8Zm5.435,7.332c2.287,0,3.041-1.014,3.041-2.574,0-1.482-.78-2.418-3.068-2.418h-2.574v4.992Zm.337,7.9c2.575,0,3.614-.885,3.614-2.756,0-1.717-1.014-2.809-3.614-2.809h-2.938v5.565Z" fill="#fff"/>
      <path d="M828.727,354.386V339.462l-4.654,1.872-.7-2.159,5.7-2.365h2.418v17.576Z" fill="#fff"/>
    </g>
  </g>
  <g data-fragment-index="4" class="fragment">
    <g>
      <rect x="1060.17" y="400" width="300" height="300" fill="#a00311"/>
      <rect x="1060.17" y="400" width="300" height="150" fill="#b00402"/>
      <path d="M1092.894,477.079l.338-2.315h2.626l.545-3.639h-2.547l.286-2.341h2.626l.676-4.445h2.522l-.7,4.445h3.042l.7-4.445h2.5l-.649,4.445h2.677l-.338,2.341h-2.73l-.546,3.639h2.678l-.312,2.315h-2.756l-.728,4.836h-2.522l.754-4.836h-3.043l-.727,4.836h-2.548l.754-4.836Zm5.46-2.315h3.068l.546-3.639H1098.9Z" fill="#fff"/>
      <path d="M1110.365,464.339h5.8c3.979,0,5.617,1.819,5.617,4.549a3.593,3.593,0,0,1-2.6,3.771,4.2,4.2,0,0,1,3.484,4.342c0,3.588-2.444,4.914-6.37,4.914h-5.929Zm5.435,7.332c2.288,0,3.042-1.015,3.042-2.575,0-1.482-.78-2.418-3.068-2.418H1113.2v4.993Zm.338,7.9c2.574,0,3.614-.885,3.614-2.756,0-1.717-1.015-2.809-3.614-2.809H1113.2v5.565Z" fill="#fff"/>
      <path d="M1138.03,473.127c0,5.511-1.923,9.074-6.5,9.074-4.628,0-6.527-3.563-6.527-9.074s1.951-9.075,6.527-9.075C1136.132,464.052,1138.03,467.614,1138.03,473.127Zm-2.834,0c0-4.343-1.014-6.683-3.666-6.683-2.678,0-3.692,2.34-3.692,6.683s1.014,6.681,3.692,6.681c2.652,0,3.67-2.34,3.67-6.681Z" fill="#fff"/>
      <path d="M1153.605,473.127c0,5.511-1.924,9.074-6.5,9.074-4.629,0-6.528-3.563-6.528-9.074s1.951-9.075,6.528-9.075C1151.706,464.052,1153.605,467.614,1153.605,473.127Zm-2.834,0c0-4.343-1.015-6.683-3.666-6.683-2.679,0-3.693,2.34-3.693,6.683s1.014,6.681,3.693,6.681C1149.756,479.808,1150.771,477.468,1150.771,473.127Z" fill="#fff"/>
      <path d="M1168.893,478.274h-2.288v3.641h-2.756v-3.641h-8.242V476.22l8.111-11.881h2.887v11.648h2.288Zm-5.044-2.287v-7.9l-5.3,7.9Z" fill="#fff"/>
      <path d="M1184.128,473.127c0,5.511-1.924,9.074-6.5,9.074-4.628,0-6.526-3.563-6.526-9.074s1.95-9.075,6.526-9.075C1182.23,464.052,1184.128,467.614,1184.128,473.127Zm-2.834,0c0-4.343-1.014-6.683-3.666-6.683-2.678,0-3.692,2.34-3.692,6.683s1.014,6.681,3.692,6.681c2.652,0,3.666-2.34,3.666-6.681Z" fill="#fff"/>
      <path d="M1197.544,469.3c0,2.47-1.586,4.394-3.51,6.422l-3.64,3.9h7.41v2.288h-11.1v-1.977l5.46-5.876c1.586-1.689,2.523-3.094,2.523-4.758a2.563,2.563,0,0,0-2.245-2.846,2.613,2.613,0,0,0-.433-.014c-1.82,0-2.7,1.248-2.7,3.12h-2.756c0-3.25,1.819-5.512,5.46-5.512C1195.411,464.052,1197.544,466.262,1197.544,469.3Z" fill="#fff"/>
      <path d="M1092.894,633.077l.338-2.315h2.626l.545-3.64h-2.547l.286-2.34h2.626l.676-4.445h2.522l-.7,4.445h3.042l.7-4.445h2.5l-.649,4.445h2.677l-.338,2.34h-2.73l-.546,3.64h2.678l-.312,2.315h-2.756l-.728,4.836h-2.522l.754-4.836h-3.043l-.727,4.836h-2.548l.754-4.836Zm5.46-2.315h3.068l.546-3.64H1098.9Z" fill="#fff"/>
      <path d="M1119.857,633.622h-6.839l-1.431,4.291h-3.016l6.215-17.576h3.3l6.24,17.576h-3.042Zm-6.085-2.366h5.356l-2.678-8.007Z" fill="#fff"/>
      <path d="M1138.758,629.124c0,5.511-1.924,9.074-6.5,9.074-4.628,0-6.526-3.563-6.526-9.074s1.95-9.075,6.526-9.075C1136.861,620.049,1138.758,623.612,1138.758,629.124Zm-2.834,0c0-4.342-1.014-6.682-3.666-6.682-2.679,0-3.692,2.34-3.692,6.682s1.013,6.681,3.692,6.681c2.652,0,3.666-2.34,3.666-6.681Z" fill="#fff"/>
      <path d="M1154.332,629.124c0,5.511-1.925,9.074-6.5,9.074-4.628,0-6.525-3.563-6.525-9.074s1.949-9.075,6.525-9.075C1152.434,620.049,1154.332,623.612,1154.332,629.124Zm-2.835,0c0-4.342-1.013-6.682-3.666-6.682-2.678,0-3.691,2.34-3.691,6.682s1.013,6.681,3.691,6.681c2.653,0,3.669-2.34,3.669-6.681Z" fill="#fff"/>
      <path d="M1168.607,633.233c0,2.938-2.368,4.965-6.007,4.965-4.056,0-5.851-2.08-5.851-4.758h2.757c0,1.43,1.144,2.393,3.094,2.393,1.925,0,3.146-1.092,3.146-2.756,0-1.848-1.378-3.018-3.667-3.018h-1.664v-2.287h1.664c2.055,0,3.381-.935,3.381-2.73a2.546,2.546,0,0,0-2.473-2.618,2.5,2.5,0,0,0-.387.018c-1.872,0-2.834,1.014-2.834,2.365h-2.782c0-2.547,1.716-4.758,5.616-4.758,3.536,0,5.719,2.055,5.719,4.864a4.012,4.012,0,0,1-3.119,4A4.292,4.292,0,0,1,1168.607,633.233Z" fill="#fff"/>
      <path d="M1175.417,637.913V622.987l-4.654,1.873-.7-2.158,5.693-2.365h2.418v17.576Z" fill="#fff"/>
      <path d="M1185.739,637.913V622.987l-4.654,1.873-.7-2.158,5.694-2.365h2.418v17.576Z" fill="#fff"/>
      <rect x="1060.17" width="300" height="400" fill="#ea1b0a"/>
      <path d="M1114.2,303.28v3.876h-14.107V286.2H1114.1v3.876h-9.209v4.682h7.813v3.876h-7.813v4.65Z" fill="#fff"/>
      <path d="M1116.207,304.551a2.966,2.966,0,1,1,3.136,2.786c-.043,0-.085,0-.128,0a2.835,2.835,0,0,1-3-2.656C1116.209,304.641,1116.208,304.6,1116.207,304.551Z" fill="#fff"/>
      <path d="M1132.857,307.465c-6.7,0-9.117-4.681-9.117-10.758,0-6.109,2.357-10.822,9.178-10.822,6.729,0,9.085,4.713,9.085,10.822C1142,302.784,1139.491,307.465,1132.857,307.465Zm0-4.03c3.348,0,4.216-2.76,4.216-6.728,0-4.031-.9-6.79-4.155-6.79-3.286,0-4.217,2.759-4.217,6.79C1128.7,300.675,1129.414,303.435,1132.857,303.435Z" fill="#fff"/>
      <path d="M1157.471,286.2h4.774v20.96h-4.867l-7.659-13.333.031,13.333h-4.868l.031-20.96h5.054l7.5,13.084Z" fill="#fff"/>
      <path d="M1171.6,286.2h8.247c5.053,0,7.752,2.418,7.752,6.356a6.035,6.035,0,0,1-4.589,5.954l4.93,8.65h-5.333l-4.373-8.186h-1.829l.032,8.186H1171.6Zm7.719,3.876h-2.914v5.022h2.914c2.636,0,3.319-.929,3.319-2.542,0-1.488-.679-2.48-3.315-2.48Z" fill="#fff"/>
      <path d="M1199.351,302.6l2.014,2.822a7.69,7.69,0,0,1-5.3,2.077c-5.023,0-7.225-3.1-7.225-7.41,0-3.938,2.326-7.379,6.729-7.379,4.527,0,6.139,3.162,6.139,6.231a12.559,12.559,0,0,1-.248,2.573h-8.185c.092,1.458,1.085,2.295,2.79,2.295A5.582,5.582,0,0,0,1199.351,302.6Zm-1.706-4.155a2.107,2.107,0,0,0,.031-.372,1.872,1.872,0,0,0-1.836-1.906,1.9,1.9,0,0,0-.272.015,2.2,2.2,0,0,0-2.293,2.113c0,.05,0,.1,0,.15Z" fill="#fff"/>
      <path d="M1212.865,285.762h4.4v21.394h-4.187V306.1a5.5,5.5,0,0,1-3.782,1.4c-3.6,0-5.768-2.635-5.768-7.442,0-4.681,2.109-7.347,5.8-7.347a5.405,5.405,0,0,1,3.534,1.209Zm-2.232,17.7a4.1,4.1,0,0,0,2.232-.588v-5.582a4.412,4.412,0,0,0-2.232-.558c-1.984,0-2.636,1.4-2.636,3.317s.62,3.415,2.636,3.415Z" fill="#fff"/>
      <path d="M1093.495,349.55l.338-2.314h2.626l.546-3.64h-2.548l.286-2.34h2.626l.676-4.446h2.523l-.7,4.446h3.042l.7-4.446h2.5l-.65,4.446h2.678l-.338,2.34h-2.73l-.546,3.64h2.677l-.311,2.314h-2.756l-.728,4.836h-2.522l.754-4.836H1098.6l-.729,4.836h-2.547l.753-4.836Zm5.46-2.314h3.069l.545-3.64H1099.5Z" fill="#fff"/>
      <path d="M1122.018,352.047v2.339h-11.051V336.81h10.973v2.34h-8.14V344.3h7.124v2.34H1113.8v5.409Z" fill="#fff"/>
      <path d="M1134.55,350.1h-6.839l-1.43,4.29h-3.016l6.215-17.576h3.3l6.241,17.576h-3.042Zm-6.085-2.366h5.356l-2.677-8.008Z" fill="#fff"/>
      <path d="M1143.623,354.386V339.462l-4.653,1.872-.7-2.159,5.694-2.365h2.418v17.576Z" fill="#fff"/>
      <path d="M1150.305,336.81h5.8c3.977,0,5.616,1.82,5.616,4.55a3.594,3.594,0,0,1-2.6,3.771,4.2,4.2,0,0,1,3.485,4.341c0,3.588-2.445,4.914-6.37,4.914h-5.929Zm5.434,7.332c2.288,0,3.042-1.014,3.042-2.574,0-1.482-.78-2.418-3.068-2.418h-2.573v4.992Zm.338,7.9c2.575,0,3.615-.885,3.615-2.756,0-1.717-1.014-2.809-3.615-2.809h-2.937v5.565Z" fill="#fff"/>
      <path d="M1177.97,345.6c0,5.512-1.924,9.075-6.5,9.075-4.629,0-6.526-3.563-6.526-9.075s1.95-9.074,6.526-9.074C1176.071,336.524,1177.97,340.086,1177.97,345.6Zm-2.834,0c0-4.342-1.015-6.682-3.666-6.682-2.679,0-3.693,2.34-3.693,6.682s1.014,6.682,3.693,6.682C1174.121,352.28,1175.136,349.94,1175.136,345.6Z" fill="#fff"/>
      <path d="M1190.658,350.1h-6.839l-1.429,4.29h-3.017l6.215-17.576h3.3l6.24,17.576h-3.042Zm-6.085-2.366h5.357l-2.678-8.008Z" fill="#fff"/>
    </g>
  </g>
  <g data-fragment-index="5" class="fragment">
    <g>
      <rect x="1419.376" width="300" height="400" fill="#fff"/>
      <rect x="1419.376" y="395.579" width="300" height="300"/>
      <path d="M1466.463,303.28v3.876h-14.108V286.2h14.015v3.876h-9.209v4.682h7.814v3.876h-7.814v4.65Z" fill="#39393a"/>
      <path d="M1468.475,304.551a2.966,2.966,0,1,1,3.135,2.786c-.042,0-.084,0-.127,0a2.835,2.835,0,0,1-3-2.656C1468.477,304.641,1468.476,304.6,1468.475,304.551Z" fill="#39393a"/>
      <path d="M1485.124,307.465c-6.7,0-9.116-4.681-9.116-10.758,0-6.109,2.356-10.822,9.178-10.822,6.728,0,9.085,4.713,9.085,10.822C1494.271,302.784,1491.759,307.465,1485.124,307.465Zm0-4.03c3.348,0,4.217-2.76,4.217-6.728,0-4.031-.9-6.79-4.155-6.79-3.286,0-4.217,2.759-4.217,6.79C1480.969,300.675,1481.682,303.435,1485.124,303.435Z" fill="#39393a"/>
      <path d="M1509.738,286.2h4.775v20.96h-4.867l-7.66-13.333.032,13.333h-4.868l.031-20.96h5.054l7.5,13.084Z" fill="#39393a"/>
      <path d="M1534.568,291.653a4.317,4.317,0,0,0-3.721-1.736,2.167,2.167,0,0,0-2.449,2.17c0,.961.433,1.706,1.767,2.139l2.573.807c4.062,1.27,5.178,3.41,5.178,5.89,0,4.31-3.41,6.574-7.72,6.574-4.589,0-6.791-2.139-7.689-3.783l3.193-2.728a4.534,4.534,0,0,0,4.5,2.48c1.737,0,2.759-.836,2.759-2.139,0-1.024-.526-1.7-1.953-2.17l-2.542-.807c-3.938-1.24-5.023-3.441-5.023-5.953,0-3.317,1.984-6.512,7.41-6.512,3.752,0,5.736,1.489,6.914,3.132Z" fill="#39393a"/>
      <path d="M1540.3,285.762h4.4v8.5a5.315,5.315,0,0,1,4.062-1.549c3.039,0,4.775,1.984,4.775,5.7v8.743h-4.4v-8.217c0-1.457-.621-2.2-2.233-2.2a4.535,4.535,0,0,0-2.2.744v9.674h-4.4Z" fill="#39393a"/>
      <path d="M1564.141,307.156v-1.581a5.5,5.5,0,0,1-4.372,1.922,3.923,3.923,0,0,1-4.127-3.706,4.046,4.046,0,0,1,0-.48c0-3.193,2.728-4.589,7.038-4.837l1.147-.061v-.652c0-.93-.4-1.643-1.953-1.643-1.21,0-1.8.527-1.8,1.147v.434H1556.3c-.03-.278-.061-.682-.061-.93,0-2.45,2.356-4.061,5.953-4.061,3.5,0,6.046,1.425,6.046,5.053v9.4Zm-2.605-2.945a3.587,3.587,0,0,0,2.295-.931v-2.294l-1.147.155c-1.737.248-2.573.867-2.573,1.86C1560.111,303.839,1560.7,304.211,1561.536,304.211Z" fill="#39393a"/>
      <path d="M1579.859,285.762h4.4v21.394h-4.186V306.1a5.5,5.5,0,0,1-3.783,1.4c-3.6,0-5.766-2.635-5.766-7.442,0-4.681,2.108-7.347,5.8-7.347a5.41,5.41,0,0,1,3.536,1.209Zm-2.233,17.7a4.118,4.118,0,0,0,2.233-.588v-5.582a4.426,4.426,0,0,0-2.233-.558c-1.984,0-2.636,1.4-2.636,3.317s.621,3.415,2.636,3.415Z" fill="#39393a"/>
      <path d="M1597.125,302.6l2.016,2.822a7.7,7.7,0,0,1-5.3,2.077c-5.023,0-7.225-3.1-7.225-7.41,0-3.938,2.326-7.379,6.729-7.379,4.526,0,6.139,3.162,6.139,6.231a12.49,12.49,0,0,1-.248,2.573h-8.186c.093,1.458,1.085,2.295,2.791,2.295A5.583,5.583,0,0,0,1597.125,302.6Zm-1.7-4.155a2.106,2.106,0,0,0,.03-.372,1.87,1.87,0,0,0-1.833-1.906,1.791,1.791,0,0,0-.274.015,2.207,2.207,0,0,0-2.3,2.111c0,.051,0,.1,0,.152Z" fill="#39393a"/>
      <path d="M1623.042,286.2l3.814,15.658,3.41-15.658h4.9l-5.178,20.96h-5.86l-3.783-14.48-3.814,14.48H1610.7l-5.209-20.96h4.9l3.441,15.658,3.782-15.658Z" fill="#39393a"/>
      <path d="M1636.8,285.762h4.4v8.5a5.311,5.311,0,0,1,4.062-1.549c3.039,0,4.775,1.984,4.775,5.7v8.743h-4.4v-8.217c0-1.457-.62-2.2-2.233-2.2a4.535,4.535,0,0,0-2.2.744v9.674h-4.4Z" fill="#39393a"/>
      <path d="M1652.457,288.3a2.3,2.3,0,0,1,2.1-2.485,2.271,2.271,0,0,1,.444,0,2.363,2.363,0,0,1,2.512,2.48,2.279,2.279,0,0,1-2.121,2.426,2.3,2.3,0,0,1-2.933-2.426Zm.4,4.713h4.4v14.139h-4.4Z" fill="#39393a"/>
      <path d="M1666.1,302.226c0,.93.558,1.24,1.395,1.24a9.348,9.348,0,0,0,1.52-.155v3.814a12.967,12.967,0,0,1-3.07.372c-3.1,0-4.248-2.016-4.248-4.619v-6.171h-2.511v-3.38l2.511-.31v-3.38l4.4-.65v4.03h2.852v3.69H1666.1Z" fill="#39393a"/>
      <path d="M1681.257,302.6l2.016,2.822a7.7,7.7,0,0,1-5.3,2.077c-5.023,0-7.225-3.1-7.225-7.41,0-3.938,2.325-7.379,6.729-7.379,4.526,0,6.139,3.162,6.139,6.231a12.49,12.49,0,0,1-.248,2.573h-8.185c.093,1.458,1.085,2.295,2.79,2.295A5.583,5.583,0,0,0,1681.257,302.6Zm-1.705-4.155a2.107,2.107,0,0,0,.031-.372,1.872,1.872,0,0,0-1.836-1.906,1.9,1.9,0,0,0-.272.015,2.206,2.206,0,0,0-2.293,2.115c0,.05,0,.1,0,.148Z" fill="#39393a"/>
      <path d="M1445.763,349.55l.338-2.314h2.626l.546-3.64h-2.548l.286-2.34h2.626l.676-4.446h2.522l-.7,4.446h3.042l.7-4.446h2.5l-.649,4.446h2.678l-.338,2.34h-2.731l-.546,3.64h2.678l-.312,2.314H1456.4l-.729,4.836h-2.521l.754-4.836h-3.043l-.728,4.836h-2.548l.754-4.836Zm5.46-2.314h3.068l.546-3.64h-3.068Z" fill="#39393a"/>
      <path d="M1463.235,336.81H1473.9v2.34h-7.827v5.642h6.657v2.34h-6.657v7.254h-2.834Z" fill="#39393a"/>
      <path d="M1476.754,336.81h10.661v2.34h-7.826v5.642h6.656v2.34h-6.656v7.254h-2.835Z" fill="#39393a"/>
      <path d="M1490.274,336.81h10.661v2.34h-7.826v5.642h6.656v2.34h-6.656v7.254h-2.835Z" fill="#39393a"/>
      <path d="M1503.793,336.81h10.661v2.34h-7.826v5.642h6.656v2.34h-6.656v7.254h-2.835Z" fill="#39393a"/>
      <path d="M1517.313,336.81h10.661v2.34h-7.826v5.642h6.656v2.34h-6.656v7.254h-2.835Z" fill="#39393a"/>
      <path d="M1530.832,336.81h10.661v2.34h-7.826v5.642h6.656v2.34h-6.656v7.254h-2.835Z" fill="#39393a"/>
      <path d="M1466.463,596.392v3.876h-14.108v-20.96h14.015v3.876h-9.209v4.682h7.814v3.876h-7.814v4.65Z" fill="#fff"/>
      <path d="M1468.475,597.664a2.966,2.966,0,1,1,3.135,2.786c-.042,0-.084,0-.127,0a2.835,2.835,0,0,1-3-2.656C1468.477,597.754,1468.476,597.709,1468.475,597.664Z" fill="#fff"/>
      <path d="M1485.124,600.578c-6.7,0-9.116-4.682-9.116-10.759,0-6.108,2.356-10.821,9.178-10.821,6.728,0,9.085,4.713,9.085,10.821C1494.271,595.9,1491.759,600.578,1485.124,600.578Zm0-4.03c3.348,0,4.217-2.76,4.217-6.729,0-4.03-.9-6.79-4.155-6.79-3.286,0-4.217,2.76-4.217,6.79C1480.969,593.788,1481.682,596.548,1485.124,596.548Z" fill="#fff"/>
      <path d="M1509.738,579.308h4.775v20.96h-4.867l-7.66-13.333.032,13.333h-4.868l.031-20.96h5.054l7.5,13.084Z" fill="#fff"/>
      <path d="M1534.568,584.765a4.317,4.317,0,0,0-3.721-1.736,2.167,2.167,0,0,0-2.449,2.17c0,.962.433,1.706,1.767,2.14l2.573.806c4.062,1.271,5.178,3.41,5.178,5.891,0,4.309-3.41,6.573-7.72,6.573-4.589,0-6.791-2.139-7.689-3.782l3.193-2.729a4.535,4.535,0,0,0,4.5,2.481c1.737,0,2.759-.837,2.759-2.14,0-1.023-.526-1.7-1.953-2.17l-2.542-.806c-3.938-1.241-5.023-3.442-5.023-5.954,0-3.317,1.984-6.511,7.41-6.511,3.752,0,5.736,1.488,6.914,3.132Z" fill="#fff"/>
      <path d="M1540.3,578.875h4.4v8.5a5.308,5.308,0,0,1,4.062-1.55c3.039,0,4.775,1.984,4.775,5.7v8.743h-4.4v-8.217c0-1.457-.621-2.2-2.233-2.2a4.535,4.535,0,0,0-2.2.744v9.674h-4.4Z" fill="#fff"/>
      <path d="M1564.141,600.268v-1.581a5.5,5.5,0,0,1-4.372,1.922,3.923,3.923,0,0,1-4.127-3.706,4.046,4.046,0,0,1,0-.48c0-3.193,2.728-4.588,7.038-4.836l1.147-.062v-.651c0-.931-.4-1.644-1.953-1.644-1.21,0-1.8.527-1.8,1.148v.433H1556.3c-.03-.278-.061-.681-.061-.93,0-2.45,2.356-4.061,5.953-4.061,3.5,0,6.046,1.426,6.046,5.054v9.394Zm-2.605-2.945a3.587,3.587,0,0,0,2.295-.931V594.1l-1.147.156c-1.737.248-2.573.867-2.573,1.859C1560.111,596.951,1560.7,597.323,1561.536,597.323Z" fill="#fff"/>
      <path d="M1579.859,578.875h4.4v21.393h-4.186v-1.054a5.5,5.5,0,0,1-3.783,1.395c-3.6,0-5.766-2.635-5.766-7.441,0-4.682,2.108-7.348,5.8-7.348a5.416,5.416,0,0,1,3.536,1.209Zm-2.233,17.7a4.11,4.11,0,0,0,2.233-.589V590.4a4.436,4.436,0,0,0-2.233-.558c-1.984,0-2.636,1.4-2.636,3.318s.621,3.415,2.636,3.415Z" fill="#fff"/>
      <path d="M1597.125,595.711l2.016,2.821a7.7,7.7,0,0,1-5.3,2.077c-5.023,0-7.225-3.1-7.225-7.41,0-3.938,2.326-7.379,6.729-7.379,4.526,0,6.139,3.162,6.139,6.231a12.569,12.569,0,0,1-.248,2.574h-8.186c.093,1.458,1.085,2.3,2.791,2.3A5.592,5.592,0,0,0,1597.125,595.711Zm-1.7-4.156a2.106,2.106,0,0,0,.03-.372,1.869,1.869,0,0,0-1.832-1.9,1.8,1.8,0,0,0-.275.015,2.207,2.207,0,0,0-2.3,2.111c0,.05,0,.1,0,.151Z" fill="#fff"/>
      <path d="M1607.849,579.308h7.564c5.272,0,7.163,2.3,7.163,5.613a4.19,4.19,0,0,1-2.852,4.247,5.056,5.056,0,0,1,3.937,5.086c0,4.5-3.256,6.014-8.217,6.014h-7.6Zm7.038,8.217c2.077,0,2.759-.807,2.759-2.171,0-1.27-.682-2.17-2.79-2.17h-2.2v4.341Zm.526,8.867c2.481,0,3.287-.961,3.287-2.511,0-1.489-.806-2.481-3.287-2.481h-2.759v4.992Z" fill="#fff"/>
      <path d="M1630.323,578.875v16.494c0,.775.28,1.023,1.118,1.023h.619v4.063h-2.17c-3.07,0-3.969-1.985-3.969-4.372V578.875Z" fill="#fff"/>
      <path d="M1642.011,600.268v-1.581a5.5,5.5,0,0,1-4.371,1.922,3.922,3.922,0,0,1-4.128-3.705,4.063,4.063,0,0,1,0-.481c0-3.193,2.728-4.588,7.038-4.836l1.147-.062v-.651c0-.931-.4-1.644-1.954-1.644-1.209,0-1.8.527-1.8,1.148v.433h-3.782c-.031-.278-.062-.681-.062-.93,0-2.45,2.356-4.061,5.953-4.061,3.5,0,6.046,1.426,6.046,5.054v9.394Zm-2.605-2.945a3.587,3.587,0,0,0,2.3-.931V594.1l-1.147.156c-1.736.248-2.573.867-2.573,1.859C1637.981,596.951,1638.569,597.323,1639.406,597.323Z" fill="#fff"/>
      <path d="M1655,585.82c2.7,0,4.868,1.085,5.892,3.286l-3.038,2.171a2.8,2.8,0,0,0-2.481-1.613c-1.861,0-2.574,1.488-2.574,3.535s.713,3.565,2.574,3.565a2.875,2.875,0,0,0,2.511-1.643l3.008,2.2c-1.024,2.2-3.194,3.286-5.892,3.286-4.805,0-6.666-3.5-6.666-7.41S1650.194,585.82,1655,585.82Z" fill="#fff"/>
      <path d="M1672.02,600.268l-3.225-5.891-1.612,1.582v4.309h-4.4V578.875h4.4v12l4.589-4.744h5.3l-5.271,5.177,5.055,8.961Z" fill="#fff"/>
      <path d="M1445.763,642.663l.338-2.315h2.626l.546-3.639h-2.548l.286-2.341h2.626l.676-4.445h2.522l-.7,4.445h3.042l.7-4.445h2.5l-.649,4.445h2.678l-.338,2.341h-2.731l-.546,3.639h2.678l-.312,2.315H1456.4l-.729,4.836h-2.521l.754-4.836h-3.043l-.728,4.836h-2.548l.754-4.836Zm5.46-2.315h3.068l.546-3.639h-3.068Z" fill="#fff"/>
      <path d="M1463.235,629.923H1473.9v2.339h-7.827v5.64h6.657v2.341h-6.657V647.5h-2.834Z" fill="#fff"/>
      <path d="M1476.754,629.923h10.661v2.339h-7.826v5.64h6.656v2.341h-6.656V647.5h-2.835Z" fill="#fff"/>
      <path d="M1490.274,629.923h10.661v2.339h-7.826v5.64h6.656v2.341h-6.656V647.5h-2.835Z" fill="#fff"/>
      <path d="M1503.793,629.923h10.661v2.339h-7.826v5.64h6.656v2.341h-6.656V647.5h-2.835Z" fill="#fff"/>
      <path d="M1517.313,629.923h10.661v2.339h-7.826v5.64h6.656v2.341h-6.656V647.5h-2.835Z" fill="#fff"/>
      <path d="M1530.832,629.923h10.661v2.339h-7.826v5.64h6.656v2.341h-6.656V647.5h-2.835Z" fill="#fff"/>
    </g>
  </g>
</svg>
