<svg xmlns="http://www.w3.org/2000/svg" width="190" height="66" viewBox="0 0 190 66">
  <g id="Layer_2" data-name="Layer 2">
    <g id="Layer_2-2" data-name="Layer 2">
      <rect width="190" height="66" fill="none"/>
      <path d="M156.69,9a82.2784,82.2784,0,0,0-15.3329,1.4576,9.02,9.02,0,0,0-7.2156,7.2136,81.6691,81.6691,0,0,0,0,30.6575,9.02,9.02,0,0,0,7.2157,7.2137A82.2984,82.2984,0,0,0,156.69,57a82.2976,82.2976,0,0,0,15.3329-1.4576,9.02,9.02,0,0,0,7.2156-7.2136,81.6691,81.6691,0,0,0,0-30.6575,9.02,9.02,0,0,0-7.2156-7.2137A82.2794,82.2794,0,0,0,156.69,9Z" fill="none" stroke="#fff" stroke-miterlimit="10" stroke-width="2"/>
      <g>
        <path d="M19.3807,49.9855v1.9971H9.951V36.9846h9.3623v1.997H12.37v4.3926h6.0782v1.9971H12.37v4.6142Z" fill="#fff"/>
        <path d="M21.6453,41.8654h2.1524v1.1758a3.8452,3.8452,0,0,1,3.2168-1.3975c2.3955,0,3.5048,1.375,3.5048,3.9493v6.39H28.3006v-6.168c0-1.3974-.5322-2.1074-2.085-2.1074a3.3309,3.3309,0,0,0-2.3515.9541v7.3213H21.6453Z" fill="#fff"/>
        <path d="M38.8856,51.9826V50.7619A4.271,4.271,0,0,1,35.58,52.2268a2.7746,2.7746,0,0,1-3.04-2.9063c0-2.1523,1.8867-3.1064,4.7929-3.3281l1.42-.1553v-.7988c0-1.02-.4443-1.5977-1.8642-1.5977-1.2422,0-1.8408.4434-1.8408,1.0869v.4883H33.0945c-.0214-.2217-.0439-.4658-.0439-.6875,0-1.5752,1.42-2.6846,3.9717-2.6846,2.4619,0,3.9492,1.0645,3.9492,3.3721v6.9668Zm-2.5518-1.5088a3.4427,3.4427,0,0,0,2.4189-1.0429V47.257l-1.3984.1992c-1.6191.2217-2.5293.71-2.5293,1.73C34.825,50.0305,35.3358,50.4738,36.3338,50.4738Z" fill="#fff"/>
        <path d="M45.8094,42.7082a3.311,3.311,0,0,1,2.6846-1.0645c2.95,0,4.3261,1.9971,4.3261,5.2579,0,3.1953-1.4648,5.3252-4.3261,5.3252a4.0838,4.0838,0,0,1-3.084-1.1543l-.666.91H43.5906V36.674h2.2188Zm2.1738.999a2.6415,2.6415,0,0,0-2.1738.9541v4.4365a2.7082,2.7082,0,0,0,2.1738,1.0655c2.02,0,2.5518-1.3975,2.5518-3.2617S49.9578,43.7072,47.9832,43.7072Z" fill="#fff"/>
        <path d="M57.2156,36.674V48.8986c0,.7764.2217,1.1094.9317,1.1094H58.68v2.0635H57.4813c-1.9082,0-2.4844-1.1758-2.4844-2.8623V36.674Z" fill="#fff"/>
        <path d="M67.4442,49.298l1.0644,1.4639a5.1953,5.1953,0,0,1-3.7051,1.4649c-3.3945,0-4.8144-2.2188-4.8144-5.3028,0-2.9062,1.5088-5.28,4.5927-5.28,2.9727,0,4.1485,2.1524,4.1485,4.3262a7.8321,7.8321,0,0,1-.1553,1.6641H62.2518c.0449,1.6191.8437,2.6621,2.5517,2.6621A4.06,4.06,0,0,0,67.4442,49.298Zm-.8213-3.3056a2.4085,2.4085,0,0,0,.0224-.3779,1.97,1.97,0,0,0-2.0635-2.1514c-1.5976,0-2.2412,1.1094-2.33,2.5293Z" fill="#fff"/>
        <path d="M70.9285,41.8654h2.1524v1.1758a3.7052,3.7052,0,0,1,2.9062-1.3975,3.4178,3.4178,0,0,1,3.15,1.53,4.4849,4.4849,0,0,1,3.5274-1.53c2.5293,0,3.5937,1.3311,3.5937,3.7715v6.5674h-2.24v-6.39c0-1.2422-.5108-1.8858-1.9522-1.8858a3.0959,3.0959,0,0,0-2.3076.9541v7.3213H77.5174v-7.166a2.18,2.18,0,0,0-2.085-1.1094,3.29,3.29,0,0,0-2.2851.9541v7.3213H70.9285Z" fill="#fff"/>
        <path d="M95.8465,49.298l1.0644,1.4639a5.195,5.195,0,0,1-3.705,1.4649c-3.3946,0-4.8145-2.2188-4.8145-5.3028,0-2.9062,1.5088-5.28,4.5928-5.28,2.9726,0,4.1484,2.1524,4.1484,4.3262a7.8323,7.8323,0,0,1-.1552,1.6641H90.6541c.0449,1.6191.8438,2.6621,2.5518,2.6621A4.06,4.06,0,0,0,95.8465,49.298Zm-.8213-3.3056a2.3979,2.3979,0,0,0,.0225-.3779,1.97,1.97,0,0,0-2.0635-2.1514c-1.5977,0-2.2412,1.1094-2.33,2.5293Z" fill="#fff"/>
        <path d="M99.3309,41.8654h2.1523v1.1758A3.8454,3.8454,0,0,1,104.7,41.6437c2.3955,0,3.5049,1.375,3.5049,3.9493v6.39h-2.2188v-6.168c0-1.3974-.5322-2.1074-2.0849-2.1074a3.331,3.331,0,0,0-2.3516.9541v7.3213H99.3309Z" fill="#fff"/>
        <path d="M113.9315,48.8537c0,.8438.3994,1.31,1.22,1.31a3.94,3.94,0,0,0,1.31-.2666l.11,1.9521a6.37,6.37,0,0,1-2.1074.378c-1.9746,0-2.7735-1.2647-2.7735-3.084V43.7736H109.827V42.0871l1.8632-.2217V39.3586l2.2413-.3555v2.8623h2.4843v1.9082h-2.4843Z" fill="#fff"/>
      </g>
      <g>
        <path d="M59.5906,13.9836h4.4815c5.1474,0,7.3,2.2412,7.3,7.499,0,5.2139-2.13,7.499-7.3,7.499H59.5906Zm4.3487,13.0019c3.7715,0,4.9472-1.4423,4.9472-5.5029,0-3.9707-1.1757-5.5019-4.9472-5.5019H62.01V26.9855Z" fill="#fff"/>
        <path d="M73.3934,15.2932a1.3111,1.3111,0,0,1,1.4424-1.42,1.347,1.347,0,0,1,1.42,1.42,1.3169,1.3169,0,0,1-1.42,1.3974A1.2841,1.2841,0,0,1,73.3934,15.2932Zm.3554,3.5722h2.2178V28.9816H73.7488Z" fill="#fff"/>
        <path d="M87.4149,18.8654V29.67c0,2.2178-1.6641,3.86-4.4151,3.86-2.706,0-4.082-1.42-4.082-3.1953h1.9746c0,.6875.7324,1.3974,2.1074,1.3974,1.42,0,2.1748-.7764,2.1748-1.9521V28.05a3.5934,3.5934,0,0,1-2.6406,1.1758c-2.8838,0-4.2822-1.9971-4.2822-5.3242,0-3.3057,1.4648-5.2588,4.2822-5.2588a3.5653,3.5653,0,0,1,2.7734,1.1318v-.9092ZM83,27.1623a2.8049,2.8049,0,0,0,2.1748-.9756V21.6379A2.7065,2.7065,0,0,0,83,20.7062c-1.93,0-2.5068,1.3311-2.5068,3.1954C80.493,25.7209,81.0477,27.1623,83,27.1623Z" fill="#fff"/>
        <path d="M89.7908,15.2932a1.3111,1.3111,0,0,1,1.4424-1.42,1.347,1.347,0,0,1,1.42,1.42,1.3169,1.3169,0,0,1-1.42,1.3974A1.2841,1.2841,0,0,1,89.7908,15.2932Zm.3555,3.5722h2.2178V28.9816H90.1463Z" fill="#fff"/>
        <path d="M98.2449,25.8537c0,.8428.3994,1.3086,1.22,1.3086a3.9374,3.9374,0,0,0,1.31-.2656l.11,1.9521a6.3981,6.3981,0,0,1-2.1074.377c-1.9747,0-2.7735-1.2647-2.7735-3.084V20.7727H94.14V19.0871l1.8633-.2217V16.3576l2.2412-.3545v2.8623h2.4844v1.9073H98.2449Z" fill="#fff"/>
        <path d="M108.4959,28.9816v-1.22a4.2732,4.2732,0,0,1-3.3057,1.4639,2.7746,2.7746,0,0,1-3.04-2.9063c0-2.1523,1.8867-3.1064,4.793-3.3281l1.42-.1553v-.7988c0-1.02-.4443-1.5967-1.8643-1.5967-1.2421,0-1.8408.4434-1.8408,1.0869v.4883h-1.9531c-.0215-.2226-.044-.4668-.044-.6885,0-1.5752,1.42-2.6845,3.9717-2.6845,2.4619,0,3.9492,1.0654,3.9492,3.373v6.9658Zm-2.5517-1.5088a3.4465,3.4465,0,0,0,2.4189-1.0419V24.2561l-1.3984.2c-1.6192.2217-2.5293.71-2.5293,1.73C104.4354,27.03,104.9461,27.4728,105.9442,27.4728Z" fill="#fff"/>
        <path d="M115.3533,13.673V25.8977c0,.7773.2217,1.1093.9317,1.1093h.5322v2.0635H115.619c-1.9082,0-2.4844-1.1758-2.4844-2.8623V13.673Z" fill="#fff"/>
      </g>
      <g>
        <path d="M150.5073,39.1551l-.8838-.8839a7.3251,7.3251,0,0,0-4.809.9968,6.9435,6.9435,0,0,0-1.5679,1.3349q-.6915.76-1.3142,1.5888a19.8615,19.8615,0,0,0-2.1667,3.639,16.0348,16.0348,0,0,0-1.3118,4.4939,16.0315,16.0315,0,0,0,4.4939-1.3117,19.8669,19.8669,0,0,0,3.6391-2.1667q.8277-.6236,1.5886-1.3143a6.9462,6.9462,0,0,0,1.3352-1.5677A7.3262,7.3262,0,0,0,150.5073,39.1551Zm-1.8987,3.2706a6.5958,6.5958,0,0,1-1.3078,1.0332,9.6519,9.6519,0,0,1-1.53.811,8.3436,8.3436,0,0,1-1.8017.5393,8.3474,8.3474,0,0,1,.5393-1.8015,9.6615,9.6615,0,0,1,.8111-1.53,6.5921,6.5921,0,0,1,1.0333-1.3076,3.8215,3.8215,0,0,1,1.45-.8912L149.5,40.976A3.826,3.826,0,0,1,148.6086,42.4257Z" fill="#fff"/>
        <g>
          <g>
            <path d="M153.0918,41.2022a12.2745,12.2745,0,0,1-3.3092-2.2062,12.2759,12.2759,0,0,1-2.2062-3.3093" fill="#fff" stroke="#fff" stroke-miterlimit="10" stroke-width="4"/>
            <path d="M150.0654,38.7132a12.9072,12.9072,0,0,1-2.5867-4.0107c2.1434-5.04,6.3-11.8425,10.9406-14.8093a27.2731,27.2731,0,0,1,14.6187-4.1526,26.2377,26.2377,0,0,1-4.2941,14.4772c-2.9664,4.64-9.6325,8.94-14.6679,11.0821A12.9117,12.9117,0,0,1,150.0654,38.7132Zm-.5405-4.1756A12.4145,12.4145,0,0,0,151.48,37.299a14.1611,14.1611,0,0,0,2.9027,2.0961c1.9142-.8631,9.4736-5.3771,12.66-10.2715a24.2074,24.2074,0,0,0,3.8451-11.2322,24.016,24.016,0,0,0-11.3737,3.7037C154.6191,24.7813,150.388,32.6235,149.5249,34.5376Z" fill="#fff"/>
          </g>
          <path d="M167.272,24.7891q-.7782,1.5274-1.5565,3.0548a11.2394,11.2394,0,0,1-4.9124-4.9125l3.0547-1.5565A7.8131,7.8131,0,0,0,167.272,24.7891Z" fill="none" stroke="#fff" stroke-linecap="round" stroke-linejoin="round" stroke-width="1.4824"/>
        </g>
        <g>
          <path d="M160.6442,37.6879a10.757,10.757,0,0,1-3.1232,9.492,1,1,0,0,1-1.692-.8088A6.5253,6.5253,0,0,0,154.076,41.3" fill="#fff"/>
          <path d="M151.0907,28.1343a10.7576,10.7576,0,0,0-9.492,3.1233,1,1,0,0,0,.8088,1.692,6.5257,6.5257,0,0,1,5.0712,1.7529" fill="#fff"/>
        </g>
        <circle cx="159.5455" cy="29.1014" r="2" fill="#fff"/>
      </g>
    </g>
  </g>
</svg>
