<svg xmlns="http://www.w3.org/2000/svg" width="1282" height="850.874" viewBox="0 0 1282 850.874">
  <g id="Layer_2" data-name="Layer 2">
    <g id="bg">
      <rect x="1" y="82.874" width="489" height="720" fill="#333334"/>
      <rect x="1" y="82.874" width="186.781" height="720" fill="#303030"/>
      <rect x="1" y="82.874" width="64" height="720" fill="#2e2e2e"/>
      <rect x="1" y="82.874" width="1280" height="720" fill="none" stroke="#e3e000" stroke-miterlimit="10" stroke-width="2"/>
      <g>
        <path d="M868.254,172.554a3.761,3.761,0,0,0-1.959-.682c-1.342,0-2.618,1.386-4.246,1.386a3.448,3.448,0,0,1-1.893-.572v-2.619a2.765,2.765,0,0,0,1.782.683c1.387,0,2.4-1.387,4.335-1.387a3.619,3.619,0,0,1,2.025.595Z" transform="translate(0 -3.562)" fill="#e3e000"/>
        <path d="M876.943,164.545c-1.936,0-2.707,1.849-2.707,4.423a4.834,4.834,0,0,1,3.279-1.255c2.795,0,4.533,1.849,4.533,4.753,0,2.707-1.717,5.039-5.281,5.039-3.829,0-5.435-3.1-5.435-7.151,0-4.753,1.606-8.208,5.611-8.208,3.344,0,4.8,1.849,4.8,4.115h-2.816C878.923,165.205,878.175,164.545,876.943,164.545Zm-.176,10.561c1.562,0,2.354-1.034,2.354-2.6A2.219,2.219,0,0,0,876.767,170a2.857,2.857,0,0,0-2.508,1.54C874.259,173.5,875.028,175.106,876.767,175.106Z" transform="translate(0 -3.562)" fill="#e3e000"/>
        <path d="M893.312,166.679c0,2.091-1.387,3.762-2.994,5.457l-2.639,2.816h5.764v2.311h-9.549v-1.981l4.533-4.841c1.231-1.3,1.979-2.442,1.979-3.762a1.877,1.877,0,0,0-1.914-2.134c-1.364,0-1.98.946-1.98,2.42h-2.838c0-2.838,1.584-4.819,4.818-4.819C891.419,162.146,893.312,164.039,893.312,166.679Z" transform="translate(0 -3.562)" fill="#e3e000"/>
        <path d="M901.891,166.415c0,2.486-.991,4.137-3.433,4.137-2.464,0-3.433-1.651-3.433-4.137,0-2.508.991-4.158,3.433-4.158C900.944,162.257,901.891,163.907,901.891,166.415Zm-2.025,0c0-1.76-.33-2.6-1.408-2.6-1.056,0-1.408.837-1.408,2.6,0,1.738.352,2.574,1.408,2.574C899.536,168.989,899.866,168.153,899.866,166.415Zm.374,10.848h-2.09l8.8-14.874h2.156Zm12.014-4c0,2.486-.99,4.137-3.433,4.137-2.464,0-3.432-1.651-3.432-4.137,0-2.508.99-4.158,3.432-4.158C911.308,169.1,912.254,170.75,912.254,173.258Zm-2.025,0c0-1.76-.33-2.6-1.408-2.6-1.055,0-1.408.836-1.408,2.6,0,1.738.353,2.574,1.408,2.574C909.9,175.832,910.229,175,910.229,173.258Z" transform="translate(0 -3.562)" fill="#e3e000"/>
      </g>
      <g>
        <path d="M227.869,172.554a3.764,3.764,0,0,0-1.959-.682c-1.342,0-2.618,1.386-4.246,1.386a3.446,3.446,0,0,1-1.893-.572v-2.619a2.766,2.766,0,0,0,1.783.683c1.386,0,2.4-1.387,4.334-1.387a3.616,3.616,0,0,1,2.025.595Z" transform="translate(0 -3.562)" fill="#e3e000"/>
        <path d="M241.113,173.28c0,2.508-2.069,4.225-5.215,4.225-3.5,0-5.061-1.761-5.061-4.159h2.838c0,1.1.815,1.76,2.223,1.76,1.364,0,2.31-.748,2.31-1.98,0-1.408-.968-2.288-2.794-2.288h-1.431v-2.311h1.431c1.606,0,2.552-.681,2.552-2.068a1.847,1.847,0,0,0-2.068-1.914c-1.32,0-2.024.7-2.024,1.716h-2.839c0-2.266,1.474-4.115,4.863-4.115,3.081,0,5,1.739,5,4.181a3.364,3.364,0,0,1-2.575,3.345A3.6,3.6,0,0,1,241.113,173.28Z" transform="translate(0 -3.562)" fill="#e3e000"/>
        <path d="M243,173.192a3.552,3.552,0,0,1,2.728-3.564,3.285,3.285,0,0,1-2.442-3.257c0-2.6,1.914-4.225,5.127-4.225s5.1,1.628,5.1,4.225a3.292,3.292,0,0,1-2.421,3.257,3.539,3.539,0,0,1,2.706,3.564c0,2.773-2.134,4.313-5.39,4.313S243,175.965,243,173.192Zm7.9-.22c0-1.474-1.078-2.178-2.508-2.178a2.192,2.192,0,0,0-2.487,2.178c0,1.386.99,2.134,2.487,2.134C249.934,175.106,250.9,174.358,250.9,172.972Zm-4.709-6.469a2.225,2.225,0,0,0,4.423,0c0-1.276-.858-1.958-2.222-1.958C247.073,164.545,246.193,165.227,246.193,166.5Z" transform="translate(0 -3.562)" fill="#e3e000"/>
        <path d="M262.276,166.415c0,2.486-.99,4.137-3.432,4.137-2.465,0-3.433-1.651-3.433-4.137,0-2.508.99-4.158,3.433-4.158C261.33,162.257,262.276,163.907,262.276,166.415Zm-2.024,0c0-1.76-.33-2.6-1.408-2.6-1.056,0-1.408.837-1.408,2.6,0,1.738.352,2.574,1.408,2.574C259.922,168.989,260.252,168.153,260.252,166.415Zm.374,10.848h-2.09l8.8-14.874h2.156Zm12.014-4c0,2.486-.991,4.137-3.433,4.137-2.464,0-3.433-1.651-3.433-4.137,0-2.508.991-4.158,3.433-4.158C271.693,169.1,272.64,170.75,272.64,173.258Zm-2.025,0c0-1.76-.33-2.6-1.408-2.6-1.056,0-1.408.836-1.408,2.6,0,1.738.352,2.574,1.408,2.574C270.285,175.832,270.615,175,270.615,173.258Z" transform="translate(0 -3.562)" fill="#e3e000"/>
      </g>
      <path d="M190.752,15.069h-5.39l-1.078,3.367H181.2L186.4,3.562h3.322l5.215,14.874h-3.1Zm-4.664-2.377h3.96l-1.98-6.16Z" transform="translate(0 -3.562)" fill="#e3e000"/>
      <path d="M484.94,3.562h5.15c3.542,0,4.906,1.584,4.906,3.916a3,3,0,0,1-2.112,3.1,3.575,3.575,0,0,1,2.883,3.631c0,3.124-2.2,4.225-5.612,4.225H484.94Zm4.8,6.006c1.695,0,2.267-.7,2.267-1.848,0-1.078-.572-1.782-2.288-1.782h-1.871v3.63Zm.33,6.492c1.958,0,2.685-.7,2.685-2.047,0-1.254-.7-2.069-2.685-2.069h-2.222V16.06Z" transform="translate(0 -3.562)" fill="#e3e000"/>
      <g>
        <path d="M321.645,543.163a3.773,3.773,0,0,0-1.959-.682c-1.342,0-2.618,1.386-4.247,1.386a3.436,3.436,0,0,1-1.892-.572v-2.618a2.765,2.765,0,0,0,1.783.682c1.386,0,2.4-1.386,4.334-1.386a3.621,3.621,0,0,1,2.024.594Z" transform="translate(0 -3.562)" fill="#e3e000"/>
        <path d="M330.334,535.154c-1.937,0-2.707,1.849-2.707,4.423a4.834,4.834,0,0,1,3.279-1.255c2.794,0,4.532,1.849,4.532,4.753,0,2.707-1.716,5.039-5.28,5.039-3.829,0-5.435-3.1-5.435-7.151,0-4.753,1.606-8.207,5.611-8.207,3.344,0,4.8,1.848,4.8,4.114h-2.816C332.314,535.814,331.566,535.154,330.334,535.154Zm-.176,10.562c1.562,0,2.354-1.034,2.354-2.6a2.22,2.22,0,0,0-2.354-2.508,2.86,2.86,0,0,0-2.509,1.54C327.649,544.109,328.419,545.716,330.158,545.716Z" transform="translate(0 -3.562)" fill="#e3e000"/>
        <path d="M346.7,537.288c0,2.091-1.386,3.763-2.993,5.457l-2.64,2.817h5.765v2.31h-9.549v-1.98l4.532-4.841c1.232-1.3,1.98-2.443,1.98-3.763a1.877,1.877,0,0,0-1.914-2.134c-1.364,0-1.98.947-1.98,2.42h-2.839c0-2.838,1.585-4.818,4.819-4.818C344.81,532.756,346.7,534.648,346.7,537.288Z" transform="translate(0 -3.562)" fill="#e3e000"/>
        <path d="M355.281,537.024c0,2.487-.989,4.137-3.432,4.137-2.464,0-3.432-1.65-3.432-4.137,0-2.507.99-4.158,3.432-4.158C354.335,532.866,355.281,534.517,355.281,537.024Zm-2.024,0c0-1.759-.33-2.6-1.408-2.6-1.056,0-1.408.837-1.408,2.6,0,1.739.352,2.575,1.408,2.575C352.927,539.6,353.257,538.763,353.257,537.024Zm.374,10.848h-2.09l8.8-14.874H362.5Zm12.014-4c0,2.487-.99,4.137-3.433,4.137-2.464,0-3.432-1.65-3.432-4.137,0-2.508.99-4.158,3.432-4.158C364.7,539.709,365.645,541.359,365.645,543.867Zm-2.024,0c0-1.76-.33-2.6-1.409-2.6-1.056,0-1.408.836-1.408,2.6,0,1.738.352,2.574,1.408,2.574C363.291,546.441,363.621,545.605,363.621,543.867Z" transform="translate(0 -3.562)" fill="#e3e000"/>
      </g>
      <g>
        <path d="M76.759,543.163a3.767,3.767,0,0,0-1.958-.682c-1.342,0-2.618,1.386-4.247,1.386a3.434,3.434,0,0,1-1.892-.572v-2.618a2.762,2.762,0,0,0,1.782.682c1.387,0,2.4-1.386,4.335-1.386a3.624,3.624,0,0,1,2.024.594Z" transform="translate(0 -3.562)" fill="#e3e000"/>
        <path d="M90,543.89c0,2.507-2.068,4.224-5.214,4.224-3.5,0-5.061-1.76-5.061-4.159h2.838c0,1.1.814,1.761,2.223,1.761,1.364,0,2.31-.748,2.31-1.981,0-1.408-.968-2.288-2.8-2.288h-1.43v-2.31H84.3c1.607,0,2.553-.682,2.553-2.069a1.848,1.848,0,0,0-2.068-1.914c-1.321,0-2.025.7-2.025,1.716H79.926c0-2.266,1.474-4.114,4.863-4.114,3.08,0,4.994,1.738,4.994,4.181a3.363,3.363,0,0,1-2.574,3.344A3.6,3.6,0,0,1,90,543.89Z" transform="translate(0 -3.562)" fill="#e3e000"/>
        <path d="M91.894,543.8a3.552,3.552,0,0,1,2.728-3.565,3.283,3.283,0,0,1-2.442-3.257c0-2.6,1.914-4.224,5.126-4.224s5.105,1.628,5.105,4.224a3.29,3.29,0,0,1-2.42,3.257A3.54,3.54,0,0,1,102.7,543.8c0,2.772-2.135,4.312-5.391,4.312S91.894,546.574,91.894,543.8Zm7.9-.221c0-1.474-1.078-2.178-2.508-2.178a2.191,2.191,0,0,0-2.486,2.178c0,1.387.99,2.135,2.486,2.135C98.824,545.716,99.792,544.968,99.792,543.581Zm-4.708-6.469a2.224,2.224,0,0,0,4.422,0c0-1.276-.858-1.958-2.222-1.958C95.964,535.154,95.084,535.836,95.084,537.112Z" transform="translate(0 -3.562)" fill="#e3e000"/>
        <path d="M111.167,537.024c0,2.487-.99,4.137-3.433,4.137-2.464,0-3.432-1.65-3.432-4.137,0-2.507.99-4.158,3.432-4.158C110.221,532.866,111.167,534.517,111.167,537.024Zm-2.024,0c0-1.759-.331-2.6-1.409-2.6-1.056,0-1.408.837-1.408,2.6,0,1.739.352,2.575,1.408,2.575C108.812,539.6,109.143,538.763,109.143,537.024Zm.374,10.848h-2.091l8.8-14.874h2.156Zm12.013-4c0,2.487-.99,4.137-3.432,4.137-2.465,0-3.433-1.65-3.433-4.137,0-2.508.99-4.158,3.433-4.158C120.584,539.709,121.53,541.359,121.53,543.867Zm-2.024,0c0-1.76-.33-2.6-1.408-2.6-1.056,0-1.409.836-1.409,2.6,0,1.738.353,2.574,1.409,2.574C119.176,546.441,119.506,545.605,119.506,543.867Z" transform="translate(0 -3.562)" fill="#e3e000"/>
      </g>
      <line x1="490" y1="34.874" x2="490" y2="850.874" fill="none" stroke="#e3e000" stroke-miterlimit="10" stroke-dasharray="12"/>
      <line x1="187.781" y1="34.874" x2="187.781" y2="850.874" fill="none" stroke="#e3e000" stroke-miterlimit="10" stroke-dasharray="12"/>
      <line x1="65" y1="34.874" x2="65" y2="850.874" fill="none" stroke="#000" stroke-miterlimit="10" stroke-dasharray="12"/>
      <g>
        <line x1="9.859" y1="210.696" x2="481.141" y2="210.696" fill="none" stroke="#e3e000" stroke-miterlimit="10" stroke-dasharray="12 12"/>
        <polygon points="11.841 213.601 1 210.696 11.841 207.791 11.841 213.601" fill="#e3e000"/>
        <polygon points="479.159 213.601 490 210.696 479.159 207.791 479.159 213.601" fill="#e3e000"/>
      </g>
      <g>
        <line x1="9.859" y1="581.304" x2="178.922" y2="581.304" fill="none" stroke="#e3e000" stroke-miterlimit="10" stroke-dasharray="12 12"/>
        <polygon points="11.841 584.21 1 581.304 11.841 578.399 11.841 584.21" fill="#e3e000"/>
        <polygon points="176.941 584.21 187.781 581.304 176.941 578.399 176.941 584.21" fill="#e3e000"/>
      </g>
      <g>
        <line x1="196.641" y1="581.304" x2="481.141" y2="581.304" fill="none" stroke="#e3e000" stroke-miterlimit="10" stroke-dasharray="12 12"/>
        <polygon points="198.622 584.21 187.781 581.304 198.622 578.399 198.622 584.21" fill="#e3e000"/>
        <polygon points="479.159 584.21 490 581.304 479.159 578.399 479.159 584.21" fill="#e3e000"/>
      </g>
      <g>
        <line x1="498.859" y1="210.696" x2="1272.141" y2="210.696" fill="none" stroke="#e3e000" stroke-miterlimit="10" stroke-dasharray="12 12"/>
        <polygon points="500.841 213.601 490 210.696 500.841 207.791 500.841 213.601" fill="#e3e000"/>
        <polygon points="1270.159 213.601 1281 210.696 1270.159 207.791 1270.159 213.601" fill="#e3e000"/>
      </g>
    </g>
  </g>
</svg>
