<svg xmlns="http://www.w3.org/2000/svg" width="960" height="540" viewBox="0 0 960 540">
  <g id="Layer_2" data-name="Layer 2">
    <g class="fragment" data-fragment-index="1">
      <path d="M237.562,239.284c0,4.863-5.784,21.51-6.734,24.009-.624,1.642-1.819,1.874-3.368,1.874-2.8,0-4.916-.667-5.946-1.492a.932.932,0,0,1-.3-1.069c1.053-3.139,5.052-14.445,5.052-16.888,0-1.337-.4-2.342-1.73-2.342-8.094,0-22.964,17.269-25.725,20.356-.9,1.01-2.227,1.222-3.773,1.222a10.5,10.5,0,0,1-4.146-1.116c-.606-.313-.634-.659-.455-1.387l.508-2.068a241.877,241.877,0,0,1,9.088-25.352c.142-.321.281-.587,1.006-.7a15.538,15.538,0,0,1,2.981-.31,11.455,11.455,0,0,1,4.422.67s.009-.017.009,1.829c0,.8.087,3.507,2.638,3.507,4.3,0,12.118-7.387,19.027-7.387,6.074,0,7.444,3.748,7.444,6.644M151.617,245.4a18.931,18.931,0,0,1-1.342,4.2c-1.057,2.607-3.829,3.029-5.78,3.029-2.928,0-3.933-1.051-3.933-2.71a12.37,12.37,0,0,1,1.222-3.827c1.318-3.02,3.677-3.348,6.006-3.348,1.974,0,3.827.821,3.827,2.658m-25.034-6.379c0-1.922-.091-4.677-1.594-4.677-4.893,0-13.488,7.483-14.35,8.344-.638.639-.161.585.69.585h11c3.9,0,4.251-.656,4.251-4.252m11.746,1.01c0,9.421-5.8,11.374-12.224,11.374h-4.517c-4.515,0-13.607-.266-13.607-.266-.73-.014-1.275-.159-1.275.266,0,3.072,3.475,7.707,8.769,7.707a10.574,10.574,0,0,0,7.441-3.221s4.791-.552,7.866-.552c2.986,0,7.388.477,7.388,2.178,0,3.318-10.78,8.558-19.825,8.558-13.617,0-25.883-7.4-25.883-16.317,0-14.946,28.844-26.2,37.257-26.2,7.577,0,8.61,12.066,8.61,16.476m36.142-.319c-1.025,0-2.551.16-3.242,1.116-2.589,3.585-4.306,12.549-4.306,15.042,0,1.7,1.183,1.594,2.764,1.594.92,0,2.4.023,3.243-.85,2.274-2.369,4.237-13.107,4.237-15.045,0-1.378-.1-1.857-2.7-1.857m17.113-.478c0,4.092-4.039,13.076-5.338,15.573-5.427,10.435-12.678,10.364-20.864,10.364-4,0-12.915.046-12.915-7.441,0-3.349,2.919-9.487,5.315-15.306,1.019-2.476,5.36-10.79,20.144-10.79,6.1,0,13.658.956,13.658,7.6" fill="#fff"/>
    </g>
    <g class="fragment" data-fragment-index="2">
      <g>
        <rect x="280.035" y="213.185" width="190" height="66" fill="none"/>
        <path d="M436.726,222.185a82.205,82.205,0,0,0-15.333,1.458,9.02,9.02,0,0,0-7.216,7.213,81.641,81.641,0,0,0,0,30.658,9.019,9.019,0,0,0,7.216,7.213,81.348,81.348,0,0,0,30.665,0,9.019,9.019,0,0,0,7.216-7.213,81.7,81.7,0,0,0,0-30.658,9.02,9.02,0,0,0-7.216-7.213,82.2,82.2,0,0,0-15.332-1.458Z" fill="none" stroke="#fff" stroke-miterlimit="10" stroke-width="2"/>
        <g>
          <path d="M299.417,263.171v2h-9.43v-15h9.362v2h-6.943v4.392h6.078v2h-6.078v4.615Z" fill="#fff"/>
          <path d="M301.681,255.05h2.152v1.177a3.847,3.847,0,0,1,3.217-1.4c2.4,0,3.5,1.375,3.5,3.949v6.389h-2.219V259c0-1.4-.532-2.108-2.085-2.108a3.334,3.334,0,0,0-2.351.954v7.321h-2.219Z" fill="#fff"/>
          <path d="M318.921,265.167v-1.22a4.271,4.271,0,0,1-3.305,1.465,2.775,2.775,0,0,1-3.04-2.907c0-2.152,1.886-3.106,4.793-3.328l1.42-.155v-.8c0-1.02-.445-1.6-1.865-1.6-1.242,0-1.841.443-1.841,1.087v.488H313.13c-.021-.222-.044-.466-.044-.688,0-1.575,1.42-2.684,3.972-2.684,2.462,0,3.949,1.065,3.949,3.372v6.966Zm-2.551-1.508a3.445,3.445,0,0,0,2.419-1.043v-2.174l-1.4.2c-1.619.221-2.529.71-2.529,1.73C314.861,263.215,315.372,263.659,316.37,263.659Z" fill="#fff"/>
          <path d="M325.845,255.894a3.311,3.311,0,0,1,2.685-1.065c2.95,0,4.326,2,4.326,5.258,0,3.195-1.465,5.325-4.326,5.325a4.087,4.087,0,0,1-3.084-1.154l-.666.909h-1.154V249.859h2.219Zm2.174,1a2.641,2.641,0,0,0-2.174.954v4.437a2.711,2.711,0,0,0,2.174,1.065c2.02,0,2.552-1.4,2.552-3.261S329.994,256.892,328.019,256.892Z" fill="#fff"/>
          <path d="M337.251,249.859v12.224c0,.777.222,1.11.932,1.11h.532v2.063h-1.2c-1.908,0-2.484-1.175-2.484-2.862V249.859Z" fill="#fff"/>
          <path d="M347.48,262.483l1.064,1.464a5.192,5.192,0,0,1-3.7,1.465c-3.394,0-4.814-2.219-4.814-5.3,0-2.906,1.509-5.28,4.593-5.28,2.972,0,4.148,2.152,4.148,4.326a7.851,7.851,0,0,1-.155,1.664h-6.323c.045,1.619.843,2.662,2.551,2.662A4.056,4.056,0,0,0,347.48,262.483Zm-.821-3.306a2.434,2.434,0,0,0,.022-.377,1.97,1.97,0,0,0-2.063-2.152c-1.6,0-2.242,1.109-2.33,2.529Z" fill="#fff"/>
          <path d="M350.964,255.05h2.153v1.177a3.7,3.7,0,0,1,2.906-1.4,3.417,3.417,0,0,1,3.15,1.53,4.485,4.485,0,0,1,3.528-1.53c2.529,0,3.593,1.331,3.593,3.771v6.567h-2.24v-6.389c0-1.242-.511-1.886-1.952-1.886a3.1,3.1,0,0,0-2.308.954v7.321h-2.241V258a2.181,2.181,0,0,0-2.085-1.109,3.293,3.293,0,0,0-2.285.954v7.321h-2.219Z" fill="#fff"/>
          <path d="M375.882,262.483l1.065,1.464a5.194,5.194,0,0,1-3.7,1.465c-3.4,0-4.815-2.219-4.815-5.3,0-2.906,1.509-5.28,4.593-5.28,2.973,0,4.148,2.152,4.148,4.326a7.786,7.786,0,0,1-.155,1.664H370.69c.045,1.619.844,2.662,2.552,2.662A4.055,4.055,0,0,0,375.882,262.483Zm-.821-3.306a2.434,2.434,0,0,0,.022-.377,1.97,1.97,0,0,0-2.063-2.152c-1.6,0-2.241,1.109-2.33,2.529Z" fill="#fff"/>
          <path d="M379.367,255.05h2.152v1.177a3.846,3.846,0,0,1,3.217-1.4c2.395,0,3.5,1.375,3.5,3.949v6.389h-2.219V259c0-1.4-.532-2.108-2.085-2.108a3.335,3.335,0,0,0-2.352.954v7.321h-2.218Z" fill="#fff"/>
          <path d="M393.967,262.039c0,.843.4,1.309,1.22,1.309a3.953,3.953,0,0,0,1.31-.266l.11,1.952a6.379,6.379,0,0,1-2.107.378c-1.975,0-2.774-1.265-2.774-3.084v-5.37h-1.863v-1.686l1.863-.222v-2.507l2.241-.355v2.862h2.485v1.908h-2.485Z" fill="#fff"/>
        </g>
        <g>
          <path d="M339.626,227.169h4.481c5.148,0,7.3,2.241,7.3,7.5,0,5.214-2.13,7.5-7.3,7.5h-4.481Zm4.349,13c3.771,0,4.947-1.442,4.947-5.5,0-3.971-1.176-5.5-4.947-5.5h-1.93v11Z" fill="#fff"/>
          <path d="M353.429,228.478a1.311,1.311,0,0,1,1.442-1.42,1.347,1.347,0,0,1,1.42,1.42,1.317,1.317,0,0,1-1.42,1.4A1.284,1.284,0,0,1,353.429,228.478Zm.355,3.572H356v10.117h-2.218Z" fill="#fff"/>
          <path d="M367.45,232.05v10.8c0,2.218-1.664,3.86-4.415,3.86-2.706,0-4.082-1.42-4.082-3.194h1.975c0,.687.732,1.4,2.107,1.4,1.42,0,2.175-.776,2.175-1.952v-1.731a3.593,3.593,0,0,1-2.641,1.176c-2.883,0-4.282-2-4.282-5.325,0-3.305,1.465-5.258,4.282-5.258a3.569,3.569,0,0,1,2.774,1.131v-.909Zm-4.415,8.3a2.807,2.807,0,0,0,2.175-.976v-4.549a2.709,2.709,0,0,0-2.175-.931c-1.93,0-2.507,1.331-2.507,3.194C360.528,238.906,361.083,240.348,363.035,240.348Z" fill="#fff"/>
          <path d="M369.826,228.478a1.312,1.312,0,0,1,1.443-1.42,1.347,1.347,0,0,1,1.419,1.42,1.316,1.316,0,0,1-1.419,1.4A1.284,1.284,0,0,1,369.826,228.478Zm.356,3.572H372.4v10.117h-2.217Z" fill="#fff"/>
          <path d="M378.28,239.039c0,.843.4,1.309,1.22,1.309a3.953,3.953,0,0,0,1.31-.266l.11,1.952a6.407,6.407,0,0,1-2.108.377c-1.974,0-2.773-1.265-2.773-3.084v-5.369h-1.863v-1.686l1.863-.222v-2.507l2.241-.355v2.862h2.485v1.908H378.28Z" fill="#fff"/>
          <path d="M388.531,242.167v-1.22a4.27,4.27,0,0,1-3.305,1.464,2.774,2.774,0,0,1-3.04-2.907c0-2.151,1.886-3.106,4.793-3.327l1.419-.156v-.8c0-1.021-.444-1.6-1.864-1.6-1.242,0-1.841.444-1.841,1.087v.489H382.74c-.021-.222-.044-.467-.044-.688,0-1.575,1.42-2.685,3.972-2.685,2.462,0,3.949,1.065,3.949,3.373v6.966Zm-2.552-1.509a3.445,3.445,0,0,0,2.419-1.042v-2.175l-1.4.2c-1.619.222-2.529.71-2.529,1.731C384.471,240.214,384.981,240.658,385.979,240.658Z" fill="#fff"/>
          <path d="M395.389,226.858v12.225c0,.777.221,1.109.931,1.109h.533v2.064h-1.2c-1.908,0-2.484-1.176-2.484-2.862V226.858Z" fill="#fff"/>
        </g>
        <g>
          <path d="M430.543,252.34l-.884-.884a7.323,7.323,0,0,0-4.809,1,6.954,6.954,0,0,0-1.568,1.335q-.691.76-1.314,1.589a19.823,19.823,0,0,0-2.167,3.639,16.058,16.058,0,0,0-1.312,4.494,16.058,16.058,0,0,0,4.494-1.312,19.79,19.79,0,0,0,3.639-2.167q.828-.623,1.589-1.314a6.954,6.954,0,0,0,1.335-1.568A7.321,7.321,0,0,0,430.543,252.34Zm-1.9,3.271a6.619,6.619,0,0,1-1.308,1.033,9.658,9.658,0,0,1-1.53.811,8.338,8.338,0,0,1-1.8.539,8.338,8.338,0,0,1,.539-1.8,9.7,9.7,0,0,1,.811-1.53,6.619,6.619,0,0,1,1.033-1.308,3.831,3.831,0,0,1,1.45-.891l1.7,1.7A3.819,3.819,0,0,1,428.644,255.611Z" fill="#fff"/>
          <g>
            <g>
              <path d="M433.127,254.387a10.139,10.139,0,0,1-5.515-5.515" fill="#fff" stroke="#fff" stroke-miterlimit="10" stroke-width="4"/>
              <path d="M430.1,251.9a12.917,12.917,0,0,1-2.587-4.01c2.144-5.04,6.3-11.843,10.941-14.81a27.273,27.273,0,0,1,14.618-4.152,26.231,26.231,0,0,1-4.294,14.477c-2.966,4.64-9.632,8.94-14.668,11.082A12.9,12.9,0,0,1,430.1,251.9Zm-.541-4.175a12.438,12.438,0,0,0,1.955,2.761,14.155,14.155,0,0,0,2.9,2.1c1.914-.863,9.473-5.377,12.66-10.271a24.211,24.211,0,0,0,3.845-11.233,24.022,24.022,0,0,0-11.374,3.7C434.655,237.966,430.423,245.809,429.56,247.723Z" fill="#fff"/>
            </g>
            <path d="M447.307,237.974l-1.556,3.055a11.235,11.235,0,0,1-4.912-4.913l3.054-1.556A7.812,7.812,0,0,0,447.307,237.974Z" fill="none" stroke="#fff" stroke-linecap="round" stroke-linejoin="round" stroke-width="1.482"/>
          </g>
          <g>
            <path d="M440.68,250.873a10.758,10.758,0,0,1-3.124,9.492,1,1,0,0,1-1.692-.809,6.522,6.522,0,0,0-1.753-5.071" fill="#fff"/>
            <path d="M431.126,241.319a10.758,10.758,0,0,0-9.492,3.124,1,1,0,0,0,.809,1.692,6.522,6.522,0,0,1,5.071,1.753" fill="#fff"/>
          </g>
          <circle cx="439.581" cy="242.286" r="2" fill="#fff"/>
        </g>
      </g>
    </g>
    <g class="fragment" data-fragment-index="3">
      <g>
        <path d="M566.971,229.182a5.292,5.292,0,0,0-2.008.53,6.349,6.349,0,0,0-2.375,2.063c-.8,1.127-1.245,2.416-1.984,3.471a3.664,3.664,0,0,1-.464.56,3.09,3.09,0,0,1-1.107.653,5.621,5.621,0,0,1-1.31.267c-.9.089-1.855.041-2.81.205a6.59,6.59,0,0,0-1.953.683,24.121,24.121,0,0,0-13.851.317,6.13,6.13,0,0,0-2.373,1.245,5.271,5.271,0,0,0-1.213,1.909c-.278.689-.475,1.389-.733,2.048a4.733,4.733,0,0,1-1.5,2.171,3.631,3.631,0,0,1-1.469.6,6.226,6.226,0,0,1-1.639.051,9.457,9.457,0,0,1-1.643-.29l-.314-.085,0,.326a2.639,2.639,0,0,0,1.969,2.517,3.432,3.432,0,0,0,1.522.014,9.713,9.713,0,0,0,1.4-.417,7.008,7.008,0,0,0,2.976-1.653,3.623,3.623,0,0,0,.8-1.626,4.534,4.534,0,0,1,.269.627,6.265,6.265,0,0,1,.089,2.308,20.551,20.551,0,0,1-.486,2.333,4.246,4.246,0,0,1-.74,1.783,5.966,5.966,0,0,1-.978.783,2.647,2.647,0,0,0-.949,1.068l-.033.079.023.083c.307,1.093.524,2.152.769,3.145a6.77,6.77,0,0,0,.455,1.676,2.532,2.532,0,0,0,.382,1,1.466,1.466,0,0,0,.745.5,2.129,2.129,0,0,0,.847.069,1.7,1.7,0,0,0,.523-.121,1.98,1.98,0,0,1,.405-.145,2.756,2.756,0,0,0,.663-.214,1.068,1.068,0,0,0,.325-.258.811.811,0,0,0,.184-.416.731.731,0,0,0-.6-.806l-.059-.011-.058.018a2.772,2.772,0,0,1-.737.177.226.226,0,0,1-.15-.059.829.829,0,0,1-.185-.265l-.027-.053-.048-.037a2.075,2.075,0,0,1-.447-.479,4.148,4.148,0,0,1-.285-1.841h0a2.936,2.936,0,0,1,.33-.935,3.571,3.571,0,0,1,.968-1.042c.024.07.046.141.071.211h0c.587,1.659,1.636,3.331,1.7,5.163v.055l.026.049a1.476,1.476,0,0,0,.645.624,2.124,2.124,0,0,0,.823.216,1.663,1.663,0,0,0,.536-.028,2.021,2.021,0,0,1,.423-.071,2.751,2.751,0,0,0,.691-.1,1.055,1.055,0,0,0,.364-.2.8.8,0,0,0,.254-.378.733.733,0,0,0-.448-.9l-.057-.02-.06.007a2.738,2.738,0,0,1-.756.046.224.224,0,0,1-.137-.086.814.814,0,0,1-.136-.293l-.012-.04-.025-.034a4.457,4.457,0,0,0-.668-.635c-.162-.478-.324-.853-.507-1.35a9.875,9.875,0,0,1-.289-1.916,4.522,4.522,0,0,1,.944-2.632,32.415,32.415,0,0,0,2.194-2.6,10.081,10.081,0,0,1,.866-1.45,2.348,2.348,0,0,1,.943-.625,3.225,3.225,0,0,1,1.151-.186,8.327,8.327,0,0,1,3.174.927,8.51,8.51,0,0,0,3.373.958c.652,0,1.259-.127,1.832-.108.017,0,.036.025.053.034-.012.07-.026.14-.035.212-.045.361-.047.714-.057,1.056a27.385,27.385,0,0,1-.714,5.446.964.964,0,0,0-.444.386.988.988,0,0,0-.014.8,1.651,1.651,0,0,0,.277.417,1.5,1.5,0,0,1,.211.294.781.781,0,0,1,.059.365,2.166,2.166,0,0,1-.083.435,2.576,2.576,0,0,0-.169,1.068,1.471,1.471,0,0,0,.4.8,2.134,2.134,0,0,0,.7.483,1.71,1.71,0,0,0,.514.155,2.013,2.013,0,0,1,.423.076,2.743,2.743,0,0,0,.681.145,1.072,1.072,0,0,0,.409-.061.814.814,0,0,0,.368-.271.729.729,0,0,0-.118-1l-.046-.038-.058-.013a2.783,2.783,0,0,1-.728-.214.224.224,0,0,1-.1-.126.832.832,0,0,1-.029-.322l0-.059-.024-.056a2.6,2.6,0,0,1-.169-1.121,11.926,11.926,0,0,1,.855-3.513,18.861,18.861,0,0,1,1.411-3.341,9.663,9.663,0,0,1,.6-.884h0l.083-.111a3.852,3.852,0,0,1,.45-.444,4.8,4.8,0,0,0,.064.9c.08.355.2.689.3,1.014a27.353,27.353,0,0,1,1.172,5.366.973.973,0,0,0-.286.514.988.988,0,0,0,.258.756,1.641,1.641,0,0,0,.4.3,1.479,1.479,0,0,1,.3.206.773.773,0,0,1,.18.324,2.117,2.117,0,0,1,.068.438,2.58,2.58,0,0,0,.2,1.062,1.469,1.469,0,0,0,.645.623,2.137,2.137,0,0,0,.823.216,1.693,1.693,0,0,0,.536-.028,1.956,1.956,0,0,1,.423-.071,2.8,2.8,0,0,0,.691-.1,1.073,1.073,0,0,0,.364-.2.814.814,0,0,0,.255-.378.731.731,0,0,0-.45-.9l-.056-.02-.059.008a2.718,2.718,0,0,1-.757.044.224.224,0,0,1-.137-.084.814.814,0,0,1-.136-.293l-.017-.058-.041-.043a2.608,2.608,0,0,1-.539-1,11.949,11.949,0,0,1-.385-3.6,18.8,18.8,0,0,1,.195-3.621A13.264,13.264,0,0,1,564.8,247.2a23.21,23.21,0,0,0,1.7-4.009,28.983,28.983,0,0,1,.685-3.048c.332-.869.929-1.654,1.379-2.557a3.4,3.4,0,0,1,.278-.5.656.656,0,0,1,.351-.26.664.664,0,0,1,.333.026c.124.037.259.1.412.161a3.4,3.4,0,0,0,2.674-.006,3.986,3.986,0,0,0,1.59-1.476,6.79,6.79,0,0,0,.721-1.441l.066-.185-.164-.1a8.546,8.546,0,0,0-2.248-1.021,3.131,3.131,0,0,1-1.069-.437,5.26,5.26,0,0,1-.34-.79,2.319,2.319,0,0,0-.418-.818l0-.006,0,0a4.7,4.7,0,0,0-3.755-1.534Z" fill="#fff"/>
        <g>
          <path d="M593.915,236.574H598.1v20.341h-3.98v-1a5.238,5.238,0,0,1-3.6,1.326c-3.42,0-5.483-2.506-5.483-7.075,0-4.451,2-6.987,5.513-6.987a5.143,5.143,0,0,1,3.36,1.15Zm-2.122,16.833a3.891,3.891,0,0,0,2.122-.56v-5.306a4.187,4.187,0,0,0-2.122-.531c-1.887,0-2.506,1.326-2.506,3.154S589.877,253.407,591.793,253.407Z" fill="#fff"/>
          <path d="M610.331,236.574v15.683c0,.737.266.973,1.062.973h.588v3.862h-2.063c-2.918,0-3.773-1.887-3.773-4.157V236.574Z" fill="#fff"/>
          <path d="M621.442,256.915v-1.5a5.231,5.231,0,0,1-4.156,1.827,3.728,3.728,0,0,1-3.921-3.979c0-3.037,2.594-4.364,6.692-4.6l1.09-.059v-.62c0-.884-.382-1.562-1.857-1.562-1.149,0-1.709.5-1.709,1.091v.413h-3.6c-.03-.266-.059-.649-.059-.885,0-2.329,2.24-3.862,5.66-3.862,3.331,0,5.749,1.356,5.749,4.805v8.933Zm-2.476-2.8a3.409,3.409,0,0,0,2.181-.884v-2.182l-1.09.148c-1.651.236-2.447.825-2.447,1.769C617.61,253.761,618.17,254.114,618.966,254.114Z" fill="#fff"/>
          <path d="M632.17,244.327a4.016,4.016,0,0,1,3.155-1.15c3.743,0,5.69,2.536,5.69,6.987,0,4.245-2.094,7.075-5.69,7.075a5.776,5.776,0,0,1-4.068-1.356l-1.327,1.032h-1.946V236.574h4.186Zm2.064,2.683a3.726,3.726,0,0,0-2.064.531v5.1a3.189,3.189,0,0,0,2.064.766c2.035,0,2.536-1.415,2.536-3.243S636.209,247.01,634.234,247.01Z" fill="#fff"/>
        </g>
      </g>
    </g>
    <g class="fragment" data-fragment-index="4">
      <g>
        <g>
          <path d="M800.845,261.627v-1.5a5.233,5.233,0,0,1-4.157,1.827,3.729,3.729,0,0,1-3.92-3.979c0-3.037,2.593-4.364,6.691-4.6l1.091-.06v-.619c0-.884-.383-1.562-1.858-1.562-1.149,0-1.709.5-1.709,1.091v.413h-3.6c-.031-.266-.06-.649-.06-.885,0-2.329,2.24-3.862,5.66-3.862,3.331,0,5.749,1.356,5.749,4.8v8.933Zm-2.477-2.8a3.412,3.412,0,0,0,2.182-.884V255.76l-1.091.148c-1.65.236-2.446.825-2.446,1.769C797.013,258.473,797.572,258.826,798.368,258.826Z" fill="#fff"/>
          <path d="M807.033,243.7a2.184,2.184,0,0,1,2.417-2.358,2.245,2.245,0,0,1,2.388,2.358,2.167,2.167,0,0,1-2.388,2.3A2.113,2.113,0,0,1,807.033,243.7Zm.383,4.481H811.6v13.443h-4.187Z" fill="#fff"/>
          <path d="M818.438,250.277a3.931,3.931,0,0,1,3.509-2.388,5.766,5.766,0,0,1,1.474.177l-.266,4.422a10.117,10.117,0,0,0-2.328-.295,2.587,2.587,0,0,0-2.241,1.15v8.284H814.4V248.184h4.009v2.093Z" fill="#fff"/>
          <path d="M834.178,241.286v15.683c0,.737.265.973,1.061.973h.589V261.8h-2.063c-2.918,0-3.774-1.887-3.774-4.157V241.286Z" fill="#fff"/>
          <path d="M837.507,243.7a2.184,2.184,0,0,1,2.417-2.358,2.245,2.245,0,0,1,2.388,2.358,2.167,2.167,0,0,1-2.388,2.3A2.113,2.113,0,0,1,837.507,243.7Zm.383,4.481h4.186v13.443H837.89Z" fill="#fff"/>
          <path d="M853.276,244.823h-1.8c-.973,0-1.268.531-1.268,1.474v1.887h3.242v3.538h-3.242v9.905h-4.187v-9.905H843.99v-3.243l2.034-.3v-1.916c0-3.361,1.8-4.982,5.189-4.982h2.063Z" fill="#fff"/>
          <path d="M860.82,256.939c0,.885.532,1.18,1.327,1.18a8.946,8.946,0,0,0,1.445-.147V261.6a12.385,12.385,0,0,1-2.919.353c-2.947,0-4.038-1.916-4.038-4.392v-5.867h-2.388v-3.213l2.388-.3v-3.213l4.185-.619v3.832h2.713v3.508H860.82Z" fill="#fff"/>
        </g>
        <g>
          <path d="M749.7,256.821a10.478,10.478,0,0,1-8.45-4.445c-.274,4.938,3.567,11.742,8.45,11.742s8.779-6.8,8.45-11.742A10.336,10.336,0,0,1,749.7,256.821Zm.055,6.035a2.8,2.8,0,1,1,2.8-2.8A2.81,2.81,0,0,1,749.753,262.856Z" fill="#fff"/>
          <path d="M749.7,258.357a1.7,1.7,0,1,0,0,3.4,1.643,1.643,0,0,0,1.7-1.7A1.709,1.709,0,0,0,749.7,258.357Z" fill="#fff"/>
          <path d="M749.2,255.668V244.091a8.523,8.523,0,0,0-7.627,6.475A8.953,8.953,0,0,0,749.2,255.668Z" fill="#fff"/>
          <path d="M758.2,268.727a.376.376,0,0,0,.385.384H761a.384.384,0,0,0,0-.768h-2.414A.375.375,0,0,0,758.2,268.727Z" fill="#fff"/>
          <path d="M738.56,268.343a.384.384,0,0,0,0,.768h2.414a.384.384,0,0,0,0-.768H738.56Z" fill="#fff"/>
          <path d="M772.329,237.294a9.02,9.02,0,0,0-7.216-7.213,81.353,81.353,0,0,0-30.666,0,9.019,9.019,0,0,0-7.215,7.213,81.641,81.641,0,0,0,0,30.658,9.018,9.018,0,0,0,7.215,7.213,81.381,81.381,0,0,0,30.666,0,9.021,9.021,0,0,0,7.216-7.214,81.7,81.7,0,0,0,0-30.658Zm-7.213.487h-14.76V240.2h1.427a1.906,1.906,0,0,1,1.262,3.346c6.035,2.305,8.4,9.767,3.95,16.735a5.527,5.527,0,0,1,3.347,5.1v1.811H761a1.481,1.481,0,0,1,0,2.962h-2.414a1.481,1.481,0,1,1,0-2.962h.658V265.38a4.487,4.487,0,0,0-2.908-4.17c-1.756,2.3-4.115,3.95-6.639,3.95-2.524-.054-4.828-1.646-6.584-3.95a4.533,4.533,0,0,0-2.8,4.17v1.811h.658a1.481,1.481,0,0,1,0,2.962H738.56a1.481,1.481,0,1,1,0-2.962h.658V265.38a5.545,5.545,0,0,1,3.292-5.048c-4.554-7.078-2.085-14.54,4.006-16.79a1.905,1.905,0,0,1,1.262-3.346H749.2v-2.415H734.445a.549.549,0,1,1,0-1.1H749.2v-1.043a.549.549,0,0,1,1.1,0v1.043h14.76a.645.645,0,0,1,.6.549A.518.518,0,0,1,765.116,237.781Z" fill="#fff"/>
          <path d="M746.9,242.116a.844.844,0,0,0,.823.823h4a.844.844,0,0,0,.823-.823.808.808,0,0,0-.823-.823h-4A.844.844,0,0,0,746.9,242.116Z" fill="#fff"/>
          <path d="M750.3,255.668a8.952,8.952,0,0,0,7.627-5.1,8.521,8.521,0,0,0-7.627-6.475Z" fill="#fff"/>
        </g>
      </g>
    </g>
  </g>
</svg>
