<svg xmlns="http://www.w3.org/2000/svg" width="128" height="128" viewBox="0 0 128 128">
  <g id="Layer_2" data-name="Layer 2">
    <g id="Layer_1-2" data-name="Layer 1">
      <g>
        <g>
          <path d="M75.388,61.338c-.405,0-.805.023-1.2.06a12.527,12.527,0,1,0-20.374,0c-.4-.037-.8-.06-1.2-.06A12.527,12.527,0,1,0,64,79.052,12.521,12.521,0,1,0,75.388,61.338ZM64,43.887A10.249,10.249,0,1,1,53.751,54.136,10.26,10.26,0,0,1,64,43.887ZM65.2,66.6A12.483,12.483,0,0,0,64,68.676,12.483,12.483,0,0,0,62.8,66.6c.4.037.8.06,1.2.06S64.805,66.639,65.2,66.6ZM52.612,84.113A10.249,10.249,0,1,1,62.861,73.864,10.26,10.26,0,0,1,52.612,84.113Zm22.776,0A10.249,10.249,0,1,1,85.637,73.864,10.26,10.26,0,0,1,75.388,84.113Z" fill="#e3e000" opacity="0.33"/>
          <circle cx="52.612" cy="73.864" r="6.833" fill="#e3e000"/>
          <circle cx="75.388" cy="73.864" r="6.833" fill="#e3e000"/>
          <circle cx="64" cy="54.136" r="6.833" fill="#e3e000"/>
          <circle cx="58.306" cy="64" r="2.278" fill="#e3e000"/>
          <circle cx="69.694" cy="64" r="2.278" fill="#e3e000"/>
          <circle cx="64" cy="73.864" r="2.278" fill="#e3e000"/>
        </g>
        <rect width="128" height="128" fill="none" opacity="0.33"/>
      </g>
    </g>
  </g>
</svg>
