<svg xmlns="http://www.w3.org/2000/svg" xmlns:xlink="http://www.w3.org/1999/xlink" width="548.414" height="368" viewBox="0 0 548.414 368">
  <defs>
    <pattern id="New_Pattern_7" data-name="New Pattern 7" width="48" height="48" patternTransform="translate(-40.867 -4.841)" patternUnits="userSpaceOnUse" viewBox="0 0 48 48">
      <rect width="48" height="48" fill="none"/>
      <g>
        <line x1="48" y1="96" x2="96" y2="48" fill="none" stroke="#39393a" stroke-linecap="round" stroke-miterlimit="10" stroke-width="0.5"/>
        <g>
          <line x1="48" y1="84" x2="84" y2="48" fill="none" stroke="#39393a" stroke-linecap="round" stroke-miterlimit="10" stroke-width="0.5"/>
          <line x1="48" y1="72" x2="72" y2="48" fill="none" stroke="#39393a" stroke-linecap="round" stroke-miterlimit="10" stroke-width="0.5"/>
          <line x1="48" y1="60" x2="60" y2="48" fill="none" stroke="#39393a" stroke-linecap="round" stroke-miterlimit="10" stroke-width="0.5"/>
        </g>
        <line x1="48" y1="90" x2="96" y2="42" fill="none" stroke="#39393a" stroke-linecap="round" stroke-miterlimit="10" stroke-width="0.5"/>
        <g>
          <line x1="48" y1="78" x2="84" y2="42" fill="none" stroke="#39393a" stroke-linecap="round" stroke-miterlimit="10" stroke-width="0.5"/>
          <line x1="48" y1="66" x2="72" y2="42" fill="none" stroke="#39393a" stroke-linecap="round" stroke-miterlimit="10" stroke-width="0.5"/>
          <line x1="48" y1="54" x2="60" y2="42" fill="none" stroke="#39393a" stroke-linecap="round" stroke-miterlimit="10" stroke-width="0.5"/>
        </g>
      </g>
      <g>
        <line y1="96" x2="48" y2="48" fill="none" stroke="#39393a" stroke-linecap="round" stroke-miterlimit="10" stroke-width="0.5"/>
        <g>
          <line y1="84" x2="36" y2="48" fill="none" stroke="#39393a" stroke-linecap="round" stroke-miterlimit="10" stroke-width="0.5"/>
          <line y1="72" x2="24" y2="48" fill="none" stroke="#39393a" stroke-linecap="round" stroke-miterlimit="10" stroke-width="0.5"/>
          <line y1="60" x2="12" y2="48" fill="none" stroke="#39393a" stroke-linecap="round" stroke-miterlimit="10" stroke-width="0.5"/>
        </g>
        <line y1="90" x2="48" y2="42" fill="none" stroke="#39393a" stroke-linecap="round" stroke-miterlimit="10" stroke-width="0.5"/>
        <g>
          <line y1="78" x2="36" y2="42" fill="none" stroke="#39393a" stroke-linecap="round" stroke-miterlimit="10" stroke-width="0.5"/>
          <line y1="66" x2="24" y2="42" fill="none" stroke="#39393a" stroke-linecap="round" stroke-miterlimit="10" stroke-width="0.5"/>
          <line y1="54" x2="12" y2="42" fill="none" stroke="#39393a" stroke-linecap="round" stroke-miterlimit="10" stroke-width="0.5"/>
        </g>
      </g>
      <g>
        <line x1="-48" y1="96" y2="48" fill="none" stroke="#39393a" stroke-linecap="round" stroke-miterlimit="10" stroke-width="0.5"/>
        <line x1="-48" y1="90" y2="42" fill="none" stroke="#39393a" stroke-linecap="round" stroke-miterlimit="10" stroke-width="0.5"/>
      </g>
      <g>
        <line x1="48" y1="48" x2="96" fill="none" stroke="#39393a" stroke-linecap="round" stroke-miterlimit="10" stroke-width="0.5"/>
        <g>
          <line x1="48" y1="36" x2="84" fill="none" stroke="#39393a" stroke-linecap="round" stroke-miterlimit="10" stroke-width="0.5"/>
          <line x1="48" y1="24" x2="72" fill="none" stroke="#39393a" stroke-linecap="round" stroke-miterlimit="10" stroke-width="0.5"/>
          <line x1="48" y1="12" x2="60" fill="none" stroke="#39393a" stroke-linecap="round" stroke-miterlimit="10" stroke-width="0.5"/>
        </g>
        <line x1="48" y1="42" x2="96" y2="-6" fill="none" stroke="#39393a" stroke-linecap="round" stroke-miterlimit="10" stroke-width="0.5"/>
        <g>
          <line x1="48" y1="30" x2="84" y2="-6" fill="none" stroke="#39393a" stroke-linecap="round" stroke-miterlimit="10" stroke-width="0.5"/>
          <line x1="48" y1="18" x2="72" y2="-6" fill="none" stroke="#39393a" stroke-linecap="round" stroke-miterlimit="10" stroke-width="0.5"/>
          <line x1="48" y1="6" x2="60" y2="-6" fill="none" stroke="#39393a" stroke-linecap="round" stroke-miterlimit="10" stroke-width="0.5"/>
        </g>
      </g>
      <g>
        <g>
          <line x1="36" y1="48" x2="48" y2="36" fill="none" stroke="#39393a" stroke-linecap="round" stroke-miterlimit="10" stroke-width="0.5"/>
          <line x1="24" y1="48" x2="48" y2="24" fill="none" stroke="#39393a" stroke-linecap="round" stroke-miterlimit="10" stroke-width="0.5"/>
          <line x1="12" y1="48" x2="48" y2="12" fill="none" stroke="#39393a" stroke-linecap="round" stroke-miterlimit="10" stroke-width="0.5"/>
          <line y1="48" x2="48" fill="none" stroke="#39393a" stroke-linecap="round" stroke-miterlimit="10" stroke-width="0.5"/>
        </g>
        <g>
          <line y1="36" x2="36" fill="none" stroke="#39393a" stroke-linecap="round" stroke-miterlimit="10" stroke-width="0.5"/>
          <line y1="24" x2="24" fill="none" stroke="#39393a" stroke-linecap="round" stroke-miterlimit="10" stroke-width="0.5"/>
          <line y1="12" x2="12" fill="none" stroke="#39393a" stroke-linecap="round" stroke-miterlimit="10" stroke-width="0.5"/>
        </g>
        <g>
          <line x1="36" y1="42" x2="48" y2="30" fill="none" stroke="#39393a" stroke-linecap="round" stroke-miterlimit="10" stroke-width="0.5"/>
          <line x1="24" y1="42" x2="48" y2="18" fill="none" stroke="#39393a" stroke-linecap="round" stroke-miterlimit="10" stroke-width="0.5"/>
          <line x1="12" y1="42" x2="48" y2="6" fill="none" stroke="#39393a" stroke-linecap="round" stroke-miterlimit="10" stroke-width="0.5"/>
          <line y1="42" x2="48" y2="-6" fill="none" stroke="#39393a" stroke-linecap="round" stroke-miterlimit="10" stroke-width="0.5"/>
        </g>
        <g>
          <line y1="30" x2="36" y2="-6" fill="none" stroke="#39393a" stroke-linecap="round" stroke-miterlimit="10" stroke-width="0.5"/>
          <line y1="18" x2="24" y2="-6" fill="none" stroke="#39393a" stroke-linecap="round" stroke-miterlimit="10" stroke-width="0.5"/>
          <line y1="6" x2="12" y2="-6" fill="none" stroke="#39393a" stroke-linecap="round" stroke-miterlimit="10" stroke-width="0.5"/>
        </g>
      </g>
      <g>
        <g>
          <line x1="-12" y1="48" y2="36" fill="none" stroke="#39393a" stroke-linecap="round" stroke-miterlimit="10" stroke-width="0.5"/>
          <line x1="-24" y1="48" y2="24" fill="none" stroke="#39393a" stroke-linecap="round" stroke-miterlimit="10" stroke-width="0.5"/>
          <line x1="-36" y1="48" y2="12" fill="none" stroke="#39393a" stroke-linecap="round" stroke-miterlimit="10" stroke-width="0.5"/>
          <line x1="-48" y1="48" fill="none" stroke="#39393a" stroke-linecap="round" stroke-miterlimit="10" stroke-width="0.5"/>
        </g>
        <g>
          <line x1="-12" y1="42" y2="30" fill="none" stroke="#39393a" stroke-linecap="round" stroke-miterlimit="10" stroke-width="0.5"/>
          <line x1="-24" y1="42" y2="18" fill="none" stroke="#39393a" stroke-linecap="round" stroke-miterlimit="10" stroke-width="0.5"/>
          <line x1="-36" y1="42" y2="6" fill="none" stroke="#39393a" stroke-linecap="round" stroke-miterlimit="10" stroke-width="0.5"/>
          <line x1="-48" y1="42" y2="-6" fill="none" stroke="#39393a" stroke-linecap="round" stroke-miterlimit="10" stroke-width="0.5"/>
        </g>
      </g>
      <line x1="48" x2="96" y2="-48" fill="none" stroke="#39393a" stroke-linecap="round" stroke-miterlimit="10" stroke-width="0.5"/>
      <g>
        <line x1="36" x2="48" y2="-12" fill="none" stroke="#39393a" stroke-linecap="round" stroke-miterlimit="10" stroke-width="0.5"/>
        <line x1="24" x2="48" y2="-24" fill="none" stroke="#39393a" stroke-linecap="round" stroke-miterlimit="10" stroke-width="0.5"/>
        <line x1="12" x2="48" y2="-36" fill="none" stroke="#39393a" stroke-linecap="round" stroke-miterlimit="10" stroke-width="0.5"/>
        <line x2="48" y2="-48" fill="none" stroke="#39393a" stroke-linecap="round" stroke-miterlimit="10" stroke-width="0.5"/>
      </g>
      <g>
        <line x1="-12" y2="-12" fill="none" stroke="#39393a" stroke-linecap="round" stroke-miterlimit="10" stroke-width="0.5"/>
        <line x1="-24" y2="-24" fill="none" stroke="#39393a" stroke-linecap="round" stroke-miterlimit="10" stroke-width="0.5"/>
        <line x1="-36" y2="-36" fill="none" stroke="#39393a" stroke-linecap="round" stroke-miterlimit="10" stroke-width="0.5"/>
        <line x1="-48" y2="-48" fill="none" stroke="#39393a" stroke-linecap="round" stroke-miterlimit="10" stroke-width="0.5"/>
      </g>
    </pattern>
  </defs>
  <g id="Layer_2" data-name="Layer 2">
    <g id="Layer_1-2" data-name="Layer 1">
      <g>
        <g>
          <circle cx="288.25" cy="184" r="80" fill="#39393a"/>
          <g>
            <path d="M258.3,164.847H263.2c5.083,0,7.481,2.31,7.481,7.436s-2.4,7.438-7.481,7.438H258.3Zm4.686,12.124c3.08,0,4.181-1.122,4.181-4.688,0-3.454-1.1-4.686-4.181-4.686h-1.276v9.374Z" fill="#e3e000"/>
            <path d="M279.529,176.486l1.43,2a5.463,5.463,0,0,1-3.763,1.475c-3.564,0-5.127-2.2-5.127-5.259,0-2.8,1.65-5.237,4.775-5.237,3.212,0,4.357,2.245,4.357,4.423a8.93,8.93,0,0,1-.176,1.826h-5.809c.066,1.034.77,1.629,1.98,1.629A3.972,3.972,0,0,0,279.529,176.486Zm-1.211-2.948a1.446,1.446,0,0,0,.023-.265,1.328,1.328,0,0,0-1.5-1.341,1.565,1.565,0,0,0-1.628,1.606Z" fill="#e3e000"/>
            <path d="M289.076,172.79a3.373,3.373,0,0,0-2.355-1.034c-.7,0-1.078.307-1.078.7,0,.374.265.66.749.769l1.672.374c2.069.462,2.882,1.607,2.882,3.059,0,1.54-.989,3.3-4.51,3.3a5.39,5.39,0,0,1-4.224-1.695l1.738-1.848a3.735,3.735,0,0,0,2.618,1.276c.7,0,1.21-.242,1.21-.725,0-.309-.2-.617-.77-.748l-1.716-.419c-1.826-.44-2.75-1.5-2.75-3.014,0-1.475,1.1-3.323,4.312-3.323a5,5,0,0,1,3.9,1.5Z" fill="#e3e000"/>
            <path d="M292.243,166.343a1.63,1.63,0,0,1,1.8-1.76,1.676,1.676,0,0,1,1.782,1.76,1.617,1.617,0,0,1-1.782,1.716A1.577,1.577,0,0,1,292.243,166.343Zm.286,3.344h3.124v10.034h-3.124Z" fill="#e3e000"/>
            <path d="M307.116,169.687v10.562c0,2.42-1.782,4.049-4.731,4.049-2.837,0-4.268-1.387-4.268-3.455h2.662c0,.506.506,1.034,1.606,1.034,1.057,0,1.607-.485,1.607-1.408v-1.475a3.647,3.647,0,0,1-2.355.969c-2.684,0-4.247-1.761-4.247-5.281,0-3.433,1.585-5.215,4.225-5.215a3.6,3.6,0,0,1,2.575.946v-.726Zm-4.708,7.415a3.119,3.119,0,0,0,1.584-.418v-4a3.267,3.267,0,0,0-1.584-.353c-1.452,0-1.871.99-1.871,2.355S300.933,177.1,302.408,177.1Z" fill="#e3e000"/>
            <path d="M309.182,169.687H312.2v1.122a3.274,3.274,0,0,1,2.992-1.342c2.156,0,3.389,1.408,3.389,4.049v6.205h-3.125V173.89c0-1.035-.44-1.563-1.584-1.563a3.225,3.225,0,0,0-1.563.528v6.866h-3.124Z" fill="#e3e000"/>
            <path d="M263.138,190.719a3.063,3.063,0,0,0-2.64-1.232,1.539,1.539,0,0,0-1.739,1.54c0,.682.309,1.21,1.255,1.518l1.827.572c2.881.9,3.674,2.421,3.674,4.181,0,3.058-2.421,4.665-5.479,4.665-3.256,0-4.819-1.519-5.456-2.685l2.265-1.936a3.221,3.221,0,0,0,3.191,1.76c1.232,0,1.959-.594,1.959-1.518,0-.726-.374-1.21-1.387-1.54l-1.8-.572c-2.795-.88-3.565-2.443-3.565-4.225,0-2.355,1.408-4.62,5.259-4.62a5.54,5.54,0,0,1,4.907,2.222Z" fill="#e3e000"/>
            <path d="M271.476,197.826l1.958-6.139h3.345l-5.765,14.787h-3.146l2.09-5.083-4.071-9.7h3.5Z" fill="#e3e000"/>
            <path d="M283.818,194.79a3.372,3.372,0,0,0-2.354-1.034c-.7,0-1.079.307-1.079.7,0,.374.265.66.749.769l1.672.374c2.069.462,2.882,1.607,2.882,3.059,0,1.54-.989,3.3-4.51,3.3a5.39,5.39,0,0,1-4.224-1.695l1.738-1.848a3.737,3.737,0,0,0,2.618,1.276c.7,0,1.21-.242,1.21-.725,0-.309-.2-.617-.77-.748l-1.716-.419c-1.826-.44-2.75-1.5-2.75-3.014,0-1.475,1.1-3.323,4.312-3.323a5,5,0,0,1,3.895,1.5Z" fill="#e3e000"/>
            <path d="M291.43,198.223c0,.659.4.879.991.879a6.534,6.534,0,0,0,1.078-.11V201.7a9.237,9.237,0,0,1-2.179.265c-2.2,0-3.015-1.431-3.015-3.279v-4.378h-1.782v-2.4l1.782-.22v-2.4l3.125-.462v2.86h2.025v2.619H291.43Z" fill="#e3e000"/>
            <path d="M302.189,198.486l1.43,2a5.463,5.463,0,0,1-3.763,1.475c-3.564,0-5.127-2.2-5.127-5.259,0-2.8,1.651-5.237,4.776-5.237,3.212,0,4.356,2.245,4.356,4.423a8.86,8.86,0,0,1-.176,1.826h-5.809c.066,1.034.77,1.629,1.98,1.629A3.972,3.972,0,0,0,302.189,198.486Zm-1.211-2.948a1.446,1.446,0,0,0,.023-.265,1.327,1.327,0,0,0-1.5-1.341,1.566,1.566,0,0,0-1.629,1.606Z" fill="#e3e000"/>
            <path d="M305.509,191.687h3.015v1.122a3.268,3.268,0,0,1,2.729-1.342,3.319,3.319,0,0,1,2.992,1.452,4.28,4.28,0,0,1,3.5-1.452c2.53,0,3.587,1.32,3.587,3.762v6.492h-3.147v-6.205c0-.726-.374-1.189-1.43-1.189a3.029,3.029,0,0,0-1.739.528v6.866H311.89v-6.6a1.778,1.778,0,0,0-1.584-.793,3.025,3.025,0,0,0-1.673.528v6.866h-3.124Z" fill="#e3e000"/>
          </g>
        </g>
        <g>
          <g>
            <circle cx="80.25" cy="184" r="80" fill="url(#New_Pattern_7)"/>
            <circle cx="80.25" cy="184" r="80" fill="none" stroke="#39393a" stroke-miterlimit="10" stroke-width="0.5"/>
          </g>
          <g>
            <path d="M41.168,162.941h4.906c5.083,0,7.481,2.311,7.481,7.437s-2.4,7.437-7.481,7.437H41.168Zm4.686,12.124c3.08,0,4.181-1.122,4.181-4.687,0-3.454-1.1-4.687-4.181-4.687H44.578v9.374Z" fill="#39393a"/>
            <path d="M62.4,174.581l1.431,2a5.462,5.462,0,0,1-3.763,1.475c-3.564,0-5.127-2.2-5.127-5.259,0-2.8,1.651-5.238,4.776-5.238,3.211,0,4.356,2.246,4.356,4.423a8.853,8.853,0,0,1-.176,1.826H58.086c.066,1.035.77,1.629,1.98,1.629A3.966,3.966,0,0,0,62.4,174.581Zm-1.21-2.948a1.446,1.446,0,0,0,.023-.265,1.328,1.328,0,0,0-1.5-1.342,1.566,1.566,0,0,0-1.629,1.607Z" fill="#39393a"/>
            <path d="M71.946,170.885a3.368,3.368,0,0,0-2.354-1.034c-.7,0-1.079.307-1.079.7,0,.374.265.66.748.769l1.673.374c2.069.462,2.882,1.607,2.882,3.059,0,1.54-.989,3.3-4.51,3.3a5.391,5.391,0,0,1-4.224-1.695l1.738-1.848a3.737,3.737,0,0,0,2.618,1.276c.7,0,1.21-.242,1.21-.726,0-.308-.2-.616-.77-.748l-1.716-.419c-1.826-.439-2.75-1.5-2.75-3.013,0-1.475,1.1-3.324,4.312-3.324a5,5,0,0,1,3.895,1.5Z" fill="#39393a"/>
            <path d="M75.113,164.437a1.629,1.629,0,0,1,1.8-1.759,1.675,1.675,0,0,1,1.782,1.759,1.617,1.617,0,0,1-1.782,1.716A1.578,1.578,0,0,1,75.113,164.437Zm.285,3.345h3.125v10.033H75.4Z" fill="#39393a"/>
            <path d="M89.986,167.782v10.562c0,2.42-1.782,4.048-4.73,4.048-2.838,0-4.269-1.386-4.269-3.455h2.662c0,.506.507,1.035,1.607,1.035,1.056,0,1.606-.485,1.606-1.409v-1.474a3.644,3.644,0,0,1-2.354.969c-2.685,0-4.248-1.761-4.248-5.282,0-3.432,1.585-5.215,4.225-5.215a3.6,3.6,0,0,1,2.575.947v-.726ZM85.278,175.2a3.129,3.129,0,0,0,1.584-.418v-4a3.278,3.278,0,0,0-1.584-.352c-1.452,0-1.871.99-1.871,2.354S83.8,175.2,85.278,175.2Z" fill="#39393a"/>
            <path d="M92.052,167.782h3.015V168.9a3.274,3.274,0,0,1,2.992-1.343c2.157,0,3.389,1.409,3.389,4.049v6.2H98.323v-5.831c0-1.034-.44-1.562-1.584-1.562a3.215,3.215,0,0,0-1.563.528v6.865H92.052Z" fill="#39393a"/>
            <path d="M119.642,171.391l-1.717,2.31c-.131.2-.286.4-.439.594l3.036,3.3v.219H117.09l-1.365-1.518a6.421,6.421,0,0,1-4.467,1.761c-2.662,0-4.312-1.475-4.312-3.7,0-2.112,1.694-3.388,3.059-4.335l.087-.066-.087-.109c-.661-.705-1.871-1.871-1.871-3.345,0-2.069,1.628-3.807,4.4-3.807a3.953,3.953,0,0,1,4.247,3.807c0,1.474-1.1,2.684-2.8,3.938l1.629,1.805.2-.265,1.651-2.2Zm-5.72,2.881-2.047-2.309-.264.176c-1.013.77-1.717,1.21-1.717,2.112a1.262,1.262,0,0,0,1.364,1.21A3.793,3.793,0,0,0,113.922,174.272Zm-1.761-5.83.044.066.088-.066c.99-.726,1.562-1.255,1.562-1.936a1.31,1.31,0,0,0-1.32-1.233,1.335,1.335,0,0,0-1.452,1.233A2.915,2.915,0,0,0,112.161,168.442Z" fill="#39393a"/>
            <path d="M20.807,184.941h4.907c5.083,0,7.481,2.311,7.481,7.437s-2.4,7.437-7.481,7.437H20.807Zm4.687,12.124c3.08,0,4.181-1.122,4.181-4.687,0-3.454-1.1-4.687-4.181-4.687H24.217v9.374Z" fill="#39393a"/>
            <path d="M42.039,196.581l1.429,2a5.459,5.459,0,0,1-3.762,1.475c-3.565,0-5.127-2.2-5.127-5.259,0-2.8,1.65-5.238,4.775-5.238,3.212,0,4.357,2.246,4.357,4.423a8.922,8.922,0,0,1-.176,1.826h-5.81c.067,1.035.771,1.629,1.981,1.629A3.971,3.971,0,0,0,42.039,196.581Zm-1.211-2.948a1.51,1.51,0,0,0,.022-.265,1.328,1.328,0,0,0-1.5-1.342,1.568,1.568,0,0,0-1.629,1.607Z" fill="#39393a"/>
            <path d="M55.085,189.782l-3.542,10.033H47.78l-3.608-10.033h3.343l2.135,7,2.112-7Z" fill="#39393a"/>
            <path d="M62.982,196.581l1.43,2a5.463,5.463,0,0,1-3.763,1.475c-3.564,0-5.127-2.2-5.127-5.259,0-2.8,1.651-5.238,4.776-5.238,3.211,0,4.356,2.246,4.356,4.423a8.853,8.853,0,0,1-.176,1.826H58.669c.066,1.035.77,1.629,1.98,1.629A3.971,3.971,0,0,0,62.982,196.581Zm-1.211-2.948a1.446,1.446,0,0,0,.023-.265,1.328,1.328,0,0,0-1.5-1.342,1.566,1.566,0,0,0-1.629,1.607Z" fill="#39393a"/>
            <path d="M69.361,184.633v11.706c0,.55.2.726.792.726h.44v2.882H69.052c-2.177,0-2.816-1.408-2.816-3.1V184.633Z" fill="#39393a"/>
            <path d="M81.4,194.776c0,3.081-1.562,5.282-4.906,5.282-3.169,0-4.775-2.245-4.775-5.215,0-3.1,1.518-5.282,4.884-5.282C79.789,189.561,81.4,191.74,81.4,194.776Zm-3.168.067c0-1.739-.572-2.487-1.717-2.487-1.078,0-1.627.748-1.627,2.42,0,1.761.572,2.487,1.671,2.487S78.227,196.471,78.227,194.843Z" fill="#39393a"/>
            <path d="M86.19,204.568H83.066V189.782h2.971v.77a3.98,3.98,0,0,1,2.728-.991c2.575,0,4.136,1.872,4.136,5.282,0,3.322-1.518,5.215-4.158,5.215a3.932,3.932,0,0,1-2.553-.859Zm1.629-12.146a3.015,3.015,0,0,0-1.629.419v3.96a3.26,3.26,0,0,0,1.629.4c1.452,0,1.914-.99,1.914-2.354S89.293,192.422,87.819,192.422Z" fill="#39393a"/>
            <path d="M94.616,189.782h3.015V190.9a3.266,3.266,0,0,1,2.728-1.343,3.317,3.317,0,0,1,2.992,1.453,4.283,4.283,0,0,1,3.5-1.453c2.531,0,3.587,1.321,3.587,3.763v6.491H107.29v-6.2c0-.725-.374-1.188-1.431-1.188a3.015,3.015,0,0,0-1.738.528v6.865H101v-6.6a1.78,1.78,0,0,0-1.584-.793,3.025,3.025,0,0,0-1.673.528v6.865H94.616Z" fill="#39393a"/>
            <path d="M119.476,196.581l1.431,2a5.462,5.462,0,0,1-3.763,1.475c-3.564,0-5.127-2.2-5.127-5.259,0-2.8,1.651-5.238,4.776-5.238,3.212,0,4.356,2.246,4.356,4.423a8.853,8.853,0,0,1-.176,1.826h-5.809c.066,1.035.77,1.629,1.98,1.629A3.966,3.966,0,0,0,119.476,196.581Zm-1.21-2.948a1.446,1.446,0,0,0,.023-.265,1.328,1.328,0,0,0-1.5-1.342,1.566,1.566,0,0,0-1.629,1.607Z" fill="#39393a"/>
            <path d="M122.8,189.782h3.014V190.9a3.275,3.275,0,0,1,2.992-1.343c2.157,0,3.389,1.409,3.389,4.049v6.2h-3.125v-5.831c0-1.034-.439-1.562-1.584-1.562a3.207,3.207,0,0,0-1.562.528v6.865H122.8Z" fill="#39393a"/>
            <path d="M138.352,196.317c0,.659.4.88.99.88a6.644,6.644,0,0,0,1.079-.11v2.706a9.237,9.237,0,0,1-2.179.265c-2.2,0-3.015-1.431-3.015-3.279V192.4h-1.782V190l1.782-.22v-2.4l3.125-.462v2.86h2.025V192.4h-2.025Z" fill="#39393a"/>
          </g>
        </g>
        <g>
          <circle cx="468.414" cy="288" r="80" fill="#1ea2b1"/>
          <g>
            <path d="M423.315,281.08a3,3,0,0,0,2.553-1.716l2.574,1.628a5.635,5.635,0,0,1-5.259,2.948c-4.4,0-6.667-2.816-6.667-7.657,0-4.862,2.267-7.656,6.667-7.656a5.635,5.635,0,0,1,5.259,2.948l-2.574,1.628a3,3,0,0,0-2.553-1.716c-2.2,0-3.278,1.65-3.278,4.819C420.037,279.408,421.115,281.08,423.315,281.08Z" fill="#fff"/>
            <path d="M439.111,278.682c0,3.081-1.562,5.281-4.906,5.281-3.169,0-4.776-2.244-4.776-5.215,0-3.1,1.519-5.281,4.885-5.281C437.505,273.467,439.111,275.645,439.111,278.682Zm-3.168.066c0-1.738-.572-2.486-1.717-2.486-1.078,0-1.628.748-1.628,2.42,0,1.76.573,2.486,1.672,2.486S435.943,280.376,435.943,278.748Z" fill="#fff"/>
            <path d="M440.782,273.687H443.8v1.122a3.266,3.266,0,0,1,2.728-1.342,3.316,3.316,0,0,1,2.992,1.452,4.283,4.283,0,0,1,3.5-1.452c2.531,0,3.587,1.32,3.587,3.762v6.492h-3.146v-6.2c0-.726-.374-1.189-1.431-1.189a3.023,3.023,0,0,0-1.738.528v6.866h-3.124v-6.6a1.78,1.78,0,0,0-1.584-.793,3.025,3.025,0,0,0-1.673.528v6.866h-3.124Z" fill="#fff"/>
            <path d="M461.7,288.474H458.58V273.687h2.97v.77a3.989,3.989,0,0,1,2.729-.99c2.574,0,4.136,1.871,4.136,5.281,0,3.322-1.518,5.215-4.158,5.215a3.932,3.932,0,0,1-2.553-.859Zm1.629-12.147a3.013,3.013,0,0,0-1.629.419v3.96a3.257,3.257,0,0,0,1.629.4c1.452,0,1.914-.99,1.914-2.354S464.806,276.327,463.333,276.327Z" fill="#fff"/>
            <path d="M479.415,278.682c0,3.081-1.563,5.281-4.907,5.281-3.168,0-4.775-2.244-4.775-5.215,0-3.1,1.519-5.281,4.885-5.281C477.808,273.467,479.415,275.645,479.415,278.682Zm-3.168.066c0-1.738-.572-2.486-1.717-2.486-1.078,0-1.628.748-1.628,2.42,0,1.76.572,2.486,1.672,2.486S476.247,280.376,476.247,278.748Z" fill="#fff"/>
            <path d="M481.086,273.687H484.1v1.122a3.275,3.275,0,0,1,2.992-1.342c2.157,0,3.389,1.408,3.389,4.049v6.2h-3.125V277.89c0-1.035-.439-1.563-1.584-1.563a3.217,3.217,0,0,0-1.562.528v6.866h-3.124Z" fill="#fff"/>
            <path d="M499.523,280.486l1.43,2a5.463,5.463,0,0,1-3.763,1.475c-3.564,0-5.127-2.2-5.127-5.259,0-2.8,1.651-5.237,4.776-5.237,3.211,0,4.356,2.245,4.356,4.423a8.86,8.86,0,0,1-.176,1.826H495.21c.066,1.034.77,1.629,1.98,1.629A3.972,3.972,0,0,0,499.523,280.486Zm-1.211-2.948a1.446,1.446,0,0,0,.023-.265,1.327,1.327,0,0,0-1.5-1.341,1.566,1.566,0,0,0-1.629,1.606Z" fill="#fff"/>
            <path d="M502.843,273.687h3.015v1.122a3.275,3.275,0,0,1,2.992-1.342c2.157,0,3.389,1.408,3.389,4.049v6.2h-3.125V277.89c0-1.035-.439-1.563-1.584-1.563a3.225,3.225,0,0,0-1.563.528v6.866h-3.124Z" fill="#fff"/>
            <path d="M518.4,280.223c0,.659.4.879.99.879a6.534,6.534,0,0,0,1.079-.11V283.7a9.237,9.237,0,0,1-2.179.265c-2.2,0-3.015-1.431-3.015-3.279v-4.378H513.49v-2.4l1.782-.22v-2.4l3.125-.462v2.86h2.025v2.619H518.4Z" fill="#fff"/>
            <path d="M446.768,302.971v2.75H437.7V290.847h3.41v12.124Z" fill="#fff"/>
            <path d="M447.779,292.343a1.63,1.63,0,0,1,1.8-1.76,1.676,1.676,0,0,1,1.782,1.76,1.617,1.617,0,0,1-1.782,1.716A1.578,1.578,0,0,1,447.779,292.343Zm.285,3.344h3.125v10.034h-3.125Z" fill="#fff"/>
            <path d="M456.4,296.325a3.005,3.005,0,0,1,2.355-.858c2.794,0,4.247,1.892,4.247,5.215,0,3.169-1.563,5.281-4.247,5.281a4.307,4.307,0,0,1-3.037-1.013l-.99.771h-1.452V290.538H456.4Zm1.541,2a2.774,2.774,0,0,0-1.541.4v3.806a2.381,2.381,0,0,0,1.541.572c1.518,0,1.892-1.056,1.892-2.42S459.417,298.327,457.943,298.327Z" fill="#fff"/>
            <path d="M467.711,297.249a2.929,2.929,0,0,1,2.618-1.782,4.263,4.263,0,0,1,1.1.133l-.2,3.3a7.52,7.52,0,0,0-1.738-.219,1.931,1.931,0,0,0-1.673.858v6.183H464.7V295.687h2.992v1.562Z" fill="#fff"/>
            <path d="M478.183,305.721V304.6a3.906,3.906,0,0,1-3.1,1.364,2.785,2.785,0,0,1-2.927-2.971c0-2.266,1.937-3.257,5-3.433l.815-.043v-.462c0-.661-.287-1.166-1.387-1.166-.859,0-1.277.374-1.277.814v.308h-2.684c-.022-.2-.044-.485-.044-.66,0-1.739,1.673-2.883,4.225-2.883,2.486,0,4.291,1.012,4.291,3.587v6.667Zm-1.848-2.09a2.557,2.557,0,0,0,1.629-.66v-1.629l-.815.11c-1.232.176-1.826.616-1.826,1.32C475.323,303.366,475.741,303.631,476.335,303.631Z" fill="#fff"/>
            <path d="M486.081,297.249a2.928,2.928,0,0,1,2.618-1.782,4.276,4.276,0,0,1,1.1.133l-.2,3.3a7.52,7.52,0,0,0-1.738-.219,1.931,1.931,0,0,0-1.673.858v6.183h-3.124V295.687h2.992v1.562Z" fill="#fff"/>
            <path d="M495.606,301.826l1.958-6.139h3.345l-5.765,14.787H492l2.09-5.083-4.071-9.7h3.5Z" fill="#fff"/>
          </g>
        </g>
        <g>
          <circle cx="468.414" cy="80" r="80" fill="#1ea2b1"/>
          <g>
            <path d="M440.673,66.506v5.215h-3.411V56.847H442.7c3.52,0,5.522,1.671,5.522,4.84,0,3.147-2,4.819-5.522,4.819Zm0-2.75h1.76c1.672,0,2.266-.792,2.266-2.069,0-1.254-.594-2.09-2.266-2.09h-1.76Z" fill="#fff"/>
            <path d="M452.663,63.249a2.928,2.928,0,0,1,2.618-1.782,4.276,4.276,0,0,1,1.1.133l-.2,3.3a7.52,7.52,0,0,0-1.738-.219,1.931,1.931,0,0,0-1.673.858v6.183h-3.124V61.687h2.992v1.562Z" fill="#fff"/>
            <path d="M466.876,66.682c0,3.081-1.563,5.281-4.907,5.281-3.169,0-4.775-2.244-4.775-5.215,0-3.1,1.519-5.281,4.885-5.281C465.269,61.467,466.876,63.645,466.876,66.682Zm-3.168.066c0-1.738-.573-2.486-1.717-2.486-1.078,0-1.628.748-1.628,2.42,0,1.76.572,2.486,1.672,2.486S463.708,68.376,463.708,66.748Z" fill="#fff"/>
            <path d="M466.83,74.757a3.693,3.693,0,0,0,1.738-2.794V61.687h3.146V71.28a6.149,6.149,0,0,1-2.97,5.413ZM468.3,58.343a1.647,1.647,0,0,1,1.827-1.76,1.676,1.676,0,0,1,1.782,1.76,1.617,1.617,0,0,1-1.782,1.716C469.1,60.059,468.3,59.6,468.3,58.343Z" fill="#fff"/>
            <path d="M480.867,68.486l1.43,2a5.463,5.463,0,0,1-3.763,1.475c-3.565,0-5.127-2.2-5.127-5.259,0-2.795,1.65-5.237,4.775-5.237,3.212,0,4.357,2.245,4.357,4.423a8.93,8.93,0,0,1-.176,1.826h-5.81c.067,1.034.771,1.629,1.981,1.629A3.972,3.972,0,0,0,480.867,68.486Zm-1.211-2.948a1.51,1.51,0,0,0,.022-.265,1.327,1.327,0,0,0-1.5-1.341,1.567,1.567,0,0,0-1.629,1.606Z" fill="#fff"/>
            <path d="M488.522,61.467A4.29,4.29,0,0,1,492.7,63.8l-2.156,1.54a1.992,1.992,0,0,0-1.761-1.145c-1.32,0-1.826,1.057-1.826,2.509s.506,2.53,1.826,2.53a2.041,2.041,0,0,0,1.782-1.166l2.135,1.563a4.293,4.293,0,0,1-4.181,2.332c-3.411,0-4.731-2.487-4.731-5.259S485.111,61.467,488.522,61.467Z" fill="#fff"/>
            <path d="M498.224,68.223c0,.659.4.879.991.879a6.534,6.534,0,0,0,1.078-.11V71.7a9.237,9.237,0,0,1-2.179.265c-2.2,0-3.015-1.431-3.015-3.279V64.306h-1.782v-2.4l1.782-.22v-2.4l3.125-.462v2.86h2.025v2.619h-2.025Z" fill="#fff"/>
            <path d="M418.487,91.08a3,3,0,0,0,2.553-1.716l2.574,1.628a5.635,5.635,0,0,1-5.259,2.948c-4.4,0-6.667-2.816-6.667-7.657,0-4.862,2.267-7.656,6.667-7.656a5.635,5.635,0,0,1,5.259,2.948L421.04,83.2a3,3,0,0,0-2.553-1.716c-2.2,0-3.278,1.65-3.278,4.819C415.209,89.408,416.287,91.08,418.487,91.08Z" fill="#fff"/>
            <path d="M434.283,88.682c0,3.081-1.563,5.281-4.906,5.281-3.169,0-4.776-2.244-4.776-5.215,0-3.1,1.519-5.281,4.885-5.281C432.676,83.467,434.283,85.645,434.283,88.682Zm-3.168.066c0-1.738-.572-2.486-1.717-2.486-1.078,0-1.628.748-1.628,2.42,0,1.76.572,2.486,1.672,2.486S431.115,90.376,431.115,88.748Z" fill="#fff"/>
            <path d="M435.954,83.687h3.014v1.122a3.269,3.269,0,0,1,2.729-1.342,3.319,3.319,0,0,1,2.992,1.452,4.283,4.283,0,0,1,3.5-1.452c2.53,0,3.587,1.32,3.587,3.762v6.492h-3.146v-6.2c0-.726-.374-1.189-1.431-1.189a3.023,3.023,0,0,0-1.738.528v6.866h-3.124v-6.6a1.78,1.78,0,0,0-1.584-.793,3.025,3.025,0,0,0-1.673.528v6.866h-3.124Z" fill="#fff"/>
            <path d="M456.876,98.474h-3.124V83.687h2.97v.77a3.989,3.989,0,0,1,2.729-.99c2.574,0,4.136,1.871,4.136,5.281,0,3.322-1.518,5.215-4.159,5.215a3.931,3.931,0,0,1-2.552-.859Zm1.629-12.147a3.013,3.013,0,0,0-1.629.419v3.96a3.257,3.257,0,0,0,1.629.4c1.452,0,1.914-.99,1.914-2.354S459.978,86.327,458.505,86.327Z" fill="#fff"/>
            <path d="M474.587,88.682c0,3.081-1.563,5.281-4.907,5.281-3.169,0-4.775-2.244-4.775-5.215,0-3.1,1.519-5.281,4.885-5.281C472.98,83.467,474.587,85.645,474.587,88.682Zm-3.168.066c0-1.738-.573-2.486-1.717-2.486-1.078,0-1.628.748-1.628,2.42,0,1.76.572,2.486,1.672,2.486S471.419,90.376,471.419,88.748Z" fill="#fff"/>
            <path d="M476.258,83.687h3.014v1.122a3.275,3.275,0,0,1,2.992-1.342c2.157,0,3.389,1.408,3.389,4.049v6.2h-3.125V87.89c0-1.035-.439-1.563-1.584-1.563a3.217,3.217,0,0,0-1.562.528v6.866h-3.124Z" fill="#fff"/>
            <path d="M494.7,90.486l1.43,2a5.463,5.463,0,0,1-3.763,1.475c-3.564,0-5.127-2.2-5.127-5.259,0-2.795,1.65-5.237,4.775-5.237,3.212,0,4.357,2.245,4.357,4.423a8.93,8.93,0,0,1-.176,1.826h-5.809c.066,1.034.77,1.629,1.98,1.629A3.972,3.972,0,0,0,494.7,90.486Zm-1.211-2.948a1.446,1.446,0,0,0,.023-.265,1.328,1.328,0,0,0-1.5-1.341,1.565,1.565,0,0,0-1.628,1.606Z" fill="#fff"/>
            <path d="M498.015,83.687h3.015v1.122a3.274,3.274,0,0,1,2.992-1.342c2.156,0,3.389,1.408,3.389,4.049v6.2h-3.125V87.89c0-1.035-.44-1.563-1.584-1.563a3.225,3.225,0,0,0-1.563.528v6.866h-3.124Z" fill="#fff"/>
            <path d="M513.569,90.223c0,.659.4.879.99.879a6.523,6.523,0,0,0,1.078-.11V93.7a9.222,9.222,0,0,1-2.178.265c-2.2,0-3.015-1.431-3.015-3.279V86.306h-1.782v-2.4l1.782-.22v-2.4l3.125-.462v2.86h2.024v2.619h-2.024Z" fill="#fff"/>
            <path d="M523.491,86.79a3.373,3.373,0,0,0-2.355-1.034c-.7,0-1.078.307-1.078.7,0,.374.265.66.748.769l1.673.374c2.069.462,2.882,1.607,2.882,3.059,0,1.54-.989,3.3-4.51,3.3a5.391,5.391,0,0,1-4.224-1.695l1.738-1.848a3.737,3.737,0,0,0,2.618,1.276c.7,0,1.21-.242,1.21-.725,0-.309-.2-.617-.77-.748l-1.716-.419c-1.826-.44-2.75-1.5-2.75-3.014,0-1.475,1.1-3.323,4.312-3.323a5,5,0,0,1,3.895,1.5Z" fill="#fff"/>
          </g>
        </g>
        <g>
          <line x1="160.25" y1="184" x2="190.531" y2="184" fill="none" stroke="#39393a" stroke-miterlimit="10" stroke-width="4"/>
          <polygon points="186.568 189.81 208.25 184 186.568 178.189 186.568 189.81" fill="#39393a"/>
        </g>
        <g>
          <line x1="357.545" y1="143.999" x2="383.773" y2="128.859" fill="none" stroke="#39393a" stroke-linecap="square" stroke-miterlimit="10" stroke-width="4"/>
          <polygon points="383.246 135.873 399.118 120.001 377.436 125.808 383.246 135.873" fill="#39393a"/>
        </g>
        <g>
          <line x1="357.545" y1="224.001" x2="383.773" y2="239.141" fill="none" stroke="#39393a" stroke-linecap="square" stroke-miterlimit="10" stroke-width="4"/>
          <polygon points="377.436 242.192 399.119 247.999 383.246 232.128 377.436 242.192" fill="#39393a"/>
        </g>
      </g>
    </g>
  </g>
</svg>
