<svg xmlns="http://www.w3.org/2000/svg" xmlns:xlink="http://www.w3.org/1999/xlink" width="469.383" height="380.282" viewBox="0 0 469.383 380.282">
  <defs>
    <pattern id="New_Pattern_5" data-name="New Pattern 5" width="48" height="48" patternTransform="translate(-40.867 -4.841)" patternUnits="userSpaceOnUse" viewBox="0 0 48 48">
      <rect width="48" height="48" fill="none"/>
      <g>
        <line x1="48" y1="96" x2="96" y2="48" fill="none" stroke="#8f9192" stroke-linecap="round" stroke-miterlimit="10" stroke-width="0.5"/>
        <g>
          <line x1="48" y1="84" x2="84" y2="48" fill="none" stroke="#8f9192" stroke-linecap="round" stroke-miterlimit="10" stroke-width="0.5"/>
          <line x1="48" y1="72" x2="72" y2="48" fill="none" stroke="#8f9192" stroke-linecap="round" stroke-miterlimit="10" stroke-width="0.5"/>
          <line x1="48" y1="60" x2="60" y2="48" fill="none" stroke="#8f9192" stroke-linecap="round" stroke-miterlimit="10" stroke-width="0.5"/>
        </g>
        <line x1="48" y1="90" x2="96" y2="42" fill="none" stroke="#8f9192" stroke-linecap="round" stroke-miterlimit="10" stroke-width="0.5"/>
        <g>
          <line x1="48" y1="78" x2="84" y2="42" fill="none" stroke="#8f9192" stroke-linecap="round" stroke-miterlimit="10" stroke-width="0.5"/>
          <line x1="48" y1="66" x2="72" y2="42" fill="none" stroke="#8f9192" stroke-linecap="round" stroke-miterlimit="10" stroke-width="0.5"/>
          <line x1="48" y1="54" x2="60" y2="42" fill="none" stroke="#8f9192" stroke-linecap="round" stroke-miterlimit="10" stroke-width="0.5"/>
        </g>
      </g>
      <g>
        <line y1="96" x2="48" y2="48" fill="none" stroke="#8f9192" stroke-linecap="round" stroke-miterlimit="10" stroke-width="0.5"/>
        <g>
          <line y1="84" x2="36" y2="48" fill="none" stroke="#8f9192" stroke-linecap="round" stroke-miterlimit="10" stroke-width="0.5"/>
          <line y1="72" x2="24" y2="48" fill="none" stroke="#8f9192" stroke-linecap="round" stroke-miterlimit="10" stroke-width="0.5"/>
          <line y1="60" x2="12" y2="48" fill="none" stroke="#8f9192" stroke-linecap="round" stroke-miterlimit="10" stroke-width="0.5"/>
        </g>
        <line y1="90" x2="48" y2="42" fill="none" stroke="#8f9192" stroke-linecap="round" stroke-miterlimit="10" stroke-width="0.5"/>
        <g>
          <line y1="78" x2="36" y2="42" fill="none" stroke="#8f9192" stroke-linecap="round" stroke-miterlimit="10" stroke-width="0.5"/>
          <line y1="66" x2="24" y2="42" fill="none" stroke="#8f9192" stroke-linecap="round" stroke-miterlimit="10" stroke-width="0.5"/>
          <line y1="54" x2="12" y2="42" fill="none" stroke="#8f9192" stroke-linecap="round" stroke-miterlimit="10" stroke-width="0.5"/>
        </g>
      </g>
      <g>
        <line x1="-48" y1="96" y2="48" fill="none" stroke="#8f9192" stroke-linecap="round" stroke-miterlimit="10" stroke-width="0.5"/>
        <line x1="-48" y1="90" y2="42" fill="none" stroke="#8f9192" stroke-linecap="round" stroke-miterlimit="10" stroke-width="0.5"/>
      </g>
      <g>
        <line x1="48" y1="48" x2="96" fill="none" stroke="#8f9192" stroke-linecap="round" stroke-miterlimit="10" stroke-width="0.5"/>
        <g>
          <line x1="48" y1="36" x2="84" fill="none" stroke="#8f9192" stroke-linecap="round" stroke-miterlimit="10" stroke-width="0.5"/>
          <line x1="48" y1="24" x2="72" fill="none" stroke="#8f9192" stroke-linecap="round" stroke-miterlimit="10" stroke-width="0.5"/>
          <line x1="48" y1="12" x2="60" fill="none" stroke="#8f9192" stroke-linecap="round" stroke-miterlimit="10" stroke-width="0.5"/>
        </g>
        <line x1="48" y1="42" x2="96" y2="-6" fill="none" stroke="#8f9192" stroke-linecap="round" stroke-miterlimit="10" stroke-width="0.5"/>
        <g>
          <line x1="48" y1="30" x2="84" y2="-6" fill="none" stroke="#8f9192" stroke-linecap="round" stroke-miterlimit="10" stroke-width="0.5"/>
          <line x1="48" y1="18" x2="72" y2="-6" fill="none" stroke="#8f9192" stroke-linecap="round" stroke-miterlimit="10" stroke-width="0.5"/>
          <line x1="48" y1="6" x2="60" y2="-6" fill="none" stroke="#8f9192" stroke-linecap="round" stroke-miterlimit="10" stroke-width="0.5"/>
        </g>
      </g>
      <g>
        <g>
          <line x1="36" y1="48" x2="48" y2="36" fill="none" stroke="#8f9192" stroke-linecap="round" stroke-miterlimit="10" stroke-width="0.5"/>
          <line x1="24" y1="48" x2="48" y2="24" fill="none" stroke="#8f9192" stroke-linecap="round" stroke-miterlimit="10" stroke-width="0.5"/>
          <line x1="12" y1="48" x2="48" y2="12" fill="none" stroke="#8f9192" stroke-linecap="round" stroke-miterlimit="10" stroke-width="0.5"/>
          <line y1="48" x2="48" fill="none" stroke="#8f9192" stroke-linecap="round" stroke-miterlimit="10" stroke-width="0.5"/>
        </g>
        <g>
          <line y1="36" x2="36" fill="none" stroke="#8f9192" stroke-linecap="round" stroke-miterlimit="10" stroke-width="0.5"/>
          <line y1="24" x2="24" fill="none" stroke="#8f9192" stroke-linecap="round" stroke-miterlimit="10" stroke-width="0.5"/>
          <line y1="12" x2="12" fill="none" stroke="#8f9192" stroke-linecap="round" stroke-miterlimit="10" stroke-width="0.5"/>
        </g>
        <g>
          <line x1="36" y1="42" x2="48" y2="30" fill="none" stroke="#8f9192" stroke-linecap="round" stroke-miterlimit="10" stroke-width="0.5"/>
          <line x1="24" y1="42" x2="48" y2="18" fill="none" stroke="#8f9192" stroke-linecap="round" stroke-miterlimit="10" stroke-width="0.5"/>
          <line x1="12" y1="42" x2="48" y2="6" fill="none" stroke="#8f9192" stroke-linecap="round" stroke-miterlimit="10" stroke-width="0.5"/>
          <line y1="42" x2="48" y2="-6" fill="none" stroke="#8f9192" stroke-linecap="round" stroke-miterlimit="10" stroke-width="0.5"/>
        </g>
        <g>
          <line y1="30" x2="36" y2="-6" fill="none" stroke="#8f9192" stroke-linecap="round" stroke-miterlimit="10" stroke-width="0.5"/>
          <line y1="18" x2="24" y2="-6" fill="none" stroke="#8f9192" stroke-linecap="round" stroke-miterlimit="10" stroke-width="0.5"/>
          <line y1="6" x2="12" y2="-6" fill="none" stroke="#8f9192" stroke-linecap="round" stroke-miterlimit="10" stroke-width="0.5"/>
        </g>
      </g>
      <g>
        <g>
          <line x1="-12" y1="48" y2="36" fill="none" stroke="#8f9192" stroke-linecap="round" stroke-miterlimit="10" stroke-width="0.5"/>
          <line x1="-24" y1="48" y2="24" fill="none" stroke="#8f9192" stroke-linecap="round" stroke-miterlimit="10" stroke-width="0.5"/>
          <line x1="-36" y1="48" y2="12" fill="none" stroke="#8f9192" stroke-linecap="round" stroke-miterlimit="10" stroke-width="0.5"/>
          <line x1="-48" y1="48" fill="none" stroke="#8f9192" stroke-linecap="round" stroke-miterlimit="10" stroke-width="0.5"/>
        </g>
        <g>
          <line x1="-12" y1="42" y2="30" fill="none" stroke="#8f9192" stroke-linecap="round" stroke-miterlimit="10" stroke-width="0.5"/>
          <line x1="-24" y1="42" y2="18" fill="none" stroke="#8f9192" stroke-linecap="round" stroke-miterlimit="10" stroke-width="0.5"/>
          <line x1="-36" y1="42" y2="6" fill="none" stroke="#8f9192" stroke-linecap="round" stroke-miterlimit="10" stroke-width="0.5"/>
          <line x1="-48" y1="42" y2="-6" fill="none" stroke="#8f9192" stroke-linecap="round" stroke-miterlimit="10" stroke-width="0.5"/>
        </g>
      </g>
      <line x1="48" x2="96" y2="-48" fill="none" stroke="#8f9192" stroke-linecap="round" stroke-miterlimit="10" stroke-width="0.5"/>
      <g>
        <line x1="36" x2="48" y2="-12" fill="none" stroke="#8f9192" stroke-linecap="round" stroke-miterlimit="10" stroke-width="0.5"/>
        <line x1="24" x2="48" y2="-24" fill="none" stroke="#8f9192" stroke-linecap="round" stroke-miterlimit="10" stroke-width="0.5"/>
        <line x1="12" x2="48" y2="-36" fill="none" stroke="#8f9192" stroke-linecap="round" stroke-miterlimit="10" stroke-width="0.5"/>
        <line x2="48" y2="-48" fill="none" stroke="#8f9192" stroke-linecap="round" stroke-miterlimit="10" stroke-width="0.5"/>
      </g>
      <g>
        <line x1="-12" y2="-12" fill="none" stroke="#8f9192" stroke-linecap="round" stroke-miterlimit="10" stroke-width="0.5"/>
        <line x1="-24" y2="-24" fill="none" stroke="#8f9192" stroke-linecap="round" stroke-miterlimit="10" stroke-width="0.5"/>
        <line x1="-36" y2="-36" fill="none" stroke="#8f9192" stroke-linecap="round" stroke-miterlimit="10" stroke-width="0.5"/>
        <line x1="-48" y2="-48" fill="none" stroke="#8f9192" stroke-linecap="round" stroke-miterlimit="10" stroke-width="0.5"/>
      </g>
    </pattern>
  </defs>
  <g id="Layer_2" data-name="Layer 2">
    <g id="Layer_1-2" data-name="Layer 1">
      <g>
        <g>
          <path d="M160,80h59.383a15.184,15.184,0,0,1,15.184,15.184V280.569a15.184,15.184,0,0,0,15.183,15.184h50.524" fill="none" stroke="#8f9192" stroke-miterlimit="10"/>
          <polygon points="298.292 298.658 309.133 295.753 298.292 292.848 298.292 298.658" fill="#8f9192"/>
        </g>
        <circle cx="389.133" cy="80" r="80" fill="#1ea2b1"/>
        <circle cx="80" cy="80" r="80" fill="#e3e000"/>
        <g>
          <path d="M361.392,81.2v5.215h-3.411V71.541h5.435c3.521,0,5.522,1.672,5.522,4.841,0,3.146-2,4.818-5.522,4.818Zm0-2.75h1.76c1.672,0,2.266-.792,2.266-2.068,0-1.255-.594-2.091-2.266-2.091h-1.76Z" fill="#fff"/>
          <path d="M373.382,77.943A2.928,2.928,0,0,1,376,76.161a4.265,4.265,0,0,1,1.1.133l-.2,3.3a7.52,7.52,0,0,0-1.738-.22,1.931,1.931,0,0,0-1.673.858v6.183h-3.124V76.382h2.992v1.561Z" fill="#fff"/>
          <path d="M387.6,81.376c0,3.081-1.563,5.281-4.907,5.281-3.168,0-4.775-2.244-4.775-5.215,0-3.1,1.519-5.281,4.885-5.281C385.988,76.161,387.6,78.34,387.6,81.376Zm-3.168.066c0-1.738-.572-2.486-1.717-2.486-1.078,0-1.628.748-1.628,2.42,0,1.761.572,2.486,1.672,2.486S384.427,83.07,384.427,81.442Z" fill="#fff"/>
          <path d="M387.549,89.451a3.691,3.691,0,0,0,1.738-2.794V76.382h3.146v9.593a6.15,6.15,0,0,1-2.97,5.413Zm1.473-16.414a1.647,1.647,0,0,1,1.827-1.76,1.676,1.676,0,0,1,1.782,1.76,1.617,1.617,0,0,1-1.782,1.716C389.814,74.753,389.022,74.291,389.022,73.037Z" fill="#fff"/>
          <path d="M401.586,83.181l1.43,2a5.463,5.463,0,0,1-3.763,1.474c-3.565,0-5.127-2.2-5.127-5.259,0-2.794,1.65-5.237,4.775-5.237,3.212,0,4.357,2.245,4.357,4.423a8.922,8.922,0,0,1-.176,1.826h-5.81c.067,1.034.771,1.629,1.981,1.629A3.977,3.977,0,0,0,401.586,83.181Zm-1.211-2.949a1.5,1.5,0,0,0,.022-.264,1.328,1.328,0,0,0-1.5-1.342,1.567,1.567,0,0,0-1.629,1.606Z" fill="#fff"/>
          <path d="M409.241,76.161a4.292,4.292,0,0,1,4.181,2.333l-2.156,1.54a1.992,1.992,0,0,0-1.761-1.144c-1.32,0-1.826,1.056-1.826,2.508s.506,2.531,1.826,2.531a2.043,2.043,0,0,0,1.782-1.166l2.135,1.562a4.291,4.291,0,0,1-4.181,2.332c-3.411,0-4.731-2.486-4.731-5.259S405.83,76.161,409.241,76.161Z" fill="#fff"/>
          <path d="M418.943,82.917c0,.659.4.88.991.88a6.644,6.644,0,0,0,1.078-.11v2.706a9.24,9.24,0,0,1-2.179.264c-2.2,0-3.015-1.43-3.015-3.278V79h-1.782V76.6l1.782-.22v-2.4l3.125-.461v2.86h2.025V79h-2.025Z" fill="#fff"/>
        </g>
        <g>
          <circle cx="389.133" cy="300.032" r="80" fill="url(#New_Pattern_5)"/>
          <circle cx="389.133" cy="300.032" r="80" fill="none" stroke="#8f9192" stroke-miterlimit="10" stroke-width="0.5"/>
        </g>
        <g>
          <g>
            <path d="M326.464,298.753V279.23h7.262c6.333,0,9.68,3.375,9.68,9.761,0,6.3-3.438,9.762-9.68,9.762Z" fill="#39393a"/>
            <path d="M346.385,298.973c-4.557,0-7.5-3.054-7.5-7.781,0-4.57,2.977-7.761,7.241-7.761a6.612,6.612,0,0,1,6.861,6.961,10.4,10.4,0,0,1-.258,2.34l-.173.66,1.137,1.576-1.805,1.805A7.91,7.91,0,0,1,346.385,298.973Z" fill="#39393a"/>
            <path d="M354.824,298.973a7.656,7.656,0,0,1-6.056-2.658l-1.656-2.054,2.021-2.108a5.527,5.527,0,0,1-.709-2.782c0-2.952,2.315-5.94,6.74-5.94a7.347,7.347,0,0,1,5.661,2.322l1.871,2.057-1.9,2.015a5.45,5.45,0,0,1,.993,3.228C361.785,296,359.633,298.973,354.824,298.973Z" fill="#39393a"/>
            <path d="M357.464,298.753V285.219a4.794,4.794,0,0,1-.3-1.708,4.461,4.461,0,0,1,8.921,0,4.768,4.768,0,0,1-.2,1.389v13.853Z" fill="#39393a"/>
            <path d="M369.124,302.894c-4.659,0-6.78-3.122-6.78-6.021v-2.112a10.033,10.033,0,0,1-.641-3.589c0-4.7,2.685-7.741,6.841-7.741a7.027,7.027,0,0,1,1.7.2h6.022v12.682C376.266,300.126,373.262,302.894,369.124,302.894Zm1.047-12.093Z" fill="#39393a"/>
            <path d="M372.4,298.753V283.631h6.38a7.652,7.652,0,0,1,1.781-.2c3.719,0,6.122,2.6,6.122,6.621v8.7Z" fill="#39393a"/>
            <path d="M393.823,298.973c-4.644,0-6.688-2.556-7.493-4.079l-1.144-2.164,2.857-2.349a6.487,6.487,0,0,1-1.5-4.25c0-3.42,2.391-7.1,7.641-7.1a8,8,0,0,1,6.847,3.293l1.582,2.285-3,2.433a6.2,6.2,0,0,1,2.07,4.791C401.685,296.036,398.452,298.973,393.823,298.973Z" fill="#39393a"/>
            <polygon points="396.549 303.074 399.748 295.371 394.711 283.631 404.065 283.631 404.084 283.684 404.103 283.631 413.265 283.631 405.54 303.074 396.549 303.074" fill="#39393a"/>
            <path d="M412.943,298.973a7.658,7.658,0,0,1-6.056-2.658l-1.656-2.054,2.021-2.108a5.537,5.537,0,0,1-.709-2.782c0-2.952,2.315-5.94,6.74-5.94a7.343,7.343,0,0,1,5.66,2.322l1.871,2.057-1.9,2.015a5.45,5.45,0,0,1,.993,3.228C419.9,296,417.752,298.973,412.943,298.973Z" fill="#39393a"/>
            <path d="M422.063,298.973c-3.349,0-5.6-2.364-5.6-5.88v-1.421H414.8v-7.5l1.66-.2v-2.127l8.421-1.322v3.109h2.04v7.812l.119,6.263-1.947.761A9.076,9.076,0,0,1,422.063,298.973Z" fill="#39393a"/>
            <path d="M429.7,298.973c-4.556,0-7.5-3.054-7.5-7.781,0-4.57,2.978-7.761,7.241-7.761a6.613,6.613,0,0,1,6.862,6.961,10.4,10.4,0,0,1-.258,2.34l-.173.66,1.137,1.576-1.806,1.805A7.908,7.908,0,0,1,429.7,298.973Z" fill="#39393a"/>
            <path d="M432.042,298.753V283.631h6.3a6.408,6.408,0,0,1,1.6-.2,6.66,6.66,0,0,1,2.905.613,7.7,7.7,0,0,1,3.037-.613c3.861,0,6.261,2.46,6.261,6.421v8.9Z" fill="#39393a"/>
            <path d="M352.323,320.753V301.23h7.741c4.776,0,7.862,2.867,7.862,7.3,0,4.139-2.7,6.907-6.962,7.245v4.977Z" fill="#39393a"/>
            <path d="M368.384,320.973a5.485,5.485,0,0,1-5.68-5.66,5.84,5.84,0,0,1,.62-2.645l-.1-.509a6.475,6.475,0,0,1-.118-1.208c0-2.659,2.1-5.52,6.72-5.52,4.095,0,6.741,2.41,6.741,6.14v9.182H370.17A7.228,7.228,0,0,1,368.384,320.973Z" fill="#39393a"/>
            <path d="M379.145,320.973c-3.351,0-5.6-2.364-5.6-5.88v-1.421h-1.66v-7.5l1.66-.2v-2.127l8.421-1.322v3.109h2.04v7.812l.12,6.263-1.948.761A9.071,9.071,0,0,1,379.145,320.973Z" fill="#39393a"/>
            <path d="M386.185,320.973c-3.351,0-5.6-2.364-5.6-5.88v-1.421h-1.66v-7.5l1.66-.2v-2.127l8.421-1.322v3.109h2.04v7.812l.12,6.263-1.948.761A9.071,9.071,0,0,1,386.185,320.973Z" fill="#39393a"/>
            <path d="M393.823,320.973c-4.556,0-7.5-3.054-7.5-7.781,0-4.57,2.978-7.761,7.241-7.761a6.612,6.612,0,0,1,6.862,6.961,10.4,10.4,0,0,1-.258,2.34l-.173.66,1.137,1.576-1.806,1.805A7.908,7.908,0,0,1,393.823,320.973Z" fill="#39393a"/>
            <path d="M396.162,320.753V305.631h6.269a5.653,5.653,0,0,1,1.512-.2,7.05,7.05,0,0,1,1.814.221l2.392.639-.6,8.555-2.966-.7v6.61Z" fill="#39393a"/>
            <path d="M403.3,320.753V305.631h6.379a7.655,7.655,0,0,1,1.782-.2c3.719,0,6.121,2.6,6.121,6.621v8.7Z" fill="#39393a"/>
            <path d="M419.743,320.973a7.656,7.656,0,0,1-6.056-2.658l-1.656-2.054,2.021-2.108a5.527,5.527,0,0,1-.709-2.782c0-2.952,2.315-5.94,6.74-5.94a7.343,7.343,0,0,1,5.66,2.322l1.871,2.057-1.9,2.015a5.457,5.457,0,0,1,.993,3.228C426.7,318,424.552,320.973,419.743,320.973Z" fill="#39393a"/>
          </g>
          <g>
            <path d="M329.464,282.23h4.262c4.621,0,6.68,2.06,6.68,6.761,0,4.682-2.059,6.762-6.68,6.762h-4.262Zm4.1,11.363c3.081,0,4.122-1.141,4.122-4.6,0-3.36-1.041-4.6-4.122-4.6h-1.46v9.2Z" fill="#8f9192"/>
            <path d="M348.626,293.072l1.14,1.58a4.861,4.861,0,0,1-3.381,1.321c-3.16,0-4.5-2-4.5-4.781,0-2.581,1.421-4.761,4.241-4.761a3.635,3.635,0,0,1,3.861,3.961,7.535,7.535,0,0,1-.16,1.58h-5.5a1.86,1.86,0,0,0,2.06,1.94A3.593,3.593,0,0,0,348.626,293.072Zm-.921-2.82a2.316,2.316,0,0,0,.04-.3,1.5,1.5,0,0,0-1.62-1.581c-1.2,0-1.721.841-1.78,1.881Z" fill="#8f9192"/>
            <path d="M357.265,289.191a3.107,3.107,0,0,0-2.2-.94c-.839,0-1.24.4-1.24.881,0,.42.26.74.84.86l1.521.36c1.82.4,2.6,1.38,2.6,2.7,0,1.439-.98,2.92-3.961,2.92a4.614,4.614,0,0,1-3.72-1.54l1.38-1.441a3.284,3.284,0,0,0,2.441,1.181c.82,0,1.4-.3,1.4-.9,0-.4-.3-.719-.921-.86l-1.58-.38c-1.6-.4-2.4-1.341-2.4-2.661s.98-2.94,3.74-2.94a4.394,4.394,0,0,1,3.441,1.341Z" fill="#8f9192"/>
            <path d="M360.163,283.511a1.336,1.336,0,0,1,1.481-1.441,1.351,1.351,0,0,1,1.44,1.441,1.462,1.462,0,0,1-2.921,0Zm.3,3.12h2.42v9.122h-2.42Z" fill="#8f9192"/>
            <path d="M373.266,286.631v9.682c0,2.1-1.561,3.581-4.142,3.581-2.52,0-3.78-1.281-3.78-3.021h2.08c0,.54.58,1.1,1.7,1.1,1.1,0,1.7-.58,1.7-1.521v-1.46a3.255,3.255,0,0,1-2.261.98c-2.52,0-3.861-1.7-3.861-4.8,0-3.041,1.381-4.741,3.841-4.741a3.213,3.213,0,0,1,2.421.94v-.74Zm-4.142,7.1a2.5,2.5,0,0,0,1.7-.62v-3.881a2.539,2.539,0,0,0-1.7-.58c-1.519,0-1.979,1.061-1.979,2.521C367.145,292.612,367.584,293.732,369.124,293.732Z" fill="#8f9192"/>
            <path d="M375.4,286.631h2.341v1.04a3.239,3.239,0,0,1,2.82-1.24c2.061,0,3.122,1.26,3.122,3.621v5.7h-2.441v-5.421c0-1.1-.421-1.681-1.64-1.681a2.82,2.82,0,0,0-1.781.681v6.421H375.4Z" fill="#8f9192"/>
            <path d="M396.765,285.491a2.923,2.923,0,0,0-2.581-1.22,1.694,1.694,0,0,0-1.92,1.7c0,.8.4,1.3,1.4,1.62l1.721.52c2.421.76,3.3,2,3.3,3.721,0,2.621-2.04,4.141-4.862,4.141-2.98,0-4.28-1.42-4.841-2.481l1.8-1.48a2.978,2.978,0,0,0,3.04,1.72c1.381,0,2.141-.679,2.141-1.7,0-.84-.5-1.32-1.521-1.64l-1.7-.52c-2.36-.74-3.2-2.06-3.2-3.741,0-2.1,1.32-4.1,4.641-4.1a4.966,4.966,0,0,1,4.38,2Z" fill="#8f9192"/>
            <path d="M404.2,292.572l2.04-5.941h2.6L403.5,300.074h-2.461L403,295.353l-3.741-8.722h2.72Z" fill="#8f9192"/>
            <path d="M415.384,289.191a3.106,3.106,0,0,0-2.2-.94c-.84,0-1.241.4-1.241.881,0,.42.26.74.84.86l1.521.36c1.82.4,2.6,1.38,2.6,2.7,0,1.439-.98,2.92-3.961,2.92a4.614,4.614,0,0,1-3.72-1.54l1.381-1.441a3.28,3.28,0,0,0,2.44,1.181c.82,0,1.4-.3,1.4-.9,0-.4-.3-.719-.921-.86l-1.58-.38c-1.6-.4-2.4-1.341-2.4-2.661s.98-2.94,3.74-2.94a4.4,4.4,0,0,1,3.442,1.341Z" fill="#8f9192"/>
            <path d="M421.884,292.752a.874.874,0,0,0,1,.98,4.113,4.113,0,0,0,1.08-.16l.04,2.1a6.088,6.088,0,0,1-1.941.3c-1.88,0-2.6-1.22-2.6-2.88v-4.421H417.8v-1.841l1.66-.2V284.41l2.421-.38v2.6h2.04v2.041h-2.04Z" fill="#8f9192"/>
            <path d="M431.944,293.072l1.14,1.58a4.859,4.859,0,0,1-3.381,1.321c-3.16,0-4.5-2-4.5-4.781,0-2.581,1.421-4.761,4.241-4.761a3.636,3.636,0,0,1,3.862,3.961,7.6,7.6,0,0,1-.16,1.58h-5.5a1.86,1.86,0,0,0,2.059,1.94A3.59,3.59,0,0,0,431.944,293.072Zm-.921-2.82a2.316,2.316,0,0,0,.04-.3,1.5,1.5,0,0,0-1.62-1.581c-1.2,0-1.72.841-1.78,1.881Z" fill="#8f9192"/>
            <path d="M435.042,286.631h2.341v1.04a3.193,3.193,0,0,1,2.56-1.24,3.076,3.076,0,0,1,2.781,1.341,3.947,3.947,0,0,1,3.161-1.341c2.3,0,3.261,1.2,3.261,3.421v5.9h-2.441v-5.7c0-.88-.4-1.4-1.52-1.4a2.68,2.68,0,0,0-1.841.681v6.421h-2.42v-6.222a1.824,1.824,0,0,0-1.681-.88,2.8,2.8,0,0,0-1.78.681v6.421h-2.421Z" fill="#8f9192"/>
            <path d="M357.964,312.812v4.941h-2.641V304.23h4.741c3.162,0,4.862,1.541,4.862,4.3,0,2.741-1.7,4.281-4.862,4.281Zm0-2.14h1.9c1.741,0,2.341-.841,2.341-2.141,0-1.28-.6-2.14-2.341-2.14h-1.9Z" fill="#8f9192"/>
            <path d="M371.285,317.753v-1.061a3.682,3.682,0,0,1-2.9,1.281,2.5,2.5,0,0,1-2.68-2.66c0-2,1.72-2.881,4.421-3.061l1-.08v-.58c0-.761-.32-1.261-1.461-1.261-.939,0-1.4.38-1.4.881v.359h-2.1a3.41,3.41,0,0,1-.06-.62c0-1.5,1.42-2.52,3.72-2.52,2.241,0,3.741.94,3.741,3.14v6.182Zm-1.98-1.62a2.672,2.672,0,0,0,1.82-.78v-1.721l-.98.14c-1.3.18-1.981.6-1.981,1.38C368.164,315.793,368.584,316.133,369.305,316.133Z" fill="#8f9192"/>
            <path d="M378.965,314.752a.874.874,0,0,0,1,.98,4.113,4.113,0,0,0,1.08-.16l.04,2.1a6.086,6.086,0,0,1-1.94.3c-1.881,0-2.6-1.22-2.6-2.88v-4.421h-1.66v-1.841l1.66-.2V306.41l2.421-.38v2.6h2.04v2.041h-2.04Z" fill="#8f9192"/>
            <path d="M386.005,314.752a.874.874,0,0,0,1,.98,4.113,4.113,0,0,0,1.08-.16l.04,2.1a6.086,6.086,0,0,1-1.94.3c-1.881,0-2.6-1.22-2.6-2.88v-4.421h-1.66v-1.841l1.66-.2V306.41l2.421-.38v2.6h2.04v2.041h-2.04Z" fill="#8f9192"/>
            <path d="M396.064,315.072l1.14,1.58a4.859,4.859,0,0,1-3.381,1.321c-3.16,0-4.5-2-4.5-4.781,0-2.581,1.421-4.761,4.241-4.761a3.636,3.636,0,0,1,3.862,3.961,7.6,7.6,0,0,1-.16,1.58h-5.5a1.86,1.86,0,0,0,2.059,1.94A3.59,3.59,0,0,0,396.064,315.072Zm-.92-2.82a2.508,2.508,0,0,0,.04-.3,1.5,1.5,0,0,0-1.621-1.581c-1.2,0-1.719.841-1.78,1.881Z" fill="#8f9192"/>
            <path d="M401.5,310.071a2.738,2.738,0,0,1,2.44-1.64,4.122,4.122,0,0,1,1.04.12l-.179,2.56a7.191,7.191,0,0,0-1.461-.179,1.953,1.953,0,0,0-1.76,1.08v5.741h-2.421v-9.122h2.32v1.44Z" fill="#8f9192"/>
            <path d="M406.3,308.631h2.341v1.04a3.237,3.237,0,0,1,2.82-1.24c2.06,0,3.121,1.26,3.121,3.621v5.7h-2.44v-5.421c0-1.1-.421-1.681-1.641-1.681a2.817,2.817,0,0,0-1.78.681v6.421H406.3Z" fill="#8f9192"/>
            <path d="M422.184,311.191a3.107,3.107,0,0,0-2.2-.94c-.839,0-1.24.4-1.24.881,0,.42.26.74.84.86l1.521.36c1.82.4,2.6,1.38,2.6,2.7,0,1.439-.98,2.92-3.961,2.92a4.618,4.618,0,0,1-3.721-1.54l1.381-1.441a3.284,3.284,0,0,0,2.441,1.181c.82,0,1.4-.3,1.4-.9,0-.4-.3-.719-.921-.86l-1.58-.38c-1.6-.4-2.4-1.341-2.4-2.661s.98-2.94,3.74-2.94a4.394,4.394,0,0,1,3.441,1.341Z" fill="#8f9192"/>
          </g>
        </g>
        <g>
          <path d="M40.917,58.941h4.907c5.083,0,7.481,2.311,7.481,7.437s-2.4,7.437-7.481,7.437H40.917ZM45.6,71.065c3.08,0,4.181-1.122,4.181-4.687,0-3.454-1.1-4.687-4.181-4.687H44.328v9.374Z" fill="#39393a"/>
          <path d="M62.148,70.581l1.431,2a5.462,5.462,0,0,1-3.763,1.475c-3.565,0-5.127-2.2-5.127-5.259,0-2.8,1.65-5.237,4.775-5.237,3.212,0,4.357,2.245,4.357,4.422a8.933,8.933,0,0,1-.176,1.827h-5.81c.067,1.034.771,1.628,1.981,1.628A3.966,3.966,0,0,0,62.148,70.581Zm-1.21-2.948a1.51,1.51,0,0,0,.022-.265,1.328,1.328,0,0,0-1.5-1.342,1.568,1.568,0,0,0-1.629,1.607Z" fill="#39393a"/>
          <path d="M71.7,66.885a3.373,3.373,0,0,0-2.355-1.034c-.7,0-1.078.307-1.078.7,0,.374.265.66.748.769l1.673.374c2.068.462,2.882,1.607,2.882,3.059,0,1.54-.989,3.3-4.51,3.3a5.39,5.39,0,0,1-4.224-1.7l1.738-1.848a3.735,3.735,0,0,0,2.618,1.276c.7,0,1.21-.242,1.21-.726,0-.308-.2-.616-.771-.748L67.912,69.9c-1.827-.439-2.75-1.5-2.75-3.013,0-1.475,1.1-3.323,4.312-3.323a5,5,0,0,1,3.895,1.5Z" fill="#39393a"/>
          <path d="M74.863,60.438a1.63,1.63,0,0,1,1.8-1.76,1.676,1.676,0,0,1,1.782,1.76,1.617,1.617,0,0,1-1.782,1.715A1.577,1.577,0,0,1,74.863,60.438Zm.285,3.344h3.125V73.815H75.148Z" fill="#39393a"/>
          <path d="M89.736,63.782V74.344c0,2.42-1.782,4.049-4.731,4.049-2.838,0-4.268-1.387-4.268-3.455H83.4c0,.5.507,1.034,1.606,1.034,1.057,0,1.607-.485,1.607-1.409V73.089a3.647,3.647,0,0,1-2.355.969c-2.684,0-4.247-1.761-4.247-5.282,0-3.432,1.585-5.214,4.225-5.214a3.6,3.6,0,0,1,2.575.946v-.726ZM85.028,71.2a3.119,3.119,0,0,0,1.584-.418v-4a3.281,3.281,0,0,0-1.584-.352c-1.452,0-1.871.99-1.871,2.354S83.553,71.2,85.028,71.2Z" fill="#39393a"/>
          <path d="M91.8,63.782h3.015V64.9a3.274,3.274,0,0,1,2.992-1.342c2.156,0,3.389,1.408,3.389,4.048v6.2H98.073V67.984c0-1.034-.44-1.562-1.584-1.562a3.215,3.215,0,0,0-1.563.528v6.865H91.8Z" fill="#39393a"/>
          <path d="M119.392,67.391l-1.717,2.31c-.132.2-.286.4-.439.594l3.036,3.3v.219h-3.433L115.475,72.3a6.421,6.421,0,0,1-4.467,1.761c-2.662,0-4.312-1.475-4.312-3.7,0-2.112,1.694-3.388,3.058-4.335l.088-.066-.088-.109c-.66-.7-1.87-1.871-1.87-3.345,0-2.068,1.628-3.807,4.4-3.807a3.954,3.954,0,0,1,4.247,3.807c0,1.474-1.1,2.684-2.8,3.938l1.629,1.8.2-.265,1.65-2.2Zm-5.721,2.881-2.046-2.309-.264.176c-1.013.77-1.717,1.21-1.717,2.112a1.262,1.262,0,0,0,1.364,1.21A3.789,3.789,0,0,0,113.671,70.272Zm-1.76-5.83.044.066.087-.066c.991-.726,1.563-1.254,1.563-1.936a1.31,1.31,0,0,0-1.32-1.233,1.335,1.335,0,0,0-1.452,1.233A2.915,2.915,0,0,0,111.911,64.442Z" fill="#39393a"/>
          <path d="M20.557,80.941h4.906c5.083,0,7.482,2.311,7.482,7.437s-2.4,7.437-7.482,7.437H20.557Zm4.687,12.124c3.08,0,4.18-1.122,4.18-4.687,0-3.454-1.1-4.687-4.18-4.687H23.967v9.374Z" fill="#39393a"/>
          <path d="M41.789,92.581l1.429,2a5.461,5.461,0,0,1-3.762,1.475c-3.565,0-5.127-2.2-5.127-5.259,0-2.8,1.65-5.237,4.775-5.237,3.212,0,4.356,2.245,4.356,4.422a8.938,8.938,0,0,1-.175,1.827h-5.81c.067,1.034.771,1.628,1.981,1.628A3.971,3.971,0,0,0,41.789,92.581Zm-1.211-2.948a1.51,1.51,0,0,0,.022-.265,1.328,1.328,0,0,0-1.5-1.342,1.567,1.567,0,0,0-1.629,1.607Z" fill="#39393a"/>
          <path d="M54.834,85.782,51.292,95.815H47.53L43.921,85.782h3.344l2.135,7,2.112-7Z" fill="#39393a"/>
          <path d="M62.732,92.581l1.43,2A5.463,5.463,0,0,1,60.4,96.058c-3.565,0-5.127-2.2-5.127-5.259,0-2.8,1.65-5.237,4.775-5.237,3.212,0,4.357,2.245,4.357,4.422a8.933,8.933,0,0,1-.176,1.827h-5.81c.067,1.034.771,1.628,1.981,1.628A3.971,3.971,0,0,0,62.732,92.581Zm-1.211-2.948a1.51,1.51,0,0,0,.022-.265,1.328,1.328,0,0,0-1.5-1.342,1.568,1.568,0,0,0-1.629,1.607Z" fill="#39393a"/>
          <path d="M69.111,80.633V92.339c0,.55.2.726.792.726h.44v2.882H68.8c-2.177,0-2.816-1.408-2.816-3.1V80.633Z" fill="#39393a"/>
          <path d="M81.145,90.776c0,3.081-1.562,5.282-4.906,5.282-3.169,0-4.776-2.245-4.776-5.215,0-3.1,1.519-5.281,4.885-5.281C79.539,85.562,81.145,87.74,81.145,90.776Zm-3.168.067c0-1.738-.572-2.487-1.717-2.487-1.078,0-1.628.749-1.628,2.42,0,1.761.573,2.487,1.672,2.487S77.977,92.471,77.977,90.843Z" fill="#39393a"/>
          <path d="M85.94,100.568H82.816V85.782h2.971v.77a3.98,3.98,0,0,1,2.728-.99c2.574,0,4.136,1.871,4.136,5.281,0,3.322-1.518,5.215-4.158,5.215A3.932,3.932,0,0,1,85.94,95.2Zm1.629-12.146a3.013,3.013,0,0,0-1.629.419V92.8a3.257,3.257,0,0,0,1.629.4c1.452,0,1.914-.99,1.914-2.354S89.042,88.422,87.569,88.422Z" fill="#39393a"/>
          <path d="M94.366,85.782H97.38V86.9a3.269,3.269,0,0,1,2.729-1.342,3.319,3.319,0,0,1,2.992,1.452,4.281,4.281,0,0,1,3.5-1.452c2.53,0,3.587,1.32,3.587,3.762v6.491H107.04v-6.2c0-.725-.374-1.188-1.431-1.188a3.023,3.023,0,0,0-1.738.528v6.865h-3.124v-6.6a1.78,1.78,0,0,0-1.584-.793,3.025,3.025,0,0,0-1.673.528v6.865H94.366Z" fill="#39393a"/>
          <path d="M119.226,92.581l1.431,2a5.462,5.462,0,0,1-3.763,1.475c-3.564,0-5.127-2.2-5.127-5.259,0-2.8,1.65-5.237,4.775-5.237,3.212,0,4.357,2.245,4.357,4.422a8.863,8.863,0,0,1-.176,1.827h-5.809c.066,1.034.77,1.628,1.98,1.628A3.966,3.966,0,0,0,119.226,92.581Zm-1.21-2.948a1.446,1.446,0,0,0,.023-.265,1.328,1.328,0,0,0-1.5-1.342,1.566,1.566,0,0,0-1.628,1.607Z" fill="#39393a"/>
          <path d="M122.547,85.782h3.015V86.9a3.274,3.274,0,0,1,2.992-1.342c2.156,0,3.389,1.408,3.389,4.048v6.2h-3.125V89.984c0-1.034-.44-1.562-1.584-1.562a3.215,3.215,0,0,0-1.563.528v6.865h-3.124Z" fill="#39393a"/>
          <path d="M138.1,92.317c0,.66.4.88.99.88a6.633,6.633,0,0,0,1.078-.11v2.706a9.222,9.222,0,0,1-2.178.265c-2.2,0-3.015-1.431-3.015-3.279V88.4H133.2V86l1.782-.22v-2.4l3.125-.462v2.86h2.024V88.4H138.1Z" fill="#39393a"/>
        </g>
        <g>
          <line x1="160" y1="80" x2="291.414" y2="80" fill="none" stroke="#e3e000" stroke-miterlimit="10" stroke-width="4"/>
          <polygon points="287.451 85.811 309.133 80 287.451 74.189 287.451 85.811" fill="#e3e000"/>
        </g>
      </g>
    </g>
  </g>
</svg>
