<svg xmlns="http://www.w3.org/2000/svg" width="128" height="128" viewBox="0 0 128 128">
  <g id="Layer_2" data-name="Layer 2">
    <g id="Layer_1-2" data-name="Layer 1">
      <g>
        <polyline points="90 99.99 90 100 89.99 100" fill="none" stroke="#e3e000" stroke-linecap="square" stroke-miterlimit="10" stroke-width="4"/>
        <line x1="82.58" y1="100" x2="41.715" y2="100" fill="none" stroke="#e3e000" stroke-linecap="square" stroke-miterlimit="10" stroke-width="4" stroke-dasharray="0.019 7.41"/>
        <polyline points="38.01 100 38 100 38 99.99" fill="none" stroke="#e3e000" stroke-linecap="square" stroke-miterlimit="10" stroke-width="4"/>
        <line x1="38" y1="92.01" x2="38" y2="32" fill="none" stroke="#e3e000" stroke-linecap="square" stroke-miterlimit="10" stroke-width="4" stroke-dasharray="0.02 7.98"/>
        <polyline points="38 28.01 38 28 38.01 28" fill="none" stroke="#e3e000" stroke-linecap="square" stroke-miterlimit="10" stroke-width="4"/>
        <line x1="45.42" y1="28" x2="86.285" y2="28" fill="none" stroke="#e3e000" stroke-linecap="square" stroke-miterlimit="10" stroke-width="4" stroke-dasharray="0.019 7.41"/>
        <polyline points="89.99 28 90 28 90 28.01" fill="none" stroke="#e3e000" stroke-linecap="square" stroke-miterlimit="10" stroke-width="4"/>
        <line x1="90" y1="35.99" x2="90" y2="96" fill="none" stroke="#e3e000" stroke-linecap="square" stroke-miterlimit="10" stroke-width="4" stroke-dasharray="0.02 7.98"/>
      </g>
      <g>
        <line x1="46" y1="20" x2="46.01" y2="20" fill="none" stroke="#e3e000" stroke-linecap="square" stroke-miterlimit="10" stroke-width="4"/>
        <line x1="53.42" y1="20" x2="94.285" y2="20" fill="none" stroke="#e3e000" stroke-linecap="square" stroke-miterlimit="10" stroke-width="4" stroke-dasharray="0.019 7.41"/>
        <polyline points="97.99 20 98 20 98 20.01" fill="none" stroke="#e3e000" stroke-linecap="square" stroke-miterlimit="10" stroke-width="4"/>
        <line x1="98" y1="27.99" x2="98" y2="88" fill="none" stroke="#e3e000" stroke-linecap="square" stroke-miterlimit="10" stroke-width="4" stroke-dasharray="0.02 7.98"/>
        <line x1="98" y1="91.99" x2="98" y2="92" fill="none" stroke="#e3e000" stroke-linecap="square" stroke-miterlimit="10" stroke-width="4"/>
      </g>
      <rect width="128" height="128" fill="none" opacity="0.33"/>
    </g>
  </g>
</svg>
